<svg width="20" height="25" viewBox="0 0 20 25" fill="none" xmlns="http://www.w3.org/2000/svg">
<path d="M8.3331 2.84537V12.5003C8.3331 12.7213 8.2453 12.9333 8.08903 13.0895C7.93275 13.2458 7.7208 13.3336 7.49979 13.3336C7.27878 13.3336 7.06682 13.2458 6.91055 13.0895C6.75427 12.9333 6.66648 12.7213 6.66648 12.5003V2.84537L4.75612 4.75677C4.59975 4.91313 4.38768 5.00098 4.16655 5.00098C3.94542 5.00098 3.73334 4.91313 3.57698 4.75677C3.42062 4.60041 3.33278 4.38833 3.33278 4.1672C3.33278 3.94607 3.42062 3.734 3.57698 3.57764L6.91022 0.244399C6.98761 0.16692 7.07952 0.105456 7.18068 0.0635207C7.28184 0.0215849 7.39028 0 7.49979 0C7.6093 0 7.71773 0.0215849 7.8189 0.0635207C7.92006 0.105456 8.01196 0.16692 8.08935 0.244399L11.4226 3.57764C11.579 3.734 11.6668 3.94607 11.6668 4.1672C11.6668 4.38833 11.579 4.60041 11.4226 4.75677C11.2662 4.91313 11.0542 5.00098 10.833 5.00098C10.6119 5.00098 10.3998 4.91313 10.2435 4.75677L8.3331 2.84537ZM14.9996 12.0441V9.16706C14.9996 8.72505 14.824 8.30114 14.5114 7.98859C14.1989 7.67603 13.775 7.50044 13.333 7.50044H11.6663C11.4453 7.50044 11.2334 7.58824 11.0771 7.74451C10.9208 7.90079 10.833 8.11275 10.833 8.33375C10.833 8.55476 10.9208 8.76672 11.0771 8.92299C11.2334 9.07927 11.4453 9.16706 11.6663 9.16706H13.333V17.5418C12.836 17.0342 12.1709 16.7253 11.4624 16.6733C10.7539 16.6213 10.0508 16.8296 9.48498 17.2592C8.9192 17.6888 8.52967 18.3102 8.3895 19.0066C8.24934 19.703 8.36818 20.4267 8.72371 21.0417L8.74871 21.0813L11.0674 24.6229C11.1884 24.8078 11.3779 24.9371 11.5943 24.9824C11.8106 25.0276 12.0361 24.985 12.221 24.864C12.406 24.743 12.5353 24.5535 12.5805 24.3371C12.6257 24.1208 12.5831 23.8954 12.4621 23.7104L10.157 20.1907C9.9936 19.9022 9.95151 19.5605 10.04 19.2409C10.1285 18.9213 10.3403 18.65 10.6289 18.4866C10.9174 18.3232 11.2591 18.2811 11.5787 18.3696C11.8982 18.4581 12.1696 18.6699 12.333 18.9585C12.3403 18.972 12.3486 18.9855 12.3569 18.998L13.4694 20.6969C13.5677 20.8469 13.7118 20.9612 13.8803 21.0227C14.0487 21.0842 14.2325 21.0898 14.4044 21.0386C14.5762 20.9873 14.727 20.882 14.8342 20.7383C14.9414 20.5945 14.9994 20.42 14.9996 20.2407V14.1669C15.785 14.894 16.4123 15.775 16.8424 16.7551C17.2725 17.7352 17.4962 18.7933 17.4995 19.8636V24.1666C17.4995 24.3876 17.5873 24.5996 17.7436 24.7559C17.8999 24.9122 18.1118 24.9999 18.3328 24.9999C18.5538 24.9999 18.7658 24.9122 18.9221 24.7559C19.0783 24.5996 19.1661 24.3876 19.1661 24.1666V19.8595C19.1614 18.3158 18.7793 16.7967 18.0531 15.4345C17.3269 14.0723 16.2786 12.9084 14.9996 12.0441ZM3.33324 7.50044H1.66662C1.2246 7.50044 0.800693 7.67603 0.488141 7.98859C0.17559 8.30114 0 8.72505 0 9.16706V20.0001C0 20.2211 0.087795 20.4331 0.244071 20.5893C0.400347 20.7456 0.612302 20.8334 0.83331 20.8334C1.05432 20.8334 1.26627 20.7456 1.42255 20.5893C1.57882 20.4331 1.66662 20.2211 1.66662 20.0001V9.16706H3.33324C3.55425 9.16706 3.7662 9.07927 3.92248 8.92299C4.07875 8.76672 4.16655 8.55476 4.16655 8.33375C4.16655 8.11275 4.07875 7.90079 3.92248 7.74451C3.7662 7.58824 3.55425 7.50044 3.33324 7.50044Z" fill="black"/>
</svg>
