<svg width="200" height="189" viewBox="0 0 200 189" fill="none" xmlns="http://www.w3.org/2000/svg">
<path d="M71.3828 33.4381L67.411 31.1899C67.6278 29.3442 67.6278 27.4795 67.411 25.6338L71.3828 23.3856C71.4789 23.3312 71.5554 23.2479 71.6013 23.1475C71.6472 23.047 71.6601 22.9347 71.6383 22.8264C71.2042 20.6653 70.5207 18.5619 69.6017 16.5583C69.5556 16.4581 69.4791 16.375 69.383 16.3208C69.2869 16.2666 69.1762 16.2442 69.0666 16.2567L64.5314 16.7719C63.6222 15.151 62.526 13.6422 61.2654 12.2766L63.1503 8.1226C63.1958 8.02236 63.2085 7.91033 63.1867 7.80243C63.1649 7.69453 63.1097 7.59624 63.0288 7.52154C61.4085 6.02715 59.6195 4.7269 57.6979 3.64716C57.6017 3.59302 57.4909 3.57066 57.3812 3.58326C57.2716 3.59586 57.1688 3.64278 57.0874 3.71732L53.7219 6.79902C52.0334 6.02211 50.2597 5.44575 48.437 5.08173L47.525 0.610475C47.5036 0.501781 47.4483 0.402674 47.367 0.32741C47.2857 0.252145 47.1826 0.204603 47.0726 0.191622C44.8831 -0.063874 42.6714 -0.063874 40.482 0.191622C40.3719 0.204603 40.2689 0.252145 40.1876 0.32741C40.1063 0.402674 40.051 0.501781 40.0296 0.610475L39.1175 5.08173C37.2949 5.44576 35.5212 6.02213 33.8327 6.79902L30.4714 3.71208C30.39 3.63754 30.2871 3.59062 30.1775 3.57802C30.0679 3.56542 29.9571 3.58779 29.8609 3.64192C27.9395 4.72196 26.1504 6.02219 24.5299 7.51631C24.4491 7.59101 24.3938 7.68929 24.372 7.79719C24.3502 7.9051 24.363 8.01713 24.4085 8.11736L26.2933 12.2713C25.0357 13.6373 23.9427 15.146 23.0367 16.7667L18.5016 16.2515C18.392 16.239 18.2813 16.2614 18.1852 16.3156C18.0891 16.3697 18.0126 16.4528 17.9665 16.5531C17.0468 18.5564 16.3633 20.6599 15.9299 22.8212C15.9083 22.9293 15.9214 23.0414 15.9672 23.1416C16.0131 23.2418 16.0894 23.325 16.1854 23.3793L20.1571 25.6296C19.9404 27.4753 19.9404 29.34 20.1571 31.1857L16.1822 33.4381C16.0859 33.4925 16.0093 33.576 15.9634 33.6766C15.9175 33.7773 15.9047 33.8899 15.9267 33.9983C16.3597 36.1594 17.0432 38.2626 17.9634 40.2654C18.0086 40.3662 18.085 40.4499 18.1813 40.5042C18.2776 40.5584 18.3888 40.5804 18.4985 40.5669L23.0336 40.0517C23.9425 41.6732 25.0387 43.1823 26.2996 44.5481L24.4148 48.7021C24.3693 48.8023 24.3565 48.9144 24.3783 49.0223C24.4001 49.1302 24.4554 49.2285 24.5362 49.3032C26.1569 50.7971 27.9459 52.0973 29.8672 53.1775C29.9632 53.2318 30.074 53.2544 30.1836 53.2419C30.2933 53.2295 30.3962 53.1828 30.4777 53.1084L33.8431 50.0246C35.5315 50.8018 37.3053 51.3782 39.128 51.7419L40.0401 56.2142C40.0615 56.3231 40.117 56.4223 40.1985 56.4976C40.28 56.5729 40.3833 56.6203 40.4935 56.6331C42.6823 56.8881 44.8932 56.8881 47.082 56.6331C47.1922 56.6203 47.2955 56.5729 47.377 56.4976C47.4585 56.4223 47.514 56.3231 47.5354 56.2142L48.4475 51.7419C50.2703 51.3784 52.0441 50.802 53.7324 50.0246L57.0978 53.1084C57.1793 53.1828 57.2822 53.2295 57.3919 53.2419C57.5015 53.2544 57.6123 53.2318 57.7083 53.1775C59.6296 52.0973 61.4187 50.7971 63.0393 49.3032C63.1201 49.2285 63.1754 49.1302 63.1972 49.0223C63.219 48.9144 63.2063 48.8023 63.1607 48.7021L61.2759 44.5481C62.5365 43.1821 63.6327 41.673 64.5419 40.0517L69.077 40.5669C69.1866 40.5794 69.2974 40.557 69.3935 40.5029C69.4895 40.4487 69.5661 40.3656 69.6121 40.2654C70.5315 38.2623 71.215 36.1591 71.6488 33.9983C71.6699 33.8887 71.6555 33.7753 71.6077 33.6746C71.5598 33.5738 71.481 33.4909 71.3828 33.4381ZM50.8758 28.4118C50.8758 29.8147 50.4598 31.1862 49.6804 32.3526C48.9009 33.5191 47.7931 34.4283 46.497 34.9652C45.2009 35.502 43.7746 35.6425 42.3987 35.3688C41.0227 35.0951 39.7588 34.4195 38.7668 33.4275C37.7748 32.4355 37.0992 31.1716 36.8255 29.7957C36.5518 28.4197 36.6923 26.9935 37.2292 25.6973C37.7661 24.4012 38.6752 23.2934 39.8417 22.514C41.0082 21.7346 42.3796 21.3186 43.7825 21.3186C45.6632 21.3205 47.4662 22.0684 48.7961 23.3983C50.1259 24.7281 50.8738 26.5312 50.8758 28.4118Z" fill="black"/>
<path fill-rule="evenodd" clip-rule="evenodd" d="M115.176 0.635654C113.87 0.482777 112.551 0.482777 111.246 0.635654L110.649 3.56134C109.424 3.78801 108.234 4.1753 107.111 4.71318L104.912 2.69641C103.766 3.34095 102.699 4.11611 101.732 5.00638L102.969 7.72892C102.111 8.63153 101.376 9.64383 100.783 10.7394L97.8112 10.4012C97.2627 11.5959 96.8551 12.8505 96.5966 14.1395L99.1945 15.6055C99.0311 16.8402 99.0311 18.0911 99.1945 19.3259L96.5966 20.7982C96.8551 22.0872 97.2627 23.3417 97.8112 24.5364L100.779 24.1993C101.371 25.2947 102.107 26.3067 102.965 27.2087L101.728 29.9313C102.695 30.8219 103.762 31.5974 104.908 32.2423L107.107 30.2255C108.23 30.7634 109.42 31.1507 110.645 31.3773L111.242 34.303C112.547 34.4559 113.866 34.4559 115.172 34.303L115.768 31.3773C116.993 31.1507 118.183 30.7634 119.307 30.2255L121.506 32.2423C122.651 31.5976 123.718 30.8221 124.685 29.9313L123.448 27.2087C124.307 26.3067 125.042 25.2947 125.635 24.1993L128.602 24.5364C129.151 23.3417 129.558 22.0872 129.817 20.7982L127.226 19.3259C127.391 18.0912 127.391 16.8402 127.226 15.6055L129.825 14.1342C129.567 12.8452 129.159 11.5907 128.611 10.396L125.643 10.7331C125.05 9.63755 124.315 8.62525 123.457 7.72264L124.693 5.0001C123.727 4.10961 122.66 3.33442 121.514 2.69013L119.315 4.7069C118.191 4.16902 117.002 3.78173 115.777 3.55506L115.176 0.635654ZM113.21 12.8379C114.126 12.8377 115.021 13.1089 115.782 13.6174C116.543 14.1258 117.137 14.8486 117.487 15.6943C117.838 16.54 117.929 17.4706 117.751 18.3685C117.572 19.2664 117.132 20.0912 116.484 20.7386C115.837 21.3859 115.013 21.8268 114.115 22.0055C113.217 22.1842 112.286 22.0926 111.44 21.7423C110.595 21.392 109.872 20.7988 109.363 20.0377C108.855 19.2765 108.583 18.3816 108.583 17.4662C108.583 16.239 109.071 15.062 109.939 14.1942C110.806 13.3263 111.983 12.8384 113.21 12.8379Z" fill="#FFD997"/>
<path d="M130.083 20.3489L127.788 19.0473C127.903 17.9995 127.903 16.9422 127.788 15.8944L130.083 14.5949C130.179 14.5406 130.255 14.4574 130.301 14.3572C130.347 14.257 130.36 14.1449 130.338 14.0368C130.071 12.7079 129.649 11.4147 129.082 10.1834C129.037 10.0821 128.961 9.99791 128.865 9.94338C128.769 9.88885 128.658 9.86687 128.548 9.88073L125.93 10.1792C125.406 9.26413 124.784 8.40852 124.076 7.62731L125.169 5.22623C125.214 5.126 125.227 5.01397 125.205 4.90606C125.183 4.79816 125.128 4.69987 125.047 4.62518C124.051 3.70666 122.951 2.90721 121.77 2.24295C121.674 2.18882 121.563 2.16645 121.453 2.17905C121.344 2.19165 121.241 2.23857 121.159 2.31311L119.215 4.09324C118.253 3.66217 117.247 3.33568 116.216 3.1194L115.692 0.535082C115.671 0.426388 115.616 0.32728 115.534 0.252016C115.453 0.176752 115.35 0.12921 115.24 0.116229C113.894 -0.0387431 112.535 -0.0387431 111.189 0.116229C111.078 0.129002 110.975 0.176451 110.894 0.251731C110.812 0.327012 110.757 0.426233 110.735 0.535082L110.212 3.1194C109.18 3.33551 108.175 3.662 107.214 4.09324L105.268 2.31311C105.187 2.23857 105.084 2.19165 104.974 2.17905C104.865 2.16645 104.754 2.18882 104.658 2.24295C103.476 2.90685 102.376 3.70633 101.38 4.62518C101.299 4.69975 101.244 4.79798 101.222 4.90588C101.2 5.01379 101.212 5.12589 101.258 5.22623L102.351 7.62835C101.643 8.40957 101.022 9.26478 100.497 10.1792L97.8795 9.88073C97.7696 9.86715 97.6583 9.88923 97.562 9.94372C97.4656 9.99821 97.3894 10.0822 97.3444 10.1834C96.7773 11.4143 96.3557 12.7072 96.0878 14.0358C96.066 14.144 96.079 14.2564 96.1249 14.3568C96.1708 14.4572 96.2472 14.5406 96.3433 14.5949L98.6376 15.8955C98.5245 16.943 98.5245 17.9997 98.6376 19.0473L96.336 20.3489C96.2401 20.4032 96.1638 20.4864 96.1179 20.5866C96.072 20.6868 96.0589 20.799 96.0805 20.907C96.3483 22.2356 96.77 23.5285 97.3371 24.7594C97.383 24.8598 97.4594 24.9432 97.5555 24.9975C97.6516 25.0519 97.7624 25.0745 97.8722 25.0621L100.49 24.7636C101.014 25.678 101.636 26.5332 102.343 27.3144L101.25 29.7155C101.205 29.8158 101.192 29.9279 101.214 30.0359C101.236 30.1438 101.292 30.242 101.373 30.3166C102.368 31.2362 103.468 32.0358 104.65 32.6988C104.746 32.7531 104.857 32.7756 104.967 32.7632C105.076 32.7508 105.179 32.704 105.261 32.6297L107.206 30.8496C108.168 31.2808 109.173 31.6073 110.204 31.8234L110.728 34.4067C110.749 34.5154 110.804 34.6145 110.886 34.6897C110.967 34.765 111.07 34.8125 111.18 34.8255C112.527 34.9826 113.887 34.9826 115.234 34.8255C115.343 34.8123 115.446 34.7647 115.527 34.6894C115.608 34.6142 115.664 34.5152 115.685 34.4067L116.208 31.8234C117.241 31.6073 118.246 31.2808 119.209 30.8496L121.153 32.6297C121.235 32.704 121.337 32.7508 121.447 32.7632C121.557 32.7756 121.667 32.7531 121.764 32.6988C122.945 32.0351 124.045 31.2356 125.041 30.3166C125.122 30.2419 125.177 30.1436 125.199 30.0357C125.221 29.9278 125.208 29.8157 125.163 29.7155L124.069 27.3144C124.778 26.5338 125.4 25.6785 125.924 24.7636L128.542 25.0621C128.651 25.0742 128.762 25.0515 128.858 24.9972C128.954 24.9429 129.03 24.8597 129.076 24.7594C129.643 23.5281 130.064 22.2349 130.332 20.906C130.354 20.7987 130.342 20.6873 130.297 20.5874C130.252 20.4875 130.178 20.4041 130.083 20.3489ZM128.289 23.9772L125.703 23.684C125.598 23.6714 125.493 23.6905 125.399 23.7389C125.306 23.7873 125.229 23.8627 125.179 23.9552C124.608 25.0101 123.9 25.9844 123.072 26.8526C123 26.9283 122.953 27.0237 122.935 27.1267C122.918 27.2298 122.932 27.3356 122.975 27.4307L124.055 29.8003C123.287 30.4748 122.459 31.0767 121.58 31.5983L119.661 29.8401C119.584 29.7698 119.488 29.724 119.384 29.7087C119.281 29.6934 119.176 29.7093 119.082 29.7542C117.999 30.2711 116.854 30.6435 115.674 30.8621C115.572 30.8808 115.477 30.9298 115.402 31.0028C115.328 31.0757 115.277 31.1693 115.256 31.2715L114.732 33.8213C113.715 33.9176 112.691 33.9176 111.674 33.8213L111.151 31.2715C111.13 31.1691 111.079 31.0753 111.004 31.0022C110.93 30.929 110.835 30.8799 110.732 30.8611C109.552 30.644 108.407 30.2718 107.325 29.7542C107.23 29.709 107.125 29.693 107.021 29.7083C106.918 29.7236 106.822 29.7695 106.745 29.8401L104.825 31.5983C103.946 31.0771 103.118 30.4752 102.351 29.8003L103.429 27.4307C103.473 27.3356 103.486 27.2298 103.469 27.1267C103.452 27.0237 103.404 26.9283 103.332 26.8526C102.505 25.9838 101.797 25.0096 101.226 23.9552C101.177 23.8617 101.101 23.7854 101.007 23.7369C100.913 23.6884 100.807 23.6699 100.703 23.684L98.1172 23.9772C97.7129 23.0395 97.3974 22.0659 97.1748 21.0693L99.4397 19.7856C99.5305 19.7343 99.604 19.6571 99.6506 19.5638C99.6972 19.4705 99.715 19.3654 99.7015 19.262C99.5434 18.0731 99.5434 16.8686 99.7015 15.6798C99.715 15.5763 99.6972 15.4712 99.6506 15.378C99.604 15.2847 99.5305 15.2075 99.4397 15.1562L97.1884 13.8672C97.4112 12.871 97.7267 11.8978 98.1308 10.9603L100.716 11.2535C100.821 11.2672 100.927 11.2485 101.02 11.2C101.114 11.1515 101.191 11.0756 101.24 10.9823C101.811 9.92798 102.519 8.95374 103.346 8.0849C103.418 8.00926 103.465 7.91381 103.483 7.8108C103.5 7.7078 103.486 7.60195 103.443 7.50689L102.364 5.13618C103.131 4.46135 103.96 3.85977 104.839 3.3393L106.758 5.09744C106.835 5.16801 106.932 5.21391 107.035 5.22921C107.138 5.24451 107.244 5.22852 107.338 5.1833C108.42 4.66575 109.566 4.29358 110.746 4.07648C110.848 4.05768 110.943 4.00854 111.018 3.93539C111.093 3.86224 111.144 3.76842 111.164 3.66601L111.688 1.11519C112.705 1.02095 113.729 1.02095 114.746 1.11519L115.269 3.66601C115.29 3.76823 115.341 3.86182 115.416 3.93477C115.491 4.00772 115.585 4.05671 115.688 4.07544C116.867 4.29401 118.013 4.66648 119.095 5.1833C119.19 5.22829 119.295 5.24416 119.398 5.22886C119.501 5.21356 119.597 5.1678 119.674 5.09744L121.594 3.3393C122.472 3.86064 123.301 4.46216 124.068 5.13618L122.989 7.50689C122.945 7.60195 122.932 7.7078 122.949 7.8108C122.966 7.91381 123.014 8.00926 123.086 8.0849C123.914 8.95316 124.622 9.92748 125.193 10.9823C125.243 11.0749 125.319 11.1503 125.413 11.1986C125.506 11.247 125.612 11.2661 125.716 11.2535L128.303 10.9603C128.706 11.898 129.022 12.8711 129.245 13.8672L126.981 15.1499C126.891 15.2012 126.817 15.2784 126.77 15.3717C126.724 15.465 126.706 15.57 126.72 15.6735C126.878 16.8616 126.878 18.0655 126.72 19.2536C126.706 19.357 126.724 19.4621 126.77 19.5554C126.817 19.6487 126.891 19.7259 126.981 19.7772L129.245 21.062C129.018 22.0596 128.698 23.0338 128.289 23.972V23.9772Z" fill="black"/>
<path d="M113.21 12.3143C112.191 12.3143 111.195 12.6164 110.348 13.1826C109.501 13.7487 108.841 14.5534 108.451 15.4949C108.061 16.4363 107.959 17.4722 108.158 18.4716C108.357 19.471 108.847 20.389 109.568 21.1095C110.289 21.8299 111.207 22.3205 112.206 22.5192C113.205 22.7179 114.241 22.6157 115.183 22.2256C116.124 21.8355 116.929 21.175 117.495 20.3276C118.061 19.4803 118.363 18.4841 118.362 17.4651C118.361 16.0994 117.817 14.79 116.852 13.8244C115.886 12.8587 114.576 12.3157 113.21 12.3143ZM113.21 21.5699C112.399 21.5699 111.605 21.3291 110.93 20.8781C110.255 20.4271 109.729 19.786 109.418 19.0359C109.108 18.2859 109.026 17.4606 109.185 16.6643C109.343 15.8681 109.734 15.1367 110.308 14.5626C110.882 13.9886 111.613 13.5976 112.41 13.4392C113.206 13.2808 114.031 13.3621 114.781 13.6728C115.531 13.9835 116.172 14.5096 116.623 15.1846C117.074 15.8597 117.315 16.6533 117.315 17.4651C117.314 18.5534 116.881 19.5968 116.112 20.3664C115.342 21.1359 114.299 21.5688 113.21 21.5699Z" fill="black"/>
<path fill-rule="evenodd" clip-rule="evenodd" d="M31.0999 65.0364C28.9511 64.7861 26.7805 64.7861 24.6317 65.0364L23.6495 69.8532C21.6336 70.2246 19.6756 70.8609 17.8264 71.7454L14.2013 68.427C12.3143 69.4863 10.5572 70.762 8.9656 72.2281L11.0012 76.7014C9.58878 78.1872 8.37866 79.8529 7.40223 81.6554L2.51945 81.1004C1.61797 83.0664 0.948195 85.1306 0.523621 87.2513L4.80011 89.6691C4.52995 91.701 4.52995 93.7598 4.80011 95.7917L0.523621 98.2179C0.948811 100.339 1.61966 102.404 2.5226 104.37L7.40537 103.816C8.38182 105.618 9.59194 107.283 11.0044 108.769L8.96874 113.242C10.5603 114.709 12.3174 115.985 14.2044 117.044L17.8296 113.726C19.6788 114.61 21.6368 115.246 23.6527 115.617L24.6349 120.434C26.7837 120.684 28.9542 120.684 31.103 120.434L32.0852 115.617C34.1011 115.246 36.0591 114.61 37.9083 113.726L41.5335 117.044C43.4205 115.985 45.1776 114.709 46.7692 113.242L44.7335 108.769C46.1459 107.284 47.3557 105.618 48.3315 103.816L53.2153 104.37C54.1182 102.404 54.7891 100.339 55.2143 98.2179L50.9378 95.7959C51.2069 93.7639 51.2069 91.7053 50.9378 89.6733L55.2143 87.2513C54.7888 85.1301 54.1179 83.0656 53.2153 81.0994L48.3315 81.6544C47.3558 79.8517 46.146 78.1859 44.7335 76.7004L46.7692 72.227C45.1775 70.7609 43.4204 69.4853 41.5335 68.4259L37.9062 71.7443C36.057 70.8598 34.099 70.2236 32.0831 69.8521L31.0999 65.0364ZM27.8653 85.1183C29.3718 85.1181 30.8445 85.5646 32.0973 86.4014C33.35 87.2383 34.3264 88.4278 34.9031 89.8195C35.4797 91.2113 35.6307 92.7428 35.3369 94.2204C35.0432 95.698 34.3178 97.0553 33.2526 98.1207C32.1874 99.186 30.8302 99.9115 29.3527 100.206C27.8751 100.499 26.3436 100.349 24.9517 99.7723C23.5599 99.1958 22.3702 98.2195 21.5332 96.9669C20.6962 95.7143 20.2495 94.2416 20.2495 92.7351C20.2503 90.7154 21.0529 88.7787 22.481 87.3505C23.909 85.9223 25.8456 85.1194 27.8653 85.1183Z" fill="#FFD997"/>
<path d="M24.5708 120.954C24.4606 120.941 24.3573 120.894 24.2758 120.819C24.1943 120.743 24.1388 120.644 24.1174 120.535L23.2064 116.064C21.3839 115.699 19.6102 115.122 17.9215 114.346L14.555 117.431C14.4736 117.505 14.3708 117.552 14.2611 117.565C14.1515 117.577 14.0407 117.555 13.9445 117.501C12.0234 116.42 10.2344 115.12 8.61355 113.626C8.53252 113.552 8.47705 113.454 8.45506 113.346C8.43306 113.238 8.44565 113.126 8.49104 113.025L10.3822 108.871C9.1221 107.505 8.02599 105.997 7.11616 104.376L2.58208 104.891C2.47237 104.905 2.36122 104.883 2.26493 104.828C2.16863 104.774 2.09226 104.69 2.04699 104.59C1.12711 102.586 0.443616 100.483 0.0103204 98.3214C-0.0112566 98.2134 0.00182457 98.1012 0.0477008 98.001C0.0935771 97.9008 0.169908 97.8176 0.265821 97.7633L4.23654 95.513C4.01979 93.6673 4.01979 91.8026 4.23654 89.9569L0.265821 87.7067C0.169711 87.6523 0.0932465 87.569 0.0473578 87.4685C0.00146912 87.3681 -0.0114943 87.2557 0.0103204 87.1475C0.443778 84.9865 1.12727 82.8833 2.04699 80.8804C2.09305 80.7802 2.16958 80.6971 2.26566 80.6429C2.36175 80.5888 2.47249 80.5663 2.58208 80.5788L7.11616 81.094C8.02573 79.4733 9.12186 77.9646 10.3822 76.5987L8.49104 72.4437C8.44565 72.3433 8.43306 72.2312 8.45506 72.1233C8.47705 72.0154 8.53252 71.9172 8.61355 71.8426C10.2341 70.3485 12.0231 69.0483 13.9445 67.9682C14.0406 67.9139 14.1513 67.8914 14.2609 67.9038C14.3706 67.9162 14.4735 67.963 14.555 68.0373L17.9215 71.1211C19.61 70.3441 21.3837 69.7674 23.2064 69.4028L24.1174 64.9315C24.1388 64.8227 24.1943 64.7235 24.2758 64.6482C24.3573 64.5729 24.4606 64.5255 24.5708 64.5127C26.76 64.2593 28.9712 64.2593 31.1604 64.5127C31.2704 64.5257 31.3735 64.5732 31.4548 64.6485C31.536 64.7237 31.5914 64.8228 31.6128 64.9315L32.5248 69.4028C34.3472 69.7672 36.1205 70.3439 37.8086 71.1211L41.1752 68.0373C41.2567 67.963 41.3596 67.9162 41.4692 67.9038C41.5788 67.8914 41.6896 67.9139 41.7856 67.9682C43.7074 69.0483 45.4967 70.3485 47.1176 71.8426C47.1985 71.9173 47.2538 72.0156 47.2756 72.1235C47.2974 72.2314 47.2846 72.3434 47.2391 72.4437L45.3543 76.5987C46.6146 77.9646 47.7107 79.4733 48.6203 81.094L53.1554 80.5788C53.2651 80.5664 53.3759 80.589 53.472 80.6433C53.5681 80.6977 53.6446 80.781 53.6905 80.8815C54.6092 82.8843 55.2924 84.9871 55.7261 87.1475C55.7479 87.2557 55.735 87.3681 55.6891 87.4685C55.6432 87.569 55.5667 87.6523 55.4706 87.7067L51.4999 89.9569C51.7166 91.8026 51.7166 93.6673 51.4999 95.513L55.4706 97.7633C55.5665 97.8176 55.6428 97.9008 55.6887 98.001C55.7346 98.1012 55.7477 98.2134 55.7261 98.3214C55.2925 100.482 54.6094 102.585 53.6905 104.589C53.6455 104.69 53.5692 104.774 53.4729 104.828C53.3766 104.883 53.2652 104.905 53.1554 104.891L48.6203 104.376C47.7104 105.997 46.6143 107.505 45.3543 108.871L47.2391 113.025C47.2846 113.125 47.2974 113.238 47.2756 113.345C47.2538 113.453 47.1985 113.552 47.1176 113.626C45.4964 115.12 43.7071 116.42 41.7856 117.501C41.6895 117.555 41.5787 117.577 41.469 117.565C41.3594 117.552 41.2565 117.505 41.1752 117.431L37.8086 114.348C36.1203 115.125 34.347 115.701 32.5248 116.066L31.6128 120.537C31.5914 120.646 31.536 120.745 31.4548 120.82C31.3735 120.896 31.2704 120.943 31.1604 120.956C28.9712 121.21 26.7599 121.209 24.5708 120.954ZM25.0671 119.954C26.9276 120.144 28.8025 120.144 30.663 119.954L31.5677 115.513C31.5888 115.411 31.6399 115.317 31.7145 115.244C31.7892 115.172 31.8839 115.123 31.9866 115.104C33.9567 114.739 35.8703 114.117 37.6777 113.252C37.772 113.207 37.8776 113.191 37.9809 113.207C38.0843 113.222 38.1808 113.268 38.2579 113.338L41.6013 116.4C43.2188 115.462 44.7357 114.359 46.1281 113.111L44.2506 108.985C44.2073 108.89 44.1935 108.785 44.2108 108.682C44.2282 108.579 44.2759 108.483 44.348 108.407C45.7284 106.956 46.9111 105.328 47.8653 103.567C47.9152 103.474 47.9919 103.399 48.0853 103.35C48.1786 103.302 48.2844 103.283 48.3889 103.295L52.8915 103.807C53.6464 102.097 54.2253 100.314 54.6193 98.4858L50.6758 96.2513C50.585 96.2 50.5115 96.1228 50.4649 96.0295C50.4183 95.9362 50.4005 95.8311 50.414 95.7277C50.6779 93.7413 50.6779 91.7287 50.414 89.7423C50.4005 89.6389 50.4183 89.5338 50.4649 89.4405C50.5115 89.3472 50.585 89.27 50.6758 89.2187L54.6193 86.9841C54.2253 85.1563 53.6464 83.3733 52.8915 81.6626L48.3889 82.1736C48.2845 82.1863 48.1788 82.1673 48.0855 82.1192C47.9921 82.071 47.9154 81.9958 47.8653 81.9035C46.9114 80.1418 45.7287 78.5141 44.348 77.0626C44.2759 76.9869 44.2282 76.8915 44.2108 76.7885C44.1935 76.6855 44.2073 76.5796 44.2506 76.4846L46.1281 72.3578C44.7356 71.1098 43.2188 70.0081 41.6013 69.0698L38.2579 72.1316C38.1808 72.2022 38.0843 72.2481 37.9809 72.2634C37.8776 72.2787 37.772 72.2627 37.6777 72.2175C35.8704 71.3526 33.9569 70.7301 31.9866 70.3662C31.8838 70.3474 31.7889 70.2982 31.7143 70.2251C31.6396 70.1519 31.5886 70.0581 31.5677 69.9557L30.663 65.5148C28.8025 65.3253 26.9276 65.3253 25.0671 65.5148L24.1624 69.9557C24.1415 70.0581 24.0905 70.1519 24.0159 70.2251C23.9412 70.2982 23.8464 70.3474 23.7436 70.3662C21.773 70.7302 19.8591 71.3527 18.0514 72.2175C17.9573 72.2625 17.8519 72.2783 17.7487 72.263C17.6455 72.2477 17.5493 72.202 17.4723 72.1316L14.1288 69.0698C12.5112 70.0078 10.9943 71.1096 9.60205 72.3578L11.4796 76.4846C11.5228 76.5796 11.5367 76.6855 11.5193 76.7885C11.502 76.8915 11.4542 76.9869 11.3822 77.0626C10.0015 78.5141 8.81877 80.1418 7.86486 81.9035C7.81579 81.9967 7.73925 82.0726 7.64561 82.121C7.55196 82.1693 7.44573 82.1877 7.34129 82.1736L2.83862 81.6626C2.08165 83.3727 1.502 85.1558 1.10876 86.9841L5.0575 89.2187C5.14831 89.27 5.22175 89.3472 5.26839 89.4405C5.31503 89.5338 5.33275 89.6389 5.31928 89.7423C5.05536 91.7287 5.05536 93.7413 5.31928 95.7277C5.33275 95.8311 5.31503 95.9362 5.26839 96.0295C5.22175 96.1228 5.14831 96.2 5.0575 96.2513L1.11295 98.4858C1.50633 100.313 2.08598 102.096 2.84281 103.805L7.34548 103.293C7.45007 103.279 7.55657 103.297 7.65032 103.346C7.74408 103.394 7.82049 103.471 7.86904 103.564C8.82172 105.328 10.0033 106.958 11.3832 108.413C11.4553 108.488 11.503 108.584 11.5204 108.687C11.5377 108.79 11.5239 108.896 11.4806 108.991L9.60309 113.116C10.9953 114.365 12.5122 115.467 14.1298 116.405L17.4733 113.344C17.5503 113.273 17.6466 113.227 17.7497 113.212C17.8529 113.197 17.9583 113.213 18.0524 113.258C19.8603 114.122 21.7742 114.744 23.7446 115.109C23.8473 115.128 23.942 115.177 24.0166 115.25C24.0913 115.323 24.1424 115.416 24.1635 115.518L25.0671 119.954ZM27.8651 100.875C26.2551 100.875 24.6812 100.398 23.3425 99.5035C22.0038 98.609 20.9604 97.3377 20.3443 95.8502C19.7282 94.3627 19.567 92.726 19.8811 91.1469C20.1952 89.5678 20.9705 88.1173 22.1089 86.9789C23.2474 85.8404 24.6979 85.0651 26.277 84.751C27.856 84.4369 29.4928 84.5981 30.9803 85.2142C32.4677 85.8304 33.7391 86.8737 34.6336 88.2124C35.528 89.5511 36.0055 91.125 36.0055 92.735C36.0024 94.8928 35.1437 96.9614 33.6177 98.487C32.0917 100.013 30.0229 100.871 27.8651 100.873V100.875ZM27.8651 85.6417C26.4622 85.6417 25.0907 86.0577 23.9243 86.8371C22.7578 87.6166 21.8486 88.7244 21.3117 90.0205C20.7749 91.3166 20.6344 92.7429 20.9081 94.1188C21.1818 95.4948 21.8574 96.7587 22.8494 97.7507C23.8414 98.7427 25.1053 99.4183 26.4812 99.692C27.8572 99.9657 29.2834 99.8252 30.5795 99.2883C31.8757 98.7514 32.9835 97.8423 33.7629 96.6758C34.5423 95.5093 34.9583 94.1379 34.9583 92.735C34.9564 90.8543 34.2085 89.0513 32.8786 87.7214C31.5488 86.3916 29.7457 85.6437 27.8651 85.6417Z" fill="black"/>
<path fill-rule="evenodd" clip-rule="evenodd" d="M114.679 135.16C114.678 134.01 114.222 132.908 113.409 132.095C112.596 131.282 111.493 130.825 110.344 130.825H52.4435C51.8686 130.817 51.2977 130.922 50.764 131.136C50.2302 131.35 49.7444 131.668 49.3347 132.071C48.9249 132.474 48.5996 132.955 48.3775 133.486C48.1554 134.016 48.041 134.585 48.041 135.16C48.041 135.735 48.1554 136.304 48.3775 136.835C48.5996 137.365 48.9249 137.846 49.3347 138.249C49.7444 138.653 50.2302 138.97 50.764 139.184C51.2977 139.398 51.8686 139.504 52.4435 139.495H110.344C111.493 139.494 112.596 139.038 113.409 138.225C114.222 137.412 114.678 136.309 114.679 135.16Z" fill="white"/>
<path fill-rule="evenodd" clip-rule="evenodd" d="M114.679 148.376C114.679 147.227 114.222 146.124 113.409 145.311C112.596 144.498 111.493 144.041 110.344 144.041H52.4435C51.8686 144.032 51.2977 144.138 50.764 144.352C50.2302 144.566 49.7444 144.883 49.3347 145.287C48.9249 145.69 48.5996 146.171 48.3775 146.701C48.1554 147.232 48.041 147.801 48.041 148.376C48.041 148.951 48.1554 149.52 48.3775 150.05C48.5996 150.581 48.9249 151.062 49.3347 151.465C49.7444 151.868 50.2302 152.186 50.764 152.4C51.2977 152.614 51.8686 152.72 52.4435 152.711H110.344C111.493 152.711 112.596 152.254 113.409 151.441C114.222 150.628 114.678 149.526 114.679 148.376Z" fill="white"/>
<path fill-rule="evenodd" clip-rule="evenodd" d="M114.679 161.592C114.678 160.443 114.222 159.34 113.409 158.527C112.596 157.714 111.493 157.257 110.344 157.257H52.4435C51.8686 157.248 51.2977 157.354 50.764 157.568C50.2302 157.781 49.7444 158.099 49.3347 158.503C48.9249 158.906 48.5996 159.387 48.3775 159.917C48.1554 160.448 48.041 161.017 48.041 161.592C48.041 162.167 48.1554 162.736 48.3775 163.266C48.5996 163.797 48.9249 164.278 49.3347 164.681C49.7444 165.084 50.2302 165.402 50.764 165.616C51.2977 165.83 51.8686 165.935 52.4435 165.926H110.344C111.493 165.926 112.596 165.47 113.409 164.657C114.222 163.844 114.678 162.742 114.679 161.592Z" fill="white"/>
<path d="M110.343 140.019H52.4433C51.7992 140.029 51.1596 139.91 50.5617 139.67C49.9639 139.43 49.4197 139.074 48.9609 138.622C48.5021 138.169 48.1377 137.631 47.889 137.036C47.6403 136.442 47.5122 135.804 47.5122 135.16C47.5122 134.516 47.6403 133.878 47.889 133.284C48.1377 132.69 48.5021 132.151 48.9609 131.699C49.4197 131.247 49.9639 130.89 50.5617 130.65C51.1596 130.41 51.7992 130.291 52.4433 130.301H110.343C111.62 130.32 112.838 130.84 113.734 131.749C114.63 132.658 115.132 133.884 115.132 135.16C115.132 136.437 114.63 137.662 113.734 138.571C112.838 139.48 111.62 140.001 110.343 140.019ZM52.4433 131.345C51.9374 131.337 51.4348 131.429 50.965 131.617C50.4951 131.805 50.0674 132.084 49.7066 132.439C49.3459 132.794 49.0594 133.217 48.8638 133.683C48.6682 134.15 48.5675 134.651 48.5675 135.157C48.5675 135.663 48.6682 136.164 48.8638 136.631C49.0594 137.097 49.3459 137.52 49.7066 137.875C50.0674 138.23 50.4951 138.509 50.965 138.697C51.4348 138.885 51.9374 138.977 52.4433 138.969H110.343C111.343 138.953 112.297 138.544 112.998 137.831C113.7 137.117 114.093 136.157 114.093 135.157C114.093 134.157 113.7 133.197 112.998 132.484C112.297 131.77 111.343 131.361 110.343 131.345H52.4433Z" fill="black"/>
<path d="M110.343 153.235H52.4433C51.7992 153.245 51.1596 153.126 50.5617 152.886C49.9639 152.646 49.4197 152.29 48.9609 151.837C48.5021 151.385 48.1377 150.846 47.889 150.252C47.6403 149.658 47.5122 149.02 47.5122 148.376C47.5122 147.732 47.6403 147.094 47.889 146.5C48.1377 145.906 48.5021 145.367 48.9609 144.914C49.4197 144.462 49.9639 144.106 50.5617 143.866C51.1596 143.626 51.7992 143.507 52.4433 143.517H110.343C111.62 143.535 112.838 144.056 113.734 144.965C114.63 145.874 115.132 147.099 115.132 148.376C115.132 149.653 114.63 150.878 113.734 151.787C112.838 152.696 111.62 153.216 110.343 153.235ZM52.4433 144.564C51.9374 144.556 51.4348 144.648 50.965 144.836C50.4951 145.024 50.0674 145.303 49.7066 145.658C49.3459 146.013 49.0594 146.436 48.8638 146.902C48.6682 147.369 48.5675 147.87 48.5675 148.376C48.5675 148.882 48.6682 149.383 48.8638 149.85C49.0594 150.316 49.3459 150.739 49.7066 151.094C50.0674 151.449 50.4951 151.728 50.965 151.916C51.4348 152.104 51.9374 152.196 52.4433 152.188H110.343C111.343 152.171 112.297 151.763 112.998 151.049C113.7 150.336 114.093 149.376 114.093 148.376C114.093 147.376 113.7 146.416 112.998 145.702C112.297 144.989 111.343 144.58 110.343 144.564H52.4433Z" fill="black"/>
<path d="M110.344 166.451H52.4434C51.1548 166.451 49.919 165.939 49.0078 165.028C48.0966 164.117 47.5847 162.881 47.5847 161.592C47.5847 160.304 48.0966 159.068 49.0078 158.157C49.919 157.246 51.1548 156.734 52.4434 156.734H110.344C111.632 156.734 112.868 157.246 113.779 158.157C114.69 159.068 115.202 160.304 115.202 161.592C115.202 162.881 114.69 164.117 113.779 165.028C112.868 165.939 111.632 166.451 110.344 166.451ZM52.4434 157.781C51.4325 157.781 50.463 158.182 49.7482 158.897C49.0334 159.612 48.6318 160.582 48.6318 161.592C48.6318 162.603 49.0334 163.573 49.7482 164.288C50.463 165.002 51.4325 165.404 52.4434 165.404H110.344C111.354 165.404 112.324 165.002 113.039 164.288C113.754 163.573 114.155 162.603 114.155 161.592C114.155 160.582 113.754 159.612 113.039 158.897C112.324 158.182 111.354 157.781 110.344 157.781H52.4434Z" fill="black"/>
<path fill-rule="evenodd" clip-rule="evenodd" d="M64.5219 135.3C64.5216 134.604 64.2449 133.936 63.7527 133.444C63.2604 132.952 62.5929 132.675 61.8967 132.675H54.5553C53.859 132.675 53.1913 132.951 52.699 133.444C52.2067 133.936 51.9301 134.604 51.9301 135.3C51.9301 135.996 52.2067 136.664 52.699 137.156C53.1913 137.648 53.859 137.925 54.5553 137.925H61.8967C62.593 137.925 63.2607 137.648 63.753 137.156C64.2453 136.664 64.5219 135.996 64.5219 135.3Z" fill="black"/>
<path fill-rule="evenodd" clip-rule="evenodd" d="M78.1612 148.518C78.1609 147.822 77.8842 147.154 77.3919 146.662C76.8996 146.17 76.2321 145.894 75.536 145.894H68.1946C67.8455 145.887 67.4985 145.95 67.174 146.078C66.8494 146.207 66.5538 146.399 66.3045 146.644C66.0551 146.888 65.8571 147.18 65.7218 147.502C65.5866 147.824 65.517 148.169 65.517 148.518C65.517 148.868 65.5866 149.213 65.7218 149.535C65.8571 149.857 66.0551 150.149 66.3045 150.393C66.5538 150.638 66.8494 150.83 67.174 150.959C67.4985 151.087 67.8455 151.15 68.1946 151.143H75.536C76.2322 151.143 76.9 150.867 77.3923 150.374C77.8846 149.882 78.1612 149.214 78.1612 148.518Z" fill="black"/>
<path fill-rule="evenodd" clip-rule="evenodd" d="M78.1612 161.733C78.1612 161.037 77.8846 160.369 77.3923 159.876C76.9 159.384 76.2322 159.108 75.536 159.108H68.1946C67.8455 159.101 67.4985 159.163 67.174 159.292C66.8494 159.421 66.5538 159.613 66.3045 159.858C66.0551 160.102 65.8571 160.394 65.7218 160.716C65.5866 161.037 65.517 161.383 65.517 161.732C65.517 162.081 65.5866 162.427 65.7218 162.749C65.8571 163.071 66.0551 163.363 66.3045 163.607C66.5538 163.851 66.8494 164.044 67.174 164.172C67.4985 164.301 67.8455 164.364 68.1946 164.357H75.536C76.2321 164.357 76.8996 164.08 77.3919 163.588C77.8842 163.096 78.1609 162.429 78.1612 161.733Z" fill="black"/>
<path fill-rule="evenodd" clip-rule="evenodd" d="M84.0016 70.2332L185.904 114.979C185.904 114.979 195.279 119.7 198.765 112.077C202.251 104.453 191.813 100.15 191.813 100.15L92.7211 54.1807C92.7211 54.1807 95.363 41.7114 84.9723 33.8663C74.5816 26.0212 58.9532 27.8547 58.8484 31.7626C58.8003 33.6579 62.394 35.4935 62.394 35.4935L78.1481 45.3481L70.0203 60.4854L51.9269 49.7869C51.9269 49.7869 47.9384 47.0947 48.1133 50.6675C48.2881 54.2403 51.2546 67.3358 63.7909 71.8311C76.3272 76.3265 84.0016 70.2332 84.0016 70.2332ZM190.566 106.409C191.088 106.41 191.598 106.565 192.031 106.855C192.465 107.145 192.803 107.557 193.002 108.039C193.202 108.521 193.254 109.051 193.152 109.562C193.05 110.074 192.799 110.544 192.43 110.913C192.061 111.282 191.591 111.533 191.079 111.634C190.568 111.736 190.037 111.684 189.555 111.484C189.073 111.284 188.662 110.946 188.372 110.513C188.082 110.079 187.927 109.569 187.927 109.047C187.927 108.701 187.996 108.358 188.128 108.038C188.261 107.717 188.455 107.427 188.7 107.182C188.945 106.937 189.236 106.742 189.556 106.61C189.877 106.477 190.22 106.409 190.566 106.409Z" fill="white"/>
<path d="M191.916 116.95C189.752 116.891 187.624 116.378 185.669 115.446L84.0702 70.8384C82.5979 71.8782 75.1549 76.4657 63.6145 72.3285C51.1766 67.8677 47.7954 54.8916 47.5933 50.6968C47.513 50.2869 47.5533 49.8625 47.7092 49.4751C47.8651 49.0876 48.1301 48.7536 48.4719 48.5136C49.7986 47.767 51.9787 49.1921 52.2217 49.3586L69.8198 59.7608L77.4638 45.5397L62.1192 35.9407C61.761 35.7595 58.273 33.9145 58.3275 31.7521C58.4458 27.0243 74.8942 25.6065 85.2849 33.4464C94.7478 40.5878 93.6472 51.6036 93.3038 53.8707L192.034 99.6733C192.248 99.7602 197.793 102.089 199.506 106.443C199.872 107.383 200.038 108.389 199.993 109.396C199.947 110.404 199.692 111.39 199.242 112.293C198.65 113.73 197.628 114.948 196.317 115.782C195.005 116.615 193.468 117.023 191.916 116.95ZM84.5613 69.6824C86.9477 70.8279 116.456 84.0941 186.114 114.5C186.185 114.531 190.787 116.803 194.529 115.489C195.373 115.178 196.144 114.695 196.791 114.07C197.439 113.445 197.949 112.693 198.289 111.86C198.677 111.085 198.899 110.238 198.941 109.372C198.983 108.507 198.844 107.642 198.533 106.834C196.978 102.89 191.667 100.662 191.614 100.639L92.5017 54.6529C92.3944 54.6031 92.3071 54.5185 92.2541 54.4128C92.201 54.307 92.1853 54.1865 92.2095 54.0707C92.2347 53.9482 94.6515 41.8266 84.6555 34.2799C74.2816 26.4536 59.4521 28.6882 59.3746 31.7752C59.3422 33.0495 61.783 34.5878 62.6354 35.0213L78.4303 44.9083C78.5428 44.9788 78.6243 45.0894 78.6583 45.2177C78.6923 45.346 78.6763 45.4824 78.6136 45.5994L70.4826 60.7325C70.4493 60.7955 70.4034 60.8509 70.3479 60.8955C70.2924 60.9401 70.2284 60.9729 70.1598 60.9919C70.0912 61.0109 70.0195 61.0157 69.9489 61.0061C69.8784 60.9964 69.8106 60.9725 69.7496 60.9357L51.6604 50.2382C50.8625 49.7031 49.5263 49.1136 48.9829 49.4214C48.6572 49.6057 48.6153 50.1869 48.6363 50.6413C48.8321 54.655 52.0688 67.0719 63.9684 71.3389C76.0575 75.6762 83.6042 69.8824 83.6775 69.8227C84.1519 69.4468 84.3592 69.586 84.5613 69.6824Z" fill="black"/>
<path fill-rule="evenodd" clip-rule="evenodd" d="M161.644 172.141C160.335 172.125 159.029 172.29 157.765 172.632C157.551 172.923 157.401 173.257 157.326 173.61C157.251 173.964 157.253 174.329 157.33 174.682C157.539 176.022 159.245 176.536 160.71 176.923C161.851 177.295 162.826 178.051 163.47 179.063C164.061 179.789 164.832 183.067 167.46 183.435C170.088 183.804 171.02 182.483 171.02 182.483L171.529 179.582C171.739 178.964 171.851 178.317 171.861 177.665L171.768 177.614C170.771 178.158 169.625 178.365 168.502 178.204C167.378 178.042 166.337 177.522 165.533 176.719C164.079 175.434 162.714 174.05 161.449 172.578C161.531 172.44 161.597 172.294 161.644 172.141Z" fill="white"/>
<path fill-rule="evenodd" clip-rule="evenodd" d="M131.284 171.945C130.97 174.693 130.666 176.748 130.666 176.748C130.666 176.748 137.097 185.784 140.966 183.711C141.71 183.402 142.374 182.926 142.906 182.321C143.438 181.715 143.824 180.996 144.034 180.218L144.125 180.277C144.13 181.572 143.885 182.855 143.404 184.056C143.404 184.056 143.371 186.901 139.984 186.983C136.596 187.065 133.558 184.53 132.539 183.267C131.519 182.004 127.947 177.619 127.573 176.095C126.166 171.45 129.537 171.986 131.284 171.945Z" fill="white"/>
<path fill-rule="evenodd" clip-rule="evenodd" d="M117.705 85.0543L128.966 67.9326C130.828 65.1054 134.552 63.5347 136.309 62.1514C138.066 60.7682 140.945 57.344 144.24 57.2163C146.699 57.121 147.254 57.276 150.802 59.7294C155.908 63.2624 159.299 62.8342 161.692 65.23C164.084 67.6258 165.48 73.7254 168.094 78.094C170.708 82.4626 174.874 88.1004 175.424 92.3947L161.12 85.98L158.525 79.9956C155.241 84.8396 156.497 91.2407 155.907 96.0523C155.318 100.864 160.902 107.23 162.129 111.681C163.357 116.131 162.292 121.048 162.416 128.225C162.541 135.402 164.898 136.694 166.452 141.989C167.86 146.636 168.604 151.459 168.663 156.315C168.771 160.825 169.778 165.269 171.624 169.386C172.674 171.453 173.277 173.719 173.395 176.034C171.369 178.975 167.923 178.83 165.526 176.717C164.072 175.432 162.708 174.048 161.443 172.576C162.778 170.441 160.679 161.829 158.756 157.593C156.832 153.358 155.099 145.923 154.314 141.421C153.528 136.92 146.239 121.884 146.239 121.884C145.917 126.923 143.604 136.523 144.145 141.761C144.735 146.098 144.861 150.486 144.523 154.85C144.104 158.485 143.249 169.119 144.254 172.319C145.259 175.519 146.236 176.257 144.92 177.896C143.604 179.535 144.829 181.641 140.96 183.714C137.09 185.787 130.66 176.752 130.66 176.752C131.374 171.929 131.818 167.069 131.989 162.196V142.625C131.989 139.555 133.83 136.97 131.989 129.704C130.148 122.438 131.989 101.812 131.989 99.8974C131.989 97.9832 134.667 90.2491 133.83 87.4784C133.294 85.5007 132.999 83.4658 132.95 81.4176C132.95 81.4176 124.82 93.8062 121.398 94.9256C117.976 96.045 114.461 92.9779 111.68 91.3706C109.252 89.8289 107.308 87.6344 106.07 85.0386C105.866 84.5563 105.554 84.1277 105.156 83.7864C104.759 83.4451 104.289 83.2002 103.781 83.071C103.899 81.7859 104.378 80.5603 105.163 79.5359L117.705 85.0543Z" fill="#81F8F8"/>
<path d="M190.567 112.209C189.941 112.208 189.33 112.023 188.811 111.675C188.291 111.328 187.886 110.834 187.647 110.257C187.408 109.679 187.345 109.043 187.467 108.43C187.589 107.817 187.89 107.254 188.332 106.812C188.774 106.37 189.338 106.069 189.951 105.947C190.564 105.825 191.199 105.887 191.777 106.126C192.355 106.366 192.848 106.771 193.196 107.29C193.543 107.81 193.729 108.421 193.729 109.046C193.728 109.885 193.395 110.689 192.802 111.282C192.209 111.875 191.405 112.208 190.567 112.209ZM190.567 106.933C190.148 106.933 189.74 107.057 189.392 107.29C189.045 107.522 188.774 107.853 188.614 108.239C188.454 108.626 188.413 109.051 188.494 109.461C188.576 109.871 188.778 110.247 189.073 110.543C189.369 110.838 189.746 111.04 190.156 111.121C190.566 111.202 190.991 111.16 191.378 111C191.764 110.84 192.094 110.569 192.326 110.221C192.558 109.873 192.682 109.464 192.682 109.046C192.681 108.486 192.458 107.948 192.061 107.552C191.665 107.156 191.127 106.933 190.567 106.933Z" fill="black"/>
<path fill-rule="evenodd" clip-rule="evenodd" d="M135.904 44.1712C136.043 44.8647 135.949 45.5846 135.637 46.2194C135.114 47.0016 133.676 47.8707 133.852 48.3891C134.028 48.9074 135.094 49.4498 135.094 49.4498C135.094 49.4498 134.295 50.6016 134.72 50.9723C135.097 51.2402 135.524 51.4281 135.976 51.5242C135.976 51.5242 135.058 51.5776 135.034 52.0802C135.01 52.5828 135.791 52.9556 135.8 53.3441C135.81 53.7326 135.025 56.7745 138.789 56.3902L139.598 59.2855C139.598 59.2855 142.391 57.0488 144.729 57.253C146.132 57.375 147.502 57.7426 148.778 58.3389C148.778 58.3389 147.446 55.4069 148.032 53.8121C148.032 53.8121 145.728 54.0917 145.157 52.4404C145.157 52.4404 147.156 51.3252 146.755 50.2582C146.353 49.1912 145.498 48.2686 144.241 49.1262C142.985 49.9838 142.172 51.4886 140.883 49.8906C139.594 48.2927 139.208 43.8895 139.208 43.8895L135.904 44.1712Z" fill="#FFD997"/>
<path fill-rule="evenodd" clip-rule="evenodd" d="M154.216 48.1167L139.19 43.9942L135.481 42.3104C135.481 42.3104 136.601 35.7868 142.979 35.2946C149.357 34.8025 154.629 38.524 154.854 41.923C154.984 44.0086 154.768 46.1013 154.216 48.1167Z" fill="white"/>
<path fill-rule="evenodd" clip-rule="evenodd" d="M99.275 74.8845C98.521 74.5463 98.9839 75.7987 99.5891 77.0479L97.4509 76.2217C97.4509 76.2217 97.6394 79.1924 99.632 80.6437C100.919 81.5625 102.3 82.3411 103.753 82.9663C103.912 81.8016 104.312 80.683 104.929 79.6825C104.929 79.6825 100.694 75.5222 99.275 74.8845Z" fill="#FFD997"/>
<path d="M175.945 92.3298C175.378 87.8931 171.138 82.1538 168.547 77.827C165.956 73.5003 164.568 67.363 162.065 64.8615C160.037 62.8332 157.701 62.9002 153.536 60.7776C152.033 59.9403 150.578 59.0187 149.179 58.0174C148.738 56.8431 148.531 55.5937 148.571 54.3399C149.052 54.3096 149.528 54.2192 149.986 54.0708C149.896 54.6311 149.974 55.2058 150.213 55.721C150.451 56.2362 150.838 56.6684 151.324 56.9619C153.811 58.2352 156.316 56.1137 156.832 53.8917C157.306 51.8477 156.22 49.7995 153.39 49.9199C153.544 49.4675 153.665 49.0045 153.753 48.5346C153.902 48.5885 154.057 48.6237 154.215 48.6393C154.327 48.6393 154.436 48.6034 154.526 48.5369C154.616 48.4704 154.682 48.3767 154.715 48.2697C155.289 46.1949 155.512 44.0389 155.376 41.8905C155.158 40.2693 154.309 38.7998 153.013 37.8015C150.18 35.5148 146.564 34.4285 142.939 34.7753C137.122 35.2203 135.406 40.4413 135.046 41.8643C131.36 42.6486 131.445 43.5471 131.474 43.8476C131.508 44.2068 131.559 44.744 134.686 44.744C134.933 44.744 135.199 44.744 135.486 44.7335C135.514 45.152 135.414 45.5691 135.199 45.9293C134.435 47.0812 131.921 48.0236 134.341 49.6152C134.194 49.8234 134.115 50.0719 134.115 50.3267C134.115 50.5816 134.194 50.8301 134.341 51.0383C134.471 51.1914 134.621 51.3266 134.786 51.4404C134.624 51.6057 134.529 51.8249 134.518 52.0561C134.531 52.2695 134.588 52.478 134.685 52.6686C134.782 52.8592 134.917 53.0278 135.082 53.1639C135.158 53.2446 135.271 53.3556 135.285 53.3461C135.285 53.3786 135.278 53.4278 135.271 53.4907C135.173 53.9582 135.181 54.4417 135.294 54.9057C135.407 55.3698 135.623 55.8026 135.926 56.1724C136.256 56.4573 136.64 56.6725 137.055 56.8051C137.47 56.9378 137.908 56.985 138.342 56.9441C138.458 57.6966 138.664 58.4324 138.956 59.1357C138.339 59.6394 137.769 60.1598 137.254 60.6289C136.298 61.5684 135.217 62.3724 134.042 63.0185C132.197 64.1505 129.9 65.5588 128.529 67.6437L117.513 84.3978L105.193 78.9684C105.102 78.9289 105.001 78.9162 104.903 78.9318C103.777 77.8427 100.742 74.9715 99.4917 74.4092C99.3443 74.3192 99.1705 74.2822 98.9992 74.3043C98.8278 74.3263 98.6691 74.4062 98.5493 74.5307C98.4195 74.6731 98.1828 74.937 98.6142 76.1401L97.6446 75.7422C97.5625 75.7085 97.4731 75.6962 97.385 75.7065C97.2968 75.7167 97.2127 75.7493 97.1406 75.801C97.0684 75.8527 97.0106 75.9219 96.9726 76.0021C96.9345 76.0823 96.9175 76.1709 96.9231 76.2595C96.9304 76.3904 97.1524 79.493 99.3179 81.0711C100.583 81.9753 101.939 82.7473 103.362 83.3747C103.44 83.484 103.558 83.559 103.69 83.5842C104.115 83.6968 104.508 83.9058 104.839 84.1949C105.17 84.484 105.43 84.8454 105.599 85.2512C106.882 87.9469 108.901 90.2248 111.424 91.822C114.406 93.5466 117.871 96.6272 121.566 95.423C124.498 94.4639 130.251 86.3517 132.518 83.0135C132.634 84.5759 132.907 86.1227 133.334 87.6303C134.116 90.2178 131.471 97.8922 131.471 99.8974C131.471 101.824 129.612 122.441 131.487 129.834C133.294 136.971 131.471 139.477 131.471 142.626V162.199C131.409 165.283 131.19 168.363 130.816 171.425C129.153 171.409 127.948 171.524 127.224 172.486C126.695 173.139 126.354 173.924 126.237 174.756C126.119 175.588 126.229 176.436 126.556 177.21C127.018 178.761 130.248 182.865 131.616 184.562C134.074 187.605 139.364 189.679 142.017 187.704C143.663 186.477 144.662 182.389 144.649 180.276C144.648 180.211 144.635 180.146 144.611 180.085C144.712 179.419 144.959 178.783 145.334 178.223C146.864 176.318 145.741 175.291 144.758 172.161C143.825 169.187 144.568 159.072 145.049 154.91C145.394 150.511 145.268 146.088 144.671 141.716C144.2 137.184 145.962 129.028 146.583 123.823C148.501 127.88 153.192 138.031 153.801 141.52C154.679 146.546 156.455 153.797 158.281 157.82C160.157 161.949 161.773 169.024 161.241 171.642C160.301 171.665 159.363 171.757 158.436 171.917C158.063 171.977 157.705 172.103 157.377 172.29C157.111 172.639 156.922 173.042 156.825 173.47C156.728 173.899 156.723 174.343 156.813 174.774C157.087 176.517 159.271 177.094 160.576 177.44C161.531 177.741 162.352 178.363 162.9 179.2C163.152 179.491 163.348 179.826 163.479 180.188C164.604 182.567 165.705 184.033 168.347 184.033C168.924 184.082 169.505 183.995 170.043 183.78C170.582 183.565 171.062 183.228 171.447 182.795C171.493 182.731 171.524 182.657 171.536 182.58C172.138 178.902 172.277 179.94 172.374 177.85C172.943 177.435 173.435 176.925 173.83 176.342C173.891 176.253 173.923 176.146 173.922 176.038C173.809 173.637 173.187 171.288 172.096 169.146C170.293 165.112 169.305 160.761 169.191 156.343C169.141 151.429 168.39 146.547 166.961 141.844C165.355 136.368 163.068 135.301 162.946 128.219C162.821 120.988 163.9 116.108 162.641 111.544C161.396 107.032 155.879 100.701 156.435 96.1183C156.991 91.5361 155.919 85.7214 158.437 81.1444L160.264 85.5423C160.225 85.6642 160.232 85.7962 160.284 85.9134C160.336 86.0305 160.428 86.1246 160.545 86.1779C176.242 93.3518 175.25 92.9152 175.426 92.9152C175.499 92.9151 175.573 92.8994 175.64 92.869C175.707 92.8387 175.768 92.7944 175.817 92.7391C175.866 92.6838 175.902 92.6187 175.925 92.5482C175.947 92.4777 175.954 92.4032 175.945 92.3298ZM143.019 35.8203C146.365 35.4954 149.705 36.4908 152.327 38.5942C153.409 39.4112 154.129 40.6197 154.331 41.9607C154.438 43.8119 154.274 45.6688 153.845 47.4728C137.719 43.257 139.388 43.4937 136.084 42.0089C136.43 40.6413 137.94 36.2088 143.019 35.8203ZM139.316 56.3441C139.31 56.2752 139.29 56.2083 139.257 56.1472C139.225 56.0861 139.181 56.032 139.127 55.9881C139.074 55.9442 139.012 55.9113 138.946 55.8913C138.88 55.8714 138.81 55.8648 138.741 55.8718C138.385 55.9581 138.015 55.9641 137.656 55.8893C137.297 55.8145 136.96 55.6608 136.668 55.4394C136.483 55.1769 136.355 54.8782 136.293 54.563C136.232 54.2477 136.237 53.923 136.31 53.61C136.353 53.1985 136.365 52.9995 135.839 52.4467C135.749 52.3442 135.651 52.2486 135.547 52.1608C135.728 52.0201 135.94 51.9262 136.166 51.8875C136.423 51.833 136.674 51.7573 136.918 51.6613C137.027 51.6165 137.118 51.5363 137.176 51.4336C137.233 51.3308 137.255 51.2116 137.236 51.0953C137.218 50.9789 137.161 50.8721 137.074 50.7922C136.988 50.7123 136.877 50.664 136.759 50.655C136.218 50.6269 135.696 50.4453 135.254 50.1315C135.32 50.0105 135.398 49.8968 135.488 49.7922C135.541 49.7322 135.579 49.6609 135.6 49.5838C135.621 49.5067 135.624 49.4258 135.609 49.3474C135.593 49.269 135.56 49.1951 135.512 49.1313C135.464 49.0676 135.402 49.0157 135.331 48.9796C134.973 48.8087 134.651 48.5717 134.381 48.2812C134.598 47.9231 135.638 47.1534 136.072 46.5073C136.408 45.9644 136.569 45.3312 136.533 44.6937C137.174 44.6633 137.894 44.6183 138.709 44.5555C138.84 45.9597 139.325 49.4969 140.943 50.6194C142.828 51.921 143.689 50.2582 144.469 49.5723C144.574 49.4791 144.685 49.3828 144.8 49.2896C145.348 48.8435 146.119 49.4194 146.227 50.254C146.322 50.9587 144.771 52.4969 143.156 51.9126C143.047 51.8739 142.928 51.8724 142.818 51.9084C142.708 51.9444 142.613 52.0158 142.548 52.1116C142.483 52.2073 142.451 52.322 142.458 52.4375C142.465 52.5531 142.51 52.6631 142.586 52.7503C142.837 53.131 143.227 53.397 143.673 53.49C144.119 53.583 144.584 53.4955 144.965 53.2467C145.661 53.9024 146.569 54.286 147.524 54.3273C147.513 55.3136 147.619 56.2976 147.838 57.2593C146.706 56.7389 145.453 56.5414 144.216 56.6886C142.604 56.8376 141.072 57.4566 139.809 58.4687C139.561 57.7819 139.396 57.068 139.316 56.342V56.3441ZM144.261 57.742C146.241 57.6582 146.823 57.6855 149.426 59.4279C145.847 58.9237 142.197 59.3366 138.821 60.6279C140.358 59.2708 142.265 57.8174 144.261 57.7399V57.742ZM103.318 82.2041C102.132 81.6471 100.998 80.9836 99.9315 80.2218C98.9716 79.4156 98.3252 78.2978 98.1053 77.0637L99.1325 77.4878L100.292 79.5108C100.362 79.6301 100.476 79.7169 100.61 79.7522C100.743 79.7875 100.885 79.7686 101.005 79.6995C101.125 79.6303 101.212 79.5166 101.249 79.3832C101.285 79.2498 101.267 79.1075 101.199 78.9873C100.568 77.915 100.015 76.7991 99.543 75.648C101.201 76.917 102.775 78.292 104.255 79.7642C103.808 80.5183 103.493 81.3425 103.321 82.202L103.318 82.2041ZM105.538 83.4261C105.177 83.1059 104.762 82.8542 104.311 82.6836C104.441 81.7789 104.762 80.9122 105.253 80.1412L106.8 80.8229C106.156 81.5624 105.722 82.4604 105.541 83.424L105.538 83.4261ZM134.334 87.3287C133.825 85.4512 133.539 83.5202 133.482 81.5758C133.955 80.8847 134.447 80.1381 134.933 79.382C135.48 82.5427 135.865 85.7295 136.085 88.9298C136.035 91.5814 135.708 94.2206 135.11 96.8042C134.232 96.6419 133.573 96.4995 133.205 96.4168C133.752 94.1204 134.969 89.4156 134.336 87.3266L134.334 87.3287ZM155.347 96.7529C155.349 97.3872 155.421 98.0194 155.562 98.6377C150.062 102.212 140.669 100.964 135.667 99.9351C135.747 99.3069 135.846 98.6629 135.955 98.0241C141.886 99.0304 149.969 99.4953 155.349 96.7539L155.347 96.7529ZM132.959 97.4346C133.345 97.5236 134.024 97.6733 134.921 97.8419C134.817 98.4702 134.717 99.0922 134.638 99.7163C133.675 99.4995 132.962 99.3121 132.588 99.2105C132.671 98.733 132.803 98.1152 132.961 97.4356L132.959 97.4346ZM132.505 100.275C132.942 100.395 133.636 100.575 134.52 100.776C134.188 104.369 134.102 123.906 134.802 128.82C135.503 133.76 136.496 136.529 135.134 139.353C134.296 141.1 133.258 146.633 132.516 151.127V142.624C132.516 139.644 134.371 136.962 132.499 129.574C130.797 122.85 132.32 104.558 132.507 100.277L132.505 100.275ZM139.968 186.454C136.996 186.527 134.074 184.334 132.943 182.932C130.906 180.41 128.407 177.068 128.073 175.94C127.67 174.584 127.665 173.636 128.059 173.113C128.553 172.456 129.734 172.459 130.692 172.469C130.407 174.877 130.152 176.632 130.145 176.672C130.126 176.806 130.159 176.941 130.238 177.051C132.533 180.277 137.68 186.067 141.209 184.172C142.006 183.767 142.728 183.231 143.345 182.584C142.902 184.553 141.845 186.415 139.97 186.46L139.968 186.454ZM168.73 182.286C166.845 182.481 165.791 180.191 164.733 178.8C163.606 177.273 162.02 176.146 160.208 175.583C158.902 175.183 157.322 174.036 158.242 173.018C159.127 172.827 160.028 172.718 160.933 172.692C160.951 172.771 160.987 172.846 161.038 172.909C162.32 174.402 163.705 175.805 165.181 177.107C165.973 177.872 166.963 178.402 168.039 178.637C169.115 178.872 170.236 178.803 171.275 178.437C171.119 179.926 170.567 182.095 168.732 182.291L168.73 182.286ZM158.946 106.174C162.03 111.701 162.48 112.647 162.066 121.172C161.967 123.248 161.852 125.602 161.897 128.232C162.024 135.562 164.41 136.864 165.954 142.132C167.353 146.723 168.09 151.488 168.144 156.287C168.244 160.891 169.272 165.429 171.166 169.627C172.148 171.574 172.727 173.698 172.868 175.874C171.063 178.338 168.076 178.26 165.878 176.321C164.529 175.126 163.256 173.848 162.065 172.494C163.374 169.255 160.494 160.159 159.232 157.373C157.443 153.435 155.697 146.296 154.834 141.327C154.101 137.129 147.986 124.295 146.875 121.99C147.451 120.207 148.157 118.469 148.986 116.79L149.223 116.389C150.447 114.33 153.313 109.511 151.811 103.651C151.796 103.583 151.767 103.517 151.727 103.46C151.686 103.402 151.634 103.354 151.574 103.316C151.514 103.279 151.447 103.255 151.378 103.244C151.308 103.234 151.237 103.237 151.169 103.255C151.101 103.272 151.037 103.303 150.981 103.346C150.925 103.389 150.878 103.442 150.843 103.504C150.809 103.565 150.787 103.633 150.779 103.703C150.771 103.773 150.777 103.844 150.797 103.911C152.191 109.35 149.48 113.907 148.322 115.854L148.079 116.266C147.014 118.302 146.199 120.458 145.652 122.689C145.161 127.866 143.106 136.78 143.63 141.819C144.204 146.118 144.33 150.464 144.008 154.789C143.679 157.64 142.668 168.999 143.76 172.474C144.807 175.806 145.619 176.197 144.518 177.566C143.04 179.409 144.402 181.276 140.717 183.252C137.944 184.734 133.037 179.119 131.215 176.616C131.932 171.84 132.367 167.026 132.518 162.2C132.518 156.336 132.5 158.181 132.585 157.584C132.606 157.435 134.688 142.696 136.078 139.811C137.607 136.645 136.547 133.633 135.842 128.677C135.14 123.739 135.26 104.363 135.553 101.002C141.769 102.292 150.4 103.026 155.848 99.7016C156.667 101.957 157.706 104.126 158.948 106.179L158.946 106.174ZM161.331 85.3873L159.093 79.9967C160.29 77.2373 161.107 74.3284 161.523 71.3495C161.53 71.2149 161.486 71.0825 161.398 70.98C161.31 70.8775 161.187 70.8128 161.052 70.7993C160.918 70.7858 160.784 70.8246 160.678 70.9076C160.572 70.9905 160.501 71.1113 160.482 71.2448C160.058 74.1723 159.245 77.0301 158.064 79.7422C154.829 84.5591 155.888 90.8418 155.446 95.5089C153.686 96.4697 151.766 97.1024 149.779 97.3759C149.805 95.377 150.015 86.7413 151.639 80.4239C153.547 73.0102 149.876 65.9316 149.717 65.6332C149.686 65.5709 149.643 65.5154 149.59 65.4701C149.537 65.4248 149.475 65.3905 149.409 65.3692C149.343 65.348 149.273 65.3402 149.203 65.3463C149.134 65.3524 149.066 65.3723 149.005 65.4049C148.943 65.4374 148.889 65.482 148.844 65.5359C148.8 65.5898 148.767 65.6519 148.747 65.7187C148.728 65.7856 148.721 65.8557 148.729 65.9249C148.737 65.9942 148.758 66.0613 148.792 66.1222C148.828 66.1924 152.428 73.1495 150.625 80.1621C148.926 86.7716 148.749 95.8272 148.73 97.5204C144.527 97.9042 140.292 97.7225 136.138 96.9801C136.749 94.3239 137.081 91.611 137.129 88.8858C136.868 85.2536 136.415 81.6378 135.774 78.0532C137.533 75.2427 139.02 72.6553 139.045 72.6176C139.114 72.4972 139.133 72.3541 139.097 72.2199C139.061 72.0857 138.973 71.9713 138.853 71.9018C138.732 71.8324 138.589 71.8137 138.455 71.8497C138.321 71.8857 138.207 71.9736 138.137 72.094C138.107 72.1474 134.996 77.4417 132.523 81.1161C130.251 84.4941 123.903 93.5518 121.24 94.422C118.098 95.4524 114.708 92.5078 111.946 90.911C109.617 89.4206 107.75 87.3111 106.553 84.8187C106.474 84.6426 106.384 84.4719 106.282 84.3077C106.35 84.264 106.406 84.2055 106.448 84.1368C106.489 84.0681 106.515 83.9908 106.522 83.9109C106.646 82.908 107.106 81.9766 107.827 81.269L117.493 85.5287C117.606 85.5785 117.733 85.5866 117.852 85.5515C117.971 85.5164 118.073 85.4404 118.141 85.3371L129.401 68.2154C131.004 65.7787 134.16 64.2656 136.046 62.9798C136.504 62.7284 145.556 57.8813 153.086 61.7138H153.099C156.813 63.6415 159.475 63.7389 161.324 65.5882C163.6 67.8646 165.041 73.9977 167.648 78.3517C170.057 82.3758 173.761 87.4617 174.726 91.489L161.331 85.3873Z" fill="black"/>
<path fill-rule="evenodd" clip-rule="evenodd" d="M161.556 104.364C161.556 104.364 160.305 106.203 161.15 106.895C161.393 107.096 161.681 107.234 161.99 107.297C162.298 107.359 162.618 107.344 162.919 107.254C162.919 107.254 163.782 109.527 164.916 108.276C164.83 109.545 166.012 109.835 166.487 108.98C166.487 108.98 167.708 110.527 168.339 109.713C168.339 109.713 169.62 111.141 170.11 109.445C170.66 107.016 169.123 106.886 168.644 107.652C168.644 107.652 168.015 106.108 167.001 107.077C167.001 107.077 166.242 105.527 165.247 106.541C165.247 106.541 165.57 104.414 164.459 104.462C163.348 104.51 163.179 105.022 163.179 105.022L161.556 104.364Z" fill="#FFD997"/>
<path d="M169.852 106.808C169.68 106.74 169.495 106.709 169.31 106.717C169.126 106.726 168.945 106.774 168.78 106.858C168.612 106.594 168.357 106.398 168.058 106.305C167.76 106.211 167.438 106.227 167.15 106.349C167.002 106.134 166.802 105.961 166.569 105.844C166.336 105.727 166.078 105.671 165.817 105.681C165.771 104.726 165.389 103.919 164.441 103.94C163.931 103.923 163.43 104.084 163.026 104.395L161.752 103.88C161.642 103.835 161.519 103.83 161.405 103.864C161.29 103.899 161.191 103.972 161.124 104.07C160.969 104.298 159.638 106.333 160.819 107.301C161.067 107.505 161.354 107.659 161.661 107.752C161.969 107.845 162.292 107.877 162.612 107.844C163.009 108.623 163.679 109.361 164.524 109.136C164.592 109.324 164.702 109.493 164.846 109.631C164.99 109.768 165.164 109.871 165.355 109.93C165.545 109.99 165.746 110.005 165.943 109.974C166.14 109.942 166.327 109.866 166.49 109.751C166.699 110.021 166.982 110.225 167.304 110.339C167.627 110.452 167.975 110.471 168.307 110.392C169.241 111.111 170.236 110.915 170.625 109.563C171.081 107.552 170.236 106.967 169.852 106.808ZM161.482 106.494C161.242 106.299 161.461 105.6 161.772 105.022L162.753 105.419C162.756 105.893 162.675 106.363 162.514 106.808C162.329 106.827 162.143 106.808 161.966 106.754C161.789 106.699 161.624 106.609 161.482 106.49V106.494ZM164.205 108.13C163.987 108.089 163.674 107.655 163.48 107.235C163.74 106.573 163.842 105.859 163.779 105.151C164 105.043 164.244 104.988 164.491 104.992C164.509 104.986 164.53 104.986 164.549 104.992C164.567 104.998 164.584 105.01 164.595 105.026C164.786 105.474 164.836 105.969 164.74 106.446L164.433 108.028C164.359 108.091 164.273 108.15 164.202 108.126L164.205 108.13ZM165.44 108.339L165.738 106.808C165.768 106.779 165.804 106.756 165.843 106.741C165.883 106.727 165.925 106.721 165.967 106.724C166.126 106.748 166.326 106.967 166.457 107.168C166.356 107.702 166.213 108.227 166.029 108.738C165.805 109.113 165.406 108.972 165.437 108.34L165.44 108.339ZM167.096 108.876C167.252 108.378 167.382 107.873 167.485 107.362C167.543 107.311 167.618 107.284 167.695 107.285C167.846 107.316 168.038 107.578 168.14 107.781C168.12 108.338 168.037 108.89 167.893 109.427C167.743 109.444 167.403 109.205 167.093 108.877L167.096 108.876ZM169.614 109.302C169.515 109.646 169.405 109.743 169.366 109.75C169.206 109.732 169.057 109.662 168.941 109.551C169.079 108.989 169.16 108.414 169.182 107.836C169.219 107.803 169.263 107.781 169.311 107.77C169.359 107.76 169.409 107.762 169.456 107.776C169.613 107.842 169.845 108.251 169.611 109.303L169.614 109.302Z" fill="black"/>
</svg>
