<svg width="40" height="40" viewBox="0 0 40 40" fill="none" xmlns="http://www.w3.org/2000/svg">
<path d="M19.1667 25C17.786 25 16.6667 23.8807 16.6667 22.5C16.6667 21.1193 17.786 20 19.1667 20M5 26.3336V13.667C5 11.8001 5 10.866 5.36331 10.153C5.68289 9.52577 6.19245 9.0162 6.81966 8.69662C7.5327 8.33331 8.46682 8.33331 10.3337 8.33331H29.667C31.5338 8.33331 32.466 8.33331 33.179 8.69662C33.8062 9.0162 34.3175 9.52577 34.637 10.153C35 10.8653 35 11.7983 35 13.6615V26.3393C35 28.2025 35 29.1341 34.637 29.8465C34.3175 30.4737 33.8062 30.9841 33.179 31.3037C32.4667 31.6666 31.535 31.6666 29.6718 31.6666H10.3282C8.46499 31.6666 7.532 31.6666 6.81966 31.3037C6.19245 30.9841 5.68289 30.4737 5.36331 29.8465C5 29.1334 5 28.2005 5 26.3336ZM28.3333 22.5C28.3333 23.8807 27.214 25 25.8333 25C24.4526 25 23.3333 23.8807 23.3333 22.5C23.3333 21.1193 24.4526 20 25.8333 20C27.214 20 28.3333 21.1193 28.3333 22.5Z" stroke="black" stroke-width="2" stroke-linecap="round" stroke-linejoin="round"/>
</svg>
