<svg width="40" height="40" viewBox="0 0 40 40" fill="none" xmlns="http://www.w3.org/2000/svg">
<path d="M35 33.3332C35 30.4305 32.2173 27.9611 28.3333 27.0459M25 33.3333C25 29.6514 20.5228 26.6666 15 26.6666C9.47715 26.6666 5 29.6514 5 33.3333M25 21.6666C28.6819 21.6666 31.6667 18.6819 31.6667 15C31.6667 11.3181 28.6819 8.33331 25 8.33331M15 21.6666C11.3181 21.6666 8.33333 18.6819 8.33333 15C8.33333 11.3181 11.3181 8.33331 15 8.33331C18.6819 8.33331 21.6667 11.3181 21.6667 15C21.6667 18.6819 18.6819 21.6666 15 21.6666Z" stroke="black" stroke-width="2" stroke-linecap="round" stroke-linejoin="round"/>
</svg>
