<svg width="353" height="16" viewBox="0 0 353 16" fill="none" xmlns="http://www.w3.org/2000/svg">
<path d="M3.29 1.29C4.69 1.29 5.71 1.565 6.35 2.115C6.99 2.665 7.31 3.44 7.31 4.44C7.31 4.88 7.235 5.305 7.085 5.715C6.945 6.115 6.71 6.475 6.38 6.795C6.05 7.115 5.61 7.37 5.06 7.56C4.51 7.74 3.835 7.83 3.035 7.83H1.805V12H0.455V1.29H3.29ZM3.17 2.445H1.805V6.675H2.885C3.565 6.675 4.13 6.605 4.58 6.465C5.03 6.315 5.365 6.08 5.585 5.76C5.805 5.44 5.915 5.02 5.915 4.5C5.915 3.81 5.695 3.295 5.255 2.955C4.815 2.615 4.12 2.445 3.17 2.445ZM13.107 3.81C13.257 3.81 13.417 3.82 13.587 3.84C13.767 3.85 13.922 3.87 14.052 3.9L13.887 5.115C13.757 5.085 13.612 5.06 13.452 5.04C13.302 5.02 13.157 5.01 13.017 5.01C12.707 5.01 12.412 5.075 12.132 5.205C11.852 5.335 11.602 5.52 11.382 5.76C11.162 5.99 10.987 6.27 10.857 6.6C10.737 6.93 10.677 7.3 10.677 7.71V12H9.35703V3.96H10.437L10.587 5.43H10.647C10.817 5.13 11.022 4.86 11.262 4.62C11.502 4.37 11.777 4.175 12.087 4.035C12.397 3.885 12.737 3.81 13.107 3.81ZM22.2504 7.965C22.2504 8.635 22.1604 9.23 21.9804 9.75C21.8104 10.26 21.5604 10.695 21.2304 11.055C20.9104 11.415 20.5154 11.69 20.0454 11.88C19.5854 12.06 19.0704 12.15 18.5004 12.15C17.9704 12.15 17.4804 12.06 17.0304 11.88C16.5804 11.69 16.1904 11.415 15.8604 11.055C15.5304 10.695 15.2704 10.26 15.0804 9.75C14.9004 9.23 14.8104 8.635 14.8104 7.965C14.8104 7.075 14.9604 6.325 15.2604 5.715C15.5604 5.095 15.9904 4.625 16.5504 4.305C17.1104 3.975 17.7754 3.81 18.5454 3.81C19.2754 3.81 19.9154 3.975 20.4654 4.305C21.0254 4.625 21.4604 5.095 21.7704 5.715C22.0904 6.325 22.2504 7.075 22.2504 7.965ZM16.1754 7.965C16.1754 8.595 16.2554 9.145 16.4154 9.615C16.5854 10.075 16.8454 10.43 17.1954 10.68C17.5454 10.93 17.9904 11.055 18.5304 11.055C19.0704 11.055 19.5154 10.93 19.8654 10.68C20.2154 10.43 20.4704 10.075 20.6304 9.615C20.8004 9.145 20.8854 8.595 20.8854 7.965C20.8854 7.325 20.8004 6.78 20.6304 6.33C20.4604 5.88 20.2004 5.535 19.8504 5.295C19.5104 5.045 19.0654 4.92 18.5154 4.92C17.6954 4.92 17.1004 5.19 16.7304 5.73C16.3604 6.27 16.1754 7.015 16.1754 7.965ZM33.1624 3.81C34.0724 3.81 34.7524 4.045 35.2024 4.515C35.6524 4.975 35.8774 5.725 35.8774 6.765V12H34.5724V6.825C34.5724 6.195 34.4374 5.72 34.1674 5.4C33.9074 5.08 33.4974 4.92 32.9374 4.92C32.1574 4.92 31.5974 5.145 31.2574 5.595C30.9274 6.045 30.7624 6.7 30.7624 7.56V12H29.4574V6.825C29.4574 6.405 29.3974 6.055 29.2774 5.775C29.1574 5.485 28.9774 5.27 28.7374 5.13C28.4974 4.99 28.1874 4.92 27.8074 4.92C27.2674 4.92 26.8424 5.035 26.5324 5.265C26.2224 5.485 25.9974 5.81 25.8574 6.24C25.7274 6.67 25.6624 7.2 25.6624 7.83V12H24.3424V3.96H25.4074L25.6024 5.055H25.6774C25.8474 4.775 26.0524 4.545 26.2924 4.365C26.5424 4.175 26.8174 4.035 27.1174 3.945C27.4174 3.855 27.7274 3.81 28.0474 3.81C28.6674 3.81 29.1824 3.92 29.5924 4.14C30.0124 4.36 30.3174 4.7 30.5074 5.16H30.5824C30.8524 4.7 31.2174 4.36 31.6774 4.14C32.1474 3.92 32.6424 3.81 33.1624 3.81ZM45.3509 7.965C45.3509 8.635 45.2609 9.23 45.0809 9.75C44.9109 10.26 44.6609 10.695 44.3309 11.055C44.0109 11.415 43.6159 11.69 43.1459 11.88C42.6859 12.06 42.1709 12.15 41.6009 12.15C41.0709 12.15 40.5809 12.06 40.1309 11.88C39.6809 11.69 39.2909 11.415 38.9609 11.055C38.6309 10.695 38.3709 10.26 38.1809 9.75C38.0009 9.23 37.9109 8.635 37.9109 7.965C37.9109 7.075 38.0609 6.325 38.3609 5.715C38.6609 5.095 39.0909 4.625 39.6509 4.305C40.2109 3.975 40.8759 3.81 41.6459 3.81C42.3759 3.81 43.0159 3.975 43.5659 4.305C44.1259 4.625 44.5609 5.095 44.8709 5.715C45.1909 6.325 45.3509 7.075 45.3509 7.965ZM39.2759 7.965C39.2759 8.595 39.3559 9.145 39.5159 9.615C39.6859 10.075 39.9459 10.43 40.2959 10.68C40.6459 10.93 41.0909 11.055 41.6309 11.055C42.1709 11.055 42.6159 10.93 42.9659 10.68C43.3159 10.43 43.5709 10.075 43.7309 9.615C43.9009 9.145 43.9859 8.595 43.9859 7.965C43.9859 7.325 43.9009 6.78 43.7309 6.33C43.5609 5.88 43.3009 5.535 42.9509 5.295C42.6109 5.045 42.1659 4.92 41.6159 4.92C40.7959 4.92 40.2009 5.19 39.8309 5.73C39.4609 6.27 39.2759 7.015 39.2759 7.965ZM50.668 12.15C49.958 12.15 49.323 12.005 48.763 11.715C48.213 11.425 47.778 10.975 47.458 10.365C47.148 9.755 46.993 8.975 46.993 8.025C46.993 7.035 47.158 6.23 47.488 5.61C47.818 4.99 48.263 4.535 48.823 4.245C49.393 3.955 50.038 3.81 50.758 3.81C51.168 3.81 51.563 3.855 51.943 3.945C52.323 4.025 52.633 4.125 52.873 4.245L52.468 5.34C52.228 5.25 51.948 5.165 51.628 5.085C51.308 5.005 51.008 4.965 50.728 4.965C50.188 4.965 49.743 5.08 49.393 5.31C49.043 5.54 48.783 5.88 48.613 6.33C48.443 6.78 48.358 7.34 48.358 8.01C48.358 8.65 48.443 9.195 48.613 9.645C48.783 10.095 49.038 10.435 49.378 10.665C49.718 10.895 50.143 11.01 50.653 11.01C51.093 11.01 51.478 10.965 51.808 10.875C52.148 10.785 52.458 10.675 52.738 10.545V11.715C52.468 11.855 52.168 11.96 51.838 12.03C51.518 12.11 51.128 12.15 50.668 12.15ZM55.97 3.96V12H54.65V3.96H55.97ZM55.325 0.944999C55.525 0.944999 55.7 1.015 55.85 1.155C56.01 1.285 56.09 1.495 56.09 1.785C56.09 2.065 56.01 2.275 55.85 2.415C55.7 2.555 55.525 2.625 55.325 2.625C55.105 2.625 54.92 2.555 54.77 2.415C54.62 2.275 54.545 2.065 54.545 1.785C54.545 1.495 54.62 1.285 54.77 1.155C54.92 1.015 55.105 0.944999 55.325 0.944999ZM65.5072 7.965C65.5072 8.635 65.4172 9.23 65.2372 9.75C65.0672 10.26 64.8172 10.695 64.4872 11.055C64.1672 11.415 63.7722 11.69 63.3022 11.88C62.8422 12.06 62.3272 12.15 61.7572 12.15C61.2272 12.15 60.7372 12.06 60.2872 11.88C59.8372 11.69 59.4472 11.415 59.1172 11.055C58.7872 10.695 58.5272 10.26 58.3372 9.75C58.1572 9.23 58.0672 8.635 58.0672 7.965C58.0672 7.075 58.2172 6.325 58.5172 5.715C58.8172 5.095 59.2472 4.625 59.8072 4.305C60.3672 3.975 61.0322 3.81 61.8022 3.81C62.5322 3.81 63.1722 3.975 63.7222 4.305C64.2822 4.625 64.7172 5.095 65.0272 5.715C65.3472 6.325 65.5072 7.075 65.5072 7.965ZM59.4322 7.965C59.4322 8.595 59.5122 9.145 59.6722 9.615C59.8422 10.075 60.1022 10.43 60.4522 10.68C60.8022 10.93 61.2472 11.055 61.7872 11.055C62.3272 11.055 62.7722 10.93 63.1222 10.68C63.4722 10.43 63.7272 10.075 63.8872 9.615C64.0572 9.145 64.1422 8.595 64.1422 7.965C64.1422 7.325 64.0572 6.78 63.8872 6.33C63.7172 5.88 63.4572 5.535 63.1072 5.295C62.7672 5.045 62.3222 4.92 61.7722 4.92C60.9522 4.92 60.3572 5.19 59.9872 5.73C59.6172 6.27 59.4322 7.015 59.4322 7.965ZM71.4692 3.81C72.4292 3.81 73.1542 4.045 73.6442 4.515C74.1342 4.975 74.3792 5.725 74.3792 6.765V12H73.0742V6.855C73.0742 6.205 72.9292 5.72 72.6392 5.4C72.3492 5.08 71.8942 4.92 71.2742 4.92C70.3842 4.92 69.7692 5.17 69.4292 5.67C69.0892 6.17 68.9192 6.89 68.9192 7.83V12H67.5992V3.96H68.6642L68.8592 5.055H68.9342C69.1142 4.775 69.3342 4.545 69.5942 4.365C69.8642 4.175 70.1592 4.035 70.4792 3.945C70.7992 3.855 71.1292 3.81 71.4692 3.81ZM79.9767 3.81C80.6667 3.81 81.2567 3.96 81.7467 4.26C82.2467 4.56 82.6267 4.985 82.8867 5.535C83.1567 6.075 83.2917 6.71 83.2917 7.44V8.235H77.7867C77.8067 9.145 78.0367 9.84 78.4767 10.32C78.9267 10.79 79.5517 11.025 80.3517 11.025C80.8617 11.025 81.3117 10.98 81.7017 10.89C82.1017 10.79 82.5117 10.65 82.9317 10.47V11.625C82.5217 11.805 82.1167 11.935 81.7167 12.015C81.3167 12.105 80.8417 12.15 80.2917 12.15C79.5317 12.15 78.8567 11.995 78.2667 11.685C77.6867 11.375 77.2317 10.915 76.9017 10.305C76.5817 9.685 76.4217 8.93 76.4217 8.04C76.4217 7.16 76.5667 6.405 76.8567 5.775C77.1567 5.145 77.5717 4.66 78.1017 4.32C78.6417 3.98 79.2667 3.81 79.9767 3.81ZM79.9617 4.89C79.3317 4.89 78.8317 5.095 78.4617 5.505C78.1017 5.905 77.8867 6.465 77.8167 7.185H81.9117C81.9117 6.725 81.8417 6.325 81.7017 5.985C81.5617 5.645 81.3467 5.38 81.0567 5.19C80.7767 4.99 80.4117 4.89 79.9617 4.89ZM90.5735 9.78C90.5735 10.3 90.4435 10.735 90.1835 11.085C89.9235 11.435 89.5535 11.7 89.0735 11.88C88.5935 12.06 88.0235 12.15 87.3635 12.15C86.8035 12.15 86.3185 12.105 85.9085 12.015C85.5085 11.925 85.1535 11.8 84.8435 11.64V10.44C85.1635 10.6 85.5485 10.75 85.9985 10.89C86.4585 11.02 86.9235 11.085 87.3935 11.085C88.0635 11.085 88.5485 10.98 88.8485 10.77C89.1485 10.55 89.2985 10.26 89.2985 9.9C89.2985 9.7 89.2435 9.52 89.1335 9.36C89.0235 9.2 88.8235 9.04 88.5335 8.88C88.2535 8.72 87.8485 8.54 87.3185 8.34C86.7985 8.14 86.3535 7.94 85.9835 7.74C85.6135 7.54 85.3285 7.3 85.1285 7.02C84.9285 6.74 84.8285 6.38 84.8285 5.94C84.8285 5.26 85.1035 4.735 85.6535 4.365C86.2135 3.995 86.9435 3.81 87.8435 3.81C88.3335 3.81 88.7885 3.86 89.2085 3.96C89.6385 4.05 90.0385 4.18 90.4085 4.35L89.9585 5.4C89.7385 5.3 89.5035 5.215 89.2535 5.145C89.0135 5.065 88.7685 5.005 88.5185 4.965C88.2685 4.915 88.0135 4.89 87.7535 4.89C87.2135 4.89 86.7985 4.98 86.5085 5.16C86.2285 5.33 86.0885 5.565 86.0885 5.865C86.0885 6.085 86.1535 6.275 86.2835 6.435C86.4135 6.585 86.6285 6.735 86.9285 6.885C87.2385 7.025 87.6485 7.195 88.1585 7.395C88.6685 7.585 89.1035 7.78 89.4635 7.98C89.8235 8.18 90.0985 8.425 90.2885 8.715C90.4785 8.995 90.5735 9.35 90.5735 9.78ZM99.2627 12.15C98.2627 12.15 97.4627 11.805 96.8627 11.115C96.2627 10.415 95.9627 9.375 95.9627 7.995C95.9627 6.615 96.2627 5.575 96.8627 4.875C97.4727 4.165 98.2777 3.81 99.2777 3.81C99.6977 3.81 100.063 3.865 100.373 3.975C100.683 4.075 100.953 4.215 101.183 4.395C101.413 4.575 101.608 4.775 101.768 4.995H101.858C101.848 4.865 101.828 4.675 101.798 4.425C101.778 4.165 101.768 3.96 101.768 3.81V0.599999H103.088V12H102.023L101.828 10.92H101.768C101.608 11.15 101.413 11.36 101.183 11.55C100.953 11.73 100.678 11.875 100.358 11.985C100.048 12.095 99.6827 12.15 99.2627 12.15ZM99.4727 11.055C100.323 11.055 100.918 10.825 101.258 10.365C101.608 9.895 101.783 9.19 101.783 8.25V8.01C101.783 7.01 101.618 6.245 101.288 5.715C100.958 5.175 100.348 4.905 99.4577 4.905C98.7477 4.905 98.2127 5.19 97.8527 5.76C97.5027 6.32 97.3277 7.075 97.3277 8.025C97.3277 8.985 97.5027 9.73 97.8527 10.26C98.2127 10.79 98.7527 11.055 99.4727 11.055ZM108.746 3.81C109.436 3.81 110.026 3.96 110.516 4.26C111.016 4.56 111.396 4.985 111.656 5.535C111.926 6.075 112.061 6.71 112.061 7.44V8.235H106.556C106.576 9.145 106.806 9.84 107.246 10.32C107.696 10.79 108.321 11.025 109.121 11.025C109.631 11.025 110.081 10.98 110.471 10.89C110.871 10.79 111.281 10.65 111.701 10.47V11.625C111.291 11.805 110.886 11.935 110.486 12.015C110.086 12.105 109.611 12.15 109.061 12.15C108.301 12.15 107.626 11.995 107.036 11.685C106.456 11.375 106.001 10.915 105.671 10.305C105.351 9.685 105.191 8.93 105.191 8.04C105.191 7.16 105.336 6.405 105.626 5.775C105.926 5.145 106.341 4.66 106.871 4.32C107.411 3.98 108.036 3.81 108.746 3.81ZM108.731 4.89C108.101 4.89 107.601 5.095 107.231 5.505C106.871 5.905 106.656 6.465 106.586 7.185H110.681C110.681 6.725 110.611 6.325 110.471 5.985C110.331 5.645 110.116 5.38 109.826 5.19C109.546 4.99 109.181 4.89 108.731 4.89ZM119.343 9.78C119.343 10.3 119.213 10.735 118.953 11.085C118.693 11.435 118.323 11.7 117.843 11.88C117.363 12.06 116.793 12.15 116.133 12.15C115.573 12.15 115.088 12.105 114.678 12.015C114.278 11.925 113.923 11.8 113.613 11.64V10.44C113.933 10.6 114.318 10.75 114.768 10.89C115.228 11.02 115.693 11.085 116.163 11.085C116.833 11.085 117.318 10.98 117.618 10.77C117.918 10.55 118.068 10.26 118.068 9.9C118.068 9.7 118.013 9.52 117.903 9.36C117.793 9.2 117.593 9.04 117.303 8.88C117.023 8.72 116.618 8.54 116.088 8.34C115.568 8.14 115.123 7.94 114.753 7.74C114.383 7.54 114.098 7.3 113.898 7.02C113.698 6.74 113.598 6.38 113.598 5.94C113.598 5.26 113.873 4.735 114.423 4.365C114.983 3.995 115.713 3.81 116.613 3.81C117.103 3.81 117.558 3.86 117.978 3.96C118.408 4.05 118.808 4.18 119.178 4.35L118.728 5.4C118.508 5.3 118.273 5.215 118.023 5.145C117.783 5.065 117.538 5.005 117.288 4.965C117.038 4.915 116.783 4.89 116.523 4.89C115.983 4.89 115.568 4.98 115.278 5.16C114.998 5.33 114.858 5.565 114.858 5.865C114.858 6.085 114.923 6.275 115.053 6.435C115.183 6.585 115.398 6.735 115.698 6.885C116.008 7.025 116.418 7.195 116.928 7.395C117.438 7.585 117.873 7.78 118.233 7.98C118.593 8.18 118.868 8.425 119.058 8.715C119.248 8.995 119.343 9.35 119.343 9.78ZM124.136 12.15C123.136 12.15 122.336 11.805 121.736 11.115C121.136 10.415 120.836 9.375 120.836 7.995C120.836 6.615 121.136 5.575 121.736 4.875C122.346 4.165 123.151 3.81 124.151 3.81C124.571 3.81 124.936 3.865 125.246 3.975C125.556 4.075 125.826 4.215 126.056 4.395C126.286 4.575 126.481 4.775 126.641 4.995H126.731C126.721 4.865 126.701 4.675 126.671 4.425C126.651 4.165 126.641 3.96 126.641 3.81V0.599999H127.961V12H126.896L126.701 10.92H126.641C126.481 11.15 126.286 11.36 126.056 11.55C125.826 11.73 125.551 11.875 125.231 11.985C124.921 12.095 124.556 12.15 124.136 12.15ZM124.346 11.055C125.196 11.055 125.791 10.825 126.131 10.365C126.481 9.895 126.656 9.19 126.656 8.25V8.01C126.656 7.01 126.491 6.245 126.161 5.715C125.831 5.175 125.221 4.905 124.331 4.905C123.621 4.905 123.086 5.19 122.726 5.76C122.376 6.32 122.201 7.075 122.201 8.025C122.201 8.985 122.376 9.73 122.726 10.26C123.086 10.79 123.626 11.055 124.346 11.055ZM133.619 3.81C134.309 3.81 134.899 3.96 135.389 4.26C135.889 4.56 136.269 4.985 136.529 5.535C136.799 6.075 136.934 6.71 136.934 7.44V8.235H131.429C131.449 9.145 131.679 9.84 132.119 10.32C132.569 10.79 133.194 11.025 133.994 11.025C134.504 11.025 134.954 10.98 135.344 10.89C135.744 10.79 136.154 10.65 136.574 10.47V11.625C136.164 11.805 135.759 11.935 135.359 12.015C134.959 12.105 134.484 12.15 133.934 12.15C133.174 12.15 132.499 11.995 131.909 11.685C131.329 11.375 130.874 10.915 130.544 10.305C130.224 9.685 130.064 8.93 130.064 8.04C130.064 7.16 130.209 6.405 130.499 5.775C130.799 5.145 131.214 4.66 131.744 4.32C132.284 3.98 132.909 3.81 133.619 3.81ZM133.604 4.89C132.974 4.89 132.474 5.095 132.104 5.505C131.744 5.905 131.529 6.465 131.459 7.185H135.554C135.554 6.725 135.484 6.325 135.344 5.985C135.204 5.645 134.989 5.38 134.699 5.19C134.419 4.99 134.054 4.89 133.604 4.89ZM152.403 6.63C152.403 7.5 152.283 8.29 152.043 9C151.813 9.71 151.468 10.31 151.008 10.8C150.548 11.29 149.973 11.65 149.283 11.88L151.848 14.55H149.913L147.843 12.135C147.783 12.135 147.718 12.135 147.648 12.135C147.588 12.145 147.528 12.15 147.468 12.15C146.628 12.15 145.898 12.02 145.278 11.76C144.658 11.49 144.143 11.115 143.733 10.635C143.323 10.145 143.018 9.56 142.818 8.88C142.618 8.2 142.518 7.445 142.518 6.615C142.518 5.515 142.698 4.555 143.058 3.735C143.418 2.915 143.963 2.275 144.693 1.815C145.433 1.355 146.363 1.125 147.483 1.125C148.553 1.125 149.453 1.355 150.183 1.815C150.913 2.265 151.463 2.905 151.833 3.735C152.213 4.555 152.403 5.52 152.403 6.63ZM143.943 6.63C143.943 7.53 144.068 8.305 144.318 8.955C144.568 9.605 144.953 10.105 145.473 10.455C146.003 10.805 146.668 10.98 147.468 10.98C148.278 10.98 148.938 10.805 149.448 10.455C149.968 10.105 150.353 9.605 150.603 8.955C150.853 8.305 150.978 7.53 150.978 6.63C150.978 5.28 150.698 4.225 150.138 3.465C149.578 2.695 148.693 2.31 147.483 2.31C146.673 2.31 146.003 2.485 145.473 2.835C144.953 3.175 144.568 3.67 144.318 4.32C144.068 4.96 143.943 5.73 143.943 6.63ZM161.121 12H154.041V10.905L156.846 8.07C157.386 7.53 157.841 7.05 158.211 6.63C158.581 6.21 158.861 5.8 159.051 5.4C159.241 4.99 159.336 4.545 159.336 4.065C159.336 3.475 159.161 3.03 158.811 2.73C158.461 2.42 158.006 2.265 157.446 2.265C156.926 2.265 156.466 2.355 156.066 2.535C155.676 2.715 155.276 2.965 154.866 3.285L154.161 2.4C154.441 2.16 154.746 1.945 155.076 1.755C155.416 1.565 155.781 1.415 156.171 1.305C156.571 1.195 156.996 1.14 157.446 1.14C158.116 1.14 158.691 1.255 159.171 1.485C159.651 1.715 160.021 2.045 160.281 2.475C160.551 2.895 160.686 3.4 160.686 3.99C160.686 4.41 160.621 4.81 160.491 5.19C160.361 5.56 160.176 5.925 159.936 6.285C159.696 6.645 159.406 7.01 159.066 7.38C158.726 7.75 158.351 8.135 157.941 8.535L155.706 10.74V10.8H161.121V12ZM166.03 5.43C166.76 5.43 167.395 5.555 167.935 5.805C168.475 6.055 168.89 6.415 169.18 6.885C169.48 7.345 169.63 7.91 169.63 8.58C169.63 9.32 169.47 9.96 169.15 10.5C168.83 11.03 168.37 11.44 167.77 11.73C167.18 12.01 166.465 12.15 165.625 12.15C165.075 12.15 164.555 12.1 164.065 12C163.585 11.9 163.18 11.755 162.85 11.565V10.32C163.21 10.54 163.645 10.715 164.155 10.845C164.675 10.965 165.17 11.025 165.64 11.025C166.17 11.025 166.63 10.945 167.02 10.785C167.42 10.615 167.73 10.36 167.95 10.02C168.17 9.67 168.28 9.235 168.28 8.715C168.28 8.015 168.065 7.48 167.635 7.11C167.205 6.73 166.525 6.54 165.595 6.54C165.315 6.54 164.995 6.565 164.635 6.615C164.275 6.665 163.985 6.715 163.765 6.765L163.105 6.345L163.51 1.29H168.88V2.49H164.635L164.38 5.595C164.55 5.565 164.78 5.53 165.07 5.49C165.36 5.45 165.68 5.43 166.03 5.43ZM178.334 6.63C178.334 7.5 178.269 8.275 178.139 8.955C178.009 9.635 177.799 10.215 177.509 10.695C177.229 11.165 176.859 11.525 176.399 11.775C175.949 12.025 175.404 12.15 174.764 12.15C173.964 12.15 173.299 11.93 172.769 11.49C172.249 11.05 171.859 10.42 171.599 9.6C171.349 8.77 171.224 7.78 171.224 6.63C171.224 5.47 171.339 4.48 171.569 3.66C171.809 2.84 172.189 2.215 172.709 1.785C173.229 1.345 173.914 1.125 174.764 1.125C175.564 1.125 176.229 1.345 176.759 1.785C177.289 2.215 177.684 2.84 177.944 3.66C178.204 4.48 178.334 5.47 178.334 6.63ZM172.544 6.63C172.544 7.61 172.614 8.425 172.754 9.075C172.904 9.725 173.139 10.215 173.459 10.545C173.789 10.865 174.224 11.025 174.764 11.025C175.304 11.025 175.734 10.865 176.054 10.545C176.384 10.225 176.624 9.74 176.774 9.09C176.924 8.43 176.999 7.61 176.999 6.63C176.999 5.65 176.924 4.84 176.774 4.2C176.624 3.55 176.384 3.065 176.054 2.745C175.734 2.415 175.304 2.25 174.764 2.25C174.224 2.25 173.789 2.415 173.459 2.745C173.139 3.065 172.904 3.55 172.754 4.2C172.614 4.84 172.544 5.65 172.544 6.63ZM187.35 3.81C188.04 3.81 188.63 3.96 189.12 4.26C189.62 4.56 190 4.985 190.26 5.535C190.53 6.075 190.665 6.71 190.665 7.44V8.235H185.16C185.18 9.145 185.41 9.84 185.85 10.32C186.3 10.79 186.925 11.025 187.725 11.025C188.235 11.025 188.685 10.98 189.075 10.89C189.475 10.79 189.885 10.65 190.305 10.47V11.625C189.895 11.805 189.49 11.935 189.09 12.015C188.69 12.105 188.215 12.15 187.665 12.15C186.905 12.15 186.23 11.995 185.64 11.685C185.06 11.375 184.605 10.915 184.275 10.305C183.955 9.685 183.795 8.93 183.795 8.04C183.795 7.16 183.94 6.405 184.23 5.775C184.53 5.145 184.945 4.66 185.475 4.32C186.015 3.98 186.64 3.81 187.35 3.81ZM187.335 4.89C186.705 4.89 186.205 5.095 185.835 5.505C185.475 5.905 185.26 6.465 185.19 7.185H189.285C189.285 6.725 189.215 6.325 189.075 5.985C188.935 5.645 188.72 5.38 188.43 5.19C188.15 4.99 187.785 4.89 187.335 4.89ZM196.582 3.81C197.542 3.81 198.267 4.045 198.757 4.515C199.247 4.975 199.492 5.725 199.492 6.765V12H198.187V6.855C198.187 6.205 198.042 5.72 197.752 5.4C197.462 5.08 197.007 4.92 196.387 4.92C195.497 4.92 194.882 5.17 194.542 5.67C194.202 6.17 194.032 6.89 194.032 7.83V12H192.712V3.96H193.777L193.972 5.055H194.047C194.227 4.775 194.447 4.545 194.707 4.365C194.977 4.175 195.272 4.035 195.592 3.945C195.912 3.855 196.242 3.81 196.582 3.81ZM209.705 3.81C210.695 3.81 211.49 4.155 212.09 4.845C212.7 5.535 213.005 6.575 213.005 7.965C213.005 8.875 212.865 9.645 212.585 10.275C212.315 10.895 211.93 11.365 211.43 11.685C210.94 11.995 210.36 12.15 209.69 12.15C209.28 12.15 208.915 12.095 208.595 11.985C208.275 11.875 208 11.735 207.77 11.565C207.55 11.385 207.36 11.19 207.2 10.98H207.11C207.13 11.15 207.15 11.365 207.17 11.625C207.19 11.885 207.2 12.11 207.2 12.3V15.6H205.88V3.96H206.96L207.14 5.055H207.2C207.36 4.825 207.55 4.615 207.77 4.425C208 4.235 208.27 4.085 208.58 3.975C208.9 3.865 209.275 3.81 209.705 3.81ZM209.465 4.92C208.925 4.92 208.49 5.025 208.16 5.235C207.83 5.435 207.59 5.74 207.44 6.15C207.29 6.56 207.21 7.08 207.2 7.71V7.965C207.2 8.625 207.27 9.185 207.41 9.645C207.55 10.105 207.785 10.455 208.115 10.695C208.455 10.935 208.915 11.055 209.495 11.055C209.985 11.055 210.385 10.92 210.695 10.65C211.015 10.38 211.25 10.015 211.4 9.555C211.56 9.085 211.64 8.55 211.64 7.95C211.64 7.03 211.46 6.295 211.1 5.745C210.75 5.195 210.205 4.92 209.465 4.92ZM216.429 12H215.109V0.599999H216.429V12ZM222.021 3.825C223.001 3.825 223.726 4.04 224.196 4.47C224.666 4.9 224.901 5.585 224.901 6.525V12H223.941L223.686 10.86H223.626C223.396 11.15 223.156 11.395 222.906 11.595C222.666 11.785 222.386 11.925 222.066 12.015C221.756 12.105 221.376 12.15 220.926 12.15C220.446 12.15 220.011 12.065 219.621 11.895C219.241 11.725 218.941 11.465 218.721 11.115C218.501 10.755 218.391 10.305 218.391 9.765C218.391 8.965 218.706 8.35 219.336 7.92C219.966 7.48 220.936 7.24 222.246 7.2L223.611 7.155V6.675C223.611 6.005 223.466 5.54 223.176 5.28C222.886 5.02 222.476 4.89 221.946 4.89C221.526 4.89 221.126 4.955 220.746 5.085C220.366 5.205 220.011 5.345 219.681 5.505L219.276 4.515C219.626 4.325 220.041 4.165 220.521 4.035C221.001 3.895 221.501 3.825 222.021 3.825ZM222.411 8.115C221.411 8.155 220.716 8.315 220.326 8.595C219.946 8.875 219.756 9.27 219.756 9.78C219.756 10.23 219.891 10.56 220.161 10.77C220.441 10.98 220.796 11.085 221.226 11.085C221.906 11.085 222.471 10.9 222.921 10.53C223.371 10.15 223.596 9.57 223.596 8.79V8.07L222.411 8.115ZM230.069 11.07C230.269 11.07 230.474 11.055 230.684 11.025C230.894 10.985 231.064 10.945 231.194 10.905V11.91C231.054 11.98 230.854 12.035 230.594 12.075C230.334 12.125 230.084 12.15 229.844 12.15C229.424 12.15 229.034 12.08 228.674 11.94C228.324 11.79 228.039 11.535 227.819 11.175C227.599 10.815 227.489 10.31 227.489 9.66V4.98H226.349V4.35L227.504 3.825L228.029 2.115H228.809V3.96H231.134V4.98H228.809V9.63C228.809 10.12 228.924 10.485 229.154 10.725C229.394 10.955 229.699 11.07 230.069 11.07ZM234.124 3.96V12H232.804V3.96H234.124ZM233.479 0.944999C233.679 0.944999 233.854 1.015 234.004 1.155C234.164 1.285 234.244 1.495 234.244 1.785C234.244 2.065 234.164 2.275 234.004 2.415C233.854 2.555 233.679 2.625 233.479 2.625C233.259 2.625 233.074 2.555 232.924 2.415C232.774 2.275 232.699 2.065 232.699 1.785C232.699 1.495 232.774 1.285 232.924 1.155C233.074 1.015 233.259 0.944999 233.479 0.944999ZM237.991 12H236.671V0.599999H237.991V12ZM241.859 12H240.539V0.599999H241.859V12ZM251.396 7.965C251.396 8.635 251.306 9.23 251.126 9.75C250.956 10.26 250.706 10.695 250.376 11.055C250.056 11.415 249.661 11.69 249.191 11.88C248.731 12.06 248.216 12.15 247.646 12.15C247.116 12.15 246.626 12.06 246.176 11.88C245.726 11.69 245.336 11.415 245.006 11.055C244.676 10.695 244.416 10.26 244.226 9.75C244.046 9.23 243.956 8.635 243.956 7.965C243.956 7.075 244.106 6.325 244.406 5.715C244.706 5.095 245.136 4.625 245.696 4.305C246.256 3.975 246.921 3.81 247.691 3.81C248.421 3.81 249.061 3.975 249.611 4.305C250.171 4.625 250.606 5.095 250.916 5.715C251.236 6.325 251.396 7.075 251.396 7.965ZM245.321 7.965C245.321 8.595 245.401 9.145 245.561 9.615C245.731 10.075 245.991 10.43 246.341 10.68C246.691 10.93 247.136 11.055 247.676 11.055C248.216 11.055 248.661 10.93 249.011 10.68C249.361 10.43 249.616 10.075 249.776 9.615C249.946 9.145 250.031 8.595 250.031 7.965C250.031 7.325 249.946 6.78 249.776 6.33C249.606 5.88 249.346 5.535 248.996 5.295C248.656 5.045 248.211 4.92 247.661 4.92C246.841 4.92 246.246 5.19 245.876 5.73C245.506 6.27 245.321 7.015 245.321 7.965ZM258.723 9.78C258.723 10.3 258.593 10.735 258.333 11.085C258.073 11.435 257.703 11.7 257.223 11.88C256.743 12.06 256.173 12.15 255.513 12.15C254.953 12.15 254.468 12.105 254.058 12.015C253.658 11.925 253.303 11.8 252.993 11.64V10.44C253.313 10.6 253.698 10.75 254.148 10.89C254.608 11.02 255.073 11.085 255.543 11.085C256.213 11.085 256.698 10.98 256.998 10.77C257.298 10.55 257.448 10.26 257.448 9.9C257.448 9.7 257.393 9.52 257.283 9.36C257.173 9.2 256.973 9.04 256.683 8.88C256.403 8.72 255.998 8.54 255.468 8.34C254.948 8.14 254.503 7.94 254.133 7.74C253.763 7.54 253.478 7.3 253.278 7.02C253.078 6.74 252.978 6.38 252.978 5.94C252.978 5.26 253.253 4.735 253.803 4.365C254.363 3.995 255.093 3.81 255.993 3.81C256.483 3.81 256.938 3.86 257.358 3.96C257.788 4.05 258.188 4.18 258.558 4.35L258.108 5.4C257.888 5.3 257.653 5.215 257.403 5.145C257.163 5.065 256.918 5.005 256.668 4.965C256.418 4.915 256.163 4.89 255.903 4.89C255.363 4.89 254.948 4.98 254.658 5.16C254.378 5.33 254.238 5.565 254.238 5.865C254.238 6.085 254.303 6.275 254.433 6.435C254.563 6.585 254.778 6.735 255.078 6.885C255.388 7.025 255.798 7.195 256.308 7.395C256.818 7.585 257.253 7.78 257.613 7.98C257.973 8.18 258.248 8.425 258.438 8.715C258.628 8.995 258.723 9.35 258.723 9.78ZM267.247 11.07C267.447 11.07 267.652 11.055 267.862 11.025C268.072 10.985 268.242 10.945 268.372 10.905V11.91C268.232 11.98 268.032 12.035 267.772 12.075C267.512 12.125 267.262 12.15 267.022 12.15C266.602 12.15 266.212 12.08 265.852 11.94C265.502 11.79 265.217 11.535 264.997 11.175C264.777 10.815 264.667 10.31 264.667 9.66V4.98H263.527V4.35L264.682 3.825L265.207 2.115H265.987V3.96H268.312V4.98H265.987V9.63C265.987 10.12 266.102 10.485 266.332 10.725C266.572 10.955 266.877 11.07 267.247 11.07ZM273.732 3.81C273.882 3.81 274.042 3.82 274.212 3.84C274.392 3.85 274.547 3.87 274.677 3.9L274.512 5.115C274.382 5.085 274.237 5.06 274.077 5.04C273.927 5.02 273.782 5.01 273.642 5.01C273.332 5.01 273.037 5.075 272.757 5.205C272.477 5.335 272.227 5.52 272.007 5.76C271.787 5.99 271.612 6.27 271.482 6.6C271.362 6.93 271.302 7.3 271.302 7.71V12H269.982V3.96H271.062L271.212 5.43H271.272C271.442 5.13 271.647 4.86 271.887 4.62C272.127 4.37 272.402 4.175 272.712 4.035C273.022 3.885 273.362 3.81 273.732 3.81ZM278.93 3.825C279.91 3.825 280.635 4.04 281.105 4.47C281.575 4.9 281.81 5.585 281.81 6.525V12H280.85L280.595 10.86H280.535C280.305 11.15 280.065 11.395 279.815 11.595C279.575 11.785 279.295 11.925 278.975 12.015C278.665 12.105 278.285 12.15 277.835 12.15C277.355 12.15 276.92 12.065 276.53 11.895C276.15 11.725 275.85 11.465 275.63 11.115C275.41 10.755 275.3 10.305 275.3 9.765C275.3 8.965 275.615 8.35 276.245 7.92C276.875 7.48 277.845 7.24 279.155 7.2L280.52 7.155V6.675C280.52 6.005 280.375 5.54 280.085 5.28C279.795 5.02 279.385 4.89 278.855 4.89C278.435 4.89 278.035 4.955 277.655 5.085C277.275 5.205 276.92 5.345 276.59 5.505L276.185 4.515C276.535 4.325 276.95 4.165 277.43 4.035C277.91 3.895 278.41 3.825 278.93 3.825ZM279.32 8.115C278.32 8.155 277.625 8.315 277.235 8.595C276.855 8.875 276.665 9.27 276.665 9.78C276.665 10.23 276.8 10.56 277.07 10.77C277.35 10.98 277.705 11.085 278.135 11.085C278.815 11.085 279.38 10.9 279.83 10.53C280.28 10.15 280.505 9.57 280.505 8.79V8.07L279.32 8.115ZM287.144 12.15C286.144 12.15 285.344 11.805 284.744 11.115C284.144 10.415 283.844 9.375 283.844 7.995C283.844 6.615 284.144 5.575 284.744 4.875C285.354 4.165 286.159 3.81 287.159 3.81C287.579 3.81 287.944 3.865 288.254 3.975C288.564 4.075 288.834 4.215 289.064 4.395C289.294 4.575 289.489 4.775 289.649 4.995H289.739C289.729 4.865 289.709 4.675 289.679 4.425C289.659 4.165 289.649 3.96 289.649 3.81V0.599999H290.969V12H289.904L289.709 10.92H289.649C289.489 11.15 289.294 11.36 289.064 11.55C288.834 11.73 288.559 11.875 288.239 11.985C287.929 12.095 287.564 12.15 287.144 12.15ZM287.354 11.055C288.204 11.055 288.799 10.825 289.139 10.365C289.489 9.895 289.664 9.19 289.664 8.25V8.01C289.664 7.01 289.499 6.245 289.169 5.715C288.839 5.175 288.229 4.905 287.339 4.905C286.629 4.905 286.094 5.19 285.734 5.76C285.384 6.32 285.209 7.075 285.209 8.025C285.209 8.985 285.384 9.73 285.734 10.26C286.094 10.79 286.634 11.055 287.354 11.055ZM294.842 3.96V12H293.522V3.96H294.842ZM294.197 0.944999C294.397 0.944999 294.572 1.015 294.722 1.155C294.882 1.285 294.962 1.495 294.962 1.785C294.962 2.065 294.882 2.275 294.722 2.415C294.572 2.555 294.397 2.625 294.197 2.625C293.977 2.625 293.792 2.555 293.642 2.415C293.492 2.275 293.417 2.065 293.417 1.785C293.417 1.495 293.492 1.285 293.642 1.155C293.792 1.015 293.977 0.944999 294.197 0.944999ZM300.614 12.15C299.904 12.15 299.269 12.005 298.709 11.715C298.159 11.425 297.724 10.975 297.404 10.365C297.094 9.755 296.939 8.975 296.939 8.025C296.939 7.035 297.104 6.23 297.434 5.61C297.764 4.99 298.209 4.535 298.769 4.245C299.339 3.955 299.984 3.81 300.704 3.81C301.114 3.81 301.509 3.855 301.889 3.945C302.269 4.025 302.579 4.125 302.819 4.245L302.414 5.34C302.174 5.25 301.894 5.165 301.574 5.085C301.254 5.005 300.954 4.965 300.674 4.965C300.134 4.965 299.689 5.08 299.339 5.31C298.989 5.54 298.729 5.88 298.559 6.33C298.389 6.78 298.304 7.34 298.304 8.01C298.304 8.65 298.389 9.195 298.559 9.645C298.729 10.095 298.984 10.435 299.324 10.665C299.664 10.895 300.089 11.01 300.599 11.01C301.039 11.01 301.424 10.965 301.754 10.875C302.094 10.785 302.404 10.675 302.684 10.545V11.715C302.414 11.855 302.114 11.96 301.784 12.03C301.464 12.11 301.074 12.15 300.614 12.15ZM305.916 3.96V12H304.596V3.96H305.916ZM305.271 0.944999C305.471 0.944999 305.646 1.015 305.796 1.155C305.956 1.285 306.036 1.495 306.036 1.785C306.036 2.065 305.956 2.275 305.796 2.415C305.646 2.555 305.471 2.625 305.271 2.625C305.051 2.625 304.866 2.555 304.716 2.415C304.566 2.275 304.491 2.065 304.491 1.785C304.491 1.495 304.566 1.285 304.716 1.155C304.866 1.015 305.051 0.944999 305.271 0.944999ZM315.453 7.965C315.453 8.635 315.363 9.23 315.183 9.75C315.013 10.26 314.763 10.695 314.433 11.055C314.113 11.415 313.718 11.69 313.248 11.88C312.788 12.06 312.273 12.15 311.703 12.15C311.173 12.15 310.683 12.06 310.233 11.88C309.783 11.69 309.393 11.415 309.063 11.055C308.733 10.695 308.473 10.26 308.283 9.75C308.103 9.23 308.013 8.635 308.013 7.965C308.013 7.075 308.163 6.325 308.463 5.715C308.763 5.095 309.193 4.625 309.753 4.305C310.313 3.975 310.978 3.81 311.748 3.81C312.478 3.81 313.118 3.975 313.668 4.305C314.228 4.625 314.663 5.095 314.973 5.715C315.293 6.325 315.453 7.075 315.453 7.965ZM309.378 7.965C309.378 8.595 309.458 9.145 309.618 9.615C309.788 10.075 310.048 10.43 310.398 10.68C310.748 10.93 311.193 11.055 311.733 11.055C312.273 11.055 312.718 10.93 313.068 10.68C313.418 10.43 313.673 10.075 313.833 9.615C314.003 9.145 314.088 8.595 314.088 7.965C314.088 7.325 314.003 6.78 313.833 6.33C313.663 5.88 313.403 5.535 313.053 5.295C312.713 5.045 312.268 4.92 311.718 4.92C310.898 4.92 310.303 5.19 309.933 5.73C309.563 6.27 309.378 7.015 309.378 7.965ZM321.416 3.81C322.376 3.81 323.101 4.045 323.591 4.515C324.081 4.975 324.326 5.725 324.326 6.765V12H323.021V6.855C323.021 6.205 322.876 5.72 322.586 5.4C322.296 5.08 321.841 4.92 321.221 4.92C320.331 4.92 319.716 5.17 319.376 5.67C319.036 6.17 318.866 6.89 318.866 7.83V12H317.546V3.96H318.611L318.806 5.055H318.881C319.061 4.775 319.281 4.545 319.541 4.365C319.811 4.175 320.106 4.035 320.426 3.945C320.746 3.855 321.076 3.81 321.416 3.81ZM329.863 3.825C330.843 3.825 331.568 4.04 332.038 4.47C332.508 4.9 332.743 5.585 332.743 6.525V12H331.783L331.528 10.86H331.468C331.238 11.15 330.998 11.395 330.748 11.595C330.508 11.785 330.228 11.925 329.908 12.015C329.598 12.105 329.218 12.15 328.768 12.15C328.288 12.15 327.853 12.065 327.463 11.895C327.083 11.725 326.783 11.465 326.563 11.115C326.343 10.755 326.233 10.305 326.233 9.765C326.233 8.965 326.548 8.35 327.178 7.92C327.808 7.48 328.778 7.24 330.088 7.2L331.453 7.155V6.675C331.453 6.005 331.308 5.54 331.018 5.28C330.728 5.02 330.318 4.89 329.788 4.89C329.368 4.89 328.968 4.955 328.588 5.085C328.208 5.205 327.853 5.345 327.523 5.505L327.118 4.515C327.468 4.325 327.883 4.165 328.363 4.035C328.843 3.895 329.343 3.825 329.863 3.825ZM330.253 8.115C329.253 8.155 328.558 8.315 328.168 8.595C327.788 8.875 327.598 9.27 327.598 9.78C327.598 10.23 327.733 10.56 328.003 10.77C328.283 10.98 328.638 11.085 329.068 11.085C329.748 11.085 330.313 10.9 330.763 10.53C331.213 10.15 331.438 9.57 331.438 8.79V8.07L330.253 8.115ZM336.546 12H335.226V0.599999H336.546V12ZM342.198 3.81C342.888 3.81 343.478 3.96 343.968 4.26C344.468 4.56 344.848 4.985 345.108 5.535C345.378 6.075 345.513 6.71 345.513 7.44V8.235H340.008C340.028 9.145 340.258 9.84 340.698 10.32C341.148 10.79 341.773 11.025 342.573 11.025C343.083 11.025 343.533 10.98 343.923 10.89C344.323 10.79 344.733 10.65 345.153 10.47V11.625C344.743 11.805 344.338 11.935 343.938 12.015C343.538 12.105 343.063 12.15 342.513 12.15C341.753 12.15 341.078 11.995 340.488 11.685C339.908 11.375 339.453 10.915 339.123 10.305C338.803 9.685 338.643 8.93 338.643 8.04C338.643 7.16 338.788 6.405 339.078 5.775C339.378 5.145 339.793 4.66 340.323 4.32C340.863 3.98 341.488 3.81 342.198 3.81ZM342.183 4.89C341.553 4.89 341.053 5.095 340.683 5.505C340.323 5.905 340.108 6.465 340.038 7.185H344.133C344.133 6.725 344.063 6.325 343.923 5.985C343.783 5.645 343.568 5.38 343.278 5.19C342.998 4.99 342.633 4.89 342.183 4.89ZM352.795 9.78C352.795 10.3 352.665 10.735 352.405 11.085C352.145 11.435 351.775 11.7 351.295 11.88C350.815 12.06 350.245 12.15 349.585 12.15C349.025 12.15 348.54 12.105 348.13 12.015C347.73 11.925 347.375 11.8 347.065 11.64V10.44C347.385 10.6 347.77 10.75 348.22 10.89C348.68 11.02 349.145 11.085 349.615 11.085C350.285 11.085 350.77 10.98 351.07 10.77C351.37 10.55 351.52 10.26 351.52 9.9C351.52 9.7 351.465 9.52 351.355 9.36C351.245 9.2 351.045 9.04 350.755 8.88C350.475 8.72 350.07 8.54 349.54 8.34C349.02 8.14 348.575 7.94 348.205 7.74C347.835 7.54 347.55 7.3 347.35 7.02C347.15 6.74 347.05 6.38 347.05 5.94C347.05 5.26 347.325 4.735 347.875 4.365C348.435 3.995 349.165 3.81 350.065 3.81C350.555 3.81 351.01 3.86 351.43 3.96C351.86 4.05 352.26 4.18 352.63 4.35L352.18 5.4C351.96 5.3 351.725 5.215 351.475 5.145C351.235 5.065 350.99 5.005 350.74 4.965C350.49 4.915 350.235 4.89 349.975 4.89C349.435 4.89 349.02 4.98 348.73 5.16C348.45 5.33 348.31 5.565 348.31 5.865C348.31 6.085 348.375 6.275 348.505 6.435C348.635 6.585 348.85 6.735 349.15 6.885C349.46 7.025 349.87 7.195 350.38 7.395C350.89 7.585 351.325 7.78 351.685 7.98C352.045 8.18 352.32 8.425 352.51 8.715C352.7 8.995 352.795 9.35 352.795 9.78Z" fill="black"/>
</svg>
