<svg width="25" height="25" viewBox="0 0 25 25" fill="none" xmlns="http://www.w3.org/2000/svg">
<path d="M11.1063 3.49385C9.00947 4.46755 4.0702 7.46035 4.1339 14.0283L4.17238 17.9963C4.18323 19.1141 4.18866 19.6739 4.41056 20.0992C4.60595 20.4736 4.91566 20.7764 5.29383 20.9644C5.72375 21.1783 6.28299 21.1728 7.40304 21.162L17.0026 21.0689C18.1226 21.058 18.6831 21.0526 19.1088 20.8305C19.4832 20.6351 19.786 20.3264 19.9741 19.9482C20.1879 19.5183 20.1825 18.9578 20.1716 17.8378L20.1331 13.8731C20.0694 7.30519 15.0733 4.40873 12.958 3.47588C12.7338 3.37698 12.6211 3.32763 12.368 3.2867C12.2083 3.26088 11.8504 3.26435 11.6913 3.29327C11.4399 3.33894 11.3293 3.39027 11.1086 3.49278L11.1063 3.49385Z" stroke="white" stroke-width="2" stroke-linecap="round" stroke-linejoin="round"/>
</svg>
