<svg width="45" height="45" viewBox="0 0 45 45" fill="none" xmlns="http://www.w3.org/2000/svg">
<path d="M22.5009 13.2693V22.4999L28.27 28.2691" stroke="white" stroke-width="3" stroke-linecap="round" stroke-linejoin="round"/>
<path d="M4.81948 10.664L3.08873 10.6709C3.09055 11.1272 3.27243 11.5642 3.59482 11.887C3.91721 12.2099 4.35402 12.3923 4.81025 12.3948L4.81948 10.664ZM10.6856 12.4224C10.9129 12.4235 11.1381 12.3798 11.3485 12.2938C11.5589 12.2078 11.7503 12.0812 11.9118 11.9212C12.0732 11.7613 12.2016 11.5711 12.2896 11.3615C12.3775 11.1519 12.4233 10.9271 12.4244 10.6998C12.4255 10.4725 12.3817 10.2472 12.2957 10.0368C12.2097 9.82644 12.0831 9.63505 11.9232 9.47359C11.7632 9.31212 11.573 9.18375 11.3634 9.09579C11.1539 9.00783 10.929 8.96202 10.7017 8.96095L10.6856 12.4224ZM6.52023 4.77947C6.51901 4.55219 6.47305 4.32737 6.38495 4.11785C6.29685 3.90833 6.16835 3.71821 6.00677 3.55835C5.8452 3.3985 5.65373 3.27203 5.44328 3.18617C5.23283 3.10031 5.00753 3.05675 4.78025 3.05796C4.55296 3.05917 4.32814 3.10514 4.11862 3.19324C3.9091 3.28133 3.71898 3.40984 3.55912 3.57141C3.39927 3.73298 3.2728 3.92446 3.18694 4.1349C3.10108 4.34535 3.05752 4.57065 3.05873 4.79793L6.52023 4.77947ZM3.64026 19.6962C3.67342 19.47 3.66144 19.2395 3.60501 19.0179C3.54858 18.7964 3.44882 18.5882 3.31148 18.4054C3.17415 18.2227 3.00196 18.0689 2.80488 17.9531C2.60779 17.8372 2.3897 17.7616 2.16321 17.7305C1.93671 17.6994 1.70631 17.7135 1.48529 17.7719C1.26427 17.8304 1.05702 17.932 0.875517 18.071C0.69401 18.21 0.54184 18.3836 0.427794 18.5818C0.313749 18.7799 0.240089 18.9987 0.211067 19.2254L3.64026 19.6962ZM38.336 6.66483C29.5207 -2.15043 15.2755 -2.24274 6.51792 6.51714L8.96404 8.96326C16.3486 1.58106 28.4015 1.6249 35.8899 9.11095L38.336 6.66483ZM6.66561 38.3352C15.4809 47.1504 29.7261 47.2427 38.4837 38.4829L36.0376 36.0367C28.6531 43.4189 16.6001 43.3751 9.11174 35.889L6.66561 38.3352ZM38.4837 38.4829C47.2413 29.7253 47.1513 15.4801 38.336 6.66483L35.8899 9.11095C43.376 16.5993 43.4198 28.6522 36.0376 36.0367L38.4837 38.4829ZM6.51792 6.51714L3.59411 9.43864L6.04254 11.8848L8.96404 8.96326L6.51792 6.51714ZM4.81025 12.3948L10.6856 12.4224L10.7017 8.96095L4.82871 8.93326L4.81025 12.3948ZM6.55023 10.6548L6.52023 4.77947L3.05873 4.79793L3.08873 10.6709L6.55023 10.6548ZM0.208759 19.2231C-0.265372 22.6906 0.0707121 26.2207 1.19062 29.5364C2.31054 32.8521 4.18379 35.863 6.6633 38.3329L9.10943 35.8867C7.00766 33.7944 5.41971 31.2431 4.47034 28.4334C3.52097 25.6238 3.23605 22.6322 3.63795 19.6939L0.208759 19.2231Z" fill="white"/>
</svg>
