<svg width="24" height="30" viewBox="0 0 24 30" fill="none" xmlns="http://www.w3.org/2000/svg">
<path d="M9.725 14.8605L17.075 24.048C17.325 24.3605 17.446 24.725 17.438 25.1417C17.43 25.5584 17.3007 25.923 17.05 26.2355C16.7993 26.548 16.5077 26.7042 16.175 26.7042C15.8423 26.7042 15.5507 26.548 15.3 26.2355L7.6 16.6417C7.4 16.3917 7.25 16.1105 7.15 15.798C7.05 15.4855 7 15.173 7 14.8605C7 14.548 7.05 14.2355 7.15 13.923C7.25 13.6105 7.4 13.3292 7.6 13.0792L15.3 3.45421C15.55 3.14171 15.846 2.99047 16.188 3.00047C16.53 3.01047 16.8257 3.17213 17.075 3.48547C17.3243 3.7988 17.4493 4.16338 17.45 4.57922C17.4507 4.99505 17.3257 5.35963 17.075 5.67297L9.725 14.8605Z" fill="black"/>
</svg>
