<svg width="24" height="30" viewBox="0 0 24 30" fill="none" xmlns="http://www.w3.org/2000/svg">
<path d="M14.725 14.8605L7.37495 24.048C7.12495 24.3605 7.00395 24.725 7.01195 25.1417C7.01995 25.5584 7.14928 25.923 7.39995 26.2355C7.65062 26.548 7.94228 26.7042 8.27495 26.7042C8.60762 26.7042 8.89928 26.548 9.14995 26.2355L16.85 16.6417C17.05 16.3917 17.2 16.1105 17.3 15.798C17.4 15.4855 17.45 15.173 17.45 14.8605C17.45 14.548 17.4 14.2355 17.3 13.923C17.2 13.6105 17.05 13.3292 16.85 13.0792L9.14995 3.45421C8.89995 3.14171 8.60395 2.99047 8.26195 3.00047C7.91995 3.01047 7.62428 3.17213 7.37495 3.48547C7.12562 3.7988 7.00062 4.16338 6.99995 4.57922C6.99928 4.99505 7.12428 5.35963 7.37495 5.67297L14.725 14.8605Z" fill="black"/>
</svg>
