<svg width="40" height="40" viewBox="0 0 40 40" fill="none" xmlns="http://www.w3.org/2000/svg">
<path d="M9.58334 9.16675C9.58334 8.3932 9.89063 7.65133 10.4376 7.10435C10.9846 6.55737 11.7265 6.25008 12.5 6.25008C13.2736 6.25008 14.0154 6.55737 14.5624 7.10435C15.1094 7.65133 15.4167 8.3932 15.4167 9.16675C15.4167 9.9403 15.1094 10.6822 14.5624 11.2291C14.0154 11.7761 13.2736 12.0834 12.5 12.0834C11.7265 12.0834 10.9846 11.7761 10.4376 11.2291C9.89063 10.6822 9.58334 9.9403 9.58334 9.16675ZM12.5 4.16675C11.8434 4.16675 11.1932 4.29608 10.5866 4.54735C9.97996 4.79862 9.42877 5.16692 8.96448 5.63121C8.50018 6.09551 8.13189 6.6467 7.88061 7.25333C7.62934 7.85996 7.50001 8.51014 7.50001 9.16675C7.50001 9.82336 7.62934 10.4735 7.88061 11.0802C8.13189 11.6868 8.50018 12.238 8.96448 12.7023C9.42877 13.1666 9.97996 13.5349 10.5866 13.7861C11.1932 14.0374 11.8434 14.1667 12.5 14.1667C13.8261 14.1667 15.0979 13.64 16.0355 12.7023C16.9732 11.7646 17.5 10.4928 17.5 9.16675C17.5 7.84067 16.9732 6.5689 16.0355 5.63121C15.0979 4.69353 13.8261 4.16675 12.5 4.16675ZM24.5833 9.16675C24.5833 8.3932 24.8906 7.65133 25.4376 7.10435C25.9846 6.55737 26.7265 6.25008 27.5 6.25008C28.2736 6.25008 29.0154 6.55737 29.5624 7.10435C30.1094 7.65133 30.4167 8.3932 30.4167 9.16675C30.4167 9.9403 30.1094 10.6822 29.5624 11.2291C29.0154 11.7761 28.2736 12.0834 27.5 12.0834C26.7265 12.0834 25.9846 11.7761 25.4376 11.2291C24.8906 10.6822 24.5833 9.9403 24.5833 9.16675ZM27.5 4.16675C26.8434 4.16675 26.1932 4.29608 25.5866 4.54735C24.98 4.79862 24.4288 5.16692 23.9645 5.63121C23.5002 6.09551 23.1319 6.6467 22.8806 7.25333C22.6293 7.85996 22.5 8.51014 22.5 9.16675C22.5 9.82336 22.6293 10.4735 22.8806 11.0802C23.1319 11.6868 23.5002 12.238 23.9645 12.7023C24.4288 13.1666 24.98 13.5349 25.5866 13.7861C26.1932 14.0374 26.8434 14.1667 27.5 14.1667C28.8261 14.1667 30.0979 13.64 31.0355 12.7023C31.9732 11.7646 32.5 10.4928 32.5 9.16675C32.5 7.84067 31.9732 6.5689 31.0355 5.63121C30.0979 4.69353 28.8261 4.16675 27.5 4.16675ZM3.33334 18.7051C3.33334 18.328 3.40762 17.9545 3.55194 17.6061C3.69625 17.2577 3.90778 16.9412 4.17444 16.6745C4.44109 16.4078 4.75766 16.1963 5.10607 16.052C5.45448 15.9077 5.8279 15.8334 6.20501 15.8334H14.225C13.8519 16.4796 13.5899 17.1838 13.45 17.9167H6.20501C6.10148 17.9167 5.99897 17.9371 5.90333 17.9768C5.80768 18.0164 5.72078 18.0744 5.64757 18.1476C5.57437 18.2208 5.5163 18.3078 5.47669 18.4034C5.43707 18.499 5.41668 18.6016 5.41668 18.7051V19.0626C5.41668 19.2876 5.41918 20.6734 6.26584 21.9834C7.01251 23.1401 8.53501 24.4167 11.8358 24.5684C10.9761 24.9584 10.2586 25.6057 9.78251 26.4209C7.09751 25.8942 5.46584 24.5851 4.51584 23.1142C3.33334 21.2834 3.33334 19.3917 3.33334 19.0642V18.7051ZM28.1642 24.5684C29.0239 24.9584 29.7414 25.6057 30.2175 26.4209C32.9025 25.8942 34.5342 24.5851 35.4842 23.1142C36.6667 21.2834 36.6667 19.3917 36.6667 19.0642V18.7059C36.6668 18.3287 36.5926 17.9552 36.4483 17.6067C36.3041 17.2582 36.0925 16.9415 35.8259 16.6748C35.5592 16.4081 35.2426 16.1965 34.8941 16.0521C34.5457 15.9077 34.1722 15.8334 33.795 15.8334H25.775C26.1417 16.4692 26.4083 17.1709 26.55 17.9167H33.795C34.23 17.9167 34.5833 18.2701 34.5833 18.7051V19.0626C34.5833 19.2876 34.5808 20.6734 33.7342 21.9834C32.9875 23.1401 31.465 24.4167 28.1642 24.5684ZM20 16.2501C19.2265 16.2501 18.4846 16.5574 17.9376 17.1044C17.3906 17.6513 17.0833 18.3932 17.0833 19.1667C17.0833 19.9403 17.3906 20.6822 17.9376 21.2291C18.4846 21.7761 19.2265 22.0834 20 22.0834C20.7736 22.0834 21.5154 21.7761 22.0624 21.2291C22.6094 20.6822 22.9167 19.9403 22.9167 19.1667C22.9167 18.3932 22.6094 17.6513 22.0624 17.1044C21.5154 16.5574 20.7736 16.2501 20 16.2501ZM15 19.1667C15 17.8407 15.5268 16.5689 16.4645 15.6312C17.4022 14.6935 18.6739 14.1667 20 14.1667C21.3261 14.1667 22.5979 14.6935 23.5355 15.6312C24.4732 16.5689 25 17.8407 25 19.1667C25 20.4928 24.4732 21.7646 23.5355 22.7023C22.5979 23.64 21.3261 24.1667 20 24.1667C18.6739 24.1667 17.4022 23.64 16.4645 22.7023C15.5268 21.7646 15 20.4928 15 19.1667ZM10.8333 28.7051C10.8333 27.9435 11.1359 27.213 11.6744 26.6745C12.213 26.136 12.9434 25.8334 13.705 25.8334H26.295C27.0566 25.8334 27.787 26.136 28.3256 26.6745C28.8641 27.213 29.1667 27.9435 29.1667 28.7051V29.0642C29.1667 29.3926 29.1667 31.2834 27.9842 33.1142C26.7483 35.0276 24.3608 36.6667 20 36.6667C15.6392 36.6667 13.2517 35.0276 12.0158 33.1142C10.8333 31.2834 10.8333 29.3917 10.8333 29.0642V28.7051ZM13.705 27.9167C13.4959 27.9167 13.2954 27.9998 13.1476 28.1476C12.9997 28.2955 12.9167 28.496 12.9167 28.7051V29.0626C12.9167 29.2876 12.9192 30.6734 13.7658 31.9834C14.5608 33.2151 16.2358 34.5834 20 34.5834C23.7642 34.5834 25.4392 33.2151 26.2342 31.9834C27.0808 30.6734 27.0833 29.2876 27.0833 29.0626V28.7051C27.0833 28.496 27.0003 28.2955 26.8524 28.1476C26.7046 27.9998 26.5041 27.9167 26.295 27.9167H13.705Z" fill="white"/>
</svg>
