<svg width="288" height="280" viewBox="0 0 288 280" fill="none" xmlns="http://www.w3.org/2000/svg">
<path d="M33.1496 4.307C50.5286 -2.593 68.7567 2.2565 73.8702 15.1355C78.9837 28.0145 69.0417 44.048 51.6627 50.9465C34.2836 57.845 16.0496 53 10.9361 40.118C5.82265 27.236 15.7736 11.2055 33.1496 4.307Z" fill="white"/>
<path d="M1.53012 228.529C1.72817 232.061 2.86281 235.505 4.86927 238.665C6.87573 241.825 9.71472 244.639 13.2241 246.947C16.7335 249.256 20.8447 251.012 25.3227 252.116C29.8008 253.221 34.5582 253.652 39.3232 253.385C44.0882 253.117 48.7676 252.157 53.0941 250.559C57.4206 248.961 61.3095 246.756 64.5389 244.07C67.7682 241.384 70.2747 238.269 71.9152 234.905C73.5557 231.54 74.2981 227.991 74.1001 224.459C73.902 220.928 72.7674 217.484 70.7609 214.324C68.7545 211.163 65.9155 208.349 62.4061 206.041C58.8967 203.733 54.7856 201.977 50.3075 200.872C45.8294 199.768 41.072 199.337 36.307 199.604C31.542 199.871 26.8626 200.831 22.5361 202.43C18.2096 204.028 14.3207 206.233 11.0913 208.919C7.86202 211.605 5.35554 214.719 3.71502 218.084C2.0745 221.449 1.33207 224.998 1.53012 228.529Z" fill="white"/>
<path d="M234.019 168.191C250.033 166.021 264.319 173.881 265.921 185.741C267.523 197.602 255.852 208.991 239.84 211.16C223.827 213.329 209.54 205.471 207.932 193.61C206.324 181.75 218.005 170.362 234.019 168.191Z" fill="white"/>
<path d="M239.565 35.2716C258.957 27.5736 279.3 32.9841 285 47.3571C290.7 61.7301 279.609 79.6191 260.217 87.3171C240.825 95.0151 220.48 89.6031 214.776 75.2316C209.071 60.8601 220.173 42.9681 239.565 35.2716Z" fill="white"/>
<path d="M98.9572 41.2175H172.499C175.426 41.2179 178.233 42.3795 180.305 44.4472C182.376 46.515 183.543 49.3202 183.548 52.247V197.6C183.548 200.53 182.384 203.341 180.312 205.413C178.24 207.485 175.43 208.649 172.499 208.649H99.6727C96.7162 208.662 93.8714 207.521 91.7427 205.469C89.6139 203.417 88.3691 200.616 88.2727 197.661V52.3235C88.2245 50.8875 88.4649 49.4564 88.9794 48.1149C89.494 46.7734 90.2724 45.5486 91.2686 44.5132C92.2647 43.4777 93.4584 42.6526 94.779 42.0865C96.0997 41.5204 97.5204 41.2249 98.9572 41.2175Z" fill="#81F8F8"/>
<path d="M230.155 62.5611C236.407 63.9741 242.819 64.5467 249.222 64.2636L250.668 61.6701C252.247 61.5996 252.541 61.6146 253.995 61.6146C258.782 57.4352 262.409 52.0915 264.526 46.1001C268.651 51.8168 271.575 58.3099 273.121 65.1876C258.45 74.0001 254.58 74.4921 240.825 82.9071C238.067 75.7353 234.487 68.9077 230.155 62.5611Z" fill="#81F8F8"/>
<path d="M61.979 25.3805C60.6033 21.5333 58.9567 17.7884 57.0515 14.174C56.5556 13.2293 55.7333 12.497 54.7377 12.1135C53.7421 11.7299 52.641 11.7212 51.6395 12.089C42.8294 15.3322 34.2246 19.1076 25.8725 23.3945C25.0046 23.8403 24.3092 24.5616 23.8954 25.4453C23.4817 26.3289 23.373 27.3249 23.5865 28.277C24.6233 32.9216 26.4449 37.3552 28.973 41.387C29.5094 42.2363 30.3206 42.8763 31.2715 43.2003C32.2224 43.5242 33.2556 43.5127 34.199 43.1675C40.134 41.0055 45.9192 38.4524 51.5165 35.525L58.9745 38.075L56.7395 32.651C57.9015 31.979 59.038 31.3005 60.149 30.6155C61.0089 30.0858 61.6602 29.2763 61.9935 28.3229C62.3267 27.3696 62.3216 26.3305 61.979 25.3805Z" fill="#81F8F8"/>
<path d="M49.0955 227.695C48.563 222.203 48.212 219.371 47.7965 216.271C47.6236 214.978 46.9665 213.8 45.9579 212.973C44.9494 212.147 43.6647 211.734 42.3635 211.819C42.3635 211.819 24.197 213.053 17.9705 213.542C17.2971 213.595 16.6407 213.779 16.0387 214.086C15.4367 214.392 14.901 214.814 14.4622 215.328C14.0234 215.841 13.6901 216.436 13.4813 217.078C13.2725 217.721 13.1924 218.398 13.2455 219.071C13.6228 223.622 14.5217 228.114 15.9245 232.459C16.2772 233.564 16.9932 234.517 17.9561 235.163C18.9191 235.81 20.0723 236.112 21.2285 236.02C22.3475 235.932 23.476 235.836 24.614 235.732L25.43 240.532L28.6535 235.334C34.097 234.781 40.232 233.984 44.78 233.269C46.0743 233.065 47.242 232.374 48.0441 231.338C48.8463 230.302 49.2224 228.999 49.0955 227.695Z" fill="#81F8F8"/>
<path d="M219.874 185.15C219.762 183.716 220.205 182.293 221.113 181.176C222.02 180.059 223.322 179.334 224.749 179.15L246.123 176.342C247.539 176.157 248.973 176.518 250.134 177.352C251.294 178.186 252.094 179.43 252.37 180.832C253.068 184.376 253.69 188.281 254.14 192.302C254.294 193.666 253.943 195.039 253.154 196.162C252.365 197.286 251.193 198.081 249.858 198.4C242.454 200.161 235.642 201.422 228.285 202.45C226.91 202.643 225.513 202.32 224.363 201.545C223.212 200.769 222.389 199.596 222.052 198.25C220.969 193.95 220.24 189.569 219.874 185.15Z" fill="#81F8F8"/>
<path d="M236.059 192.766C238.44 191.959 240.5 190.411 241.937 188.348C241.776 188.001 241.568 187.678 241.321 187.387C241.011 187.019 240.846 186.551 240.857 186.071C240.869 185.59 241.055 185.131 241.382 184.778C241.517 184.632 241.661 184.494 241.814 184.367C242.165 184.064 242.621 183.911 243.084 183.943C243.547 183.976 243.978 184.19 244.283 184.54C244.613 184.927 244.868 185.374 245.033 185.855C246.062 188.881 242.9 192.013 242.017 192.892C239.843 195.058 235.693 197.527 233.123 195.97C232.904 195.835 232.717 195.655 232.575 195.44C232.434 195.225 232.342 194.982 232.305 194.727C232.268 194.473 232.288 194.213 232.363 193.968C232.437 193.722 232.565 193.495 232.738 193.304C232.98 193.036 233.248 192.792 233.539 192.577C233.916 192.302 234.379 192.171 234.844 192.209C235.309 192.246 235.745 192.449 236.074 192.781L236.059 192.766Z" fill="#FFD997"/>
<path d="M127.078 44.5686H145.252C145.763 44.5686 146.253 44.7717 146.615 45.1332C146.976 45.4946 147.179 45.9849 147.179 46.4961C147.179 47.0073 146.976 47.4976 146.615 47.859C146.253 48.2205 145.763 48.4236 145.252 48.4236H127.078C126.566 48.4236 126.076 48.2205 125.715 47.859C125.353 47.4976 125.15 47.0073 125.15 46.4961C125.15 45.9849 125.353 45.4946 125.715 45.1332C126.076 44.7717 126.566 44.5686 127.078 44.5686Z" fill="black"/>
<path d="M133.022 200.277C133.022 200.89 133.143 201.496 133.377 202.062C133.611 202.627 133.955 203.141 134.388 203.574C134.821 204.007 135.335 204.35 135.9 204.585C136.466 204.819 137.072 204.939 137.684 204.939C138.297 204.939 138.903 204.819 139.468 204.585C140.034 204.35 140.548 204.007 140.981 203.574C141.414 203.141 141.757 202.627 141.991 202.062C142.226 201.496 142.346 200.89 142.346 200.277C142.346 199.665 142.226 199.059 141.991 198.493C141.757 197.928 141.414 197.414 140.981 196.981C140.548 196.548 140.034 196.205 139.468 195.97C138.903 195.736 138.297 195.615 137.684 195.615C137.072 195.615 136.466 195.736 135.9 195.97C135.335 196.205 134.821 196.548 134.388 196.981C133.955 197.414 133.611 197.928 133.377 198.493C133.143 199.059 133.022 199.665 133.022 200.277Z" fill="black"/>
<path d="M105.139 74.8549C105.139 78.4485 106.567 81.8948 109.108 84.4359C111.649 86.9769 115.095 88.4044 118.689 88.4044C122.282 88.4044 125.729 86.9769 128.27 84.4359C130.811 81.8948 132.238 78.4485 132.238 74.8549C132.238 71.2614 130.811 67.815 128.27 65.274C125.729 62.733 122.282 61.3054 118.689 61.3054C115.095 61.3054 111.649 62.733 109.108 65.274C106.567 67.815 105.139 71.2614 105.139 74.8549Z" fill="white"/>
<path d="M105.139 120.569C105.139 124.163 106.567 127.609 109.108 130.15C111.649 132.691 115.095 134.119 118.689 134.119C122.282 134.119 125.729 132.691 128.27 130.15C130.811 127.609 132.238 124.163 132.238 120.569C132.238 116.975 130.811 113.529 128.27 110.988C125.729 108.447 122.282 107.02 118.689 107.02C115.095 107.02 111.649 108.447 109.108 110.988C106.567 113.529 105.139 116.975 105.139 120.569Z" fill="white"/>
<path d="M105.197 169.764C104.897 166.469 105.814 163.178 107.775 160.513C109.736 157.847 112.605 155.992 115.84 155.299C119.076 154.605 122.453 155.12 125.335 156.747C128.216 158.374 130.402 161 131.479 164.129C132.556 167.258 132.45 170.673 131.18 173.729C129.911 176.784 127.566 179.27 124.589 180.714C121.612 182.159 118.209 182.463 115.023 181.57C111.837 180.676 109.089 178.647 107.297 175.865L105.197 169.764Z" fill="white"/>
<path d="M135.037 277.348C158.018 280.866 181.521 276.929 202.102 266.116C198.952 251.518 195.544 229.954 196.651 214.988C197.24 208.286 198.454 201.654 200.278 195.178C202.45 186.611 202.775 187.738 204.217 181.555C205.843 174.584 207.412 167.869 206.575 159.242C206.038 153.927 204.717 148.72 202.655 143.792C201.615 140.897 199.998 138.243 197.9 135.992C196.122 134.172 194.022 132.697 191.707 131.642C183.142 129.932 179.645 124.031 172.903 117.355C170.702 114.931 167.994 113.022 164.971 111.766C163.831 111.19 162.529 111.022 161.281 111.289C158.372 112.118 157.33 116.012 157.081 116.924C156.537 119.484 156.7 122.143 157.55 124.618C158.665 128.233 160.365 131.64 162.583 134.705C164.675 137.997 167.068 141.087 169.73 143.938C171.359 145.885 173.297 147.552 175.466 148.873C177.781 150.116 180.353 150.801 182.98 150.874L183.88 152.797C170.869 175.522 169.237 177.488 167.641 183.781C166.736 187.227 166.393 190.796 166.625 194.351C167.009 199.385 168.592 204.253 171.242 208.55H105.497C106.177 212.77 107.855 216.767 110.393 220.206C112.93 223.646 116.253 226.43 120.085 228.325L135.037 277.348Z" fill="#FFD997"/>
<path d="M88.1466 119.32C82.4291 111.917 77.1904 104.158 72.4626 96.0875C66.6576 86.15 65.5941 82.4915 65.9466 78.776C66.0876 77.276 66.3651 74.705 68.3001 73.3175C70.8111 71.5175 74.4336 72.9275 75.1716 73.2095C77.3766 74.051 78.4896 75.383 81.2766 78.5525C82.5951 80.0525 84.9456 82.715 88.1466 86.2925V119.32Z" fill="#FFD997"/>
<path d="M88.1472 120.573C87.2487 120.822 86.4099 121.249 85.6812 121.83C84.4782 122.892 83.6108 124.281 83.1852 125.828C82.0856 128.355 81.4008 131.042 81.1572 133.787C80.992 138.694 82.4272 143.521 85.2462 147.54C83.2013 150.065 81.9109 153.116 81.5237 156.342C81.1366 159.568 81.6683 162.838 83.0577 165.774C81.305 168.252 80.2742 171.167 80.0802 174.195C79.7217 179.964 82.8012 184.073 84.8232 186.795C87.8682 190.886 94.7667 197.85 99.0567 195.885C100.048 195.273 100.868 194.421 101.443 193.408C102.017 192.394 102.327 191.253 102.343 190.088C102.416 188.427 101.949 186.787 101.011 185.414C102.34 185.211 103.589 184.652 104.628 183.798C105.499 182.989 106.193 182.01 106.669 180.92C107.144 179.83 107.389 178.654 107.389 177.465C107.458 175.622 107.13 173.786 106.428 172.08C105.477 169.569 104.155 167.215 102.504 165.098C101.244 163.289 100.069 161.835 99.1692 160.778C99.5187 160.862 103.327 161.751 105.709 159.374C106.898 158.022 107.505 156.257 107.4 154.46C107.439 152.702 107.01 150.848 103.8 145.323C102.462 143.018 102.397 143.09 100.525 140.015C98.4537 136.611 94.7997 130.415 92.9472 126.815C92.8182 126.564 92.4222 125.883 91.6392 124.526C90.9218 122.873 89.6994 121.489 88.1472 120.573Z" fill="#FFD997"/>
<path d="M113.719 69.8316C113.719 71.1476 114.242 72.4097 115.172 73.3403C116.103 74.2708 117.365 74.7936 118.681 74.7936C119.997 74.7936 121.259 74.2708 122.189 73.3403C123.12 72.4097 123.643 71.1476 123.643 69.8316C123.643 68.5156 123.12 67.2535 122.189 66.323C121.259 65.3924 119.997 64.8696 118.681 64.8696C117.365 64.8696 116.103 65.3924 115.172 66.323C114.242 67.2535 113.719 68.5156 113.719 69.8316Z" fill="black"/>
<path d="M113.891 116.353C113.891 117.697 114.425 118.987 115.376 119.938C116.327 120.889 117.617 121.423 118.961 121.423C120.306 121.423 121.595 120.889 122.546 119.938C123.497 118.987 124.031 117.697 124.031 116.353C124.031 115.008 123.497 113.718 122.546 112.768C121.595 111.817 120.306 111.283 118.961 111.283C117.617 111.283 116.327 111.817 115.376 112.768C114.425 113.718 113.891 115.008 113.891 116.353Z" fill="black"/>
<path d="M114.098 163.613C114.098 164.929 114.621 166.191 115.551 167.122C116.482 168.052 117.744 168.575 119.06 168.575C120.376 168.575 121.638 168.052 122.569 167.122C123.499 166.191 124.022 164.929 124.022 163.613C124.022 162.297 123.499 161.035 122.569 160.104C121.638 159.174 120.376 158.651 119.06 158.651C117.744 158.651 116.482 159.174 115.551 160.104C114.621 161.035 114.098 162.297 114.098 163.613Z" fill="black"/>
<path d="M32.2318 31.2619C32.2318 31.9016 32.4859 32.5151 32.9382 32.9674C33.3906 33.4197 34.0041 33.6739 34.6438 33.6739C35.2835 33.6739 35.897 33.4197 36.3493 32.9674C36.8016 32.5151 37.0558 31.9016 37.0558 31.2619C37.0558 30.6222 36.8016 30.0086 36.3493 29.5563C35.897 29.104 35.2835 28.8499 34.6438 28.8499C34.0041 28.8499 33.3906 29.104 32.9382 29.5563C32.4859 30.0086 32.2318 30.6222 32.2318 31.2619Z" fill="#FFD997"/>
<path d="M39.9908 27.6305C39.9908 28.2702 40.2449 28.8837 40.6973 29.336C41.1496 29.7884 41.7631 30.0425 42.4028 30.0425C43.0425 30.0425 43.656 29.7884 44.1083 29.336C44.5607 28.8837 44.8148 28.2702 44.8148 27.6305C44.8148 26.9908 44.5607 26.3773 44.1083 25.925C43.656 25.4726 43.0425 25.2185 42.4028 25.2185C41.7631 25.2185 41.1496 25.4726 40.6973 25.925C40.2449 26.3773 39.9908 26.9908 39.9908 27.6305Z" fill="#FFD997"/>
<path d="M48.5036 23.9989C48.5036 24.6386 48.7577 25.2521 49.21 25.7045C49.6624 26.1568 50.2759 26.4109 50.9156 26.4109C51.5553 26.4109 52.1688 26.1568 52.6211 25.7045C53.0735 25.2521 53.3276 24.6386 53.3276 23.9989C53.3276 23.3592 53.0735 22.7457 52.6211 22.2934C52.1688 21.841 51.5553 21.5869 50.9156 21.5869C50.2759 21.5869 49.6624 21.841 49.21 22.2934C48.7577 22.7457 48.5036 23.3592 48.5036 23.9989Z" fill="#FFD997"/>
<path d="M19.6508 224.038C19.6508 224.69 19.9098 225.315 20.3709 225.776C20.8319 226.237 21.4573 226.496 22.1093 226.496C22.7613 226.496 23.3867 226.237 23.8477 225.776C24.3088 225.315 24.5678 224.69 24.5678 224.038C24.5678 223.386 24.3088 222.76 23.8477 222.299C23.3867 221.838 22.7613 221.579 22.1093 221.579C21.4573 221.579 20.8319 221.838 20.3709 222.299C19.9098 222.76 19.6508 223.386 19.6508 224.038Z" fill="#FFD997"/>
<path d="M28.718 223.524C28.718 223.847 28.7816 224.167 28.9051 224.465C29.0287 224.764 29.2098 225.035 29.4381 225.263C29.6664 225.491 29.9374 225.672 30.2357 225.796C30.5339 225.919 30.8536 225.983 31.1765 225.983C31.4993 225.983 31.819 225.919 32.1173 225.796C32.4156 225.672 32.6866 225.491 32.9149 225.263C33.1432 225.035 33.3243 224.764 33.4478 224.465C33.5714 224.167 33.635 223.847 33.635 223.524C33.635 223.202 33.5714 222.882 33.4478 222.584C33.3243 222.285 33.1432 222.014 32.9149 221.786C32.6866 221.558 32.4156 221.377 32.1173 221.253C31.819 221.13 31.4993 221.066 31.1765 221.066C30.8536 221.066 30.5339 221.13 30.2357 221.253C29.9374 221.377 29.6664 221.558 29.4381 221.786C29.2098 222.014 29.0287 222.285 28.9051 222.584C28.7816 222.882 28.718 223.202 28.718 223.524Z" fill="#FFD997"/>
<path d="M37.7833 222.752C37.7833 223.404 38.0424 224.029 38.5034 224.49C38.9645 224.951 39.5898 225.21 40.2418 225.21C40.8939 225.21 41.5192 224.951 41.9803 224.49C42.4413 224.029 42.7003 223.404 42.7003 222.752C42.7003 222.1 42.4413 221.475 41.9803 221.014C41.5192 220.552 40.8939 220.293 40.2418 220.293C39.5898 220.293 38.9645 220.552 38.5034 221.014C38.0424 221.475 37.7833 222.1 37.7833 222.752Z" fill="#FFD997"/>
<path d="M230.155 62.5611C235.488 55.9865 240.109 48.8658 243.942 41.3181C250.532 43.913 257.467 45.5242 264.526 46.1001C262.411 52.0946 258.783 57.4412 253.995 61.6221L250.668 61.6776L249.222 64.2711C242.819 64.5371 236.409 63.9622 230.155 62.5611Z" fill="#FFD997"/>
<path d="M273.852 65.0226C272.306 58.0874 269.369 51.5378 265.219 45.7701C265.143 45.6341 265.031 45.5215 264.895 45.4446C264.76 45.3677 264.606 45.3293 264.45 45.3336C257.493 44.7403 250.659 43.1333 244.167 40.5636C243.991 40.494 243.795 40.4934 243.619 40.5621C243.442 40.6309 243.298 40.7637 243.216 40.9341C239.561 48.4429 235.03 55.4921 229.716 61.9341C229.497 62.2011 229.221 62.5176 229.537 62.9841C237.439 74.5641 239.727 82.9191 240.328 83.4636C240.465 83.5776 240.636 83.6429 240.814 83.6491C240.993 83.6553 241.168 83.6022 241.312 83.4981C255.846 74.6901 258.526 74.8296 273.424 65.8806C273.589 65.8158 273.724 65.6923 273.803 65.5338C273.882 65.3753 273.899 65.1932 273.852 65.0226ZM240.813 80.9001C238.359 74.8695 235.324 69.0922 231.75 63.6501C237.09 64.7454 242.539 65.2175 247.987 65.0571C245.228 70.1636 242.83 75.4576 240.813 80.9001ZM248.817 63.5331C243.373 63.7412 237.924 63.322 232.576 62.2836C238.377 59.6271 258.907 49.7556 263.113 47.6421C261.017 52.709 257.795 57.233 253.693 60.8721C252.677 60.8661 251.659 60.8871 250.638 60.9351C250.512 60.9411 250.39 60.9788 250.282 61.0446C250.175 61.1104 250.085 61.2022 250.023 61.3116C249.6 62.0346 249.222 62.7906 248.817 63.5286V63.5331ZM264.717 47.6871C268.111 52.6583 270.599 58.1905 272.067 64.0281C266.837 62.2105 261.369 61.1669 255.837 60.9306C259.706 57.1981 262.732 52.681 264.711 47.6826L264.717 47.6871ZM244.269 42.2166C249.956 44.3928 255.893 45.8491 261.942 46.5516C257.901 48.5796 238.284 58.0101 232.734 60.5571C237.187 54.8473 241.049 48.7009 244.263 42.2121L244.269 42.2166ZM242.331 81.1251C244.758 74.6627 247.698 68.4043 251.121 62.4096C257.989 62.1306 264.848 63.1321 271.35 65.3631C257.791 73.4001 255.24 73.4466 242.331 81.1251Z" fill="black"/>
<path d="M28.3389 41.7862C25.7658 37.68 23.9113 33.1654 22.8549 28.4362C22.6047 27.3219 22.7318 26.1561 23.2162 25.1219C23.7006 24.0878 24.5148 23.2438 25.5309 22.7227C33.9099 18.422 42.5423 14.634 51.3804 11.3797C52.5535 10.9542 53.8408 10.967 55.0051 11.4157C56.1695 11.8645 57.1324 12.7189 57.7164 13.8217C59.637 17.4664 61.2977 21.2423 62.6859 25.1212C63.0793 26.2327 63.0813 27.4452 62.6918 28.5581C62.3023 29.671 61.5446 30.6175 60.5439 31.2412C59.6079 31.8192 58.6544 32.3917 57.6834 32.9587L59.6694 37.7767C59.7249 37.9101 59.7407 38.0566 59.7149 38.1988C59.6891 38.341 59.6228 38.4726 59.5239 38.578C59.425 38.6834 59.2978 38.7579 59.1576 38.7927C59.0174 38.8275 58.8701 38.8211 58.7334 38.7742L51.5784 36.3337C46.0442 39.2175 40.3264 41.7344 34.4619 43.8682C33.3566 44.2684 32.148 44.2803 31.035 43.9018C29.922 43.5234 28.9712 42.7772 28.3389 41.7862ZM51.8994 12.8002C43.1185 16.0328 34.5422 19.7963 26.2179 24.0697C25.4972 24.4386 24.9196 25.0367 24.5761 25.7699C24.2326 26.5031 24.1426 27.3297 24.3204 28.1197C25.3399 32.681 27.129 37.0353 29.6109 40.9957C30.0578 41.6989 30.7314 42.2285 31.5202 42.4969C32.309 42.7653 33.1659 42.7564 33.9489 42.4717C39.8525 40.3232 45.6058 37.7825 51.1704 34.8667C51.2605 34.8196 51.3592 34.7914 51.4606 34.7836C51.5619 34.7759 51.6637 34.7888 51.7599 34.8217L57.6534 36.8317L56.0484 32.9317C55.9801 32.7643 55.9744 32.5779 56.0326 32.4068C56.0908 32.2356 56.2088 32.0912 56.3649 32.0002C57.5219 31.3312 58.6519 30.6562 59.7549 29.9752C60.4634 29.5331 61 28.8627 61.2762 28.0746C61.5525 27.2865 61.5518 26.4278 61.2744 25.6402C59.9086 21.8271 58.2761 18.1149 56.3889 14.5312C55.9756 13.7493 55.2934 13.1433 54.4682 12.8251C53.6431 12.507 52.7306 12.4981 51.8994 12.8002Z" fill="black"/>
<path d="M58.5444 218.693C58.4152 218.063 58.0597 217.502 57.5451 217.117C57.0304 216.731 56.3923 216.548 55.7514 216.601L48.6684 217.184C48.6249 216.848 48.5844 216.503 48.5394 216.17C48.3431 214.689 47.5908 213.338 46.4351 212.391C45.2794 211.444 43.8068 210.972 42.3159 211.07C42.3159 211.07 24.1509 212.302 17.9124 212.795C17.1397 212.855 16.3864 213.067 15.6958 213.419C15.0051 213.77 14.3907 214.255 13.8878 214.844C13.3848 215.434 13.0032 216.117 12.7649 216.855C12.5265 217.592 12.4361 218.369 12.4989 219.142C12.8833 223.745 13.7927 228.289 15.2094 232.685C15.6097 233.955 16.4296 235.05 17.5346 235.792C18.6396 236.534 19.964 236.878 21.2904 236.768C22.1844 236.696 23.0844 236.62 23.9904 236.54L24.6879 240.662C24.7133 240.812 24.7839 240.951 24.8902 241.061C24.9965 241.17 25.1335 241.244 25.2831 241.273C25.4326 241.302 25.5875 241.286 25.7271 241.225C25.8668 241.164 25.9846 241.062 26.0649 240.932L29.0949 236.048C30.0099 235.954 30.9564 235.831 31.8819 235.726L32.5494 239.6C32.6658 240.262 33.0312 240.855 33.5707 241.256C34.1101 241.658 34.7826 241.837 35.4504 241.759C40.9869 241.073 46.1499 240.236 51.8739 239.023L54.9669 241.558C55.0726 241.644 55.2015 241.697 55.3373 241.71C55.473 241.724 55.6097 241.696 55.7302 241.632C55.8506 241.568 55.9495 241.47 56.0144 241.35C56.0792 241.23 56.1073 241.094 56.0949 240.958L55.8519 238.138L58.5519 237.661C59.1877 237.548 59.7599 237.205 60.1593 236.698C60.5588 236.191 60.7576 235.554 60.7179 234.91C60.3713 229.46 59.645 224.042 58.5444 218.693ZM28.5774 234.593C28.4632 234.605 28.3533 234.643 28.2561 234.703C28.1588 234.764 28.0768 234.847 28.0164 234.944L25.8384 238.457L25.3539 235.607C25.3242 235.433 25.2338 235.275 25.0988 235.16C24.9637 235.046 24.7927 234.984 24.6159 234.983C24.4194 234.983 24.8364 234.983 21.1659 235.276C20.1769 235.358 19.1894 235.101 18.3659 234.547C17.5423 233.993 16.9317 233.176 16.6344 232.229C15.2498 227.938 14.3625 223.502 13.9899 219.008C13.9448 218.433 14.0135 217.855 14.192 217.307C14.3705 216.759 14.6554 216.251 15.0302 215.813C15.4051 215.375 15.8627 215.015 16.3768 214.753C16.8909 214.492 17.4515 214.335 18.0264 214.291C24.2574 213.799 42.4089 212.569 42.4089 212.569C43.5178 212.507 44.6096 212.863 45.4686 213.567C46.3275 214.271 46.8913 215.272 47.0484 216.371C47.4654 219.473 47.8419 222.587 48.3459 227.771C48.453 228.885 48.1316 229.998 47.4472 230.883C46.7628 231.768 45.7667 232.359 44.6619 232.535C39.5304 233.321 33.8364 234.058 28.5774 234.593Z" fill="black"/>
<path d="M221.324 198.434C220.228 194.096 219.493 189.675 219.127 185.216C218.998 183.589 219.5 181.975 220.529 180.708C221.557 179.441 223.034 178.618 224.653 178.409L246.025 175.601C247.629 175.401 249.25 175.814 250.563 176.758C251.876 177.702 252.784 179.106 253.106 180.69C253.844 184.463 254.467 188.423 254.885 192.224C255.058 193.77 254.661 195.325 253.766 196.598C252.872 197.871 251.544 198.773 250.031 199.134C242.632 200.891 235.568 202.2 228.386 203.184C226.83 203.404 225.248 203.04 223.944 202.163C222.64 201.286 221.707 199.958 221.324 198.434ZM220.622 185.094C220.983 189.473 221.705 193.814 222.781 198.074C223.074 199.239 223.788 200.254 224.785 200.925C225.781 201.595 226.991 201.873 228.181 201.705C235.531 200.691 242.489 199.383 249.686 197.675C250.843 197.399 251.858 196.709 252.541 195.736C253.225 194.763 253.528 193.574 253.396 192.392C252.985 188.657 252.371 184.742 251.635 180.978C251.393 179.764 250.7 178.688 249.695 177.966C248.689 177.244 247.447 176.931 246.22 177.09L224.849 179.9C223.612 180.058 222.484 180.685 221.697 181.652C220.91 182.619 220.525 183.852 220.622 185.094Z" fill="black"/>
<path d="M233.631 190.202C233.524 190.203 233.418 190.181 233.32 190.137C233.222 190.094 233.134 190.03 233.063 189.95C232.992 189.869 232.939 189.775 232.908 189.673C232.876 189.57 232.867 189.462 232.881 189.356C233.034 188.161 233.506 187.029 234.246 186.079C234.987 185.129 235.97 184.396 237.091 183.956C237.183 183.92 237.281 183.902 237.38 183.903C237.479 183.905 237.576 183.926 237.666 183.965C237.757 184.005 237.839 184.062 237.907 184.133C237.976 184.204 238.03 184.288 238.066 184.38C238.102 184.471 238.119 184.57 238.117 184.668C238.115 184.767 238.094 184.864 238.054 184.955C238.015 185.045 237.958 185.127 237.886 185.195C237.815 185.263 237.731 185.317 237.639 185.353C236.767 185.695 236.004 186.265 235.429 187.004C234.854 187.743 234.488 188.624 234.37 189.553C234.346 189.732 234.258 189.896 234.122 190.016C233.986 190.135 233.812 190.201 233.631 190.202Z" fill="black"/>
<path d="M229.369 191.342H229.332C229.233 191.337 229.137 191.313 229.048 191.271C228.959 191.229 228.879 191.17 228.812 191.097C228.746 191.024 228.695 190.938 228.662 190.846C228.629 190.753 228.614 190.654 228.619 190.556C228.724 188.251 229.508 186.029 230.871 184.168C232.235 182.307 234.118 180.89 236.284 180.095C236.377 180.061 236.475 180.046 236.573 180.05C236.672 180.054 236.768 180.077 236.858 180.118C236.947 180.16 237.028 180.218 237.094 180.291C237.161 180.363 237.213 180.448 237.247 180.541C237.281 180.633 237.296 180.731 237.292 180.83C237.288 180.928 237.265 181.025 237.224 181.114C237.182 181.204 237.124 181.284 237.051 181.351C236.979 181.418 236.894 181.47 236.802 181.504C234.911 182.195 233.268 183.431 232.079 185.055C230.889 186.679 230.207 188.619 230.118 190.63C230.108 190.822 230.025 191.003 229.886 191.135C229.746 191.268 229.561 191.342 229.369 191.342Z" fill="black"/>
<path d="M39.8993 110.82C39.7141 110.822 39.535 110.754 39.3966 110.631C39.2581 110.508 39.17 110.338 39.1493 110.154L38.4953 104.264C38.4734 104.066 38.531 103.868 38.6553 103.713C38.7796 103.557 38.9606 103.458 39.1583 103.436C39.356 103.414 39.5543 103.472 39.7096 103.596C39.8649 103.72 39.9644 103.901 39.9863 104.099L40.6403 109.986C40.6521 110.091 40.6417 110.197 40.6099 110.297C40.5781 110.397 40.5256 110.49 40.4557 110.569C40.3858 110.647 40.3001 110.71 40.2043 110.754C40.1084 110.797 40.0045 110.82 39.8993 110.82Z" fill="black"/>
<path d="M41.8491 124.346C41.6732 124.346 41.503 124.283 41.3684 124.17C41.2337 124.057 41.1432 123.9 41.1126 123.727L39.7506 116.033C39.7288 115.934 39.7273 115.832 39.7461 115.733C39.7649 115.633 39.8036 115.539 39.8599 115.455C39.9162 115.37 39.9889 115.299 40.0737 115.243C40.1585 115.188 40.2535 115.151 40.3532 115.133C40.4528 115.116 40.555 115.118 40.6535 115.141C40.7521 115.164 40.8449 115.207 40.9265 115.267C41.0081 115.327 41.0768 115.403 41.1284 115.49C41.1799 115.577 41.2133 115.673 41.2266 115.774L42.5886 123.467C42.6074 123.575 42.6024 123.686 42.5739 123.791C42.5454 123.897 42.4942 123.995 42.4237 124.079C42.3532 124.163 42.2653 124.23 42.166 124.276C42.0667 124.322 41.9586 124.346 41.8491 124.346Z" fill="black"/>
<path d="M32.8048 116.326C32.627 116.326 32.4547 116.264 32.3188 116.149C32.1828 116.035 32.0919 115.876 32.0623 115.7C32.0328 115.525 32.0665 115.345 32.1574 115.192C32.2484 115.039 32.3906 114.924 32.5588 114.866L37.5598 113.125C37.7478 113.059 37.954 113.071 38.1332 113.158C38.3124 113.244 38.4499 113.399 38.5153 113.587C38.5807 113.775 38.5688 113.981 38.4822 114.16C38.3956 114.339 38.2413 114.477 38.0533 114.542C36.3447 115.251 34.5915 115.847 32.8048 116.326Z" fill="black"/>
<path d="M43.0565 112.945C42.8755 112.945 42.7005 112.879 42.5638 112.761C42.4271 112.642 42.3381 112.478 42.313 112.298C42.288 112.119 42.3287 111.937 42.4275 111.785C42.5264 111.633 42.6769 111.522 42.851 111.473L50.483 109.295C50.5789 109.264 50.6801 109.252 50.7806 109.261C50.8811 109.27 50.9788 109.299 51.0678 109.346C51.1568 109.393 51.2354 109.458 51.2988 109.537C51.3622 109.615 51.4092 109.705 51.4368 109.802C51.4645 109.899 51.4723 110.001 51.4598 110.101C51.4473 110.201 51.4147 110.298 51.364 110.385C51.3134 110.472 51.2456 110.548 51.1649 110.609C51.0841 110.669 50.992 110.713 50.894 110.737C42.611 113.092 43.217 112.945 43.0565 112.945Z" fill="black"/>
<path d="M49.2803 102.896C47.9092 102.836 46.6178 102.234 45.6893 101.224C45.1635 100.643 44.763 99.9598 44.5129 99.2173C44.2628 98.4747 44.1685 97.6887 44.2358 96.9081C44.6603 92.0331 50.9648 93.6366 52.3193 97.2876C53.2673 99.8706 52.0493 102.896 49.2803 102.896ZM46.3583 95.6076C45.4793 96.2586 45.3968 98.7381 46.7813 100.195C47.5193 100.984 49.1123 101.827 50.2028 101.146C50.6518 100.731 50.9612 100.187 51.0883 99.5896C51.2154 98.9919 51.1539 98.3694 50.9123 97.8081C50.1728 95.8161 47.3753 94.8501 46.3583 95.6076Z" fill="black"/>
<path d="M223.252 21.8751C222.334 21.8811 221.451 21.5252 220.794 20.8844C220.137 20.2437 219.759 19.3697 219.742 18.4521C219.674 17.7305 219.752 17.0026 219.972 16.312C220.192 15.6215 220.549 14.9825 221.023 14.4336C222.791 12.4701 226.36 12.0771 227.98 14.0301C228.505 14.8277 228.771 15.7686 228.739 16.7232C228.708 17.6779 228.382 18.5994 227.806 19.3611C227.292 20.103 226.614 20.716 225.824 21.1521C225.034 21.5882 224.153 21.8357 223.252 21.8751ZM222.07 20.0136C223.348 20.9676 225.635 19.8996 226.57 18.5256C226.956 18.0265 227.186 17.4251 227.233 16.796C227.28 16.1669 227.141 15.5379 226.834 14.9871C225.919 13.8891 223.451 13.9941 222.143 15.4371C221.002 16.7001 220.85 19.1001 222.07 20.0136Z" fill="black"/>
<path d="M264.065 233.183C260.971 233.183 259.787 229.319 261.32 226.699C262.55 224.599 265.622 223.475 267.541 224.891C268.308 225.613 268.797 226.581 268.924 227.627C269.05 228.672 268.806 229.729 268.234 230.614C267.807 231.355 267.203 231.978 266.475 232.426C265.747 232.875 264.919 233.135 264.065 233.183ZM263.249 231.488C264.434 232.123 266.206 231.134 266.935 229.865C267.306 229.293 267.48 228.614 267.428 227.933C267.377 227.253 267.104 226.608 266.651 226.097C265.498 225.25 263.41 226.097 262.613 227.458C261.877 228.718 262.012 230.827 263.249 231.488Z" fill="black"/>
<path d="M248.4 254.543C248.283 254.543 248.168 254.515 248.063 254.463C247.959 254.41 247.868 254.334 247.799 254.24C247.729 254.146 247.682 254.037 247.662 253.922C247.642 253.807 247.649 253.689 247.683 253.577L251.937 239.459C251.98 239.319 252.063 239.195 252.176 239.101C252.289 239.008 252.426 238.949 252.572 238.933C252.718 238.917 252.865 238.945 252.995 239.011C253.126 239.078 253.234 239.182 253.306 239.309L260.719 252.286C260.781 252.394 260.815 252.517 260.818 252.642C260.821 252.767 260.792 252.891 260.734 253.003C260.677 253.114 260.592 253.209 260.488 253.279C260.385 253.349 260.265 253.393 260.14 253.405C246.781 254.71 248.562 254.543 248.4 254.543ZM252.87 241.562L249.442 252.938L258.843 252.017L252.87 241.562Z" fill="black"/>
<path d="M83.4968 134.191C83.3948 134.191 83.2938 134.17 83.2001 134.13C83.1064 134.09 83.0218 134.031 82.9516 133.957C82.8814 133.883 82.827 133.795 82.7918 133.7C82.7566 133.604 82.7413 133.502 82.7468 133.4C82.7993 132.002 83.3153 130.661 84.2136 129.588C85.1119 128.515 86.3415 127.771 87.7088 127.474C87.9039 127.434 88.1069 127.473 88.273 127.583C88.4391 127.693 88.5548 127.864 88.5945 128.059C88.6343 128.255 88.595 128.457 88.4851 128.624C88.3753 128.79 88.2039 128.905 88.0088 128.945C86.9671 129.177 86.032 129.748 85.3507 130.569C84.6693 131.39 84.2805 132.415 84.2453 133.481C84.2349 133.673 84.1516 133.853 84.0123 133.985C83.8731 134.117 83.6886 134.191 83.4968 134.191Z" fill="black"/>
<path d="M82.6733 159.931C82.6251 158.672 82.8485 157.417 83.3284 156.253C83.8083 155.088 84.5333 154.04 85.4543 153.181C85.6001 153.045 85.7938 152.973 85.9929 152.98C86.1919 152.987 86.3799 153.073 86.5156 153.219C86.6512 153.365 86.7234 153.558 86.7162 153.757C86.7091 153.956 86.6231 154.144 86.4773 154.28C85.7126 154.993 85.1108 155.863 84.7129 156.83C84.3151 157.797 84.1305 158.838 84.1718 159.883C84.1753 159.981 84.1593 160.079 84.1248 160.172C84.0903 160.264 84.0379 160.349 83.9707 160.421C83.9035 160.493 83.8228 160.551 83.7331 160.592C83.6434 160.633 83.5466 160.655 83.4481 160.659C83.3496 160.662 83.2514 160.646 83.1591 160.612C83.0667 160.577 82.9821 160.525 82.91 160.458C82.838 160.391 82.7798 160.31 82.7389 160.22C82.6981 160.13 82.6753 160.034 82.6718 159.935L82.6733 159.931Z" fill="black"/>
<path d="M167.595 184.645H104.719C104.52 184.645 104.33 184.566 104.189 184.425C104.048 184.284 103.969 184.093 103.969 183.895C103.969 183.696 104.048 183.505 104.189 183.364C104.33 183.224 104.52 183.145 104.719 183.145H167.595C167.794 183.145 167.984 183.224 168.125 183.364C168.266 183.505 168.345 183.696 168.345 183.895C168.345 184.093 168.266 184.284 168.125 184.425C167.984 184.566 167.794 184.645 167.595 184.645Z" fill="black"/>
<path d="M164.42 91.1H108.428C106.524 91.0973 104.699 90.3392 103.353 88.9922C102.007 87.6451 101.25 85.8192 101.249 83.915V65.795C101.251 63.891 102.009 62.0656 103.355 60.7192C104.702 59.3729 106.527 58.6154 108.431 58.613H164.423C166.326 58.617 168.15 59.3751 169.495 60.7213C170.84 62.0675 171.597 63.892 171.599 65.795V83.915C171.598 85.8192 170.841 87.6451 169.495 88.9922C168.15 90.3392 166.324 91.0973 164.42 91.1ZM108.428 60.113C106.922 60.1154 105.479 60.7149 104.414 61.7801C103.349 62.8452 102.751 64.2891 102.749 65.795V83.915C102.75 85.4215 103.348 86.8661 104.413 87.9319C105.478 88.9977 106.922 89.5977 108.428 89.6H164.42C165.927 89.5977 167.371 88.9977 168.435 87.9319C169.5 86.8661 170.098 85.4215 170.099 83.915V65.795C170.097 64.2886 169.498 62.8442 168.433 61.779C167.368 60.7138 165.924 60.1146 164.417 60.113H108.428Z" fill="black"/>
<path d="M163.567 136.814H108.433C106.528 136.81 104.703 136.052 103.356 134.706C102.009 133.359 101.25 131.534 101.246 129.629V111.513C101.25 109.609 102.008 107.783 103.355 106.436C104.702 105.089 106.528 104.33 108.433 104.327H164.416C166.321 104.33 168.147 105.089 169.493 106.436C170.84 107.783 171.599 109.609 171.602 111.513V115.494C171.602 115.693 171.523 115.884 171.383 116.025C171.242 116.165 171.051 116.244 170.852 116.244C170.653 116.244 170.463 116.165 170.322 116.025C170.181 115.884 170.102 115.693 170.102 115.494V111.513C170.101 110.006 169.502 108.56 168.435 107.494C167.369 106.428 165.924 105.828 164.416 105.827H108.433C106.926 105.829 105.481 106.429 104.415 107.495C103.35 108.561 102.75 110.006 102.749 111.513V129.629C102.751 131.136 103.351 132.582 104.417 133.648C105.483 134.713 106.928 135.313 108.436 135.314H163.57C163.769 135.314 163.959 135.393 164.1 135.534C164.241 135.674 164.32 135.865 164.32 136.064C164.32 136.263 164.241 136.454 164.1 136.594C163.959 136.735 163.769 136.814 163.57 136.814H163.567Z" fill="black"/>
<path d="M118.687 60.5571C115.859 60.5571 113.094 61.3958 110.742 62.9671C108.391 64.5385 106.558 66.7718 105.476 69.3848C104.393 71.9978 104.11 74.873 104.662 77.6469C105.214 80.4207 106.576 82.9687 108.576 84.9684C110.576 86.9682 113.124 88.33 115.898 88.8815C118.672 89.4331 121.547 89.1497 124.16 88.0672C126.773 86.9847 129.006 85.1517 130.577 82.7999C132.148 80.4482 132.987 77.6834 132.986 74.8551C132.982 71.0641 131.474 67.4297 128.793 64.7492C126.112 62.0687 122.478 60.5611 118.687 60.5571ZM128.368 83.2071C127.722 81.1445 126.435 79.3417 124.694 78.0613C122.952 76.7808 120.848 76.0896 118.687 76.0881C116.525 76.0866 114.42 76.7749 112.677 78.0529C110.934 79.3309 109.644 81.1319 108.995 83.1936C107.394 81.3369 106.359 79.0592 106.015 76.6315C105.67 74.2038 106.031 71.7282 107.052 69.4993C108.074 67.2703 109.715 65.3819 111.779 64.0584C113.843 62.735 116.244 62.0324 118.696 62.0341C121.148 62.0358 123.548 62.7418 125.611 64.0681C127.673 65.3944 129.311 67.2851 130.33 69.5155C131.349 71.7459 131.705 74.2219 131.358 76.6492C131.01 79.0764 129.972 81.3526 128.368 83.2071Z" fill="black"/>
<path d="M118.687 106.271C115.859 106.271 113.094 107.11 110.742 108.681C108.391 110.253 106.558 112.486 105.476 115.099C104.393 117.712 104.11 120.587 104.662 123.361C105.214 126.135 106.576 128.683 108.576 130.683C110.576 132.682 113.124 134.044 115.898 134.596C118.672 135.147 121.547 134.864 124.16 133.781C126.773 132.699 129.006 130.866 130.577 128.514C132.148 126.162 132.987 123.397 132.986 120.569C132.982 116.778 131.474 113.144 128.793 110.463C126.112 107.783 122.478 106.275 118.687 106.271ZM128.342 128.947C127.579 127.018 126.249 125.364 124.529 124.204C122.809 123.044 120.778 122.431 118.703 122.446C116.628 122.461 114.606 123.102 112.903 124.287C111.199 125.471 109.894 127.143 109.157 129.083C107.514 127.248 106.435 124.978 106.05 122.545C105.665 120.112 105.991 117.62 106.988 115.367C107.985 113.115 109.61 111.198 111.67 109.847C113.73 108.495 116.135 107.767 118.599 107.75C121.062 107.732 123.478 108.426 125.556 109.748C127.635 111.07 129.288 112.963 130.317 115.201C131.345 117.439 131.706 119.927 131.356 122.365C131.006 124.803 129.959 127.089 128.342 128.947Z" fill="black"/>
<path d="M118.687 154.241C116.7 154.243 114.736 154.658 112.918 155.461C111.101 156.264 109.471 157.437 108.132 158.904C106.792 160.372 105.773 162.102 105.14 163.985C104.506 165.868 104.271 167.862 104.45 169.841C104.46 169.939 104.488 170.035 104.534 170.123C104.581 170.21 104.644 170.288 104.72 170.351C104.796 170.414 104.884 170.461 104.979 170.49C105.073 170.519 105.172 170.53 105.271 170.52C105.369 170.511 105.465 170.483 105.553 170.436C105.64 170.39 105.717 170.327 105.781 170.251C105.844 170.175 105.891 170.087 105.92 169.992C105.949 169.898 105.96 169.798 105.95 169.7C105.759 167.634 106.073 165.552 106.865 163.634C107.658 161.716 108.905 160.02 110.499 158.691C112.094 157.363 113.988 156.443 116.017 156.01C118.047 155.576 120.151 155.644 122.149 156.206C124.147 156.767 125.978 157.807 127.484 159.234C128.99 160.662 130.127 162.434 130.795 164.399C131.464 166.363 131.644 168.461 131.321 170.511C130.997 172.561 130.18 174.501 128.939 176.165C127.941 174.315 126.461 172.77 124.657 171.692C122.853 170.613 120.791 170.042 118.689 170.039C116.587 170.035 114.523 170.599 112.715 171.672C110.907 172.744 109.423 174.284 108.418 176.13C108.253 175.907 108.076 175.695 107.924 175.46C107.871 175.376 107.802 175.304 107.721 175.248C107.64 175.191 107.549 175.151 107.453 175.129C107.356 175.108 107.256 175.106 107.159 175.124C107.061 175.141 106.969 175.178 106.885 175.231C106.802 175.285 106.73 175.354 106.674 175.435C106.618 175.517 106.578 175.608 106.558 175.705C106.537 175.802 106.536 175.902 106.554 175.999C106.572 176.096 106.609 176.189 106.663 176.271C108.005 178.357 109.866 180.057 112.064 181.206C114.263 182.354 116.722 182.911 119.2 182.822C121.678 182.732 124.091 181.999 126.2 180.696C128.31 179.392 130.044 177.561 131.232 175.384C132.42 173.208 133.021 170.759 132.977 168.279C132.932 165.8 132.243 163.374 130.978 161.242C129.713 159.109 127.914 157.342 125.759 156.115C123.604 154.887 121.167 154.241 118.687 154.241Z" fill="black"/>
<path d="M170.849 177.05C170.65 177.05 170.46 176.971 170.319 176.83C170.178 176.69 170.099 176.499 170.099 176.3V158.723C170.098 157.478 169.603 156.284 168.722 155.404C167.842 154.523 166.648 154.028 165.403 154.027H107.312C107.113 154.027 106.923 153.948 106.782 153.807C106.641 153.666 106.562 153.476 106.562 153.277C106.562 153.078 106.641 152.887 106.782 152.746C106.923 152.606 107.113 152.527 107.312 152.527H165.401C167.044 152.528 168.619 153.182 169.781 154.343C170.943 155.505 171.596 157.08 171.598 158.723V176.3C171.598 176.499 171.519 176.689 171.379 176.83C171.238 176.971 171.048 177.05 170.849 177.05Z" fill="black"/>
<path d="M162.81 163.488H142.017C141.239 163.488 140.494 163.18 139.944 162.63C139.394 162.08 139.086 161.335 139.086 160.557C139.086 159.78 139.394 159.035 139.944 158.485C140.494 157.935 141.239 157.626 142.017 157.626H162.81C163.587 157.626 164.332 157.935 164.882 158.485C165.432 159.035 165.741 159.78 165.741 160.557C165.741 161.335 165.432 162.08 164.882 162.63C164.332 163.18 163.587 163.488 162.81 163.488ZM142.017 159.126C141.637 159.126 141.273 159.277 141.005 159.546C140.736 159.814 140.586 160.178 140.586 160.557C140.586 160.937 140.736 161.301 141.005 161.569C141.273 161.838 141.637 161.988 142.017 161.988H162.81C163.189 161.988 163.553 161.838 163.821 161.569C164.09 161.301 164.241 160.937 164.241 160.557C164.241 160.178 164.09 159.814 163.821 159.546C163.553 159.277 163.189 159.126 162.81 159.126H142.017Z" fill="black"/>
<path d="M162.81 170.888H142.017C141.251 170.871 140.522 170.554 139.986 170.006C139.45 169.458 139.151 168.723 139.151 167.956C139.151 167.19 139.45 166.454 139.986 165.906C140.522 165.358 141.251 165.042 142.017 165.025H162.81C163.576 165.042 164.305 165.358 164.84 165.906C165.376 166.454 165.676 167.19 165.676 167.956C165.676 168.723 165.376 169.458 164.84 170.006C164.305 170.554 163.576 170.871 162.81 170.888ZM142.017 166.525C141.645 166.537 141.293 166.693 141.034 166.96C140.775 167.227 140.631 167.585 140.631 167.956C140.631 168.328 140.775 168.686 141.034 168.953C141.293 169.22 141.645 169.376 142.017 169.388H162.81C163.181 169.376 163.534 169.22 163.793 168.953C164.051 168.686 164.196 168.328 164.196 167.956C164.196 167.585 164.051 167.227 163.793 166.96C163.534 166.693 163.181 166.537 162.81 166.525H142.017Z" fill="black"/>
<path d="M162.81 178.285H142.017C141.632 178.285 141.251 178.209 140.895 178.062C140.539 177.914 140.216 177.698 139.944 177.426C139.672 177.154 139.456 176.831 139.309 176.475C139.161 176.12 139.086 175.739 139.086 175.354C139.086 174.969 139.161 174.588 139.309 174.232C139.456 173.876 139.672 173.553 139.944 173.281C140.216 173.009 140.539 172.793 140.895 172.646C141.251 172.498 141.632 172.423 142.017 172.423H162.81C163.587 172.423 164.332 172.731 164.882 173.281C165.432 173.831 165.741 174.576 165.741 175.354C165.741 176.131 165.432 176.876 164.882 177.426C164.332 177.976 163.587 178.285 162.81 178.285ZM142.017 173.923C141.637 173.923 141.273 174.073 141.005 174.342C140.736 174.61 140.586 174.974 140.586 175.354C140.586 175.733 140.736 176.097 141.005 176.365C141.273 176.634 141.637 176.785 142.017 176.785H162.81C163.189 176.785 163.553 176.634 163.821 176.365C164.09 176.097 164.241 175.733 164.241 175.354C164.241 174.974 164.09 174.61 163.821 174.342C163.553 174.073 163.189 173.923 162.81 173.923H142.017Z" fill="black"/>
<path d="M157.65 116.107H142.017C141.24 116.106 140.494 115.797 139.945 115.247C139.395 114.698 139.086 113.953 139.086 113.176C139.087 112.794 139.163 112.416 139.312 112.064C139.46 111.711 139.677 111.392 139.95 111.125C140.222 110.857 140.545 110.647 140.9 110.505C141.255 110.363 141.635 110.294 142.017 110.3H162.795C163 110.315 163.192 110.407 163.332 110.559C163.471 110.711 163.547 110.91 163.545 111.116C163.543 111.211 163.521 111.305 163.482 111.391C163.443 111.478 163.386 111.555 163.316 111.619C163.246 111.683 163.164 111.732 163.074 111.763C162.984 111.794 162.889 111.807 162.795 111.8H142.012C141.828 111.794 141.644 111.825 141.472 111.891C141.3 111.957 141.143 112.056 141.01 112.184C140.877 112.312 140.771 112.465 140.698 112.634C140.625 112.803 140.587 112.985 140.586 113.17C140.586 113.549 140.736 113.913 141.005 114.182C141.273 114.45 141.637 114.601 142.017 114.601H157.65C157.849 114.601 158.039 114.68 158.18 114.82C158.321 114.961 158.4 115.152 158.4 115.351C158.4 115.55 158.321 115.74 158.18 115.881C158.039 116.022 157.849 116.101 157.65 116.101V116.107Z" fill="black"/>
<path d="M157.074 123.5H142.017C141.626 123.509 141.238 123.44 140.875 123.296C140.512 123.153 140.181 122.939 139.902 122.666C139.623 122.393 139.402 122.067 139.25 121.708C139.099 121.348 139.021 120.962 139.021 120.571C139.021 120.181 139.099 119.795 139.25 119.435C139.402 119.075 139.623 118.749 139.902 118.477C140.181 118.204 140.512 117.989 140.875 117.846C141.238 117.703 141.626 117.634 142.017 117.643H156.735C156.933 117.643 157.124 117.722 157.265 117.862C157.406 118.003 157.485 118.194 157.485 118.393C157.485 118.592 157.406 118.782 157.265 118.923C157.124 119.064 156.933 119.143 156.735 119.143H142.017C141.825 119.136 141.634 119.169 141.455 119.238C141.277 119.307 141.114 119.411 140.976 119.544C140.838 119.678 140.729 119.837 140.654 120.014C140.579 120.19 140.541 120.38 140.541 120.571C140.541 120.763 140.579 120.953 140.654 121.129C140.729 121.306 140.838 121.465 140.976 121.598C141.114 121.732 141.277 121.836 141.455 121.905C141.634 121.974 141.825 122.006 142.017 122H157.074C157.272 122 157.463 122.079 157.604 122.22C157.745 122.36 157.824 122.551 157.824 122.75C157.824 122.949 157.745 123.14 157.604 123.28C157.463 123.421 157.272 123.5 157.074 123.5Z" fill="black"/>
<path d="M159.705 130.898H142.005C141.239 130.881 140.51 130.564 139.974 130.016C139.438 129.468 139.138 128.733 139.138 127.966C139.138 127.2 139.438 126.464 139.974 125.916C140.51 125.368 141.239 125.052 142.005 125.035H157.912C158.111 125.035 158.302 125.114 158.442 125.254C158.583 125.395 158.662 125.586 158.662 125.785C158.662 125.984 158.583 126.174 158.442 126.315C158.302 126.456 158.111 126.535 157.912 126.535H142.008C141.636 126.547 141.284 126.703 141.025 126.97C140.766 127.237 140.622 127.595 140.622 127.966C140.622 128.338 140.766 128.696 141.025 128.963C141.284 129.23 141.636 129.386 142.008 129.398H159.708C159.907 129.398 160.097 129.477 160.238 129.618C160.379 129.758 160.458 129.949 160.458 130.148C160.458 130.347 160.379 130.538 160.238 130.678C160.097 130.819 159.907 130.898 159.708 130.898H159.705Z" fill="black"/>
<path d="M162.81 70.3896H142.017C141.239 70.3896 140.494 70.0808 139.944 69.5311C139.394 68.9814 139.086 68.2359 139.086 67.4586C139.086 66.6812 139.394 65.9357 139.944 65.3861C140.494 64.8364 141.239 64.5276 142.017 64.5276H162.81C163.587 64.5276 164.332 64.8364 164.882 65.3861C165.432 65.9357 165.741 66.6812 165.741 67.4586C165.741 68.2359 165.432 68.9814 164.882 69.5311C164.332 70.0808 163.587 70.3896 162.81 70.3896ZM142.017 66.0276C141.637 66.0276 141.273 66.1784 141.005 66.4467C140.736 66.7151 140.586 67.0791 140.586 67.4586C140.586 67.8381 140.736 68.2021 141.005 68.4705C141.273 68.7388 141.637 68.8896 142.017 68.8896H162.81C163.189 68.8896 163.553 68.7388 163.821 68.4705C164.09 68.2021 164.241 67.8381 164.241 67.4586C164.241 67.0791 164.09 66.7151 163.821 66.4467C163.553 66.1784 163.189 66.0276 162.81 66.0276H142.017Z" fill="black"/>
<path d="M162.81 77.7861H142.017C141.239 77.7861 140.494 77.4773 139.944 76.9276C139.394 76.3779 139.086 75.6324 139.086 74.8551C139.086 74.0777 139.394 73.3322 139.944 72.7825C140.494 72.2329 141.239 71.9241 142.017 71.9241H162.81C163.587 71.9241 164.332 72.2329 164.882 72.7825C165.432 73.3322 165.741 74.0777 165.741 74.8551C165.741 75.6324 165.432 76.3779 164.882 76.9276C164.332 77.4773 163.587 77.7861 162.81 77.7861ZM142.017 73.4241C141.637 73.4241 141.273 73.5748 141.005 73.8432C140.736 74.1116 140.586 74.4755 140.586 74.8551C140.586 75.2346 140.736 75.5986 141.005 75.8669C141.273 76.1353 141.637 76.2861 142.017 76.2861H162.81C163.189 76.2861 163.553 76.1353 163.821 75.8669C164.09 75.5986 164.241 75.2346 164.241 74.8551C164.241 74.4755 164.09 74.1116 163.821 73.8432C163.553 73.5748 163.189 73.4241 162.81 73.4241H142.017Z" fill="black"/>
<path d="M162.81 85.184H142.017C141.239 85.184 140.494 84.8752 139.944 84.3256C139.394 83.7759 139.086 83.0304 139.086 82.253C139.086 81.4757 139.394 80.7302 139.944 80.1805C140.494 79.6308 141.239 79.322 142.017 79.322H162.81C163.587 79.322 164.332 79.6308 164.882 80.1805C165.432 80.7302 165.741 81.4757 165.741 82.253C165.741 83.0304 165.432 83.7759 164.882 84.3256C164.332 84.8752 163.587 85.184 162.81 85.184ZM142.017 80.822C141.637 80.822 141.273 80.9728 141.005 81.2411C140.736 81.5095 140.586 81.8735 140.586 82.253C140.586 82.6325 140.736 82.9965 141.005 83.2649C141.273 83.5333 141.637 83.684 142.017 83.684H162.81C163.189 83.684 163.553 83.5333 163.821 83.2649C164.09 82.9965 164.241 82.6325 164.241 82.253C164.241 81.8735 164.09 81.5095 163.821 81.2411C163.553 80.9728 163.189 80.822 162.81 80.822H142.017Z" fill="black"/>
<path d="M108.874 224.572C108.757 224.572 108.642 224.544 108.538 224.492C93.9818 217.244 81.7446 206.068 73.2102 192.228C64.6757 178.387 60.1847 162.434 60.2452 146.174C60.4008 137.355 61.7238 128.596 64.1797 120.125C66.0143 114.238 68.4675 108.563 71.4982 103.193C71.5466 103.107 71.6115 103.032 71.6891 102.971C71.7667 102.91 71.8555 102.866 71.9504 102.839C72.0454 102.813 72.1446 102.805 72.2424 102.817C72.3402 102.829 72.4346 102.86 72.5204 102.909C72.6062 102.957 72.6816 103.022 72.7423 103.1C72.803 103.177 72.8479 103.266 72.8743 103.361C72.9007 103.456 72.9081 103.555 72.8962 103.653C72.8842 103.751 72.8531 103.845 72.8047 103.931C69.8237 109.208 67.4103 114.786 65.6047 120.572C63.1914 128.898 61.8911 137.507 61.7377 146.174C61.6784 162.156 66.0926 177.835 74.481 191.439C82.8693 205.043 94.8971 216.028 109.204 223.151C109.354 223.226 109.475 223.35 109.547 223.503C109.618 223.655 109.636 223.827 109.598 223.991C109.56 224.155 109.468 224.302 109.337 224.407C109.205 224.512 109.042 224.57 108.874 224.572Z" fill="black"/>
<path d="M200.283 216.107C200.125 216.107 199.972 216.057 199.844 215.965C199.716 215.873 199.621 215.743 199.571 215.594C199.521 215.445 199.52 215.283 199.567 215.133C199.614 214.983 199.707 214.851 199.833 214.757C203.125 212.262 206.233 209.534 209.133 206.594C209.274 206.465 209.46 206.395 209.652 206.399C209.844 206.402 210.027 206.479 210.163 206.614C210.3 206.748 210.38 206.93 210.387 207.121C210.394 207.313 210.327 207.5 210.201 207.644C207.247 210.634 204.083 213.409 200.733 215.946C200.604 216.047 200.446 216.104 200.283 216.107Z" fill="black"/>
<path d="M233.082 163.562C232.971 163.562 232.862 163.538 232.762 163.491C232.662 163.443 232.574 163.375 232.503 163.29C232.433 163.204 232.382 163.104 232.355 162.997C232.328 162.89 232.324 162.778 232.345 162.67C233.395 157.236 233.922 151.715 233.92 146.182C233.767 137.517 232.466 128.912 230.053 120.589C224.2 101.928 212.203 85.798 196.015 74.8237C195.931 74.7699 195.858 74.6997 195.801 74.6172C195.744 74.5347 195.704 74.4416 195.683 74.3434C195.663 74.2452 195.662 74.1439 195.682 74.0455C195.701 73.9471 195.74 73.8536 195.796 73.7705C195.852 73.6874 195.925 73.6165 196.009 73.5618C196.093 73.5072 196.187 73.4699 196.286 73.4523C196.385 73.4347 196.486 73.4371 196.584 73.4593C196.682 73.4815 196.774 73.5231 196.855 73.5817C213.324 84.7469 225.53 101.157 231.486 120.142C233.941 128.61 235.264 137.367 235.42 146.183C235.422 151.812 234.885 157.428 233.817 162.955C233.784 163.125 233.692 163.279 233.558 163.39C233.424 163.501 233.256 163.562 233.082 163.562Z" fill="black"/>
<path d="M272.462 103.954C272.309 103.953 272.159 103.906 272.033 103.819C271.908 103.731 271.812 103.607 271.759 103.463L268.438 94.4375C268.404 94.345 268.388 94.2468 268.392 94.1483C268.396 94.0498 268.419 93.953 268.461 93.8635C268.502 93.774 268.56 93.6936 268.633 93.6267C268.705 93.5598 268.79 93.5079 268.882 93.4738C268.975 93.4397 269.073 93.4242 269.172 93.4281C269.27 93.432 269.367 93.4553 269.456 93.4966C269.546 93.5378 269.626 93.5964 269.693 93.6688C269.76 93.7412 269.812 93.826 269.846 93.9185L273.166 102.944C273.208 103.057 273.221 103.179 273.206 103.299C273.191 103.419 273.146 103.533 273.077 103.632C273.008 103.731 272.916 103.812 272.809 103.868C272.702 103.924 272.583 103.954 272.462 103.954Z" fill="black"/>
<path d="M132.392 278.65C132.195 278.626 132.015 278.524 131.893 278.368C131.77 278.212 131.715 278.013 131.738 277.816C131.75 277.718 131.781 277.623 131.829 277.537C131.877 277.452 131.942 277.376 132.02 277.315C132.097 277.254 132.186 277.209 132.281 277.183C132.375 277.156 132.475 277.148 132.572 277.16C138.844 277.948 145.169 278.232 151.486 278.009C151.682 278.009 151.872 278.085 152.015 278.219C152.158 278.354 152.245 278.537 152.258 278.734C152.262 278.832 152.246 278.93 152.211 279.023C152.177 279.115 152.124 279.2 152.057 279.272C151.99 279.344 151.909 279.402 151.819 279.442C151.729 279.483 151.632 279.506 151.534 279.509C145.141 279.734 138.74 279.447 132.392 278.65ZM169.703 276.91C169.686 276.813 169.688 276.713 169.709 276.617C169.73 276.521 169.77 276.43 169.827 276.349C169.883 276.268 169.955 276.199 170.038 276.146C170.121 276.093 170.214 276.057 170.311 276.04C176.53 274.933 182.661 273.379 188.656 271.39C188.749 271.359 188.848 271.346 188.946 271.353C189.045 271.36 189.14 271.386 189.229 271.431C189.317 271.475 189.395 271.536 189.46 271.61C189.524 271.685 189.573 271.771 189.605 271.864C189.636 271.958 189.648 272.057 189.641 272.155C189.634 272.253 189.608 272.349 189.564 272.437C189.52 272.525 189.459 272.604 189.384 272.668C189.31 272.733 189.223 272.782 189.13 272.813C183.065 274.825 176.863 276.397 170.572 277.517C170.376 277.552 170.175 277.507 170.012 277.393C169.849 277.279 169.738 277.105 169.703 276.91ZM113.728 275.246C113.309 275.246 108.517 273.925 107.417 273.596C107.267 273.56 107.972 273.896 95.8674 267.88C95.6884 267.791 95.5518 267.635 95.4878 267.446C95.4238 267.257 95.4376 267.05 95.5261 266.871C95.6146 266.692 95.7706 266.555 95.9598 266.491C96.149 266.427 96.3559 266.441 96.5349 266.53L107.872 272.162C108.497 272.348 110.675 272.984 113.906 273.764C114.085 273.807 114.241 273.914 114.346 274.065C114.451 274.216 114.497 274.399 114.475 274.582C114.453 274.764 114.366 274.932 114.229 275.054C114.091 275.176 113.914 275.243 113.731 275.243L113.728 275.246ZM206.479 265.559C206.31 265.559 206.146 265.502 206.014 265.397C205.881 265.293 205.788 265.146 205.749 264.982C205.71 264.817 205.728 264.645 205.799 264.492C205.871 264.339 205.992 264.214 206.143 264.139C211.785 261.305 217.218 258.071 222.398 254.462C222.479 254.403 222.571 254.361 222.668 254.338C222.765 254.316 222.866 254.312 222.964 254.329C223.062 254.345 223.156 254.381 223.241 254.435C223.325 254.488 223.398 254.557 223.455 254.639C223.512 254.721 223.552 254.814 223.573 254.911C223.594 255.009 223.595 255.109 223.577 255.207C223.558 255.306 223.521 255.399 223.465 255.482C223.41 255.565 223.339 255.637 223.256 255.692C218.017 259.344 212.523 262.615 206.815 265.48C206.711 265.532 206.596 265.559 206.479 265.559ZM237.625 243.856C237.475 243.855 237.328 243.81 237.203 243.725C237.079 243.641 236.983 243.521 236.928 243.381C236.873 243.241 236.861 243.088 236.894 242.941C236.927 242.794 237.004 242.661 237.113 242.558C241.728 238.242 246.029 233.604 249.985 228.677C250.109 228.522 250.29 228.422 250.488 228.4C250.686 228.378 250.884 228.436 251.039 228.56C251.195 228.684 251.294 228.865 251.316 229.063C251.338 229.261 251.281 229.459 251.156 229.615C247.155 234.598 242.804 239.29 238.136 243.655C237.997 243.784 237.815 243.856 237.625 243.856ZM261.397 214.229C261.265 214.229 261.135 214.194 261.02 214.128C260.906 214.062 260.811 213.966 260.745 213.851C260.68 213.737 260.646 213.606 260.646 213.474C260.647 213.342 260.683 213.212 260.75 213.098C263.961 207.655 266.776 201.987 269.173 196.139C269.21 196.048 269.265 195.965 269.335 195.895C269.404 195.825 269.486 195.769 269.577 195.731C269.668 195.693 269.766 195.673 269.864 195.673C269.963 195.673 270.06 195.692 270.152 195.729C270.243 195.766 270.326 195.821 270.396 195.891C270.466 195.96 270.521 196.042 270.559 196.133C270.598 196.224 270.617 196.322 270.618 196.42C270.618 196.519 270.599 196.616 270.562 196.708C268.139 202.622 265.294 208.354 262.049 213.86C261.983 213.974 261.887 214.067 261.773 214.132C261.658 214.197 261.528 214.23 261.397 214.229ZM275.797 179.072C275.683 179.072 275.57 179.047 275.468 178.997C275.365 178.947 275.275 178.874 275.205 178.784C275.135 178.695 275.086 178.59 275.062 178.478C275.038 178.367 275.04 178.251 275.068 178.141C276.592 172.01 277.673 165.777 278.303 159.491C278.323 159.292 278.421 159.109 278.576 158.983C278.731 158.856 278.929 158.796 279.128 158.816C279.327 158.836 279.51 158.934 279.637 159.089C279.763 159.244 279.823 159.442 279.803 159.641C279.166 165.999 278.072 172.303 276.532 178.504C276.491 178.668 276.396 178.813 276.262 178.916C276.128 179.02 275.963 179.074 275.794 179.072H275.797ZM278.822 140.575C278.479 134.263 277.717 127.98 276.541 121.769C276.504 121.574 276.547 121.372 276.659 121.207C276.772 121.043 276.945 120.931 277.14 120.894C277.336 120.857 277.538 120.9 277.702 121.012C277.866 121.125 277.979 121.298 278.015 121.493C279.203 127.77 279.973 134.119 280.321 140.498C280.331 140.697 280.262 140.892 280.128 141.04C279.995 141.188 279.808 141.276 279.609 141.286C279.41 141.297 279.215 141.227 279.068 141.094C278.92 140.96 278.831 140.774 278.821 140.575H278.822Z" fill="black"/>
<path d="M79.1017 259.49C78.8542 259.49 79.6132 259.817 70.1557 255.13C70.0645 255.088 69.9825 255.028 69.9148 254.954C69.8471 254.879 69.795 254.792 69.7616 254.698C69.7281 254.603 69.7141 254.503 69.7202 254.402C69.7263 254.302 69.7525 254.204 69.7972 254.114C69.8419 254.024 69.9043 253.944 69.9805 253.879C70.0567 253.813 70.1453 253.764 70.241 253.733C70.3367 253.703 70.4375 253.692 70.5376 253.701C70.6376 253.71 70.7347 253.74 70.8232 253.787L79.4362 258.07C79.5871 258.145 79.7081 258.269 79.7796 258.422C79.851 258.575 79.8689 258.748 79.8302 258.912C79.7915 259.076 79.6986 259.223 79.5664 259.328C79.4342 259.432 79.2705 259.49 79.1017 259.49Z" fill="black"/>
<path d="M80.0814 31.7615C79.9144 31.7624 79.7519 31.7075 79.6196 31.6056C79.4873 31.5036 79.3928 31.3604 79.3512 31.1987C79.3095 31.0369 79.323 30.8659 79.3895 30.7127C79.456 30.5595 79.5718 30.4329 79.7184 30.353C82.5024 28.823 85.4034 27.353 88.3389 25.985C88.4288 25.9383 88.5272 25.9104 88.6282 25.9028C88.7292 25.8951 88.8306 25.9081 88.9265 25.9407C89.0223 25.9734 89.1106 26.0251 89.1859 26.0928C89.2612 26.1605 89.322 26.2427 89.3647 26.3346C89.4073 26.4264 89.431 26.5259 89.4342 26.6271C89.4373 26.7284 89.42 26.8292 89.3831 26.9235C89.3463 27.0178 89.2907 27.1037 89.2198 27.176C89.1489 27.2482 89.0641 27.3054 88.9704 27.344C86.0664 28.694 83.1969 30.1535 80.4414 31.6685C80.3312 31.7292 80.2074 31.7612 80.0814 31.7615Z" fill="black"/>
<path d="M196.693 23.9165C190.985 21.5956 185.12 19.6794 179.143 18.182C179.047 18.1581 178.957 18.1155 178.878 18.0568C178.799 17.9981 178.732 17.9244 178.681 17.8398C178.63 17.7553 178.597 17.6616 178.582 17.5641C178.568 17.4665 178.573 17.3671 178.597 17.2715C178.645 17.0784 178.768 16.9123 178.939 16.8099C179.023 16.7592 179.117 16.7257 179.215 16.7112C179.312 16.6967 179.412 16.7016 179.507 16.7255C185.552 18.2415 191.484 20.1807 197.257 22.529C197.352 22.5628 197.44 22.6157 197.515 22.6844C197.59 22.7532 197.65 22.8363 197.691 22.9289C197.733 23.0215 197.755 23.1215 197.757 23.223C197.759 23.3245 197.74 23.4253 197.701 23.5192C197.663 23.6132 197.606 23.6984 197.534 23.7698C197.462 23.8411 197.376 23.897 197.281 23.9341C197.187 23.9713 197.086 23.9889 196.985 23.9858C196.883 23.9828 196.783 23.9592 196.691 23.9165H196.693ZM105.256 20.1785C105.227 20.0842 105.217 19.9852 105.226 19.8871C105.235 19.7889 105.264 19.6936 105.31 19.6065C105.357 19.5194 105.42 19.4423 105.496 19.3796C105.572 19.3169 105.659 19.2698 105.754 19.241C111.694 17.3681 117.752 15.8914 123.887 14.8205C123.984 14.8018 124.084 14.8028 124.181 14.8235C124.278 14.8442 124.369 14.8842 124.45 14.941C124.531 14.9978 124.6 15.0704 124.652 15.1543C124.704 15.2382 124.739 15.3318 124.754 15.4295C124.788 15.6252 124.743 15.8264 124.629 15.9889C124.515 16.1515 124.341 16.2621 124.145 16.2965C118.075 17.3679 112.081 18.8309 106.199 20.6765C106.105 20.7064 106.005 20.7171 105.906 20.7082C105.807 20.6993 105.711 20.6708 105.624 20.6245C105.536 20.5782 105.458 20.5149 105.395 20.4384C105.332 20.3618 105.284 20.2735 105.256 20.1785ZM161.041 14.9705C154.887 14.3153 148.695 14.1082 142.511 14.351C142.315 14.3495 142.127 14.2748 141.983 14.1417C141.839 14.0085 141.75 13.8264 141.733 13.631C141.729 13.5324 141.744 13.4339 141.778 13.3413C141.812 13.2487 141.865 13.1637 141.932 13.0912C141.999 13.0187 142.079 12.9602 142.169 12.919C142.259 12.8778 142.356 12.8547 142.454 12.851C148.683 12.6114 154.92 12.8199 161.119 13.475C161.217 13.4801 161.314 13.5046 161.403 13.547C161.492 13.5894 161.572 13.649 161.638 13.7222C161.704 13.7955 161.755 13.8811 161.788 13.974C161.821 14.067 161.835 14.1655 161.83 14.264C161.825 14.3625 161.8 14.459 161.758 14.548C161.715 14.6371 161.656 14.7169 161.583 14.7829C161.509 14.8489 161.424 14.8999 161.331 14.9328C161.238 14.9658 161.139 14.9801 161.041 14.975V14.9705Z" fill="black"/>
<path d="M221.779 37.3011C221.627 37.301 221.479 37.255 221.355 37.1691C218.757 35.3901 216.037 33.6711 213.273 32.0691C213.183 32.0222 213.104 31.9577 213.04 31.8794C212.976 31.8011 212.928 31.7107 212.9 31.6135C212.872 31.5164 212.863 31.4145 212.876 31.3141C212.888 31.2137 212.92 31.1168 212.971 31.0292C213.021 30.9416 213.089 30.8652 213.17 30.8045C213.251 30.7438 213.343 30.7001 213.442 30.6761C213.54 30.652 213.642 30.6481 213.742 30.6645C213.842 30.6809 213.937 30.7173 214.023 30.7716C216.819 32.3991 219.573 34.1361 222.199 35.9376C222.329 36.0287 222.426 36.1585 222.477 36.3084C222.529 36.4583 222.531 36.6206 222.485 36.772C222.438 36.9234 222.344 37.0561 222.218 37.1512C222.091 37.2462 221.937 37.2987 221.779 37.3011Z" fill="black"/>
<path d="M24.353 197.504C24.2046 197.504 24.0596 197.46 23.9362 197.377C23.8128 197.295 23.7167 197.178 23.66 197.041C22.487 194.215 21.323 191.08 20.297 187.976C20.241 187.789 20.2601 187.588 20.3502 187.414C20.4404 187.241 20.5945 187.11 20.7799 187.049C20.9652 186.987 21.1672 187.001 21.3428 187.086C21.5185 187.171 21.654 187.322 21.7205 187.505C23.003 191.381 24.2375 194.518 25.046 196.468C25.0931 196.582 25.1114 196.705 25.0993 196.828C25.0871 196.951 25.0449 197.068 24.9764 197.171C24.9079 197.273 24.8152 197.357 24.7064 197.416C24.5977 197.474 24.4763 197.504 24.353 197.504Z" fill="black"/>
<path d="M16.4501 170.45C16.2744 170.45 16.1044 170.387 15.9698 170.274C15.8352 170.162 15.7445 170.005 15.7136 169.832C14.6161 163.682 13.948 157.464 13.7141 151.221C13.7103 151.123 13.726 151.025 13.7603 150.932C13.7945 150.84 13.8466 150.755 13.9136 150.683C13.9806 150.61 14.0612 150.552 14.1507 150.511C14.2403 150.47 14.3371 150.447 14.4356 150.443C14.5341 150.439 14.6323 150.455 14.7248 150.489C14.8172 150.523 14.902 150.575 14.9743 150.642C15.0466 150.709 15.1049 150.79 15.1461 150.88C15.1872 150.969 15.2103 151.066 15.2141 151.164C15.4465 157.337 16.107 163.487 17.1911 169.568C17.2104 169.676 17.2058 169.787 17.1774 169.893C17.1491 170 17.0977 170.098 17.027 170.182C16.9563 170.267 16.868 170.334 16.7683 170.38C16.6686 170.427 16.56 170.45 16.4501 170.45ZM15.0641 133.343C14.9588 133.344 14.8546 133.322 14.7582 133.28C14.6619 133.237 14.5755 133.175 14.5048 133.097C14.434 133.019 14.3805 132.927 14.3476 132.827C14.3148 132.727 14.3033 132.621 14.3141 132.516C14.9526 126.303 16.0212 120.141 17.5121 114.075C17.563 113.886 17.686 113.724 17.8548 113.625C18.0235 113.525 18.2245 113.495 18.4148 113.542C18.6052 113.589 18.7697 113.708 18.8732 113.874C18.9767 114.041 19.0109 114.241 18.9686 114.432C17.4935 120.43 16.4374 126.524 15.8081 132.668C15.7885 132.852 15.7017 133.022 15.5644 133.146C15.4271 133.269 15.2489 133.338 15.0641 133.338V133.343ZM23.9996 97.2995C23.8767 97.2994 23.7558 97.2691 23.6474 97.2114C23.539 97.1536 23.4464 97.0701 23.3778 96.9682C23.3092 96.8663 23.2667 96.7491 23.2541 96.6269C23.2414 96.5047 23.2589 96.3813 23.3051 96.2675C25.6621 90.4819 28.4275 84.8712 31.5806 79.478C31.6872 79.3213 31.8492 79.2108 32.034 79.1687C32.2188 79.1265 32.4126 79.1559 32.5766 79.251C32.7406 79.346 32.8626 79.4995 32.9179 79.6808C32.9733 79.862 32.958 80.0575 32.8751 80.228C29.7583 85.5602 27.0244 91.1071 24.6941 96.827C24.6387 96.966 24.543 97.0854 24.4192 97.1696C24.2954 97.2538 24.1493 97.299 23.9996 97.2995Z" fill="black"/>
<path d="M42.713 65.2295C42.5724 65.2292 42.4347 65.1894 42.3157 65.1146C42.1966 65.0398 42.101 64.9331 42.0397 64.8066C41.9784 64.6801 41.9539 64.5389 41.969 64.3991C41.984 64.2593 42.0381 64.1266 42.125 64.016C44.114 61.496 46.2155 59.015 48.3725 56.6405C48.5078 56.4998 48.6926 56.4174 48.8877 56.4108C49.0828 56.4042 49.2728 56.4739 49.4173 56.6052C49.5618 56.7364 49.6495 56.9188 49.6616 57.1136C49.6738 57.3084 49.6095 57.5003 49.4825 57.6485C47.348 59.9975 45.269 62.4485 43.3025 64.9445C43.2322 65.0335 43.1426 65.1054 43.0405 65.1548C42.9384 65.2041 42.8264 65.2297 42.713 65.2295Z" fill="black"/>
<path d="M198.06 208.352C200.044 193.142 203.64 190.289 205.93 177.117C207.231 169.652 208.705 161.19 205.842 150.906C203.611 142.88 200.118 134.316 192.457 131.136V58.31C192.452 53.5908 190.574 49.0666 187.237 45.7298C183.9 42.393 179.376 40.5161 174.657 40.511H98.8347C95.802 40.5142 92.8944 41.7204 90.7501 43.865C88.6058 46.0096 87.4 48.9173 87.3972 51.95V84.3305C78.8997 74.8055 78.3267 73.634 75.4437 72.515C72.3957 71.324 69.7032 71.393 67.8627 72.713C65.6127 74.333 65.3352 77.288 65.2002 78.713C64.8447 82.463 65.7462 86.078 71.8152 96.4715C76.5133 104.495 81.7178 112.21 87.3972 119.571V119.921C84.1602 120.735 80.9217 127.352 80.4372 133.002C80.1573 138.138 81.5316 143.228 84.3582 147.524C82.7362 149.701 81.5964 152.198 81.0147 154.85C80.3024 158.498 80.7211 162.277 82.2147 165.682C80.968 167.368 80.0895 169.298 79.6362 171.346C78.1452 178.496 82.5417 186.346 87.9297 191.512V199.7C87.9329 202.271 88.9556 204.736 90.7735 206.554C92.5915 208.372 95.0562 209.394 97.6272 209.398H104.76C105.518 213.506 107.234 217.378 109.768 220.7C112.303 224.022 115.584 226.699 119.347 228.515L134.32 277.565C134.346 277.663 134.391 277.754 134.453 277.833C134.515 277.913 134.592 277.979 134.68 278.029C134.768 278.078 134.865 278.108 134.966 278.119C135.066 278.13 135.167 278.12 135.264 278.091C135.36 278.062 135.45 278.013 135.527 277.948C135.604 277.884 135.668 277.804 135.714 277.714C135.759 277.624 135.787 277.526 135.794 277.425C135.8 277.325 135.787 277.224 135.754 277.129L121.147 229.279C125.822 231.035 130.855 231.621 135.808 230.987C136.005 230.958 136.182 230.852 136.301 230.693C136.419 230.533 136.47 230.333 136.441 230.137C136.41 229.941 136.304 229.765 136.145 229.646C135.986 229.527 135.787 229.476 135.591 229.502C133.491 229.802 122.58 230.945 114.069 223.202C110.1 219.527 107.383 214.701 106.297 209.402H170.916C171.301 210.053 171.703 210.71 172.144 211.374C172.198 211.458 172.268 211.531 172.35 211.587C172.431 211.644 172.524 211.684 172.621 211.704C172.719 211.725 172.819 211.726 172.917 211.707C173.015 211.689 173.108 211.651 173.191 211.595C173.274 211.54 173.345 211.469 173.4 211.386C173.456 211.304 173.494 211.211 173.513 211.113C173.531 211.015 173.531 210.914 173.51 210.817C173.49 210.719 173.45 210.627 173.394 210.545C169.313 204.682 167.174 197.687 167.278 190.544C167.526 184.442 170.254 179.151 175.689 168.611C178.213 163.715 180.939 158.937 183.789 154.371L184.525 155.938C184.61 156.118 184.763 156.256 184.95 156.324C185.137 156.391 185.343 156.381 185.523 156.297C185.703 156.212 185.842 156.059 185.91 155.872C185.977 155.685 185.967 155.479 185.883 155.298L183.633 150.498C183.574 150.374 183.483 150.268 183.368 150.192C183.254 150.116 183.12 150.073 182.983 150.068C180.539 149.976 178.139 149.383 175.933 148.325C174.292 147.526 172.104 146.097 166.897 139.238C162.592 133.566 160.431 130.718 159.01 126.656C157.972 123.665 156.552 119.573 158.335 115.643C158.804 114.259 159.713 113.066 160.923 112.245C162.842 116.47 165.584 120.269 168.988 123.422C171.733 126.054 172.962 126.594 177.121 126.422C178.141 126.372 179.156 126.242 180.156 126.035C181.58 127.614 183.261 128.941 185.127 129.96C188.373 131.769 189.807 131.61 192.097 132.608C193.442 133.206 194.688 134.006 195.793 134.978C193.985 135.545 192.374 136.61 191.143 138.05C191.014 138.201 190.95 138.398 190.965 138.596C190.98 138.795 191.074 138.979 191.225 139.108C191.376 139.238 191.573 139.302 191.771 139.287C191.969 139.271 192.154 139.178 192.283 139.026C193.519 137.575 195.205 136.578 197.073 136.194C198.345 137.572 199.445 139.099 200.347 140.742C199.22 142.144 197.777 143.259 196.137 143.996C195.98 144.066 195.852 144.187 195.773 144.339C195.695 144.492 195.672 144.667 195.707 144.835C195.742 145.003 195.833 145.154 195.966 145.262C196.099 145.371 196.265 145.431 196.437 145.432C196.54 145.432 196.642 145.41 196.737 145.367C198.396 144.621 199.879 143.531 201.087 142.17C202.473 145.11 203.578 148.173 204.387 151.32C207.16 161.279 205.716 169.564 204.442 176.873C202.171 189.943 198.573 192.761 196.564 208.171C196.02 212.297 195.711 216.45 195.639 220.611C195.553 226.742 196.024 231.562 198.039 245.158C199.081 252.197 200.196 259.295 201.349 266.251C201.363 266.35 201.396 266.446 201.447 266.532C201.498 266.619 201.566 266.694 201.647 266.753C201.728 266.813 201.82 266.856 201.917 266.879C202.015 266.903 202.116 266.906 202.215 266.89C202.314 266.873 202.409 266.837 202.494 266.783C202.579 266.729 202.652 266.659 202.709 266.577C202.766 266.494 202.806 266.401 202.827 266.303C202.847 266.204 202.848 266.103 202.828 266.005C201.676 259.057 200.563 251.969 199.528 244.937C197.524 231.437 197.055 226.667 197.14 220.637C197.214 216.528 197.521 212.426 198.06 208.352ZM73.1097 95.714C67.2462 85.673 66.3687 82.277 66.6912 78.851C66.8142 77.558 67.0437 75.152 68.7357 73.9295C70.6422 72.5675 73.4142 73.3295 74.8992 73.9115C77.4492 74.9 77.8137 75.872 87.3957 86.582V117.032C82.204 110.224 77.4336 103.105 73.1112 95.714H73.1097ZM81.9297 133.128C82.4397 127.179 85.8762 121.319 88.0272 121.319H88.0992C88.6557 121.353 90.0372 123.302 92.4492 127.454C96.9492 135.171 93.6492 130.754 102.799 145.163C102.465 144.876 102.059 144.686 101.625 144.614C99.9837 144.314 98.6982 145.514 97.3182 146.762C95.8842 148.056 93.9207 149.829 93.8682 152.462C93.8412 154.112 94.5657 155.243 95.7687 157.112C96.2279 157.811 96.7288 158.483 97.2687 159.122C96.1983 158.34 95.1884 157.478 94.2477 156.543C90.5727 153.065 88.3437 151.112 85.8822 147.153C83.0755 143.032 81.6884 138.109 81.9312 133.128H81.9297ZM103.875 149.117C104.91 150.842 105.805 152.501 106.62 154.178C106.837 158.588 104.22 160.614 100.398 160.223C99.1089 159.07 97.9799 157.75 97.0407 156.297C95.9232 154.562 95.3622 153.69 95.3817 152.489C95.4147 150.509 97.0317 149.049 98.3367 147.872C99.4812 146.833 100.47 145.922 101.377 146.095C101.767 146.161 102.25 146.45 103.876 149.117H103.875ZM82.4817 155.157C82.9785 152.906 83.9127 150.774 85.2312 148.883C87.6582 152.471 89.0352 153.668 93.2292 157.636C94.4669 158.94 95.8866 160.058 97.4442 160.956C99.9069 163.036 101.979 165.538 103.563 168.346C104.3 169.611 104.963 170.918 105.549 172.261C105.307 171.961 105.069 171.68 104.845 171.452C104.065 170.446 102.933 169.772 101.677 169.565C99.7797 169.437 98.4387 170.93 97.2582 172.244C95.7357 173.909 94.1637 175.633 94.3362 178.037C94.4446 179.203 94.9169 180.305 95.6862 181.187C94.6797 180.191 93.6972 179.096 92.7762 178.07C87.6342 172.32 80.5812 164.438 82.4832 155.157H82.4817ZM98.2092 181.758C96.8877 180.365 95.9337 179.359 95.8317 177.931C95.7057 176.168 96.9972 174.754 98.3697 173.252C99.5697 171.923 100.489 170.958 101.577 171.062C102.462 171.266 103.245 171.78 103.785 172.511C105.001 173.818 105.957 175.346 106.602 177.011C106.616 177.866 106.504 178.718 106.269 179.54C105.649 181.64 104.209 184.223 102.036 184.58C100.607 183.867 99.3134 182.913 98.2107 181.758H98.2092ZM100.942 186.887C100.763 188.004 100.382 189.079 99.8187 190.06C99.1587 191.197 98.3352 192.61 97.0842 192.805C96.5169 192.792 95.9586 192.661 95.4447 192.421C94.9307 192.18 94.4725 191.835 94.0992 191.408C93.3414 190.829 92.728 190.082 92.3072 189.226C91.8864 188.37 91.6695 187.428 91.6737 186.475C91.7636 185.578 92.0672 184.717 92.5589 183.962C93.0506 183.208 93.7162 182.582 94.4997 182.138C96.0703 183.966 98.1235 185.315 100.425 186.031C100.621 186.302 100.797 186.588 100.95 186.887H100.942ZM81.1062 171.65C81.4511 170.09 82.0713 168.604 82.9377 167.261C85.3314 171.599 88.2924 175.6 91.7427 179.156C92.2947 179.772 92.8587 180.402 93.4347 181.019C92.526 181.602 91.7613 182.384 91.1978 183.305C90.6343 184.226 90.2868 185.263 90.1812 186.338C90.1558 187.523 90.4059 188.698 90.9116 189.77C91.4173 190.842 92.165 191.782 93.0957 192.517C94.0638 193.546 95.3744 194.186 96.7812 194.316C98.9187 194.316 100.096 192.557 101.118 190.802C101.295 190.502 101.455 190.184 101.602 189.866C101.559 190.686 101.38 191.493 101.074 192.256C100.678 193.499 99.822 194.544 98.6817 195.178C96.9402 195.857 93.6597 194.466 90.3222 191.645C84.8427 187.019 79.6212 178.779 81.1062 171.65ZM170.07 207.893H97.6302C95.4568 207.891 93.3731 207.026 91.8363 205.489C90.2995 203.953 89.4351 201.869 89.4327 199.695V192.859C91.9062 194.936 96.2262 197.747 99.2262 196.581C100.609 195.904 101.689 194.734 102.255 193.301H165.814C166.138 198.421 167.591 203.407 170.07 207.899V207.893ZM179.52 151.106C180.489 151.326 181.473 151.47 182.464 151.538L183.03 152.738C181.83 154.631 180.667 156.575 179.52 158.54V151.106ZM156.963 115.031C154.938 119.498 156.534 124.101 157.593 127.149C159.093 131.436 161.301 134.349 165.7 140.147C171.108 147.269 173.478 148.797 175.281 149.675C176.165 150.094 177.079 150.445 178.017 150.725V161.15C176.761 163.376 175.534 165.63 174.357 167.913C169.092 178.122 165.727 184.23 165.763 191.801H102.784C103.075 190.853 103.174 189.855 103.074 188.868C102.974 187.881 102.678 186.924 102.202 186.053C102.352 186.029 102.502 186.034 102.652 185.996C105.933 185.156 107.349 181.167 107.706 179.966C109.122 175.206 106.665 170.816 104.866 167.6C103.656 165.461 102.175 163.488 100.459 161.729C105.975 162.179 109.6 158.215 107.551 150.698C107.107 149.275 106.439 147.931 105.573 146.718C95.6172 131.085 98.2497 134.735 95.0022 128.9V56.861C95.0022 55.6693 95.4749 54.5263 96.3165 53.6827C97.1581 52.8391 98.3 52.3638 99.4917 52.361H173.53C174.721 52.3646 175.862 52.8402 176.703 53.6838C177.544 54.5273 178.017 55.6699 178.017 56.861V121.41C177.534 120.89 177.018 120.345 176.428 119.76C168.979 112.295 161.334 105.42 156.963 115.031ZM173.083 124.576C171.903 124.069 170.853 123.299 170.016 122.326C166.822 119.375 164.239 115.825 162.414 111.878C166.341 111.78 171.904 117.342 175.366 120.81C176.793 122.24 177.747 123.329 178.966 124.71C177.018 125.082 175.013 125.036 173.083 124.576ZM179.517 123.076V56.852C179.513 55.2654 178.881 53.7447 177.759 52.6228C176.637 51.5009 175.117 50.8691 173.53 50.8655H99.4737C97.8873 50.873 96.3685 51.5085 95.2495 52.6329C94.1304 53.7573 93.5022 55.2791 93.5022 56.8655V126.287C90.8952 121.832 89.7702 120.428 88.8972 120.005V51.95C88.9004 49.3155 89.9484 46.7899 91.8114 44.9272C93.6744 43.0644 96.2002 42.0168 98.8347 42.014H172.768C175.408 42.0151 177.939 43.0611 179.81 44.9232C181.68 46.7853 182.738 49.3121 182.751 51.9515V126.512C181.601 125.434 180.521 124.284 179.517 123.069V123.076Z" fill="black"/>
<path d="M34.6495 34.4241C34.0231 34.4268 33.4101 34.2435 32.8881 33.8975C32.3661 33.5514 31.9585 33.0582 31.717 32.4803C31.4755 31.9024 31.4111 31.2658 31.5317 30.6512C31.6524 30.0367 31.9527 29.4717 32.3948 29.028C32.8368 28.5843 33.4006 28.2818 34.0147 28.1588C34.6289 28.0358 35.2657 28.0978 35.8445 28.3371C36.4233 28.5764 36.9181 28.9821 37.2661 29.5028C37.6141 30.0235 37.7998 30.6358 37.7995 31.2621C37.7983 32.0983 37.4664 32.9001 36.8763 33.4925C36.2861 34.0849 35.4856 34.4198 34.6495 34.4241ZM34.6495 29.5986C34.3199 29.596 33.9969 29.6912 33.7216 29.8724C33.4463 30.0536 33.231 30.3124 33.103 30.6161C32.975 30.9199 32.9401 31.2547 33.0028 31.5783C33.0654 31.9019 33.2228 32.1996 33.4549 32.4336C33.687 32.6676 33.9834 32.8273 34.3064 32.8926C34.6295 32.9579 34.9646 32.9258 35.2694 32.8003C35.5741 32.6748 35.8348 32.4616 36.0181 32.1877C36.2015 31.9139 36.2994 31.5917 36.2995 31.2621C36.2991 30.8235 36.1255 30.4028 35.8165 30.0916C35.5075 29.7803 35.088 29.6037 34.6495 29.6001V29.5986Z" fill="black"/>
<path d="M42.4028 30.8001C41.7774 30.8001 41.166 30.6146 40.646 30.2672C40.1261 29.9197 39.7208 29.4259 39.4814 28.8481C39.2421 28.2703 39.1795 27.6346 39.3015 27.0212C39.4235 26.4078 39.7247 25.8444 40.1669 25.4022C40.6091 24.96 41.1725 24.6588 41.7859 24.5368C42.3992 24.4148 43.035 24.4774 43.6128 24.7168C44.1906 24.9561 44.6844 25.3614 45.0319 25.8814C45.3793 26.4014 45.5648 27.0127 45.5648 27.6381C45.5636 28.4763 45.23 29.2799 44.6373 29.8726C44.0446 30.4654 43.241 30.7989 42.4028 30.8001ZM42.4028 25.9761C42.074 25.9761 41.7527 26.0736 41.4794 26.2562C41.2061 26.4388 40.9931 26.6984 40.8673 27.0021C40.7415 27.3057 40.7086 27.6399 40.7727 27.9623C40.8368 28.2847 40.9951 28.5809 41.2275 28.8133C41.46 29.0457 41.7561 29.204 42.0785 29.2681C42.4009 29.3323 42.7351 29.2994 43.0388 29.1736C43.3425 29.0478 43.602 28.8347 43.7847 28.5614C43.9673 28.2881 44.0648 27.9668 44.0648 27.6381C44.0655 27.4192 44.0231 27.2024 43.94 27C43.8568 26.7976 43.7346 26.6135 43.5802 26.4585C43.4258 26.3034 43.2423 26.1803 43.0403 26.0962C42.8382 26.0121 42.6216 25.9688 42.4028 25.9686V25.9761Z" fill="black"/>
<path d="M50.915 27.1595C50.2896 27.1592 49.6783 26.9734 49.1585 26.6257C48.6387 26.278 48.2336 25.784 47.9946 25.2061C47.7555 24.6282 47.6932 23.9924 47.8155 23.3791C47.9378 22.7658 48.2392 22.2025 48.6817 21.7605C49.1241 21.3185 49.6876 21.0176 50.3011 20.8959C50.9145 20.7742 51.5502 20.8371 52.1279 21.0767C52.7056 21.3163 53.1992 21.7218 53.5464 22.242C53.8936 22.7621 54.0788 23.3736 54.0785 23.999C54.0773 24.8373 53.7435 25.641 53.1504 26.2335C52.5573 26.826 51.7533 27.1591 50.915 27.1595ZM50.915 22.337C50.5863 22.3372 50.2651 22.435 49.992 22.6178C49.7189 22.8006 49.5061 23.0603 49.3806 23.364C49.255 23.6677 49.2223 24.0018 49.2866 24.3241C49.3509 24.6464 49.5093 24.9424 49.7418 25.1747C49.9743 25.407 50.2704 25.5651 50.5928 25.6291C50.9151 25.6931 51.2492 25.6601 51.5528 25.5343C51.8564 25.4085 52.1159 25.1954 52.2985 24.9222C52.481 24.6489 52.5785 24.3276 52.5785 23.999C52.5781 23.558 52.4026 23.1353 52.0907 22.8236C51.7788 22.512 51.3559 22.337 50.915 22.337Z" fill="black"/>
<path d="M22.1093 227.244C21.4747 227.244 20.8543 227.056 20.3267 226.704C19.7991 226.351 19.3878 225.85 19.145 225.264C18.9021 224.677 18.8386 224.032 18.9624 223.41C19.0862 222.788 19.3918 222.216 19.8405 221.767C20.2892 221.318 20.8609 221.013 21.4833 220.889C22.1057 220.765 22.7508 220.829 23.3371 221.072C23.9234 221.314 24.4245 221.726 24.777 222.253C25.1296 222.781 25.3178 223.401 25.3178 224.036C25.317 224.887 24.9787 225.702 24.3771 226.304C23.7756 226.905 22.96 227.244 22.1093 227.244ZM22.1093 222.329C21.7713 222.329 21.4409 222.429 21.1599 222.617C20.8789 222.805 20.6599 223.072 20.5307 223.384C20.4014 223.696 20.3677 224.04 20.4337 224.371C20.4997 224.703 20.6626 225.007 20.9017 225.246C21.1408 225.485 21.4454 225.648 21.7769 225.713C22.1084 225.779 22.452 225.745 22.7641 225.615C23.0763 225.486 23.343 225.267 23.5306 224.986C23.7181 224.704 23.8181 224.374 23.8178 224.036C23.8174 223.583 23.6372 223.149 23.3168 222.829C22.9965 222.509 22.5621 222.329 22.1093 222.329Z" fill="black"/>
<path d="M31.1765 226.733C30.5418 226.733 29.9214 226.545 29.3938 226.192C28.8661 225.839 28.4548 225.338 28.212 224.752C27.9692 224.166 27.9058 223.52 28.0297 222.898C28.1536 222.275 28.4594 221.704 28.9082 221.255C29.3571 220.806 29.9289 220.501 30.5514 220.377C31.1739 220.254 31.8191 220.318 32.4053 220.561C32.9916 220.804 33.4926 221.215 33.845 221.743C34.1973 222.271 34.3853 222.891 34.385 223.526C34.3838 224.376 34.0453 225.192 33.4438 225.793C32.8423 226.394 32.0269 226.732 31.1765 226.733ZM31.1765 221.817C30.8385 221.817 30.5082 221.918 30.2273 222.105C29.9463 222.293 29.7273 222.56 29.598 222.872C29.4687 223.184 29.4349 223.528 29.5008 223.859C29.5667 224.191 29.7294 224.495 29.9684 224.734C30.2073 224.973 30.5117 225.136 30.8431 225.202C31.1746 225.268 31.5181 225.234 31.8303 225.104C32.1425 224.975 32.4093 224.756 32.597 224.475C32.7848 224.194 32.885 223.864 32.885 223.526C32.8846 223.073 32.7044 222.639 32.3841 222.318C32.0638 221.998 31.6295 221.818 31.1765 221.817Z" fill="black"/>
<path d="M40.2414 225.961C39.6068 225.961 38.9863 225.773 38.4585 225.421C37.9307 225.068 37.5192 224.567 37.2761 223.981C37.033 223.395 36.9693 222.75 37.0929 222.127C37.2165 221.505 37.522 220.933 37.9707 220.484C38.4193 220.035 38.991 219.729 39.6135 219.605C40.2359 219.482 40.8811 219.545 41.4674 219.788C42.0538 220.031 42.555 220.442 42.9076 220.97C43.2602 221.497 43.4484 222.118 43.4484 222.752C43.4477 223.603 43.1096 224.418 42.5084 225.02C41.9071 225.621 41.0919 225.96 40.2414 225.961ZM40.2414 221.044C39.9035 221.043 39.573 221.143 39.2918 221.331C39.0107 221.518 38.7915 221.785 38.6619 222.097C38.5324 222.41 38.4983 222.753 38.5641 223.085C38.6298 223.416 38.7924 223.721 39.0313 223.96C39.2702 224.199 39.5746 224.362 39.9061 224.428C40.2375 224.494 40.5811 224.46 40.8934 224.331C41.2057 224.202 41.4726 223.983 41.6604 223.702C41.8482 223.421 41.9484 223.09 41.9484 222.752C41.9481 222.299 41.7681 221.865 41.4481 221.545C41.1281 221.225 40.6942 221.045 40.2414 221.044Z" fill="black"/>
<path d="M234.98 197.2C234.257 197.282 233.526 197.114 232.911 196.724C232.296 196.334 231.833 195.744 231.599 195.055C231.506 194.661 231.509 194.251 231.608 193.859C231.708 193.467 231.901 193.105 232.171 192.805C232.424 192.52 232.705 192.261 233.009 192.032C233.462 191.683 234.013 191.485 234.584 191.464C235.155 191.444 235.719 191.603 236.195 191.918C238.122 191.186 239.805 189.928 241.052 188.288C240.974 188.163 240.889 188.043 240.796 187.928C240.345 187.422 240.099 186.766 240.107 186.089C240.114 185.411 240.375 184.761 240.836 184.265C240.991 184.096 241.157 183.938 241.333 183.791C241.834 183.36 242.485 183.144 243.144 183.192C243.803 183.24 244.416 183.548 244.849 184.048C247.346 187.079 245.347 190.618 242.555 193.406C240.776 195.172 237.688 197.2 234.98 197.2ZM233.971 193.184C233.671 193.398 233.405 193.656 233.182 193.949C233.113 194.061 233.066 194.186 233.045 194.316C233.024 194.446 233.029 194.579 233.059 194.708C233.09 194.836 233.145 194.957 233.222 195.064C233.299 195.171 233.397 195.261 233.509 195.331C235.654 196.61 239.462 194.363 241.481 192.359C243.602 190.241 245.624 187.343 243.731 185.041C243.645 184.939 243.539 184.856 243.42 184.796C243.301 184.735 243.171 184.7 243.038 184.691C242.614 184.627 242.299 184.918 241.988 185.227C241.765 185.442 241.631 185.734 241.613 186.044C241.595 186.354 241.695 186.659 241.892 186.899C242.181 187.244 242.425 187.625 242.617 188.032C242.673 188.151 242.697 188.283 242.686 188.415C242.675 188.547 242.63 188.673 242.554 188.782C241.056 190.928 238.924 192.551 236.456 193.424C236.313 193.511 236.144 193.548 235.978 193.527C235.811 193.507 235.656 193.432 235.537 193.313C235.335 193.107 235.066 192.98 234.778 192.957C234.49 192.933 234.204 193.014 233.971 193.184Z" fill="black"/>
<path d="M35.7426 54.8436C13.7316 54.8436 2.06315 37.1586 12.9696 19.5756C21.8196 5.30155 42.0696 -2.73695 58.3041 1.57555C74.7096 5.93755 80.7861 21.2496 71.8401 35.6751C64.4796 47.5446 49.4871 54.8421 35.7426 54.8436ZM49.0641 1.90855C35.7906 1.90855 21.3036 8.98405 14.2461 20.3586C5.83415 33.9216 11.4576 48.1161 26.8911 52.2171C42.4761 56.3706 62.0571 48.5991 70.5636 34.8831C80.8131 18.3666 69.9921 1.90855 49.0641 1.90855Z" fill="black"/>
<path d="M12.8124 247.575C-2.37809 237.584 -3.36659 219.975 10.6134 208.343C17.9403 202.539 26.9234 199.216 36.2634 198.855C56.6709 197.727 73.9929 209.177 74.8464 224.417C75.2634 231.843 71.7729 239.028 65.0169 244.647C51.3324 256.029 28.0164 257.573 12.8124 247.575ZM39.0804 200.277C29.3589 200.277 19.1589 203.186 11.5719 209.496C-1.62809 220.475 -0.713092 236.885 13.6374 246.321C28.0599 255.807 50.6694 254.631 64.0614 243.492C70.4424 238.185 73.7424 231.442 73.3524 224.503C72.5829 210.763 57.4644 200.277 39.0804 200.277Z" fill="black"/>
<path d="M234.573 212.276C220.449 212.276 208.668 204.612 207.189 193.712C205.528 181.454 217.519 169.676 233.913 167.448C241.383 166.301 249.025 167.562 255.732 171.048C268.644 178.154 270.568 192.348 260.013 202.634C253.369 209.106 243.664 212.274 234.573 212.276ZM234.115 168.933C218.536 171.041 207.124 182.07 208.675 193.509C210.226 204.948 224.164 212.532 239.739 210.425C246.926 209.585 253.66 206.479 258.966 201.557C268.795 191.979 267.037 178.98 255.007 172.362C248.583 169.033 241.266 167.833 234.115 168.933Z" fill="black"/>
<path d="M242.461 91.5787C217.931 91.5787 205.003 71.8927 217.12 52.3522C222.433 44.2243 230.195 37.998 239.282 34.5742C259.027 26.7352 279.85 32.3452 285.7 47.0797C291.55 61.8142 280.241 80.1757 260.5 88.0147C254.764 90.3267 248.644 91.5358 242.461 91.5787ZM257.32 32.5237C242.488 32.5237 226.309 40.3852 218.395 53.1427C208.978 68.3287 215.284 84.2302 232.559 88.8262C241.692 91.0144 251.284 90.2416 259.949 86.6197C278.926 79.0882 289.855 61.5967 284.312 47.6332C280.481 38.0002 269.803 32.5237 257.32 32.5237Z" fill="black"/>
</svg>
