<svg width="286" height="270" viewBox="0 0 286 270" fill="none" xmlns="http://www.w3.org/2000/svg">
<path d="M246.95 175.5C246.95 175.5 239.75 195.21 238.805 198.63C237.86 202.05 236.87 207.015 235.145 212.28C233.42 217.545 228.395 232.335 225.5 238.59C222.605 244.845 221.465 247.59 220.31 247.935C219.155 248.28 208.19 243.675 207.755 241.74C207.485 240.495 216.605 204.24 223.37 178.395C227.285 163.485 230.45 154.845 230.45 154.845C230.45 154.845 231.95 156.06 239.18 157.215C246.41 158.37 263.75 156.24 263.75 156.24C263.75 156.24 261.47 160.5 260.18 161.025C258.89 161.55 258.23 160.665 257.63 161.025C257.03 161.385 255.245 163.71 254.705 164.19C254.165 164.67 252.965 165.09 252.98 165.36C253.086 165.696 253.282 165.996 253.547 166.229C253.811 166.461 254.134 166.617 254.48 166.68C255.766 166.632 257.006 166.192 258.035 165.42C258.71 164.895 259.205 164.46 259.205 164.46C259.205 164.46 263.375 169.635 264.245 169.995C265.115 170.355 265.91 165.87 266.045 164.88C266.19 163.066 267.021 161.376 268.37 160.155C268.37 160.155 266.555 196.845 265.445 208.47C264.335 220.095 262.67 244.47 262.715 245.535C262.76 246.6 263.255 248.25 260.555 248.94C257.855 249.63 248.195 251.835 245.39 247.605C245.39 247.605 245.72 212.19 245.705 207.54C245.675 203.745 246.755 200.31 246.95 175.5Z" fill="#81F8F8"/>
<path d="M270.32 130.89C274.751 130.167 278.929 128.341 282.47 125.58C283.666 128.766 284.668 132.022 285.47 135.33C285.794 136.594 285.611 137.934 284.96 139.065C284.285 140.07 277.58 148.785 274.13 153.015C270.68 157.245 266.63 161.625 266.33 163.11C266.03 164.595 265.385 169.755 264.215 169.845C263.045 169.935 259.715 164.175 259.28 164.49C258.845 164.805 256.52 166.95 254.945 166.83C253.37 166.71 252.605 165.57 253.22 165.21C254.199 164.722 255.051 164.014 255.71 163.14C256.079 162.554 256.578 162.061 257.168 161.699C257.759 161.338 258.425 161.117 259.115 161.055C260.15 161.175 260.33 161.175 260.855 160.74C263.734 156.837 265.837 152.417 267.05 147.72C268.19 143.435 270.185 139.425 272.915 135.93L270.32 130.89Z" fill="#FFD997"/>
<path d="M166.174 94.83H192.875C193.213 94.8456 193.532 94.992 193.764 95.2383C193.996 95.4846 194.124 95.8115 194.12 96.15V102.57C194.12 102.731 194.087 102.891 194.024 103.04C193.961 103.188 193.869 103.323 193.752 103.435C193.636 103.547 193.498 103.634 193.348 103.692C193.197 103.75 193.036 103.776 192.875 103.77H166.174V94.83Z" fill="#81F8F8"/>
<path d="M166.189 107.16H194.119V116.1H166.189V107.16Z" fill="#81F8F8"/>
<path d="M231.5 129.075C231.5 129.075 225.17 137.52 222.5 137.76C219.83 138 215.9 135.48 212.78 132.045C209.926 129.034 207.411 125.719 205.28 122.16C203.18 118.56 199.745 113.16 198.785 113.4C197.825 113.64 194.585 113.76 193.415 112.62C192.581 111.594 192.001 110.387 191.72 109.095C191.198 108.473 190.888 107.7 190.835 106.89C190.94 105.9 191.24 105.87 191.24 105.87C191.24 105.87 190.715 104.655 191.24 104.13C191.765 103.605 192.08 103.605 192.08 103.605C192.08 103.605 191.69 102.195 192.29 101.745C192.89 101.295 193.265 101.355 193.265 101.355C193.265 101.355 193.445 100.11 194.525 100.05C195.605 99.99 197.045 101.745 197.99 103.8C197.99 103.8 200.87 102.705 201.71 103.8C203.21 105.885 203.3 108.045 203.33 110.925C208.595 115.575 205.16 112.68 219.83 124.755L221 123.135C222.456 125.175 224.578 126.644 227 127.29C228.509 127.598 230.038 127.799 231.575 127.89L231.5 129.075Z" fill="#FFD997"/>
<path d="M209.225 243.285L208.235 249.705C208.765 250.349 209.037 251.167 209 252C208.903 253.166 208.723 254.324 208.46 255.465C208.856 255.873 209.359 256.159 209.911 256.292C210.464 256.425 211.042 256.398 211.58 256.215C213.425 255.57 214.475 253.56 215.435 253.59C216.395 253.62 216.335 253.77 216.335 253.77L218.705 247.65C218.705 247.65 210.815 244.575 209.225 243.285Z" fill="#FFD997"/>
<path d="M249.725 257.835L249.26 258.375L248.375 249.705C251.927 250.358 255.575 250.287 259.1 249.495L258.32 258.375L257.54 258.03C257.54 258.03 258.035 254.01 256.775 253.245C255.515 252.48 252.08 251.445 250.595 253.425C249.11 255.405 249.185 256.5 249.725 257.835Z" fill="#FFD997"/>
<path d="M256.385 77.115L252.71 70.41L239.525 71.325C239.525 71.325 239.045 75.72 238.88 76.53C238.929 77.569 238.707 78.6028 238.235 79.53C237.32 81.585 238.235 85.02 238.475 85.71C238.715 86.4 239.405 88.2 239.84 89.895C240.275 91.59 242.84 92.235 242.84 92.235C242.911 93.184 242.751 94.136 242.375 95.01C241.805 95.97 240.74 95.16 240.74 95.16C240.74 95.16 241.76 102.525 249.05 101.88C250.999 101.832 252.867 101.094 254.323 99.7974C255.779 98.5009 256.727 96.7302 257 94.8C256.22 93.3 255.965 85.485 256.04 84.63C256.258 84.64 256.476 84.6023 256.678 84.5194C256.88 84.4365 257.062 84.3104 257.21 84.15C258.47 82.935 258.26 82.245 259.52 81.06C260.78 79.875 260.555 75.15 256.385 77.115ZM241.61 77.505C241.274 77.5175 240.942 77.4162 240.67 77.2176C240.398 77.019 240.201 76.7345 240.11 76.41C240.11 76.41 240.425 75.63 241.76 75.945C243.095 76.26 243.14 76.935 243.14 76.935C242.96 77.1582 242.722 77.3289 242.453 77.4291C242.184 77.5294 241.893 77.5556 241.61 77.505ZM247.025 77.37C247.025 77.37 247.235 76.875 248.36 76.695C249.485 76.515 250.895 77.94 250.895 77.94C250.895 77.94 248 79.23 247.025 77.37Z" fill="#FFD997"/>
<path d="M166.205 123H184.535C185.729 123 186.873 123.474 187.717 124.318C188.561 125.162 189.035 126.307 189.035 127.5C189.035 128.693 188.561 129.838 187.717 130.682C186.873 131.526 185.729 132 184.535 132H166.85L166.205 123Z" fill="#81F8F8"/>
<path d="M75.5001 97.71C62.1801 97.71 52.0251 98.025 41.1651 97.71C40.5651 104.145 41.1651 110.895 41.0301 117.39C41.0301 123.39 40.7601 129.39 40.8351 135.39C40.8073 135.593 40.8497 135.799 40.9551 135.975C41.0703 136.093 41.2126 136.18 41.3695 136.23C41.5265 136.279 41.6932 136.29 41.8551 136.26C51.1551 136.17 51.5001 136.38 75.5001 136.38V97.71Z" fill="#81F8F8"/>
<path d="M75.2901 70.5C74.8551 70.5 69.1101 70.5 69.1101 70.32C69.1101 71.82 69.3801 86.58 69.5901 86.58H75.5001L75.2901 70.5Z" fill="#81F8F8"/>
<path d="M35.1651 62.115C31.4001 62.265 27.8601 62.55 24.0951 62.535C23.2251 62.535 13.4601 62.535 13.4451 62.4C14.0876 70.4897 14.0324 78.6198 13.2801 86.7H35.1651V62.115Z" fill="#81F8F8"/>
<path d="M62.7948 70.2151C55.9248 70.4401 40.5948 69.7951 40.5948 70.2151C40.5948 73.2151 40.9698 75.9301 40.9398 78.9001V86.6551H63.0948C63.4248 86.6551 63.0948 79.2451 63.0948 78.7351C63.0948 78.2251 62.7348 70.2151 62.7948 70.2151Z" fill="#81F8F8"/>
<path d="M103.22 69.825C102.755 70.365 83.9001 70.245 83.5851 69.825C83.2625 65.0204 83.2625 60.1996 83.5851 55.395C83.9301 55.23 102.905 55.005 103.22 55.395C103.535 55.785 103.67 69.285 103.22 69.825Z" fill="#FFD997"/>
<path d="M103.22 96.3749C103.1 96.5099 97.7296 96.27 92.4796 96.24C88.1146 96.24 83.7196 96.4349 83.5846 96.3749C83.3146 91.5687 83.3146 86.7512 83.5846 81.9449C83.8396 81.7649 103.085 81.6449 103.22 81.9449C103.355 82.2449 103.43 96.1049 103.22 96.3749Z" fill="#FFD997"/>
<path d="M103.22 123C102.98 123.48 98.3295 122.865 93.4095 123C88.4895 123.135 83.6895 123.36 83.5845 123C83.3895 122.385 83.6745 108.795 83.5845 108.57C83.4945 108.345 102.74 108.045 103.22 108.57C103.7 109.095 103.445 122.445 103.22 123Z" fill="#FFD997"/>
<path d="M103.22 150.555C103.22 151.08 92.405 150.285 83.6 150.555V136.125C83.6 135.42 103.22 135.54 103.22 136.125V150.555Z" fill="#FFD997"/>
<path d="M103.219 178.2C103.219 178.2 83.9444 178.5 83.5844 178.2C83.2244 177.9 83.7494 164.13 83.5844 163.77C83.4194 163.41 102.904 162.945 103.219 163.77C103.534 164.595 103.219 178.2 103.219 178.2Z" fill="#FFD997"/>
<path d="M40.4447 78.855V86.625C40.4447 86.7523 40.4953 86.8744 40.5853 86.9644C40.6753 87.0545 40.7974 87.105 40.9247 87.105H62.8697C63.3947 87.105 63.5897 87.105 63.6797 86.28C63.8897 84.42 63.4547 79.14 63.2897 70.785C63.2938 70.648 63.2699 70.5115 63.2194 70.3841C63.1688 70.2566 63.0927 70.1409 62.9958 70.0439C62.8988 69.947 62.7831 69.8709 62.6556 69.8203C62.5282 69.7698 62.3917 69.7459 62.2547 69.75C59.2547 69.84 56.2547 69.75 53.2547 69.75C41.3897 69.555 40.0997 69.405 40.0997 70.215C40.1447 73.125 40.4897 75.93 40.4447 78.855ZM62.7197 86.145H41.4047V81.315C41.4047 81.315 46.8947 76.215 47.0597 76.035C47.7047 75.33 47.9297 75.09 48.3347 75.555C49.216 76.5609 50.0374 77.6177 50.7947 78.72C51.1618 79.3124 51.589 79.8654 52.0697 80.37C53.0447 81.315 53.7797 80.76 54.3647 80.37C54.8079 80.0587 55.2335 79.7232 55.6397 79.365C56.1546 78.8789 56.748 78.4834 57.3947 78.195C57.9797 78 58.3097 78.33 58.8947 79.11C59.2247 79.53 59.0147 79.275 62.6897 83.43C62.7647 85.005 62.7497 85.785 62.7197 86.145ZM62.3147 70.71C62.3147 71.415 62.6447 81.075 62.6747 81.855L59.6747 78.45C59.1197 77.745 58.3397 76.77 57.0647 77.22C55.9732 77.7608 54.9633 78.4526 54.0647 79.275C53.1947 79.875 53.1497 80.13 52.6697 79.68C51.9783 78.8402 51.3324 77.9639 50.7347 77.055C48.8747 74.73 48.2597 73.215 46.2347 75.375C45.7997 75.84 46.2347 75.375 41.2847 79.995C41.2847 74.4 41.0597 74.49 40.9697 70.605C44.2547 70.41 55.9997 70.89 62.3147 70.71Z" fill="black"/>
<path d="M83.3748 54.96C83.2263 55.0512 83.1188 55.1964 83.0748 55.365C82.8948 56.07 82.6848 69.405 83.1948 70.11C83.3598 70.335 83.4648 70.47 87.3348 70.575C88.3398 70.575 102.905 70.95 103.595 70.125C104.285 69.3 104.105 55.74 103.595 55.125C103.085 54.51 83.5248 54.885 83.3748 54.96ZM102.875 69.45C96.6045 69.795 90.3201 69.795 84.0498 69.45C83.8248 67.695 83.8098 57.705 84.0498 55.86C86.3448 55.71 100.76 55.575 102.875 55.86C103.127 60.387 103.112 64.9249 102.83 69.45H102.875Z" fill="black"/>
<path d="M92.4796 96.7201C102.47 96.7201 103.235 97.1251 103.595 96.7201C104.165 95.9851 103.685 81.8101 103.595 81.7201C103.507 81.5904 103.372 81.4992 103.22 81.465C103.07 81.465 83.9746 81.105 83.2846 81.57C82.5946 82.035 82.9996 95.8351 82.9996 96.0001C83.1496 97.3951 82.8046 96.7051 92.4796 96.7201ZM84.0046 82.38C86.3146 82.275 100.505 82.155 102.785 82.38C102.905 84.285 102.905 94.035 102.785 95.88C102.215 95.88 93.4546 95.7001 91.8046 95.7001C88.2046 95.7001 85.4296 95.8351 83.9896 95.8501C83.8246 93.9601 83.8396 84.3 84.0046 82.38Z" fill="black"/>
<path d="M83.3302 108.075C83.1352 108.195 83.0152 108.36 83.1052 108.57C83.1952 109.35 82.8802 122.325 83.1052 123.075C83.2852 123.585 83.4502 123.63 88.9102 123.465C100.67 123.12 103.145 124.155 103.64 123.135C103.64 123.045 104.36 109.065 103.64 108.135C102.92 107.205 83.4652 108 83.3302 108.075ZM102.83 122.595C101.765 122.745 98.3302 122.37 94.3252 122.37C92.4502 122.37 85.2052 122.655 84.0802 122.55C83.9752 120.66 84.1552 110.745 84.0802 108.915C86.6302 108.72 100.88 108.555 102.815 108.915C103.044 113.472 103.034 118.039 102.785 122.595H102.83Z" fill="black"/>
<path d="M83.6147 151.05C92.6147 150.705 102.77 151.68 103.535 150.93C103.775 150.705 103.7 151.74 103.7 136.125C103.7 135.615 103.7 135.165 92.7497 135.165C90.2747 135.165 88.0247 135.165 86.4047 135.27C83.4947 135.405 83.1198 135.57 83.1198 136.125C83.1198 151.74 83.1197 150.69 83.2547 150.9C83.3541 150.99 83.4811 151.043 83.6147 151.05ZM84.0798 136.44C90.2921 136.005 96.5274 136.005 102.74 136.44V150.195C101.12 150.36 92.4647 150 88.4297 150H84.0798V136.44Z" fill="black"/>
<path d="M102.62 163.065C100.82 162.81 83.8101 162.66 83.2101 163.455C83.0901 163.605 83.0451 163.725 83.1201 163.875C83.1951 164.025 83.1201 166.65 83.1201 169.035C83.0001 174.75 83.0001 177 83.0001 177.855C83.0001 178.71 83.1951 178.62 83.8401 178.68C86.5551 178.95 97.5501 178.77 103.19 178.68C103.252 178.682 103.315 178.672 103.373 178.649C103.431 178.627 103.484 178.593 103.529 178.549C103.573 178.506 103.609 178.454 103.633 178.397C103.658 178.339 103.67 178.277 103.67 178.215C103.67 174.99 103.955 164.445 103.67 163.605C103.55 163.275 103.19 163.155 102.62 163.065ZM102.74 177.72C95.7951 177.825 85.8051 177.915 83.9901 177.72C83.8251 175.845 84.1551 165.93 84.0951 164.07C86.6451 163.725 100.925 163.515 102.785 164.07C102.935 165.405 102.845 172.815 102.74 177.72Z" fill="black"/>
<path d="M151.459 28.035C148.999 27.705 152.404 27.84 92.6294 27.855C89.2394 27.855 83.6294 27.855 82.3694 33.435C81.8594 35.775 82.3694 38.94 84.1844 40.455C86.9444 42.705 90.4694 43.02 93.9194 43.02L145.459 42.915C149.374 42.915 154.249 43.05 156.934 40.41C157.581 39.7245 158.081 38.9152 158.406 38.0309C158.731 37.1467 158.873 36.2058 158.824 35.265C158.824 31.095 156.409 28.74 151.459 28.035ZM145.459 41.955C145.459 41.955 98.9594 41.955 94.7594 42.045C91.2194 42.045 87.5294 41.94 84.7694 39.705C83.2694 38.46 82.8644 35.64 83.2694 33.705C84.2294 29.205 88.3994 28.875 92.5844 28.875C92.5844 28.875 147.229 28.77 149.284 28.875C154.114 29.13 157.804 30.495 157.804 35.325C157.849 41.715 151.894 42 145.474 42L145.459 41.955Z" fill="black"/>
<path d="M153.739 38.415L151.444 36.405C151.94 35.6818 152.143 34.7977 152.012 33.9309C151.881 33.064 151.427 32.2789 150.741 31.7337C150.054 31.1885 149.187 30.9237 148.313 30.9927C147.439 31.0617 146.624 31.4594 146.031 32.1056C145.439 32.7518 145.114 33.5985 145.121 34.475C145.128 35.3516 145.467 36.1929 146.07 36.8294C146.672 37.4659 147.494 37.8503 148.369 37.9052C149.244 37.96 150.107 37.6813 150.784 37.125C153.349 39.36 153.169 39.27 153.409 39.27C153.508 39.2681 153.603 39.2369 153.684 39.1805C153.764 39.1242 153.826 39.045 153.862 38.9533C153.897 38.8616 153.904 38.7614 153.882 38.6656C153.861 38.5697 153.811 38.4825 153.739 38.415ZM146.104 34.5C146.107 34.1003 146.206 33.707 146.393 33.3536C146.579 33.0001 146.848 32.6968 147.177 32.4693C147.506 32.2417 147.884 32.0967 148.281 32.0464C148.678 31.9961 149.08 32.042 149.455 32.1803C149.831 32.3185 150.167 32.5451 150.436 32.8407C150.705 33.1364 150.899 33.4924 151.001 33.8789C151.104 34.2653 151.111 34.6707 151.024 35.0607C150.937 35.4508 150.757 35.8142 150.499 36.12C150.17 36.5118 149.727 36.7924 149.232 36.9235C148.737 37.0547 148.214 37.0301 147.733 36.8529C147.253 36.6758 146.838 36.3549 146.547 35.9338C146.256 35.5128 146.101 35.0121 146.104 34.5Z" fill="black"/>
<path d="M109.85 56.4901C122.72 56.4901 130.1 57.4201 149.645 56.4901C149.716 56.5026 149.789 56.4994 149.859 56.4807C149.929 56.462 149.994 56.4282 150.049 56.3817C150.104 56.3353 150.149 56.2772 150.179 56.2117C150.21 56.1462 150.226 56.0748 150.226 56.0026C150.226 55.9303 150.21 55.8589 150.179 55.7934C150.149 55.7279 150.104 55.6699 150.049 55.6234C149.994 55.5769 149.929 55.5432 149.859 55.5245C149.789 55.5057 149.716 55.5025 149.645 55.5151C129.905 56.4301 123.29 55.5151 109.895 55.5151C109.831 55.515 109.767 55.5279 109.708 55.553C109.648 55.578 109.595 55.6147 109.55 55.6609C109.505 55.7071 109.47 55.7618 109.447 55.8218C109.424 55.8817 109.413 55.9458 109.415 56.0101C109.414 56.1299 109.459 56.2457 109.539 56.3345C109.62 56.4233 109.73 56.4788 109.85 56.4901Z" fill="black"/>
<path d="M149.674 62.43C139.174 62.43 122.674 61.965 114.769 62.295C113.149 62.295 111.484 62.43 109.849 62.43C109.722 62.43 109.6 62.4805 109.51 62.5706C109.42 62.6606 109.369 62.7827 109.369 62.91C109.367 62.9743 109.378 63.0383 109.402 63.0983C109.425 63.1583 109.46 63.213 109.505 63.2591C109.549 63.3053 109.603 63.342 109.662 63.3671C109.721 63.3921 109.785 63.405 109.849 63.405C116.254 63.405 113.509 62.955 129.829 63.18C129.829 63.18 144.829 63.405 149.674 63.405C149.806 63.405 149.932 63.3528 150.024 63.26C150.117 63.1672 150.169 63.0413 150.169 62.91C150.169 62.8457 150.157 62.782 150.132 62.7228C150.106 62.6635 150.07 62.6099 150.024 62.5652C149.977 62.5204 149.923 62.4853 149.863 62.4621C149.803 62.4389 149.739 62.428 149.674 62.43Z" fill="black"/>
<path d="M109.85 70.305C114.695 70.305 113.735 70.77 122.21 70.44C123.71 70.365 125.375 70.305 126.95 70.305C127.077 70.305 127.2 70.2544 127.29 70.1644C127.38 70.0744 127.43 69.9523 127.43 69.825C127.43 69.6977 127.38 69.5756 127.29 69.4856C127.2 69.3956 127.077 69.345 126.95 69.345C125.36 69.345 123.74 69.345 122.18 69.465C113.57 69.795 114.56 69.345 109.85 69.345C109.723 69.345 109.601 69.3956 109.511 69.4856C109.421 69.5756 109.37 69.6977 109.37 69.825C109.37 69.9523 109.421 70.0744 109.511 70.1644C109.601 70.2544 109.723 70.305 109.85 70.305Z" fill="black"/>
<path d="M109.85 163.305C109.723 163.305 109.601 163.356 109.511 163.446C109.421 163.536 109.37 163.658 109.37 163.785C109.37 163.912 109.421 164.034 109.511 164.124C109.601 164.214 109.723 164.265 109.85 164.265C123.035 164.265 130.19 165.195 149.645 164.265C149.76 164.245 149.864 164.185 149.938 164.096C150.013 164.007 150.054 163.894 150.054 163.778C150.054 163.661 150.013 163.548 149.938 163.459C149.864 163.37 149.76 163.31 149.645 163.29C130.19 164.22 122.87 163.305 109.85 163.305Z" fill="black"/>
<path d="M149.674 170.205C139.549 170.205 122.674 169.74 114.814 170.07C113.194 170.07 111.499 170.205 109.849 170.205C109.722 170.205 109.6 170.256 109.51 170.346C109.42 170.436 109.369 170.558 109.369 170.685C109.367 170.749 109.378 170.813 109.402 170.873C109.425 170.933 109.46 170.988 109.505 171.034C109.549 171.08 109.603 171.117 109.662 171.142C109.721 171.167 109.785 171.18 109.849 171.18C116.074 171.18 113.989 170.715 129.829 170.955C129.829 170.955 144.829 171.18 149.674 171.18C149.806 171.18 149.932 171.128 150.024 171.035C150.117 170.942 150.169 170.816 150.169 170.685C150.169 170.621 150.157 170.557 150.132 170.498C150.106 170.439 150.07 170.385 150.024 170.34C149.977 170.295 149.923 170.26 149.863 170.237C149.803 170.214 149.739 170.203 149.674 170.205Z" fill="black"/>
<path d="M126.95 177.12C123.62 177.12 119.96 177.405 116.81 177.36C114.485 177.36 112.175 177.12 109.85 177.12C109.787 177.12 109.725 177.132 109.666 177.157C109.608 177.181 109.555 177.216 109.511 177.261C109.466 177.305 109.431 177.358 109.407 177.416C109.383 177.475 109.37 177.537 109.37 177.6C109.37 177.663 109.383 177.726 109.407 177.784C109.431 177.842 109.466 177.895 109.511 177.94C109.555 177.984 109.608 178.019 109.666 178.044C109.725 178.068 109.787 178.08 109.85 178.08C114.47 178.08 113.675 178.545 122.18 178.215C123.68 178.215 125.375 178.08 126.95 178.08C127.077 178.08 127.2 178.03 127.29 177.94C127.38 177.849 127.43 177.727 127.43 177.6C127.43 177.473 127.38 177.351 127.29 177.261C127.2 177.171 127.077 177.12 126.95 177.12Z" fill="black"/>
<path d="M149.674 81.465C138.244 81.465 129.109 81.915 116.179 81.63C114.094 81.63 111.979 81.39 109.834 81.465C109.707 81.465 109.585 81.5156 109.495 81.6056C109.405 81.6956 109.354 81.8177 109.354 81.945C109.354 82.0723 109.405 82.1944 109.495 82.2844C109.585 82.3744 109.707 82.425 109.834 82.425C111.859 82.425 114.004 82.56 116.134 82.605C130.309 82.905 138.994 82.425 149.644 82.425C149.772 82.425 149.894 82.3744 149.984 82.2844C150.074 82.1944 150.124 82.0723 150.124 81.945C150.124 81.8177 150.074 81.6956 149.984 81.6056C149.894 81.5156 149.772 81.465 149.644 81.465H149.674Z" fill="black"/>
<path d="M109.849 89.3401C123.064 89.3401 131.254 90.2851 149.554 88.9651C149.68 88.9536 149.797 88.8944 149.881 88.7996C149.965 88.7047 150.009 88.5815 150.004 88.4551C150.001 88.3906 149.984 88.3276 149.955 88.2697C149.927 88.2119 149.887 88.1604 149.838 88.1184C149.789 88.0764 149.732 88.0447 149.67 88.0252C149.609 88.0058 149.544 87.9989 149.479 88.0051C131.479 89.3101 122.764 88.3651 109.849 88.3651C109.785 88.365 109.721 88.3779 109.662 88.403C109.603 88.428 109.549 88.4647 109.505 88.5109C109.46 88.5571 109.425 88.6118 109.402 88.6718C109.378 88.7317 109.367 88.7958 109.369 88.8601C109.369 88.9874 109.42 89.1094 109.51 89.1995C109.6 89.2895 109.722 89.3401 109.849 89.3401Z" fill="black"/>
<path d="M109.85 96.24C112.355 96.24 114.995 96.12 117.35 96.15C120.53 96.15 123.725 96.24 126.905 96.24C127.032 96.24 127.155 96.1895 127.245 96.0995C127.335 96.0094 127.385 95.8873 127.385 95.76C127.385 95.6327 127.335 95.5106 127.245 95.4206C127.155 95.3306 127.032 95.28 126.905 95.28H109.85C109.723 95.28 109.601 95.3306 109.511 95.4206C109.421 95.5106 109.37 95.6327 109.37 95.76C109.37 95.8873 109.421 96.0094 109.511 96.0995C109.601 96.1895 109.723 96.24 109.85 96.24Z" fill="black"/>
<path d="M109.85 108.9C122.6 108.9 130.355 109.83 149.645 108.9C149.716 108.913 149.789 108.909 149.859 108.891C149.928 108.872 149.993 108.838 150.049 108.792C150.104 108.745 150.149 108.687 150.179 108.622C150.21 108.556 150.225 108.485 150.225 108.413C150.225 108.34 150.21 108.269 150.179 108.203C150.149 108.138 150.104 108.08 150.049 108.033C149.993 107.987 149.928 107.953 149.859 107.934C149.789 107.916 149.716 107.913 149.645 107.925C130.145 108.84 123.095 107.925 109.895 107.925C109.767 107.925 109.645 107.976 109.555 108.066C109.465 108.156 109.415 108.278 109.415 108.405C109.415 108.532 109.465 108.654 109.555 108.744C109.645 108.834 109.767 108.885 109.895 108.885L109.85 108.9Z" fill="black"/>
<path d="M149.674 114.84C139.399 114.84 122.584 114.375 114.754 114.705C113.149 114.705 111.484 114.84 109.849 114.84C109.785 114.84 109.721 114.853 109.662 114.878C109.603 114.903 109.549 114.94 109.505 114.986C109.46 115.032 109.425 115.087 109.402 115.147C109.378 115.207 109.367 115.271 109.369 115.335C109.369 115.462 109.42 115.584 109.51 115.674C109.6 115.764 109.722 115.815 109.849 115.815C115.984 115.815 113.734 115.365 129.829 115.59C129.829 115.59 144.679 115.815 149.674 115.815C149.739 115.817 149.803 115.806 149.863 115.783C149.923 115.76 149.977 115.725 150.024 115.68C150.07 115.635 150.106 115.581 150.132 115.522C150.157 115.463 150.169 115.399 150.169 115.335C150.169 115.204 150.117 115.078 150.024 114.985C149.932 114.892 149.806 114.84 149.674 114.84Z" fill="black"/>
<path d="M113.42 122.85C119.975 123.18 121.715 122.715 126.92 122.715C127.047 122.715 127.169 122.664 127.259 122.574C127.349 122.484 127.4 122.362 127.4 122.235C127.4 122.108 127.349 121.986 127.259 121.896C127.169 121.806 127.047 121.755 126.92 121.755C123.485 121.755 120.56 122.025 116.78 121.995C114.44 121.995 112.19 121.755 109.82 121.755C109.692 121.755 109.57 121.806 109.48 121.896C109.39 121.986 109.34 122.108 109.34 122.235C109.34 122.362 109.39 122.484 109.48 122.574C109.57 122.664 109.692 122.715 109.82 122.715C111.035 122.715 112.25 122.79 113.42 122.85Z" fill="black"/>
<path d="M108.77 135.945C110.106 135.908 111.443 135.938 112.775 136.035C122.885 136.515 140.18 135.945 148.58 135.945C148.695 135.925 148.799 135.865 148.874 135.776C148.948 135.687 148.989 135.574 148.989 135.458C148.989 135.341 148.948 135.228 148.874 135.139C148.799 135.05 148.695 134.99 148.58 134.97C139.58 134.97 122.225 135.51 112.82 135.06C111.485 135.06 110.09 134.925 108.74 134.97C108.626 134.993 108.524 135.056 108.451 135.148C108.379 135.239 108.341 135.354 108.345 135.47C108.349 135.587 108.393 135.698 108.471 135.785C108.549 135.872 108.655 135.929 108.77 135.945Z" fill="black"/>
<path d="M108.755 142.845C122.135 142.845 130.01 143.805 148.46 142.485C148.523 142.479 148.585 142.461 148.641 142.432C148.697 142.402 148.747 142.362 148.787 142.313C148.828 142.264 148.858 142.208 148.876 142.147C148.895 142.087 148.901 142.023 148.895 141.96C148.891 141.897 148.875 141.835 148.847 141.778C148.82 141.722 148.781 141.671 148.734 141.629C148.686 141.587 148.631 141.555 148.571 141.535C148.511 141.514 148.448 141.506 148.385 141.51C129.935 142.83 122 141.885 108.755 141.885C108.628 141.885 108.506 141.936 108.416 142.026C108.326 142.116 108.275 142.238 108.275 142.365C108.275 142.492 108.326 142.614 108.416 142.704C108.506 142.794 108.628 142.845 108.755 142.845Z" fill="black"/>
<path d="M116.3 149.67C116.3 149.67 122.765 149.76 125.855 149.76C125.982 149.76 126.104 149.709 126.194 149.619C126.284 149.529 126.335 149.407 126.335 149.28C126.337 149.216 126.326 149.152 126.303 149.092C126.279 149.032 126.244 148.977 126.2 148.931C126.155 148.885 126.101 148.848 126.042 148.823C125.983 148.798 125.919 148.785 125.855 148.785C122.765 148.785 116.315 148.695 116.315 148.695C113.72 148.695 111.245 148.785 108.815 148.785C108.75 148.785 108.687 148.798 108.628 148.823C108.568 148.848 108.515 148.885 108.47 148.931C108.425 148.977 108.39 149.032 108.367 149.092C108.344 149.152 108.333 149.216 108.335 149.28C108.335 149.407 108.385 149.529 108.475 149.619C108.565 149.709 108.687 149.76 108.815 149.76C111.26 149.76 113.81 149.625 116.3 149.67Z" fill="black"/>
<path d="M74.1648 50.715C73.8498 47.565 72.5297 45.285 70.3997 44.445C66.2597 42.825 61.2198 47.37 61.8498 51.795C62.9598 59.49 74.9148 58.245 74.1648 50.715ZM64.7597 46.755C68.2397 43.575 72.6048 44.91 73.2048 50.82C73.8198 57.015 63.7398 58.2 62.8098 51.66C62.7492 50.7488 62.8929 49.8357 63.2303 48.9871C63.5676 48.1385 64.0902 47.3759 64.7597 46.755Z" fill="black"/>
<path d="M169.429 73.6951C178.234 73.6951 177.679 73.6951 177.889 73.5451C177.937 73.5017 177.974 73.4481 177.997 73.3882C178.02 73.3284 178.03 73.2641 178.024 73.2001C178 72.3176 177.717 71.4618 177.211 70.739C176.704 70.0162 175.996 69.4584 175.174 69.1351C175.649 68.7806 176 68.2857 176.177 67.7205C176.355 67.1554 176.35 66.5487 176.163 65.9866C175.976 65.4245 175.617 64.9354 175.137 64.5888C174.657 64.2422 174.079 64.0557 173.487 64.0557C172.895 64.0557 172.317 64.2422 171.837 64.5888C171.357 64.9354 170.997 65.4245 170.811 65.9866C170.624 66.5487 170.619 67.1554 170.796 67.7205C170.974 68.2857 171.325 68.7806 171.799 69.1351C170.976 69.4594 170.266 70.0195 169.759 70.7452C169.252 71.4709 168.97 72.3301 168.949 73.2151C168.949 73.3424 169 73.4644 169.09 73.5545C169.18 73.6445 169.302 73.6951 169.429 73.6951Z" fill="black"/>
<path d="M235.52 39.6601C235.574 39.7227 235.643 39.7704 235.721 39.7985C235.798 39.8267 235.882 39.8344 235.963 39.8208C236.045 39.8072 236.121 39.7729 236.185 39.7211C236.25 39.6693 236.3 39.6017 236.33 39.5251C236.945 38.1392 237.925 36.9466 239.165 36.0751C239.28 36.0144 239.366 35.9113 239.405 35.7879C239.444 35.6645 239.433 35.5307 239.375 35.4151C239.312 35.3071 239.212 35.226 239.093 35.1873C238.974 35.1486 238.845 35.1549 238.73 35.2051C237.442 35.9901 236.402 37.1238 235.73 38.4751L234.71 37.2901C234.627 37.1926 234.508 37.1323 234.38 37.1225C234.252 37.1126 234.125 37.154 234.028 37.2376C233.93 37.3211 233.87 37.4399 233.86 37.5679C233.85 37.6959 233.892 37.8226 233.975 37.9201L235.52 39.6601Z" fill="black"/>
<path d="M241.699 81.315C241.969 82.44 243.619 83.055 243.814 83.115C243.874 83.1357 243.938 83.1443 244.001 83.1404C244.065 83.1366 244.127 83.1202 244.184 83.0924C244.241 83.0645 244.292 83.0257 244.334 82.9781C244.376 82.9305 244.409 82.8751 244.429 82.815C244.45 82.7549 244.459 82.6913 244.455 82.6279C244.451 82.5645 244.435 82.5025 244.407 82.4454C244.379 82.3883 244.34 82.3372 244.292 82.2951C244.245 82.253 244.189 82.2207 244.129 82.2C243.694 82.05 242.764 81.57 242.629 81.09C242.494 80.61 242.719 80.25 243.409 79.77C243.962 79.4869 244.427 79.0574 244.752 78.5284C245.077 77.9993 245.251 77.3911 245.254 76.77C245.234 76.6554 245.174 76.5515 245.085 76.4767C244.996 76.4019 244.883 76.3608 244.767 76.3608C244.65 76.3608 244.538 76.4019 244.449 76.4767C244.359 76.5515 244.299 76.6554 244.279 76.77C244.414 79.095 241.114 78.87 241.699 81.315Z" fill="black"/>
<path d="M243.5 84.75C243.127 84.5123 242.708 84.3571 242.271 84.295C241.834 84.2329 241.388 84.2653 240.965 84.39C240.835 84.3266 240.726 84.2278 240.65 84.105C240.611 84.0546 240.563 84.0122 240.509 83.9804C240.454 83.9486 240.394 83.9279 240.331 83.9195C240.268 83.9112 240.204 83.9153 240.143 83.9317C240.082 83.9481 240.025 83.9764 239.975 84.015C239.874 84.0924 239.807 84.2058 239.787 84.3315C239.767 84.4571 239.797 84.5855 239.87 84.69C240.005 84.87 240.485 85.455 241.04 85.35H241.19C241.925 85.23 242.57 85.17 243.005 85.635C243.068 85.7033 243.15 85.7522 243.24 85.7761C243.33 85.8 243.425 85.7978 243.515 85.77C243.69 85.7041 243.88 85.6832 244.066 85.7095C244.252 85.7357 244.429 85.808 244.58 85.92C244.981 86.2808 245.48 86.5147 246.014 86.5921C246.548 86.6695 247.092 86.587 247.58 86.355C247.636 86.3254 247.685 86.2851 247.726 86.2363C247.767 86.1875 247.797 86.1313 247.816 86.0707C247.835 86.0101 247.841 85.9464 247.836 85.8832C247.83 85.82 247.812 85.7586 247.782 85.7025C247.752 85.6463 247.712 85.5966 247.663 85.556C247.615 85.5154 247.558 85.4849 247.498 85.4661C247.437 85.4473 247.373 85.4406 247.31 85.4464C247.247 85.4522 247.186 85.4704 247.13 85.5C246.8 85.6696 246.425 85.7276 246.059 85.6654C245.694 85.6032 245.359 85.4241 245.105 85.155C244.877 84.9845 244.618 84.8609 244.343 84.7914C244.067 84.7219 243.781 84.7078 243.5 84.75Z" fill="black"/>
<path d="M244.7 86.82C242.435 87.15 241.7 86.175 241.7 86.115C241.625 86.0265 241.52 85.9674 241.405 85.9482C241.291 85.929 241.173 85.9509 241.072 86.01C240.972 86.0691 240.896 86.1616 240.857 86.2713C240.818 86.3811 240.819 86.501 240.86 86.61C241.207 87.0636 241.666 87.4186 242.192 87.6396C242.719 87.8607 243.294 87.9401 243.86 87.87C244.207 87.8673 244.553 87.8372 244.895 87.78C245.022 87.7541 245.134 87.6787 245.206 87.5704C245.278 87.4621 245.303 87.3298 245.278 87.2025C245.252 87.0752 245.176 86.9634 245.068 86.8916C244.96 86.8199 244.827 86.7941 244.7 86.82Z" fill="black"/>
<path d="M247.445 77.595C247.69 77.3482 248.013 77.1944 248.36 77.16C248.298 77.2488 248.259 77.3508 248.244 77.4578C248.229 77.5647 248.24 77.6736 248.275 77.7758C248.31 77.8779 248.368 77.9704 248.446 78.0458C248.523 78.1212 248.617 78.1774 248.72 78.21C249.125 78.21 249.44 77.76 249.305 77.295C249.754 77.4864 250.17 77.7499 250.535 78.075C250.579 78.1212 250.633 78.158 250.692 78.1832C250.752 78.2083 250.815 78.2212 250.88 78.2212C250.944 78.2212 251.008 78.2083 251.067 78.1832C251.126 78.158 251.18 78.1212 251.225 78.075C251.31 77.9833 251.358 77.8627 251.358 77.7375C251.358 77.6122 251.31 77.4916 251.225 77.4C248.57 75.075 246.725 76.95 246.725 76.98C246.682 77.0772 246.672 77.1855 246.696 77.2888C246.72 77.3922 246.776 77.4851 246.857 77.554C246.938 77.6229 247.038 77.664 247.144 77.6714C247.25 77.6788 247.355 77.652 247.445 77.595Z" fill="black"/>
<path d="M242.84 77.04C242.872 77.0946 242.915 77.1421 242.966 77.1795C243.018 77.2169 243.076 77.2434 243.138 77.2575C243.2 77.2715 243.264 77.2728 243.326 77.2612C243.388 77.2496 243.447 77.2254 243.5 77.19C243.555 77.1564 243.603 77.112 243.64 77.0595C243.678 77.007 243.705 76.9474 243.719 76.8844C243.733 76.8214 243.734 76.7562 243.722 76.6927C243.71 76.6293 243.686 76.5688 243.65 76.515C243.295 75.9907 242.762 75.6125 242.15 75.45C241.781 75.3827 241.402 75.3905 241.036 75.473C240.67 75.5555 240.325 75.7109 240.02 75.93C239.912 76.0007 239.836 76.1109 239.808 76.237C239.78 76.3631 239.802 76.4952 239.87 76.605C239.941 76.7132 240.051 76.7894 240.177 76.8174C240.303 76.8454 240.435 76.8231 240.545 76.755C240.778 76.5965 241.037 76.4798 241.31 76.41C241.257 76.4927 241.225 76.5868 241.216 76.6845C241.206 76.7823 241.221 76.8808 241.258 76.9718C241.294 77.0629 241.352 77.1438 241.427 77.2079C241.501 77.2719 241.59 77.3172 241.685 77.34C241.786 77.3436 241.886 77.3225 241.976 77.2784C242.067 77.2343 242.145 77.1686 242.205 77.0871C242.264 77.0057 242.302 76.9109 242.316 76.8111C242.33 76.7114 242.32 76.6097 242.285 76.515C242.504 76.6508 242.692 76.8293 242.84 77.04Z" fill="black"/>
<path d="M248.165 75.195C249.08 74.55 250.76 75.855 251.33 76.41C251.425 76.4954 251.548 76.5434 251.675 76.545C251.772 76.5473 251.867 76.5204 251.948 76.4678C252.029 76.4152 252.092 76.3394 252.129 76.2503C252.167 76.1612 252.176 76.0629 252.157 75.9682C252.137 75.8736 252.09 75.7871 252.02 75.72C251.9 75.615 249.38 73.155 247.61 74.4C247.558 74.4364 247.513 74.4828 247.479 74.5364C247.445 74.5901 247.422 74.6499 247.41 74.7126C247.399 74.7753 247.401 74.8395 247.414 74.9017C247.428 74.9639 247.454 75.0228 247.49 75.075C247.527 75.1272 247.573 75.1717 247.627 75.206C247.68 75.2402 247.74 75.2636 247.803 75.2748C247.866 75.2859 247.93 75.2846 247.992 75.2709C248.054 75.2572 248.113 75.2314 248.165 75.195Z" fill="black"/>
<path d="M239.69 74.55C239.755 74.6592 239.861 74.7388 239.984 74.7723C240.106 74.8059 240.238 74.7907 240.35 74.73C240.35 74.73 242.285 73.71 243.095 74.61C243.139 74.6563 243.193 74.6931 243.252 74.7182C243.312 74.7433 243.375 74.7563 243.44 74.7563C243.504 74.7563 243.568 74.7433 243.627 74.7182C243.686 74.6931 243.74 74.6563 243.785 74.61C243.874 74.5176 243.925 74.3938 243.925 74.265C243.925 74.1361 243.874 74.0124 243.785 73.92C242.465 72.42 239.96 73.785 239.855 73.845C239.796 73.8788 239.744 73.9243 239.704 73.9788C239.663 74.0333 239.634 74.0955 239.619 74.1616C239.603 74.2277 239.602 74.2964 239.614 74.3632C239.626 74.43 239.652 74.4936 239.69 74.55Z" fill="black"/>
<path d="M255.86 82.335C255.952 82.4248 256.076 82.475 256.205 82.475C256.334 82.475 256.457 82.4248 256.55 82.335C257.225 81.525 257.615 80.52 256.805 79.89C257.03 79.44 257.42 78.81 257.885 78.675C258.011 78.6403 258.145 78.6401 258.271 78.6744C258.398 78.7087 258.513 78.7762 258.605 78.87C258.655 78.9086 258.712 78.9369 258.773 78.9533C258.834 78.9697 258.898 78.9738 258.961 78.9654C259.024 78.9571 259.084 78.9364 259.139 78.9045C259.194 78.8727 259.241 78.8304 259.28 78.78C259.32 78.7285 259.349 78.6693 259.366 78.6061C259.382 78.5429 259.386 78.477 259.376 78.4124C259.366 78.3478 259.343 78.2859 259.309 78.2304C259.274 78.175 259.228 78.1272 259.175 78.09C257.675 76.995 256.325 78.24 255.725 79.935C255.702 79.9989 255.692 80.0669 255.696 80.1347C255.7 80.2026 255.718 80.2688 255.749 80.3293C255.78 80.3898 255.823 80.4433 255.876 80.4864C255.928 80.5296 255.989 80.5614 256.055 80.58C256.055 80.58 256.235 80.58 256.28 80.745C256.325 80.91 256.28 81.21 255.8 81.705C255.737 81.8014 255.709 81.9161 255.72 82.0304C255.731 82.1448 255.78 82.2521 255.86 82.335Z" fill="black"/>
<path d="M285.965 135.81C285.301 132.367 284.322 128.993 283.04 125.73C284.36 124.485 284.465 123.66 284.465 123.51C284.473 123.46 284.473 123.41 284.465 123.36C284.3 122.76 280.49 108.525 274.565 102.36C270.425 98.0699 259.235 94.53 257.255 93.93C256.928 92.2672 256.722 90.5827 256.64 88.89C257.062 88.9773 257.501 88.9191 257.885 88.725C258.599 89.1123 259.402 89.3077 260.214 89.2919C261.027 89.2761 261.821 89.0498 262.52 88.6349C263.239 88.5712 263.929 88.3185 264.519 87.9022C265.109 87.486 265.579 86.9212 265.88 86.265C266.723 86.032 267.459 85.5151 267.965 84.8017C268.471 84.0884 268.714 83.2223 268.655 82.35C269.189 81.9788 269.632 81.4921 269.951 80.9259C270.271 80.3597 270.458 79.7287 270.5 79.08C271.189 78.4684 271.694 77.6774 271.959 76.7953C272.224 75.9132 272.238 74.9747 272 74.085C272.34 73.4048 272.524 72.6577 272.54 71.8976C272.555 71.1375 272.402 70.3834 272.09 69.6899C272.254 69.004 272.278 68.2923 272.162 67.5967C272.046 66.9011 271.792 66.2357 271.415 65.64C271.626 64.9433 271.626 64.1998 271.415 63.5032C271.204 62.8066 270.792 62.1879 270.23 61.725C270.245 61.1076 270.099 60.497 269.807 59.9527C269.515 59.4085 269.087 58.9493 268.565 58.62C268.431 57.9284 268.114 57.2854 267.647 56.7579C267.18 56.2303 266.58 55.8374 265.91 55.62C265.668 54.8948 265.226 54.2532 264.633 53.7699C264.041 53.2866 263.324 52.9814 262.565 52.8899C262.145 52.3351 261.584 51.9032 260.94 51.6393C260.296 51.3754 259.594 51.2893 258.905 51.3899C258.417 50.9042 257.817 50.5451 257.158 50.3438C256.499 50.1425 255.802 50.1052 255.125 50.235C254.513 49.7638 253.781 49.4733 253.012 49.3965C252.243 49.3196 251.468 49.4594 250.775 49.8C250.084 49.458 249.318 49.2992 248.548 49.3386C247.779 49.3779 247.032 49.6143 246.38 50.025C245.738 49.8105 245.048 49.787 244.393 49.9574C243.738 50.1279 243.146 50.4848 242.69 50.985H242.45C242.45 43.395 242.555 43.17 242.105 41.985C242.835 41.0178 243.316 39.8864 243.507 38.69C243.698 37.4935 243.593 36.2685 243.2 35.1223C242.808 33.976 242.14 32.9434 241.256 32.115C240.372 31.2866 239.298 30.6876 238.129 30.3705C236.96 30.0534 235.73 30.0279 234.549 30.2961C233.367 30.5644 232.27 31.1182 231.352 31.9092C230.434 32.7002 229.724 33.7041 229.285 34.8331C228.845 35.9621 228.689 37.1816 228.83 38.385H226.445C225.622 38.385 224.832 38.7121 224.249 39.2944C223.667 39.8767 223.34 40.6665 223.34 41.49C223.302 42.0339 223.06 42.5433 222.662 42.9161C222.264 43.2889 221.74 43.4975 221.195 43.5H207.695V36.705C212.09 34.44 214.055 30.705 213.695 26.73C213.17 20.07 208.55 15.21 201.47 15.345C198.556 15.4033 195.774 16.5696 193.69 18.6066C191.605 20.6436 190.375 23.3982 190.25 26.31H189.215C188.279 26.3139 187.382 26.6886 186.722 27.3521C186.061 28.0155 185.69 28.9137 185.69 29.85C185.686 30.5316 185.412 31.184 184.929 31.6646C184.446 32.1452 183.792 32.415 183.11 32.415H167.24C167.15 26.91 167.09 21.285 167.36 15.915C167.6 11.04 167.6 6.01496 164.795 3.05996C163.937 2.22985 162.914 1.58876 161.793 1.17799C160.671 0.767208 159.477 0.595851 158.285 0.674955H143.63C142.317 0.674955 141.058 1.19647 140.13 2.12478C139.202 3.05308 138.68 4.31213 138.68 5.62496C138.678 6.15287 138.572 6.67523 138.368 7.16221C138.164 7.64918 137.867 8.09124 137.492 8.46314C137.117 8.83504 136.673 9.1295 136.185 9.3297C135.696 9.5299 135.173 9.63193 134.645 9.62995C126.733 10.1478 118.797 10.1478 110.885 9.62995C109.827 9.62995 108.812 9.20958 108.064 8.46131C107.315 7.71304 106.895 6.69817 106.895 5.63996C106.895 4.98483 106.765 4.33622 106.513 3.73171C106.26 3.1272 105.89 2.57883 105.424 2.11839C104.958 1.65795 104.405 1.29459 103.798 1.04939C103.19 0.804187 102.54 0.682015 101.885 0.689955C95.6 1.09496 91.835 1.01996 83.39 1.01996C78.47 1.01996 75.05 4.61996 75.05 9.76495C75.05 14.145 74.765 29.415 74.735 32.73C70.505 32.625 66.365 32.955 62.33 32.82C57.83 32.67 57.5 31.785 56.81 29.685C56.5739 28.5761 55.9586 27.5842 55.07 26.88C53.3201 25.9471 51.3137 25.6101 49.355 25.92C49.025 25.92 40.61 26.175 40.61 26.175C38.405 26.25 35.78 26.67 34.94 29.475C34.5593 31.6288 34.4885 33.8261 34.73 36V43.245C29.69 43.245 29.06 43.5 21.875 43.47C21.3376 43.4779 20.8019 43.4072 20.285 43.26C18.785 42.645 19.94 39.885 18.11 38.58C17.461 38.1902 16.703 38.0218 15.95 38.1C11.27 38.1 7.34004 37.92 4.05504 38.7C2.89115 38.9363 1.84811 39.576 1.10988 40.5063C0.371661 41.4367 -0.0143144 42.5978 0.0200396 43.785V147.075C0.0200342 148.54 0.601125 149.946 1.6359 150.983C2.67067 152.021 4.07467 152.606 5.54004 152.61H34.73C34.7101 153.456 34.8593 154.298 35.169 155.086C35.4788 155.874 35.9427 156.593 36.5337 157.199C37.1247 157.805 37.8308 158.288 38.6106 158.618C39.3905 158.947 40.2283 159.118 41.075 159.12H75.02V185.7C75.0101 186.888 75.2356 188.067 75.6835 189.167C76.1313 190.268 76.7927 191.269 77.6294 192.112C78.4661 192.956 79.4616 193.626 80.5585 194.083C81.6553 194.54 82.8318 194.775 84.02 194.775C101.525 195.195 122.675 194.43 158.21 194.775C160.603 194.751 162.889 193.785 164.574 192.086C166.259 190.387 167.206 188.093 167.21 185.7C167.21 176.7 167.09 167.7 166.955 159.12H201.23C202.077 159.118 202.915 158.947 203.694 158.618C204.474 158.288 205.18 157.805 205.771 157.199C206.362 156.593 206.826 155.874 207.136 155.086C207.446 154.298 207.595 153.456 207.575 152.61H229.04V153.795C229.214 154.151 229.471 154.46 229.79 154.695C228.095 160.215 222.29 180.3 220.79 184.785C218.66 191.79 217.325 199.05 215.42 206.13C211.79 219.75 210.62 225.63 209.135 231.105C208.062 234.52 207.358 238.04 207.035 241.605C207.035 242.31 207.89 243.015 208.535 243.435L207.665 248.955C205.91 248.445 204.665 250.98 204.275 252.915C204.07 253.932 203.618 254.882 202.959 255.683C202.3 256.483 201.454 257.109 200.495 257.505C198.23 258 195.71 258.48 193.415 258.915C192.249 259.051 191.132 259.458 190.152 260.104C189.173 260.75 188.359 261.617 187.775 262.635C187.338 263.524 187.111 264.502 187.111 265.492C187.111 266.483 187.338 267.461 187.775 268.35H145.625C145.494 268.35 145.368 268.402 145.275 268.495C145.182 268.588 145.13 268.714 145.13 268.845C145.13 268.909 145.143 268.973 145.168 269.032C145.193 269.091 145.23 269.145 145.276 269.19C145.322 269.235 145.377 269.27 145.437 269.293C145.497 269.316 145.561 269.327 145.625 269.325H271.55C271.677 269.325 271.799 269.274 271.889 269.184C271.979 269.094 272.03 268.972 272.03 268.845C272.03 268.716 271.98 268.593 271.89 268.5C271.801 268.408 271.679 268.354 271.55 268.35H263.285C263.54 264.42 262.295 260.01 258.785 258.045L259.52 249.75C261.485 249.225 263.51 248.25 263.12 246.24C262.055 240.855 263.495 234.495 263.975 228.99C265.955 205.68 266.51 201.105 267.47 183.15C267.89 175.65 269.375 167.46 268.835 160.02C271.055 157.02 279.335 147.795 284.3 140.73C285.373 139.314 285.957 137.587 285.965 135.81ZM273.86 103.08C279.335 108.75 283.115 122.16 283.49 123.495C282.725 126.165 273.14 130.815 267.965 130.53L263.465 120.345C263.412 120.226 263.315 120.133 263.195 120.086C263.074 120.038 262.94 120.039 262.82 120.09C262.761 120.116 262.708 120.153 262.664 120.2C262.62 120.247 262.586 120.302 262.564 120.362C262.541 120.422 262.531 120.486 262.534 120.55C262.537 120.614 262.553 120.677 262.58 120.735L267.23 131.235C267.258 131.309 267.307 131.374 267.371 131.422C267.435 131.47 267.511 131.499 267.59 131.505C268.412 131.603 269.243 131.603 270.065 131.505L272.24 136.005C267.74 140.895 266.915 148.575 263.465 155.895C235.31 159.57 230.645 154.305 230.18 153.645C230.33 141.405 233.36 116.955 234.245 114.855C234.27 114.797 234.283 114.734 234.283 114.671C234.284 114.608 234.272 114.546 234.248 114.487C234.225 114.429 234.19 114.375 234.145 114.33C234.101 114.285 234.048 114.25 233.99 114.225C233.932 114.2 233.87 114.187 233.806 114.187C233.743 114.186 233.681 114.198 233.622 114.222C233.564 114.245 233.51 114.28 233.465 114.325C233.42 114.369 233.385 114.422 233.36 114.48C232.406 118.788 231.725 123.151 231.32 127.545C224.15 127.77 220.22 121.725 219.59 120.66C220.025 118.995 223.25 106.845 226.025 102.405C228.575 98.2949 238.175 96.27 240.38 95.85C240.8 97.575 242.63 103.17 249.11 102.495C251.113 102.376 253.019 101.591 254.524 100.264C256.03 98.9381 257.049 97.1468 257.42 95.1749C260.15 95.9099 270.17 99.255 273.86 103.08ZM222.5 137.19C219.2 138.33 209.87 129.915 205.595 121.935C201.32 113.955 198.965 112.935 198.875 112.935C198.773 112.897 198.662 112.897 198.56 112.935C197.82 113.116 197.054 113.172 196.295 113.1L197.945 108.06C198.05 108.749 198.262 109.417 198.575 110.04C198.615 110.121 198.677 110.19 198.754 110.238C198.83 110.286 198.919 110.311 199.01 110.31C199.092 110.308 199.173 110.285 199.244 110.244C199.315 110.203 199.375 110.145 199.418 110.075C199.461 110.005 199.486 109.925 199.491 109.843C199.496 109.761 199.48 109.679 199.445 109.605C198.994 108.72 198.787 107.731 198.845 106.74C199.445 106.53 199.19 105.48 198.245 105.825C197.405 105.825 195.89 105.465 195.695 104.655C196.714 104.76 197.744 104.616 198.695 104.235C201.155 103.41 201.785 103.755 202.49 107.235C203.24 110.97 202.49 110.73 202.88 111.165C205.88 114.495 216.38 122.745 220.115 125.64C220.219 125.703 220.343 125.726 220.463 125.704C220.583 125.681 220.69 125.615 220.765 125.519C220.839 125.422 220.875 125.301 220.866 125.18C220.857 125.058 220.803 124.944 220.715 124.86L220.475 124.68L221.03 123.915C222.315 125.352 223.893 126.497 225.658 127.273C227.422 128.049 229.332 128.439 231.26 128.415V128.73C230.945 128.865 226.16 135.915 222.5 137.19ZM166.685 115.62V107.64H190.25C190.461 108.258 190.775 108.837 191.18 109.35C188.39 115.755 188.555 115.35 188.495 115.62H166.685ZM166.685 123.405H184.505C185.563 123.405 186.578 123.825 187.326 124.574C188.075 125.322 188.495 126.337 188.495 127.395C188.495 128.453 188.075 129.468 187.326 130.216C186.578 130.965 185.563 131.385 184.505 131.385H166.745C166.745 128.715 166.73 126 166.715 123.405H166.685ZM167.09 59.085C168.932 57.8344 171.081 57.1095 173.304 56.9882C175.528 56.8668 177.742 57.3536 179.71 58.3961C181.678 59.4387 183.324 60.9977 184.472 62.9056C185.621 64.8135 186.227 66.9982 186.227 69.225C186.227 71.4517 185.621 73.6364 184.472 75.5443C183.324 77.4522 181.678 79.0112 179.71 80.0538C177.742 81.0964 175.528 81.5831 173.304 81.4617C171.081 81.3404 168.932 80.6155 167.09 79.365C166.974 79.3212 166.846 79.3212 166.73 79.365C166.895 72.435 167.12 59.085 167.12 59.085H167.09ZM207.59 58.2C208.939 56.9026 210.691 56.1037 212.555 55.935L214.265 56.475C213.448 56.7956 212.688 57.2464 212.015 57.81C203.435 64.785 198.755 84.9149 201.89 92.505L199.73 91.2599C199.175 90.2999 194.81 82.2599 200.105 69.4799C203.855 60.645 207.38 58.575 207.635 58.2H207.59ZM203.63 110.7C203.716 109.47 203.605 108.235 203.3 107.04C202.73 104.205 201.995 102.345 199.13 103.05L203 94.245C203.524 94.6526 204.14 94.9247 204.794 95.0372C205.448 95.1497 206.12 95.0992 206.75 94.89V113.58C205.49 112.5 204.41 111.465 203.675 110.685L203.63 110.7ZM215.825 57.15C220.1 58.74 217.775 77.0249 210.92 86.88C207.095 92.3999 204.92 93.075 203.99 92.9849C203.735 92.9592 203.491 92.8684 203.281 92.7214C203.07 92.5743 202.902 92.3759 202.79 92.145C201.974 89.3991 201.704 86.5198 201.995 83.67C203 70.6349 210.5 57.39 215.87 57.135L215.825 57.15ZM207.5 93.5699C206.542 94.0752 205.431 94.2087 204.38 93.9449C206.36 93.7799 208.88 91.59 211.715 87.42C218.39 77.8199 220.445 62.37 217.82 57.75C220.385 59.67 221.675 66.255 218.54 76.395C214.625 89.1749 209.54 92.6699 207.5 93.5699ZM197 103.455C197.01 103.475 197.014 103.498 197.014 103.52C197.014 103.543 197.008 103.565 196.998 103.585C196.988 103.605 196.974 103.623 196.956 103.637C196.938 103.651 196.917 103.66 196.895 103.665C196.175 103.77 195.935 103.665 195.5 103.665C195.395 103.515 193.385 101.82 193.775 100.86C193.895 100.545 194.39 100.53 194.585 100.53C195.605 100.59 196.64 102.48 197.09 103.5L197 103.455ZM189.995 106.68H166.67V104.25H190.445C190.371 104.479 190.343 104.72 190.364 104.96C190.384 105.199 190.453 105.432 190.565 105.645C190.275 105.913 190.102 106.285 190.085 106.68H189.995ZM194.39 108.18C193.565 108.75 191.195 105.585 191.24 104.88C191.239 104.762 191.273 104.647 191.337 104.548C191.401 104.45 191.492 104.372 191.6 104.325C192.244 105.668 193.293 106.775 194.6 107.49C194.606 107.706 194.565 107.921 194.48 108.12L194.39 108.18ZM190.985 106.68C191.62 107.76 192.566 108.623 193.7 109.155C193.82 109.44 193.82 109.62 193.7 109.68C193.546 109.764 193.373 109.808 193.198 109.808C193.022 109.808 192.849 109.764 192.695 109.68C192.192 109.338 191.781 108.876 191.499 108.338C191.216 107.799 191.071 107.198 191.075 106.59L190.985 106.68ZM195.485 106.68C195.005 106.785 192.815 105.18 192.26 103.26C192.02 102.495 192.155 102.03 192.965 101.955C193.367 102.857 193.973 103.652 194.735 104.28C194.375 105.06 195.155 105.915 195.935 106.32C195.828 106.472 195.676 106.588 195.5 106.65L195.485 106.68ZM193.58 99.81C193.356 99.9197 193.165 100.087 193.028 100.296C192.891 100.504 192.812 100.746 192.8 100.995C192.531 101.007 192.269 101.084 192.036 101.218C191.802 101.352 191.604 101.539 191.457 101.765C191.311 101.991 191.22 102.248 191.193 102.516C191.165 102.784 191.202 103.054 191.3 103.305H166.685V95.3549H192.86C193.068 95.3701 193.263 95.4637 193.405 95.6168C193.547 95.7699 193.626 95.9712 193.625 96.18L193.58 99.81ZM243.695 72.465C245.143 73.0218 246.747 73.0218 248.195 72.465C248.88 72.6694 249.607 72.6954 250.305 72.5405C251.003 72.3856 251.65 72.055 252.185 71.58C252.309 72.9882 252.706 74.3588 253.355 75.615C253.1 76.41 252.485 78.615 253.055 79.6049C253.141 79.7501 253.257 79.8754 253.395 79.9728C253.533 80.0701 253.69 80.1372 253.855 80.1698C254.021 80.2024 254.192 80.1996 254.356 80.1617C254.521 80.1238 254.675 80.0517 254.81 79.95C255.454 79.3639 255.877 78.5752 256.01 77.715C257.135 77.22 258.605 76.845 259.16 77.61C259.423 78.0703 259.553 78.5949 259.535 79.1249C259.516 79.6549 259.35 80.1692 259.055 80.61C257.765 81.825 257.9 82.59 256.73 83.715C256.642 83.8281 256.527 83.9185 256.397 83.9785C256.266 84.0385 256.124 84.0665 255.98 84.06C255.595 83.9905 255.248 83.7824 255.005 83.475C254.913 83.3852 254.789 83.3349 254.66 83.3349C254.531 83.3349 254.407 83.3852 254.315 83.475C254.226 83.5648 254.176 83.6861 254.176 83.8125C254.176 83.9388 254.226 84.0601 254.315 84.1499C254.622 84.5307 255.026 84.8211 255.485 84.99C255.481 88.2886 255.803 91.5795 256.445 94.8149C256.121 96.595 255.203 98.2125 253.841 99.4032C252.478 100.594 250.752 101.287 248.945 101.37C247.173 101.595 245.384 101.12 243.956 100.048C242.528 98.9754 241.573 97.3891 241.295 95.625C242.795 95.625 243.335 94.2749 243.32 92.79C246.77 93.09 251.21 90.585 253.82 88.455C253.866 88.4102 253.903 88.3566 253.928 88.2973C253.953 88.238 253.966 88.1743 253.966 88.1099C253.966 88.0456 253.953 87.9819 253.928 87.9226C253.903 87.8633 253.866 87.8097 253.82 87.765C253.728 87.6796 253.608 87.6321 253.483 87.6321C253.357 87.6321 253.237 87.6796 253.145 87.765C253.145 87.765 247.145 92.6399 242.825 91.7999C242.006 91.6401 241.248 91.2558 240.635 90.6899C240.356 90.313 240.185 89.867 240.14 89.3999C240.044 88.8887 239.903 88.3869 239.72 87.8999C237.53 82.77 238.385 80.505 238.955 78.99C239.645 77.1749 238.955 78.825 239.6 72.21C240.232 72.5548 240.933 72.7539 241.652 72.7928C242.371 72.8318 243.089 72.7095 243.755 72.435L243.695 72.465ZM236.195 31.02C237.471 31.02 238.719 31.3986 239.78 32.108C240.841 32.8174 241.668 33.8257 242.155 35.0051C242.643 36.1846 242.77 37.4822 242.52 38.7338C242.27 39.9854 241.654 41.1347 240.751 42.0361C239.847 42.9375 238.696 43.5507 237.444 43.7978C236.192 44.045 234.895 43.9151 233.716 43.4247C232.538 42.9342 231.532 42.1051 230.825 41.0425C230.118 39.9798 229.742 38.7313 229.745 37.455C229.741 36.6074 229.905 35.7674 230.226 34.9832C230.548 34.199 231.021 33.486 231.619 32.8853C232.217 32.2846 232.928 31.8079 233.71 31.4826C234.493 31.1574 235.332 30.9899 236.18 30.99L236.195 31.02ZM221.195 44.52C222.012 44.5082 222.792 44.1763 223.367 43.5957C223.942 43.0151 224.266 42.2321 224.27 41.415C224.27 40.8461 224.496 40.3005 224.898 39.8982C225.301 39.4959 225.846 39.27 226.415 39.27H228.98C229.301 40.5272 229.946 41.6781 230.852 42.6076C231.757 43.5371 232.891 44.2126 234.139 44.5665C235.387 44.9203 236.707 44.9402 237.965 44.624C239.224 44.3079 240.377 43.6668 241.31 42.7649C241.49 43.5 241.445 43.125 241.445 50.985C240.38 51.1142 239.406 51.652 238.73 52.485C238.111 52.5212 237.521 52.7572 237.048 53.1575C236.574 53.5578 236.244 54.1007 236.105 54.705C235.33 54.8711 234.645 55.3193 234.182 55.9623C233.719 56.6054 233.512 57.3975 233.6 58.185C232.891 58.4673 232.297 58.9808 231.916 59.6423C231.535 60.3039 231.388 61.0747 231.5 61.83C230.95 62.4242 230.57 63.156 230.401 63.948C230.232 64.74 230.28 65.5629 230.54 66.33C230.153 66.9677 229.949 67.6992 229.949 68.445C229.949 69.1907 230.153 69.9222 230.54 70.56C230.234 71.1913 230.152 71.9081 230.307 72.5924C230.463 73.2767 230.846 73.8877 231.395 74.325C231.206 75.1311 231.321 75.9786 231.716 76.7059C232.112 77.4333 232.761 77.99 233.54 78.27C233.843 79.0677 234.387 79.751 235.097 80.2243C235.807 80.6976 236.647 80.9373 237.5 80.91C237.268 83.4519 237.751 86.008 238.895 88.29C239.36 89.3699 239.27 90.615 240.05 91.29C240.702 91.9091 241.503 92.3484 242.375 92.5649C242.495 93.2341 242.362 93.9242 242 94.5C241.886 94.6235 241.732 94.7031 241.565 94.725C236.54 95.535 227.945 97.4849 225.245 101.82C222.245 106.695 218.795 119.97 218.645 120.54C218.601 120.651 218.601 120.774 218.645 120.885C219.122 121.713 219.68 122.492 220.31 123.21L219.65 124.125C217.4 122.385 211.895 118.125 207.74 114.48V94.5C213.74 92.055 217.64 82.74 219.53 76.62C222.89 65.76 221.345 58.83 218.315 56.79C217.834 56.4597 217.286 56.2395 216.71 56.145L212.825 54.93C210.967 54.9553 209.176 55.6231 207.755 56.82V44.5049L221.195 44.52ZM194.12 19.5C199.85 13.5 211.7 15.735 212.72 26.79C212.848 28.1173 212.665 29.4561 212.186 30.7005C211.707 31.9449 210.945 33.0608 209.96 33.96C207.677 36.0124 204.734 37.178 201.665 37.245C199.614 37.2342 197.612 36.6233 195.904 35.4875C194.197 34.3517 192.859 32.7408 192.057 30.8536C191.255 28.9665 191.022 26.8856 191.389 24.868C191.756 22.8504 192.705 20.9842 194.12 19.5ZM183.095 33.36C183.56 33.36 184.02 33.2684 184.45 33.0905C184.879 32.9126 185.269 32.6518 185.598 32.3231C185.927 31.9944 186.188 31.6041 186.366 31.1747C186.543 30.7452 186.635 30.2848 186.635 29.82C186.639 29.1395 186.91 28.4878 187.39 28.0052C187.869 27.5226 188.52 27.2478 189.2 27.24H190.235C190.322 29.1427 190.879 30.9944 191.855 32.6299C192.831 34.2655 194.197 35.6343 195.83 36.6143C197.464 37.5943 199.314 38.1551 201.217 38.2468C203.119 38.3385 205.015 37.9583 206.735 37.1399V57.66C204.44 59.6399 201.755 63.105 199.235 69.1049C193.865 81.96 197.99 90.1049 198.845 91.6049L195.5 99.825C195.222 99.6634 194.907 99.5757 194.585 99.5699V96.1499C194.585 95.6828 194.404 95.2338 194.079 94.8979C193.755 94.562 193.312 94.3655 192.845 94.35H166.7C166.7 89.625 166.7 84.8999 166.805 80.295C168.786 81.5903 171.079 82.3303 173.444 82.4378C175.809 82.5453 178.159 82.0163 180.25 80.9061C182.34 79.7958 184.095 78.1449 185.33 76.1256C186.566 74.1063 187.236 71.7925 187.273 69.4255C187.309 67.0586 186.71 64.7252 185.538 62.6687C184.365 60.6123 182.663 58.908 180.607 57.7338C178.552 56.5596 176.219 55.9584 173.852 55.9929C171.485 56.0274 169.17 56.6963 167.15 57.93C167.39 45.54 167.495 47.25 167.255 33.3899L183.095 33.36ZM41.795 135.81C41.7192 135.824 41.6414 135.821 41.5665 135.803C41.4916 135.785 41.4213 135.752 41.36 135.705C41.255 135.45 41.36 128.88 41.36 128.73C41.36 128.58 55.175 112.665 55.235 112.5L55.43 112.26L67.43 124.95C69.32 127.2 69.98 127.155 71.93 124.845C72.335 124.35 71.93 124.845 75.215 121.275V135.9C55.91 135.96 47.675 135.78 41.795 135.84V135.81ZM41.45 110.565C41.2872 106.445 41.3423 102.319 41.615 98.2049C50.99 98.46 57.875 98.2049 75.23 98.2049C75.23 103.005 75.125 117.495 75.11 119.925C75.11 119.925 71.225 124.11 71.06 124.305C70.25 125.295 69.725 125.805 69.56 125.715C69.05 125.565 68.195 124.44 67.805 124.02C67.19 123.33 66.71 122.745 66.11 122.115C55.16 110.67 56.045 111.615 55.895 111.435C55.205 111.03 54.695 111.72 54.485 112.02C54.275 112.32 50.645 116.52 41.39 127.26C41.525 117.135 41.615 117.525 41.45 110.565ZM69.605 70.95C70.775 71.0249 73.97 70.95 75.02 70.95V75.375C75.02 75.435 74.585 75.75 69.785 80.1899C69.74 77.085 69.665 72.66 69.605 70.95ZM75.05 76.725V86.145H70.01C70.01 85.395 69.89 83.5949 69.845 81.5249C69.995 81.435 70.265 81.15 75.05 76.725ZM14 63C19.175 63.45 34.61 62.685 34.76 62.67V76.395L32.195 79.0499C31.46 79.83 31.55 79.77 30.8 79.0499C29.1729 77.6391 27.6676 76.0937 26.3 74.4299C24.17 71.9849 24.26 72.165 23.795 71.625C22.52 70.125 21.425 71.535 20.3 73.125C19.745 73.92 20.54 72.945 14.21 80.325C14.4871 74.551 14.417 68.7655 14 63ZM14.15 82.0499C21.395 73.6049 20.555 74.64 21.125 73.8149C21.995 72.585 22.55 71.7599 23.09 72.3149C23.63 72.8699 23.465 72.675 25.595 75.12C27.0719 76.9195 28.7141 78.5767 30.5 80.07C31.655 81.1049 32.3 80.43 32.975 79.71L34.805 77.7599V86.145C31.37 86.145 16.34 86.2949 13.88 86.2349C14 84.825 14 83.415 14.12 81.99L14.15 82.0499ZM5.54004 151.665C4.34656 151.665 3.20197 151.191 2.35806 150.347C1.51415 149.503 1.04004 148.358 1.04004 147.165V43.8C1.00423 42.8355 1.31398 41.89 1.9135 41.1338C2.51302 40.3775 3.3629 39.8602 4.31004 39.675C7.1974 39.1404 10.1372 38.944 13.07 39.09C16.415 39.09 17.03 38.985 17.57 39.3899C19.31 40.6349 16.925 44.475 21.905 44.475C29.885 44.475 30.02 44.28 34.76 44.25V61.65C34.61 61.65 17.435 62.49 13.67 61.95C13.5928 61.9167 13.5083 61.9037 13.4246 61.9122C13.3409 61.9206 13.2608 61.9503 13.1917 61.9983C13.1227 62.0463 13.067 62.1112 13.03 62.1867C12.9929 62.2622 12.9757 62.3459 12.98 62.43C13.6202 70.4945 13.57 78.599 12.83 86.6549C12.8239 86.7204 12.8312 86.7865 12.8516 86.849C12.872 86.9115 12.905 86.9691 12.9486 87.0184C12.9922 87.0676 13.0454 87.1073 13.105 87.1351C13.1646 87.1629 13.2293 87.1782 13.295 87.18C17.615 87.315 25.865 87.18 34.76 87.18V97.935C30.95 97.935 27.26 97.725 23.45 97.68C20.45 97.68 17.015 97.935 13.745 97.935C13.6177 97.935 13.4956 97.9855 13.4056 98.0755C13.3156 98.1656 13.265 98.2877 13.265 98.4149C13.263 98.4792 13.274 98.5433 13.2972 98.6032C13.3204 98.6632 13.3554 98.7179 13.4002 98.7641C13.445 98.8103 13.4986 98.847 13.5578 98.872C13.6171 98.8971 13.6807 98.91 13.745 98.91C16.895 98.91 20.48 98.6099 23.435 98.6549C25.16 98.6549 32.705 98.895 34.76 98.895V104.895C24.635 105.285 18.47 104.415 13.76 104.895C13.6969 104.901 13.6355 104.919 13.5794 104.948C13.5233 104.978 13.4736 105.018 13.4331 105.067C13.3927 105.116 13.3623 105.172 13.3438 105.233C13.3252 105.293 13.3188 105.357 13.325 105.42C13.3401 105.549 13.4052 105.666 13.5061 105.748C13.6071 105.829 13.736 105.868 13.865 105.855C20.66 105.48 24.65 106.26 34.865 105.855V111.855C27.65 112.23 21.035 112.065 13.865 111.855C13.8008 111.851 13.7363 111.86 13.6756 111.881C13.6148 111.903 13.559 111.936 13.5114 111.979C13.4638 112.023 13.4255 112.075 13.3986 112.134C13.3717 112.192 13.3569 112.256 13.355 112.32C13.351 112.384 13.3599 112.449 13.3813 112.509C13.4026 112.57 13.436 112.626 13.4794 112.674C13.5228 112.721 13.5753 112.76 13.6338 112.786C13.6923 112.813 13.7557 112.828 13.82 112.83C18.32 113.115 28.445 113.19 34.82 112.83V118.83C30.605 119.13 21.155 118.38 13.82 118.83C13.6927 118.83 13.5706 118.881 13.4806 118.971C13.3906 119.061 13.34 119.183 13.34 119.31C13.34 119.437 13.3906 119.559 13.4806 119.649C13.5706 119.739 13.6927 119.79 13.82 119.79C13.82 119.79 19.28 119.535 26.315 119.79C28.55 119.88 32.585 119.985 34.805 119.79V125.4C27.98 125.58 16.805 125.505 13.805 125.4C13.19 125.4 13.115 126.345 13.805 126.36C16.895 126.48 27.98 126.54 34.805 126.36V132.36C30.11 132.57 17.915 132.03 13.805 132.36C13.742 132.364 13.6803 132.38 13.6235 132.408C13.5667 132.435 13.5159 132.474 13.4741 132.521C13.4323 132.569 13.4003 132.624 13.3798 132.684C13.3594 132.744 13.351 132.807 13.355 132.87C13.3589 132.933 13.3751 132.995 13.4028 133.052C13.4305 133.108 13.4692 133.159 13.5166 133.201C13.564 133.243 13.6191 133.275 13.6789 133.295C13.7387 133.316 13.802 133.324 13.865 133.32C16.865 133.035 30.155 133.56 34.865 133.32V151.575L5.54004 151.665ZM41.075 158.175C39.652 158.171 38.2885 157.604 37.2822 156.598C36.276 155.592 35.709 154.228 35.705 152.805V34.11C35.42 29.325 35.93 27.21 40.715 27.075L49.475 26.82C51.231 26.5344 53.0322 26.8128 54.62 27.615C56.255 28.68 55.73 31.83 58.04 32.94C61.04 34.365 68.3 33.45 74.795 33.615C74.795 34.395 75.065 65.745 75.095 70.05C74.24 70.05 70.085 70.05 69.41 69.945C69.3339 69.9061 69.249 69.8876 69.1635 69.8913C69.0781 69.895 68.9951 69.9207 68.9226 69.9661C68.8501 70.0114 68.7906 70.0747 68.7498 70.1499C68.709 70.225 68.6885 70.3095 68.69 70.395C68.69 70.89 68.765 72.8549 68.81 75.1499C69.05 87.1499 69.05 87.1499 69.665 87.1499H75.2C75.2 87.7049 75.2 94.4249 75.305 97.2599C57.575 97.2599 50.705 97.5299 41.255 97.2599C41.1369 97.2701 41.0251 97.3178 40.936 97.396C40.8469 97.4743 40.7852 97.5791 40.76 97.6949C40.4548 101.993 40.3897 106.305 40.565 110.61C40.805 122.04 40.31 125.445 40.43 135.435C40.4084 135.733 40.4763 136.031 40.625 136.29C40.7828 136.487 40.9879 136.642 41.2213 136.739C41.4546 136.836 41.7088 136.872 41.96 136.845C46.715 136.845 75.14 136.95 75.14 136.95V158.205L41.075 158.175ZM158.3 193.83C138.155 193.41 99.11 194.235 84.11 193.83C81.963 193.826 79.905 192.971 78.3868 191.453C76.8687 189.935 76.014 187.877 76.01 185.73V9.68995C75.9367 8.68384 76.0743 7.6735 76.414 6.72363C76.7537 5.77376 77.288 4.9053 77.9827 4.17386C78.6775 3.44242 79.5173 2.86412 80.4484 2.476C81.3796 2.08788 82.3815 1.89849 83.39 1.91995C89.39 1.91995 96.05 2.00996 101.93 1.58996C102.453 1.58798 102.972 1.68934 103.456 1.88822C103.94 2.0871 104.38 2.37958 104.75 2.74889C105.121 3.1182 105.415 3.55707 105.616 4.04032C105.817 4.52357 105.92 5.04169 105.92 5.56496C105.928 6.86879 106.448 8.11722 107.369 9.0406C108.289 9.96397 109.536 10.4882 110.84 10.5C118.782 11.0115 126.748 11.0115 134.69 10.5C136.007 10.5 137.27 9.97686 138.201 9.04574C139.132 8.11462 139.655 6.85175 139.655 5.53495C139.655 4.48072 140.074 3.46966 140.819 2.72421C141.565 1.97875 142.576 1.55996 143.63 1.55996H158.285C166.145 1.55996 166.775 7.94996 166.385 15.78C165.845 26.805 166.625 38.4 166.385 49.305C164.885 112.41 166.385 157.305 166.385 185.7C166.389 186.765 166.183 187.82 165.779 188.805C165.374 189.791 164.779 190.686 164.029 191.442C163.278 192.197 162.385 192.796 161.402 193.206C160.419 193.616 159.365 193.828 158.3 193.83ZM201.38 158.175H167.09C167.09 158.025 166.85 140.595 166.775 132.345H184.535C185.209 132.382 185.883 132.281 186.517 132.049C187.151 131.817 187.731 131.457 188.221 130.993C188.711 130.529 189.101 129.97 189.368 129.35C189.635 128.73 189.773 128.062 189.773 127.387C189.773 126.712 189.635 126.045 189.368 125.425C189.101 124.805 188.711 124.245 188.221 123.782C187.731 123.318 187.151 122.958 186.517 122.726C185.883 122.494 185.209 122.393 184.535 122.43H166.715V116.58H188.555C188.79 117.449 189.355 118.192 190.13 118.65C190.782 119.082 191.556 119.293 192.337 119.249C193.119 119.206 193.865 118.912 194.465 118.41C194.63 118.29 194.465 118.53 195.965 114.015C196.835 114.146 197.721 114.105 198.575 113.895C199.1 114.24 201.26 115.92 204.71 122.37C205.327 123.517 206.008 124.629 206.75 125.7V152.79C206.752 153.496 206.615 154.196 206.346 154.85C206.077 155.503 205.681 156.097 205.183 156.597C204.684 157.097 204.091 157.494 203.439 157.765C202.786 158.036 202.086 158.175 201.38 158.175ZM207.725 151.665V127.065C212.105 132.93 218.225 138.24 221.84 138.24C224.765 138.24 229.13 132.96 230.915 130.62C230.12 137.715 229.415 145.74 229.22 151.62L207.725 151.665ZM218 247.98L215.975 253.2C213.89 252.75 213.755 254.415 211.775 255.57C211.316 255.879 210.761 256.014 210.211 255.951C209.661 255.888 209.152 255.63 208.775 255.225C209.197 254.355 209.408 253.397 209.39 252.43C209.372 251.463 209.125 250.514 208.67 249.66L209.54 244.095C212.186 245.74 215.028 247.045 218 247.98ZM205.4 253.17C205.955 250.725 207.59 248.595 208.265 250.935C208.612 252.344 208.452 253.831 207.815 255.135C207.44 255.72 205.715 256.335 203.315 256.935C204.38 255.924 205.108 254.609 205.4 253.17ZM193.775 259.92C194.135 259.92 200.63 258.615 200.975 258.495C204.77 257.655 207.29 256.905 208.295 256.035C208.824 256.525 209.501 256.828 210.219 256.896C210.937 256.963 211.658 256.793 212.27 256.41C214.55 255.06 214.295 253.665 216.08 254.235H216.155C216.361 254.386 216.518 254.595 216.605 254.835C217.445 256.635 217.76 261.045 217.775 264.24C207.985 265.342 198.118 265.593 188.285 264.99C188.525 262.605 190.115 260.625 193.775 259.92ZM217.775 265.23C217.778 266.058 217.723 266.885 217.61 267.705C215.015 268.065 190.775 268.44 188.675 267.705C188.421 267.149 188.283 266.546 188.27 265.935C198.106 266.574 207.98 266.338 217.775 265.23ZM218.075 256.38C217.963 255.346 217.545 254.37 216.875 253.575L218.945 248.22C219.401 248.333 219.87 248.388 220.34 248.385C223.76 248.205 236.945 209.82 237.89 204.15C238.79 198.81 244.205 184.125 246.44 178.185C246.35 187.08 245.84 201.18 245.3 206.07C244.595 212.655 244.85 246.465 244.865 247.905C244.867 247.995 244.893 248.083 244.94 248.16C245.768 249.152 246.912 249.83 248.18 250.08C248.585 257.58 248.6 258.015 248.63 258.165C245.15 260.16 244.025 264.495 244.46 268.41H218.345C219.02 267.465 218.75 259.605 218.075 256.38ZM252.695 253.05C256.445 252.36 258.065 254.55 257.195 257.43C254.877 256.726 252.403 256.726 250.085 257.43C249.5 255.195 250.295 253.5 252.695 253.05ZM245.405 268.155C245.336 267.366 245.336 266.573 245.405 265.785C250.994 266.315 256.624 266.215 262.19 265.485C262.311 266.369 262.356 267.263 262.325 268.155C256.69 268.5 251.04 268.5 245.405 268.155ZM262.01 264.54C256.537 265.236 251.004 265.331 245.51 264.825C246.2 260.475 248.885 257.985 253.625 257.895C255.615 257.683 257.608 258.26 259.176 259.503C260.744 260.746 261.762 262.555 262.01 264.54ZM258.17 254.505C257.36 252.195 254.96 251.64 252.53 252.105C251.869 252.174 251.234 252.406 250.685 252.78C250.135 253.155 249.687 253.66 249.38 254.25L249.155 250.32C252.282 250.792 255.468 250.695 258.56 250.035L258.17 254.505ZM267.17 175.365C266.225 184.62 266.165 192.24 264.905 206.865C264.905 206.865 262.67 231.9 262.475 233.49C261.92 237.855 261.335 242.385 262.145 246.45C262.625 248.805 256.745 249.45 254.36 249.57C252.458 249.778 250.534 249.651 248.675 249.195C247.591 248.981 246.592 248.46 245.795 247.695C245.795 245.07 245.54 212.445 246.23 206.145C246.815 200.67 247.91 171.855 247.1 170.145C245.236 167.438 243.233 164.83 241.1 162.33C241.057 162.284 241.004 162.248 240.946 162.223C240.888 162.198 240.826 162.185 240.763 162.185C240.699 162.185 240.637 162.198 240.579 162.223C240.521 162.248 240.468 162.284 240.425 162.33C240.379 162.375 240.342 162.428 240.317 162.488C240.292 162.547 240.279 162.611 240.279 162.675C240.279 162.739 240.292 162.803 240.317 162.862C240.342 162.922 240.379 162.975 240.425 163.02C242.521 165.446 244.489 167.979 246.32 170.61C246.515 172.207 246.58 173.817 246.515 175.425C245.81 177.27 238.115 197.355 236.99 204.015C235.67 211.95 222.8 246.66 220.355 247.425C218 247.605 208.565 242.925 208.355 241.725C208.55 237.105 210.425 231.855 211.49 227.28C215.225 211.305 216.17 209.19 218.885 197.535C219.83 193.44 220.82 189.195 222.065 185.115C223.43 180.615 229.25 160.74 230.915 155.34C237.755 159.54 255.095 157.83 263.03 156.84C262.351 158.387 261.268 159.724 259.895 160.71C259.27 160.563 258.618 160.584 258.004 160.771C257.39 160.958 256.836 161.304 256.4 161.775C255.41 162.9 254.075 164.685 253.22 164.865C251.3 165.27 253.94 169.8 259.22 165.27C260.51 167.085 263.465 170.925 265.475 170.925C266.75 170.925 266.3 169.65 265.625 169.935C265.46 169.995 265.28 169.995 265.115 169.935C267.665 165 265.61 165.09 268.115 161.415C268.137 166.08 267.837 170.741 267.215 175.365H267.17ZM283.49 140.235C280.685 144.225 277.49 148.095 274.055 152.235C271.367 155.2 268.862 158.325 266.555 161.595C264.725 164.595 266.33 165.015 264.065 169.41C262.323 167.911 260.807 166.168 259.565 164.235C259.52 164.181 259.464 164.138 259.4 164.109C259.337 164.079 259.268 164.064 259.198 164.064C259.127 164.064 259.058 164.079 258.995 164.109C258.931 164.138 258.875 164.181 258.83 164.235C256.19 166.68 254.6 166.425 254.045 166.215C253.816 166.138 253.616 165.991 253.475 165.795C254.615 165.42 255.77 163.845 256.97 162.45C257.314 162.099 257.747 161.847 258.222 161.721C258.696 161.594 259.197 161.597 259.67 161.73C259.727 161.756 259.788 161.769 259.85 161.769C259.912 161.769 259.973 161.756 260.03 161.73C264.905 159.24 267.38 146.415 269.84 141.3C272.15 136.53 274.34 135.39 274.34 135.3C274.453 135.242 274.54 135.143 274.582 135.022C274.624 134.902 274.618 134.771 274.565 134.655C274.539 134.596 274.502 134.543 274.455 134.499C274.408 134.455 274.353 134.421 274.293 134.399C274.233 134.376 274.169 134.366 274.105 134.369C274.041 134.372 273.978 134.387 273.92 134.415C273.535 134.631 273.177 134.893 272.855 135.195L270.95 131.28C274.986 130.462 278.807 128.812 282.17 126.435C283.353 129.521 284.272 132.703 284.915 135.945C284.923 137.485 284.439 138.988 283.535 140.235H283.49Z" fill="black"/>
<path d="M201.08 30.135C201.132 30.1981 201.2 30.2465 201.277 30.2758C201.354 30.305 201.437 30.3141 201.518 30.302C201.6 30.29 201.676 30.2573 201.741 30.207C201.806 30.1568 201.858 30.0907 201.89 30.015C201.89 30.015 203.735 25.815 206.495 24.405C206.553 24.3765 206.604 24.3365 206.647 24.2875C206.689 24.2385 206.721 24.1814 206.74 24.1198C206.76 24.0581 206.767 23.9932 206.761 23.9288C206.755 23.8644 206.736 23.8019 206.705 23.745C206.644 23.6345 206.544 23.5512 206.424 23.5122C206.304 23.4732 206.174 23.4813 206.06 23.535C204.003 24.8536 202.361 26.7252 201.32 28.935L199.43 26.76C199.346 26.6626 199.227 26.6023 199.099 26.5924C198.971 26.5826 198.845 26.624 198.747 26.7075C198.65 26.7911 198.589 26.9099 198.58 27.0379C198.57 27.1659 198.611 27.2926 198.695 27.39L201.08 30.135Z" fill="black"/>
</svg>
