<svg width="30" height="30" viewBox="0 0 30 30" fill="none" xmlns="http://www.w3.org/2000/svg">
<rect width="30" height="30" rx="5" fill="none"/>
<path d="M5.62501 21.5875C5.44751 21.5875 5.29918 21.5271 5.18001 21.4063C5.06084 21.2854 5.00084 21.1367 5.00001 20.96C4.99918 20.7833 5.05918 20.635 5.18001 20.515C5.30084 20.395 5.44918 20.3354 5.62501 20.3363H24.375C24.5525 20.3363 24.7008 20.3963 24.82 20.5163C24.94 20.6363 25 20.785 25 20.9625C25 21.14 24.94 21.2883 24.82 21.4075C24.7 21.5267 24.5517 21.5863 24.375 21.5863L5.62501 21.5875ZM5.62501 15.625C5.44751 15.625 5.29918 15.565 5.18001 15.445C5.06084 15.325 5.00084 15.1763 5.00001 14.9988C4.99918 14.8213 5.05918 14.6729 5.18001 14.5538C5.30084 14.4346 5.44918 14.375 5.62501 14.375H24.375C24.5525 14.375 24.7008 14.435 24.82 14.555C24.9392 14.675 24.9992 14.8238 25 15.0013C25.0008 15.1788 24.9408 15.3271 24.82 15.4463C24.6992 15.5654 24.5508 15.625 24.375 15.625H5.62501ZM5.62501 9.66251C5.44751 9.66251 5.29918 9.60292 5.18001 9.48376C5.06001 9.36376 5.00001 9.21501 5.00001 9.03751C5.00001 8.86001 5.06001 8.71167 5.18001 8.59251C5.30001 8.47334 5.44834 8.41376 5.62501 8.41376H24.375C24.5525 8.41376 24.7008 8.47376 24.82 8.59376C24.9392 8.71376 24.9992 8.86167 25 9.03751C25.0008 9.21334 24.9408 9.36167 24.82 9.48251C24.6992 9.60334 24.5508 9.66334 24.375 9.66251H5.62501Z" fill="#211C5C"/>
</svg>
