<svg width="61" height="62" viewBox="0 0 61 62" fill="none" xmlns="http://www.w3.org/2000/svg">
<path d="M59.1375 30.6586C59.2114 47.0565 46.2673 60.3713 30.2715 60.4433C14.2756 60.5154 1.21203 47.3179 1.13813 30.9199C1.06423 14.522 14.0083 1.20727 30.0042 1.13518C46.0001 1.0631 59.0636 14.2606 59.1375 30.6586Z" fill="white" stroke="white" stroke-width="2"/>
<g clip-path="url(#clip0_8_46)">
<rect width="36.25" height="37.0407" transform="translate(11.9295 12.3508) rotate(-0.258199)" fill="white" fill-opacity="0.64"/>
<path d="M21.1336 21.6018C21.0891 19.1169 21.0446 16.632 21.0334 14.1469C27.0968 14.1196 33.1598 14.0242 39.1903 14.0991C43.7553 14.2488 48.735 17.7327 48.7244 22.7711C48.8721 25.9704 46.6515 28.5336 44.1935 30.1787C46.8664 31.8688 49.1784 34.786 48.7606 38.1922C48.3491 42.994 43.5659 46.1475 39.1689 46.3035C33.1726 46.4326 27.1754 46.3575 21.1457 46.4528C21.1348 44.0358 21.1237 41.5848 21.1127 39.1338" fill="#211C5C"/>
<path d="M20.5649 39.7014C25.2936 39.6801 29.1093 35.7459 29.0875 30.9141C29.0657 26.0822 25.2148 22.1826 20.4861 22.2039C15.7574 22.2252 11.9418 26.1594 11.9635 30.9912C11.9853 35.823 15.8363 39.7227 20.5649 39.7014Z" fill="#ED0E61"/>
</g>
<defs>
<clipPath id="clip0_8_46">
<rect width="36.25" height="37.0407" fill="white" transform="translate(11.9295 12.3508) rotate(-0.258199)"/>
</clipPath>
</defs>
</svg>
