<svg width="254" height="288" viewBox="0 0 254 288" fill="none" xmlns="http://www.w3.org/2000/svg">
<path fill-rule="evenodd" clip-rule="evenodd" d="M162.782 231.818C163.598 217.447 166.539 203.276 171.507 189.767C175.221 179.34 179.039 141.803 180.855 136.874C180.855 136.874 184.239 151.14 207.92 142.251C204.577 155.48 201.973 168.885 200.12 182.403C197.846 199.716 197.927 212.006 200.322 243.293C179.061 248.783 162.782 231.818 162.782 231.818Z" fill="white"/>
<path fill-rule="evenodd" clip-rule="evenodd" d="M215.444 111.3C217.934 115.339 219.868 119.695 221.194 124.251C221.194 124.251 232.402 130.205 237.514 132.27C242.626 134.336 251.834 137.582 252.785 147.698C253.736 157.814 241.822 176.511 240.835 183C239.866 188.097 238.465 193.102 236.647 197.961C236.647 197.961 237.155 206.423 235.366 208.694C233.576 210.965 227.677 216.39 224.542 215.922C224.542 215.922 224.542 224.258 225.853 228.486C225.853 228.486 207.122 246.308 201.331 251.948C201.331 251.948 197.608 216.792 199.093 192.123C200.375 170.847 207.704 141.294 214.073 122.673C214.439 118.05 215.144 114.582 215.444 111.3Z" fill="#81F8F8"/>
<path fill-rule="evenodd" clip-rule="evenodd" d="M184.695 125.64L184.784 116.571L182.867 116.072C181.497 117.632 180.28 119.321 179.234 121.115C179.234 121.115 166.976 125.132 163.301 126.225C159.626 127.319 149.853 129.642 144.65 140.664C139.446 151.686 139.451 156.789 136.161 161.94C133.863 165.607 131.968 169.512 130.511 173.588C130.476 173.937 125.886 175.058 124.518 178.365C124.518 178.365 136.319 184.529 135.653 195.098C134.987 205.667 132.894 206.678 131.762 208.251C130.953 209.372 137.067 209.621 141.11 204.921C144.654 200.407 147.956 195.707 150.999 190.841C150.999 190.841 141.111 216.752 141.111 220.191C141.111 223.631 149.262 243.872 161.705 243.555C161.705 243.555 162.804 233.07 163.307 224.787C163.809 216.504 168.036 199.512 171.509 189.767C174.981 180.021 178.991 143.919 180.432 138.026C181.552 133.8 182.977 129.66 184.695 125.64Z" fill="#81F8F8"/>
<path fill-rule="evenodd" clip-rule="evenodd" d="M188.171 144.161C188.505 145.734 188.855 147.269 189.174 148.661C190.374 153.911 191.708 188.243 210.302 211.647C218.763 222.297 222.002 218.954 224.541 215.912C226.952 213.027 232.125 204.099 231.554 197.12C230.982 190.14 220.754 177.141 218.763 173.759C216.773 170.376 205.308 147.809 205.308 147.809C205.308 147.809 205.857 145.619 206.591 142.559C207.041 142.457 207.491 142.352 207.92 142.245L214.044 123.123L215.877 108.153C215.877 108.153 221.27 106.07 223.193 104.066C224.26 102.966 224.92 101.534 225.061 100.008C225.203 98.4821 224.818 96.9534 223.971 95.6761C218.963 95.6761 214.221 98.4901 210.663 97.1761C207.105 95.8621 211.863 83.6311 211.863 83.6311C211.863 83.6311 208.59 83.3086 209.124 80.9206C209.658 78.5326 210.809 78.0391 208.637 76.6891C206.465 75.3391 206.363 75.4186 206.274 74.5141C206.186 73.6096 206.712 70.2271 205.184 69.8851C203.655 69.5431 200.42 70.4686 199.098 68.7046C199.098 68.7046 194.961 65.5771 191.27 67.5691C187.578 69.5611 184.805 75.9166 182.39 77.8381C179.975 79.7596 180.855 81.2071 180.653 83.0251C180.574 84.9894 179.859 86.8749 178.614 88.3966C177.762 89.3878 177.183 90.5838 176.934 91.8669C176.685 93.1499 176.775 94.4757 177.194 95.7136C178.03 98.5486 178.19 101.54 177.66 104.448C177.144 107.286 174.851 114.992 184.884 116.426C184.67 119.493 184.66 122.57 184.856 125.639C183.286 129.284 181.943 133.022 180.834 136.833C182.135 139.614 185.007 143.615 188.171 144.161Z" fill="#FFD997"/>
<path fill-rule="evenodd" clip-rule="evenodd" d="M233.208 74.8921C233.208 74.8921 236.667 73.6126 236.033 72.0421C235.398 70.4716 232.631 70.3066 234.198 68.7421C235.766 67.1776 234.888 65.3041 232.335 65.4061C229.782 65.5081 228.705 66.1996 228.935 64.4476C229.149 62.8186 226.578 62.1796 224.345 64.4341C224.415 64.3216 224.462 64.1963 224.483 64.0656C224.505 63.9348 224.5 63.8011 224.47 63.6721C224.44 63.5431 224.384 63.4213 224.307 63.3137C224.23 63.2061 224.132 63.1149 224.019 63.0451C222.851 62.0731 221.369 63.5206 221.919 60.6841C222.47 57.8476 222.261 57.3976 220.227 56.7766C218.193 56.1556 216.477 57.6646 215.39 57.0211C214.302 56.3776 217.26 52.6711 213.068 52.8751C208.875 53.0791 208.32 48.9586 204.635 50.7961C200.949 52.6336 204.45 53.5336 202.235 53.3641C200.019 53.1946 198.548 49.4881 196.436 50.8546C194.324 52.2211 195.506 53.4286 192.986 52.9636C190.466 52.4986 189.725 51.0571 188.306 53.0461C186.887 55.0351 188.048 55.5196 186.087 56.1136C184.127 56.7076 180.647 58.1656 181.359 60.3211C182.072 62.4766 181.038 62.8966 180.18 64.3951C179.322 65.8936 179.003 65.7031 180.18 67.7206C181.358 69.7381 177.93 69.3991 180.18 71.0776C182.43 72.7561 179.069 77.0491 182.975 76.8526C184.701 76.7656 185.975 71.5801 190.34 68.1751C194.705 64.7701 199.04 68.6551 199.04 68.6551C199.305 68.9974 199.639 69.2808 200.02 69.4874C200.401 69.6939 200.82 69.8192 201.252 69.8551C202.902 70.1131 205.014 68.7586 206.042 70.8226C207.069 72.8866 205.043 74.7226 207.51 75.9946C209.978 77.2666 210.309 77.5576 209.564 79.0876C209.311 79.5203 209.17 80.0089 209.153 80.5095C209.136 81.0102 209.243 81.5073 209.465 81.9564C209.687 82.4054 210.017 82.7924 210.425 83.0826C210.834 83.3728 211.308 83.5571 211.805 83.6191C211.805 83.6191 207.105 95.8561 210.665 97.1716C214.224 98.4871 218.838 95.6341 223.847 95.6341C225.931 92.2531 227.326 88.4928 227.949 84.5701C230.949 84.5386 230.507 82.5661 232.232 82.8526C233.957 83.1391 236.307 83.1886 236.124 81.8356C235.941 80.4826 235.236 80.0026 236.298 78.5701C237.36 77.1376 236.835 74.4901 233.208 74.8921Z" fill="#81F8F8"/>
<path d="M189.232 80.7181C189.113 80.6101 186.322 78.0991 183.476 78.5611C182.729 78.7067 182.027 79.0259 181.426 79.4928C180.826 79.9597 180.343 80.5613 180.017 81.2491C179.934 81.3942 179.902 81.5631 179.925 81.7288C179.949 81.8945 180.028 82.0474 180.148 82.1633C180.269 82.2793 180.425 82.3515 180.592 82.3684C180.758 82.3854 180.926 82.3462 181.067 82.2571C182.169 81.6204 183.407 81.2582 184.678 81.201C185.949 81.1439 187.215 81.3934 188.369 81.9286C188.53 82.013 188.716 82.0364 188.892 81.9943C189.069 81.9523 189.224 81.8477 189.329 81.6999C189.434 81.5522 189.483 81.3713 189.465 81.1907C189.447 81.0102 189.364 80.8423 189.232 80.7181Z" fill="black"/>
<path d="M204.222 82.0921C202.152 80.6371 199.178 80.6236 195.381 82.0531C195.211 82.1176 195.07 82.2418 194.985 82.4023C194.9 82.5629 194.876 82.749 194.917 82.9261C194.959 83.1031 195.063 83.2589 195.211 83.3646C195.359 83.4703 195.541 83.5187 195.722 83.5006C195.798 83.4901 203.415 82.7716 205.571 88.3606C205.633 88.5237 205.75 88.6599 205.902 88.7458C206.054 88.8316 206.231 88.8618 206.403 88.8311C206.575 88.8003 206.731 88.7106 206.844 88.5773C206.956 88.4441 207.019 88.2757 207.021 88.1011C207.029 86.9547 206.782 85.821 206.297 84.7818C205.813 83.7426 205.105 82.8239 204.222 82.0921Z" fill="black"/>
<path d="M186.912 89.5411C186.76 89.541 186.611 89.4942 186.485 89.4072C186.36 89.3201 186.264 89.1968 186.21 89.0538C186.157 88.9108 186.148 88.7549 186.186 88.6069C186.223 88.4589 186.305 88.3259 186.42 88.2256C186.928 87.873 187.339 87.3973 187.613 86.843C187.887 86.2887 188.016 85.6739 187.988 85.0561C187.952 84.861 187.995 84.6598 188.108 84.4965C188.22 84.3332 188.393 84.221 188.588 84.1846C188.78 84.1482 188.979 84.1885 189.143 84.297C189.306 84.4055 189.42 84.5735 189.461 84.7651C189.548 85.643 189.405 86.5285 189.044 87.3338C188.684 88.1392 188.12 88.8365 187.407 89.3566C187.27 89.4761 187.094 89.5417 186.912 89.5411Z" fill="black"/>
<path d="M189.971 96.0526C188.894 95.7091 188.857 96.0976 187.429 96.1216C185.063 96.0901 184.774 94.6696 183.829 94.6306C180.659 94.4806 181.909 90.0871 183.344 91.0036C183.511 91.1104 183.628 91.2786 183.671 91.4716C183.714 91.6646 183.679 91.8667 183.574 92.0341C183.503 92.1481 183.191 92.7676 183.424 92.9536C183.925 93.3601 184.286 92.8456 185.354 93.6796C186.385 94.4836 186.52 94.6081 187.454 94.6216C188.554 94.6441 188.776 94.0996 190.429 94.6216C192.163 95.1766 193.141 96.1936 193.888 94.5811C193.929 94.4916 193.988 94.4112 194.06 94.3444C194.133 94.2776 194.218 94.2258 194.31 94.1918C194.403 94.1578 194.501 94.1424 194.599 94.1464C194.698 94.1504 194.794 94.1737 194.884 94.2151C194.973 94.2564 195.054 94.315 195.12 94.3874C195.187 94.4599 195.239 94.5448 195.273 94.6373C195.307 94.7298 195.323 94.828 195.319 94.9265C195.315 95.0249 195.291 95.1216 195.25 95.2111C193.861 98.2051 191.35 96.4906 189.971 96.0526Z" fill="black"/>
<path fill-rule="evenodd" clip-rule="evenodd" d="M181.121 98.4181C181.121 98.4181 180.359 103.308 184.562 104.057C187.143 104.486 189.794 104.124 192.165 103.017L194.015 101.868C189.464 102.069 184.962 100.865 181.121 98.4181Z" fill="white"/>
<path d="M196.828 101.148L196.042 99.7215C195.942 99.5543 195.781 99.4324 195.594 99.3815C195.406 99.3306 195.205 99.3548 195.035 99.4488C194.865 99.5429 194.737 99.6995 194.68 99.8856C194.623 100.072 194.641 100.273 194.729 100.446L195.014 100.964C194.672 101.01 194.234 101.054 193.721 101.084C190.747 97.8975 188.849 96.936 186.053 97.2705C185.529 96.803 184.906 96.4609 184.23 96.2701C183.555 96.0793 182.844 96.0449 182.153 96.1695C182.158 96.0318 182.123 95.8956 182.054 95.7764C181.985 95.6572 181.884 95.5596 181.763 95.4949C181.641 95.4301 181.504 95.4006 181.366 95.4099C181.229 95.4191 181.097 95.4666 180.985 95.547L179.485 96.597C179.379 96.6927 179.297 96.8122 179.247 96.9457C179.196 97.0791 179.178 97.2227 179.194 97.3645C179.21 97.5064 179.259 97.6424 179.338 97.7614C179.416 97.8805 179.522 97.979 179.647 98.049C179.868 98.2927 180.103 98.5245 180.349 98.7435C180.316 99.9255 180.484 103.41 183.482 104.594C186.899 105.944 192.022 104.214 195.032 102.506C195.052 102.495 195.062 102.477 195.079 102.465C195.513 102.415 195.943 102.337 196.367 102.231C196.476 102.201 196.578 102.147 196.663 102.073C196.748 101.998 196.815 101.905 196.86 101.801C196.904 101.697 196.924 101.584 196.919 101.471C196.913 101.358 196.882 101.247 196.828 101.148ZM185.113 98.4915C185.192 98.6136 185.305 98.7093 185.439 98.7665C185.572 98.8237 185.72 98.8397 185.863 98.8125C187.942 98.4765 189.293 98.796 191.65 101.094C188.001 101.154 184.438 99.9833 181.535 97.7715C182.717 97.5465 184.412 97.449 185.113 98.4915ZM184.039 103.199C183.423 102.894 182.901 102.428 182.528 101.851C182.155 101.275 181.945 100.608 181.919 99.921C184.717 101.635 187.929 102.553 191.21 102.576C189.052 103.364 186.185 104.043 184.039 103.2V103.199Z" fill="black"/>
<path fill-rule="evenodd" clip-rule="evenodd" d="M187.1 87.2356C182.873 88.9201 181.115 86.0626 181.115 86.0626C181.115 86.0626 185.756 82.3501 187.1 87.2356Z" fill="white"/>
<path fill-rule="evenodd" clip-rule="evenodd" d="M203.073 90.9165C196.962 91.6905 195.573 88.9185 195.573 88.9185C195.573 88.9185 199.787 84.4695 203.073 90.9165Z" fill="white"/>
<path fill-rule="evenodd" clip-rule="evenodd" d="M75.0812 143.483C75.0812 143.483 66.5942 129.368 64.8677 130.611C63.1412 131.855 57.3062 138.971 57.1502 141.008C56.9942 143.045 73.2002 164.873 73.2002 164.873C73.6344 164.848 74.0586 164.733 74.446 164.536C74.8334 164.338 75.1754 164.062 75.4502 163.725C76.1732 162.644 80.3162 152.73 80.1332 151.521C79.9457 150.216 77.8412 147.425 75.0812 143.483Z" fill="white"/>
<path fill-rule="evenodd" clip-rule="evenodd" d="M73.2079 164.873C74.0228 164.633 74.7859 164.244 75.4579 163.725C76.3249 162.966 80.1469 151.613 80.1469 151.613L78.0349 147.704C78.0349 147.704 73.8724 147.509 73.9054 145.214C73.9384 142.919 78.7954 142.05 80.2279 142.263C81.6604 142.476 84.0934 147.504 85.6564 151.835C87.2194 156.165 86.2459 156.731 87.7324 161.357C89.9104 168.134 117.665 176.37 124.514 178.365C124.514 178.365 133.739 182.183 135.446 191.762C136.318 197.531 135.06 203.421 131.907 208.331C117.918 201.659 112.287 201.197 102.264 192.764C92.9644 184.937 85.0144 176.999 82.0144 175.347C79.0144 173.696 65.1169 168.278 64.8664 163.146C64.8664 163.146 60.0964 156.303 59.4499 152.991C58.8034 149.679 59.0479 147.054 59.6254 146.258C60.2029 145.461 62.5129 150.317 62.5129 150.317C62.5129 150.317 64.0354 149.867 66.1804 153.747C68.1414 157.683 70.4959 161.411 73.2079 164.873Z" fill="#FFD997"/>
<path d="M203.558 90.2416C203.2 89.3407 202.633 88.5382 201.902 87.9013C201.171 87.2643 200.299 86.8113 199.358 86.5801C198.611 86.5152 197.859 86.6112 197.153 86.8617C196.446 87.1122 195.802 87.5113 195.263 88.0321C195.126 88.1736 195.05 88.363 195.052 88.5597C195.054 88.7563 195.133 88.9444 195.272 89.0835C195.411 89.2226 195.599 89.3014 195.796 89.3031C195.992 89.3049 196.182 89.2293 196.323 89.0926C196.584 88.8563 196.871 88.6514 197.18 88.4821C196.716 89.4526 197.594 90.4216 198.725 90.4216C199.766 90.4216 200.682 89.5816 200.292 88.5751C201.12 89.1954 201.784 90.0078 202.227 90.9421C202.32 91.1182 202.479 91.2501 202.669 91.3089C202.859 91.3677 203.065 91.3485 203.241 91.2556C203.417 91.1627 203.549 91.0037 203.608 90.8136C203.667 90.6234 203.648 90.4177 203.555 90.2416H203.558Z" fill="black"/>
<path d="M187.607 86.6401C187.498 86.0426 187.237 85.483 186.85 85.0152C186.462 84.5474 185.961 84.187 185.394 83.9686C183.383 83.3236 181.143 85.0186 180.894 85.2181C180.738 85.3414 180.637 85.5218 180.614 85.7196C180.59 85.9173 180.647 86.1163 180.77 86.2726C180.893 86.429 181.074 86.5299 181.271 86.5533C181.469 86.5766 181.668 86.5204 181.824 86.3971C181.916 86.3236 182.052 86.2306 182.205 86.1316C182.243 86.539 182.439 86.9154 182.751 87.1797C183.063 87.444 183.467 87.575 183.875 87.5446C184.89 87.5446 185.813 86.7421 185.45 85.7311C185.801 86.0992 186.048 86.5543 186.165 87.0496C186.226 87.2329 186.356 87.3857 186.526 87.476C186.697 87.5663 186.896 87.5872 187.082 87.5345C187.268 87.4817 187.426 87.3592 187.524 87.1926C187.622 87.026 187.651 86.8281 187.607 86.6401Z" fill="black"/>
<path fill-rule="evenodd" clip-rule="evenodd" d="M27.9412 56.9116L53.9872 92.1751L88.5997 71.9761L98.9707 48.5206L70.9087 12.3076L36.4987 28.0501L27.9412 56.9116Z" fill="#FFD997"/>
<path d="M99.6878 48.3721C99.6203 48.0421 101.926 51.2041 71.5013 11.8471C71.3979 11.7146 71.2529 11.6207 71.0897 11.5804C70.9265 11.5401 70.7545 11.5559 70.6013 11.6251L63.5513 14.8516C64.8008 12.8161 65.8898 9.84459 64.0883 7.11609C62.2418 4.32009 60.4388 1.15809 57.0923 0.783093C54.4778 0.513093 51.4673 2.04459 47.8883 5.53059C45.405 7.77901 43.4733 10.5696 42.2434 13.6856C41.0134 16.8016 40.5182 20.1592 40.7963 23.4976C35.6423 20.3581 19.6778 11.3791 15.2288 17.7106C10.2263 24.8326 18.3788 42.5476 24.8288 40.3201C27.84 39.248 30.7056 37.8043 33.3593 36.0226L27.2228 56.7001C27.0593 57.2536 25.5983 54.9271 53.3843 92.6221C53.3963 92.6386 53.4143 92.6446 53.4278 92.6581C53.5394 92.7918 53.6947 92.8819 53.8662 92.9123C54.0377 92.9428 54.2145 92.9117 54.3653 92.8246C91.4873 71.1541 89.1278 72.6271 89.2808 72.2746C100.427 47.1361 99.7733 48.7906 99.6878 48.3721ZM70.6808 13.2361L80.9498 26.4886L68.9708 32.0491L59.2913 18.4501L70.6808 13.2361ZM51.9308 21.8131L61.5053 35.5156L47.4053 42.0571L37.6373 28.3501L51.9308 21.8131ZM28.7723 56.7631L36.7853 29.7271L46.3448 43.1401L38.8883 70.4686L28.7723 56.7631ZM53.7578 90.6001L44.4458 78.0001L51.4223 50.2831L62.6153 65.9881L53.7578 90.6001ZM68.7653 82.6816L55.3928 90.4816L64.0568 66.4006L77.1413 60.0091L68.7653 82.6816ZM63.6998 64.9141L52.2233 48.8161L66.1913 42.2266L77.3753 58.2316L63.6998 64.9141ZM88.0103 71.4511L77.4158 77.6341L85.3238 56.0206L97.4498 50.1001L88.0103 71.4511ZM84.9653 54.5266L73.6928 38.6881L85.9283 32.9176L97.8083 48.2506L84.9653 54.5266Z" fill="black"/>
<path d="M67.899 142.2C67.908 141.993 68.256 137.021 79.6425 126.576C90.507 116.603 98.8815 112.886 98.463 102.675C98.466 100.676 98.0469 98.6989 97.2332 96.873C96.4195 95.047 95.2295 93.4134 93.741 92.0791C87.078 86.2786 75.564 87.3241 75.45 87.3361C75.2511 87.356 75.0524 87.296 74.8977 87.1694C74.743 87.0428 74.6449 86.86 74.625 86.6611C74.6051 86.4622 74.6651 86.2635 74.7917 86.1088C74.9182 85.9541 75.1011 85.856 75.3 85.8361C75.7965 85.7926 87.561 84.7141 94.7175 90.9361C96.3643 92.4019 97.6826 94.1994 98.5859 96.2107C99.4891 98.2219 99.9569 100.401 99.9585 102.606C100.409 113.643 91.503 117.723 80.652 127.673C69.8775 137.558 69.402 142.223 69.3945 142.272C69.3738 142.462 69.2813 142.637 69.1361 142.761C68.9908 142.885 68.8037 142.949 68.6129 142.94C68.4221 142.931 68.242 142.849 68.1093 142.711C67.9767 142.574 67.9014 142.391 67.899 142.2Z" fill="black"/>
<path d="M69.8237 141.9C70.0337 141.476 75.1367 131.466 91.3322 123.825C108.591 115.682 114.549 107.574 112.56 94.905C109.968 78.3375 87.0992 77.6805 86.8652 77.676C86.6663 77.6723 86.4771 77.5896 86.3391 77.4463C86.2011 77.303 86.1257 77.1107 86.1295 76.9118C86.1333 76.7129 86.2159 76.5236 86.3592 76.3856C86.5026 76.2477 86.6948 76.1723 86.8937 76.176C87.1367 76.176 111.254 76.8585 114.044 94.6725C116.124 107.966 109.73 116.804 91.9727 125.181C76.2887 132.582 71.2187 142.467 71.1692 142.566C71.0809 142.744 70.9253 142.88 70.7367 142.944C70.5481 143.008 70.3419 142.994 70.1635 142.906C69.9851 142.817 69.849 142.662 69.7853 142.473C69.7216 142.285 69.7354 142.078 69.8237 141.9Z" fill="black"/>
<path fill-rule="evenodd" clip-rule="evenodd" d="M50.0495 178.913C48.5999 181.615 47.9484 184.674 48.1709 187.733C48.3935 190.791 49.4809 193.724 51.3065 196.188L54.9995 193.398C53.3772 191.58 52.418 189.266 52.2783 186.833C52.1386 184.401 52.8265 181.992 54.23 180L50.0495 178.913Z" fill="white"/>
<path fill-rule="evenodd" clip-rule="evenodd" d="M5.15018 221.774C5.15018 221.774 9.97268 227.375 8.79518 234.389L14.3842 231.404C14.3842 231.404 14.5072 223.479 9.68168 218.924L5.15018 221.774Z" fill="white"/>
<path fill-rule="evenodd" clip-rule="evenodd" d="M13.2334 98.1135C7.64389 101.04 3.34104 105.939 1.15988 111.86L7.16888 114.668C7.63238 108.879 11.4274 104.505 17.4289 101.07L13.2334 98.1135Z" fill="white"/>
<path fill-rule="evenodd" clip-rule="evenodd" d="M137.102 19.9651C137.102 19.9651 130.813 34.8016 142.814 38.4661L144.359 35.4661C144.359 35.4661 135.274 33.3541 141.11 19.9066L137.102 19.9651Z" fill="white"/>
<path fill-rule="evenodd" clip-rule="evenodd" d="M91.7841 265.68C94.9174 261.81 96.5028 256.915 96.2331 251.943L91.0011 251.793C92.4756 256.134 91.0941 260.493 87.8181 264.855L91.7841 265.68Z" fill="white"/>
<path d="M142.599 39.1831C141.134 38.8085 139.768 38.1187 138.597 37.162C137.426 36.2052 136.477 35.0045 135.818 33.6436C133.059 27.7336 136.278 19.9936 136.418 19.6726C136.475 19.54 136.57 19.4271 136.691 19.3472C136.811 19.2674 136.952 19.2241 137.097 19.2226L141.102 19.1581C141.228 19.1559 141.352 19.1853 141.463 19.2436C141.574 19.3019 141.669 19.3872 141.739 19.4917C141.809 19.5963 141.851 19.7166 141.862 19.8418C141.873 19.967 141.853 20.0929 141.803 20.2081C139.722 25.0081 139.347 28.8031 140.69 31.5001C141.073 32.2755 141.613 32.9633 142.275 33.5203C142.937 34.0773 143.707 34.4916 144.537 34.7371C144.647 34.7638 144.75 34.8152 144.838 34.8874C144.925 34.9597 144.995 35.0508 145.043 35.1541C145.247 35.5951 145.154 35.5621 143.486 38.8156C143.404 38.9708 143.271 39.0925 143.109 39.1597C142.947 39.2268 142.766 39.2351 142.599 39.1831ZM137.619 20.7076C137.001 22.3936 135.05 28.4686 137.169 33.0076C137.691 34.0832 138.427 35.0407 139.333 35.8211C140.239 36.6015 141.295 37.1882 142.436 37.5451L143.292 35.8756C141.585 35.1486 140.189 33.8417 139.352 32.1856C137.892 29.2861 138.102 25.4131 139.974 20.6626L137.619 20.7076Z" fill="black"/>
<path d="M51.3038 196.938C51.1874 196.938 51.0725 196.911 50.9684 196.859C50.8642 196.807 50.7737 196.731 50.7038 196.638C48.8074 194.048 47.6796 190.976 47.4498 187.774C47.2201 184.572 47.8976 181.37 49.4048 178.536C49.4874 178.396 49.6133 178.287 49.7635 178.225C49.9136 178.162 50.0799 178.151 50.2373 178.191C54.7838 179.373 54.7373 179.241 54.9293 179.718C54.9732 179.827 54.9909 179.945 54.981 180.062C54.9711 180.179 54.9338 180.292 54.8723 180.392C53.5662 182.245 52.9217 184.484 53.0425 186.748C53.1633 189.012 54.0424 191.169 55.5383 192.873C55.6139 192.949 55.6724 193.04 55.7098 193.141C55.7472 193.241 55.7627 193.348 55.7551 193.455C55.7476 193.562 55.7173 193.666 55.6661 193.76C55.615 193.854 55.5443 193.937 55.4588 194.001C51.4733 197 51.6533 196.938 51.3038 196.938ZM50.4293 179.786C49.2284 182.205 48.6918 184.9 48.8745 187.595C49.0571 190.29 49.9524 192.888 51.4688 195.123L53.9228 193.272C52.5314 191.461 51.7092 189.278 51.5604 186.999C51.4117 184.72 51.9431 182.449 53.0873 180.473L50.4293 179.786Z" fill="black"/>
<path d="M8.79983 235.139C8.69081 235.138 8.5831 235.115 8.48421 235.069C8.38532 235.023 8.29762 234.956 8.22723 234.873C8.15684 234.79 8.10544 234.692 8.07661 234.587C8.04779 234.482 8.04223 234.372 8.06033 234.264C9.16733 227.673 4.63283 222.315 4.58783 222.264C4.5174 222.182 4.46541 222.087 4.43538 221.983C4.40535 221.879 4.398 221.771 4.41382 221.664C4.48432 221.198 4.43632 221.349 9.28732 218.292C9.4282 218.203 9.59458 218.164 9.76023 218.18C9.92589 218.197 10.0814 218.268 10.2023 218.382C15.2108 223.109 15.1523 231.083 15.1403 231.419C15.1385 231.553 15.1008 231.684 15.0312 231.798C14.9615 231.913 14.8625 232.006 14.7443 232.07C8.72483 235.28 9.06233 235.139 8.79983 235.139ZM6.24983 221.969C8.61463 225.17 9.83018 229.076 9.69982 233.054L13.6223 230.953C13.5623 229.338 13.0943 223.578 9.57233 219.87L6.24983 221.969Z" fill="black"/>
<path d="M7.1692 115.416C6.9112 115.416 7.2787 115.544 0.843695 112.539C0.67548 112.461 0.542341 112.323 0.470026 112.152C0.39771 111.981 0.391358 111.789 0.452196 111.614C2.69985 105.527 7.11943 100.487 12.8602 97.4641C12.9839 97.3928 13.1255 97.3583 13.2682 97.3646C13.4109 97.371 13.5488 97.418 13.6657 97.5001L17.8657 100.457C17.9686 100.529 18.0515 100.627 18.1067 100.74C18.162 100.853 18.1878 100.979 18.1818 101.105C18.1758 101.23 18.1382 101.353 18.0725 101.46C18.0068 101.568 17.915 101.657 17.8057 101.72C11.5702 105.29 8.3362 109.544 7.9207 114.726C7.90556 114.915 7.81971 115.091 7.68034 115.219C7.54097 115.347 7.3584 115.417 7.1692 115.416ZM2.10069 111.47L6.5497 113.55C7.2997 108.6 10.4152 104.492 16.0582 101.021L13.1947 99.0001C8.16989 101.754 4.25077 106.159 2.10069 111.47Z" fill="black"/>
<path d="M91.7843 266.43C91.6343 266.43 91.7108 266.43 87.6653 265.584C87.5417 265.559 87.4264 265.502 87.3302 265.421C87.234 265.339 87.1601 265.234 87.1152 265.116C87.0703 264.998 87.056 264.871 87.0735 264.745C87.091 264.62 87.1398 264.502 87.2153 264.401C90.5843 259.901 91.5908 255.861 90.2873 252.03C90.2479 251.915 90.237 251.793 90.2555 251.673C90.274 251.553 90.3213 251.439 90.3935 251.341C90.4656 251.243 90.5604 251.165 90.6697 251.112C90.779 251.059 90.8995 251.033 91.0208 251.037L96.2513 251.187C96.4368 251.193 96.6137 251.267 96.7478 251.395C96.8819 251.523 96.9637 251.697 96.9773 251.882C97.2558 257.033 95.6188 262.106 92.3813 266.123C92.3126 266.217 92.2228 266.294 92.1192 266.347C92.0156 266.4 91.9009 266.429 91.7843 266.43ZM89.1008 264.351L91.4663 264.846C94.1521 261.362 95.5795 257.071 95.5163 252.672L92.0048 252.569C92.9303 256.308 91.9733 260.181 89.1008 264.351Z" fill="black"/>
<path d="M253.53 147.633C252.578 137.498 243.747 133.967 238.472 131.852C233.751 129.96 226.287 126.096 221.838 123.752C220.523 119.312 218.63 115.065 216.209 111.119C216.384 110.025 216.534 109.157 216.624 108.653C221.438 107.517 224.664 104.469 225.455 101.547C225.567 101.123 225.658 100.692 225.726 100.259C226.235 100.077 226.667 99.7267 226.95 99.2662C227.234 98.8057 227.351 98.2623 227.284 97.7259C227.216 97.1896 226.968 96.6923 226.579 96.3163C226.191 95.9403 225.686 95.7081 225.147 95.6581C224.885 95.6356 224.997 95.7436 224.78 95.4946C226.555 92.3083 227.829 88.8681 228.558 85.2946C229.083 85.2777 229.598 85.1512 230.071 84.9234C230.543 84.6955 230.963 84.3713 231.303 83.9716C231.647 83.6071 231.711 83.5216 232.1 83.5951C233.577 83.8396 235.524 83.9551 236.408 83.0956C237.099 82.4251 236.886 81.5866 236.613 80.6671C236.479 80.3979 236.434 80.0932 236.484 79.7967C236.535 79.5003 236.677 79.2273 236.892 79.0171C237.184 78.6547 237.387 78.2284 237.483 77.7731C237.58 77.3177 237.568 76.846 237.448 76.3963C237.328 75.9465 237.103 75.5314 236.793 75.1846C236.482 74.8377 236.095 74.569 235.661 74.4001C237.276 73.1491 237.42 71.6431 235.101 70.0501C234.87 69.8911 234.521 69.6511 234.471 69.6091C234.531 69.4803 234.619 69.3661 234.728 69.2746C236.784 67.2211 235.529 64.5286 232.305 64.6576C231.651 64.6846 231.09 64.7476 230.619 64.8001C230.301 64.8522 229.979 64.8778 229.656 64.8766C229.776 64.3947 229.722 63.8858 229.502 63.4403C229.282 62.9949 228.912 62.6418 228.456 62.4436C227.873 62.2494 227.252 62.1967 226.645 62.2898C226.037 62.3829 225.461 62.6192 224.963 62.9791C224.721 62.639 224.402 62.3617 224.031 62.1704C223.661 61.9791 223.25 61.8794 222.833 61.8796C222.72 61.8676 222.564 61.8511 222.57 61.9036C222.526 61.5435 222.555 61.1781 222.656 60.8296C223.235 57.8296 223.016 56.8456 220.446 56.0596C218.42 55.4446 216.62 56.5936 215.882 56.4181C215.894 55.6681 216.608 53.9971 215.669 52.9141C215.322 52.5847 214.902 52.3418 214.444 52.2052C213.985 52.0686 213.501 52.0422 213.03 52.1281C209.18 52.3291 208.475 48.0331 204.3 50.1271C202.8 50.8771 202.079 51.6616 202.106 52.5916C200.34 52.2211 198.615 48.5506 196.023 50.2261C195.335 50.6529 194.767 51.2482 194.373 51.9556C194.129 52.3651 194.105 52.4056 193.119 52.2271C190.845 51.8071 189.467 50.1271 187.692 52.6126C187.234 53.2274 186.908 53.93 186.734 54.6766C186.618 55.1356 186.608 55.1716 185.867 55.3981C183.204 56.2021 179.768 57.9166 180.645 60.5581C181.227 62.3146 180.449 62.4121 179.528 64.0261C178.548 65.7226 178.187 65.8021 179.528 68.1001C179.778 68.5291 179.736 68.5651 179.339 68.9116C178.217 69.8866 178.515 70.7776 179.727 71.6791C181.248 72.8146 178.835 76.5796 181.694 77.4586C179.256 79.5586 180.084 81.3436 179.907 82.9441C179.844 84.7652 179.185 86.5152 178.031 87.9256C177.103 89.0093 176.471 90.3149 176.198 91.7153C175.924 93.1156 176.018 94.5629 176.471 95.9161C177.344 98.8475 177.457 101.953 176.801 104.94C176.376 107.087 175.65 110.679 177.672 113.543C178.675 114.864 180.054 115.851 181.629 116.372C180.539 117.66 179.561 119.039 178.706 120.494C176.828 121.109 162.474 125.682 162.474 125.682C158.457 126.848 149.046 129.582 143.966 140.34C138.866 151.14 138.675 156.603 135.525 161.532C133.241 165.196 131.341 169.086 129.857 173.141C129.738 173.199 129.576 173.27 129.383 173.355C127.247 174.146 125.411 175.585 124.133 177.47C122.148 176.885 115.353 174.854 110.033 172.983C97.4823 168.573 89.4108 164.133 88.4418 161.123C86.9928 156.623 87.9543 155.994 86.3568 151.577C85.5363 149.304 82.6773 141.866 80.3343 141.527C78.6188 141.439 76.9079 141.771 75.3498 142.494C73.2093 138.978 67.7193 130.296 65.3958 129.818C65.2289 129.778 65.0553 129.774 64.8869 129.807C64.7184 129.84 64.559 129.908 64.4193 130.008C62.6628 131.274 56.5788 138.528 56.3943 140.958C56.3583 141.417 56.5533 142.259 58.9338 145.97C58.2063 147.17 58.1043 150.057 58.7073 153.143C59.3253 156.314 63.3678 162.309 64.1268 163.415C64.7343 168.992 78.2103 174.113 81.6453 176.015C84.5268 177.599 92.5743 185.604 101.777 193.349C111.176 201.255 118.46 203.064 124.202 205.649C133.707 209.931 130.131 208.313 131.342 209.264C132.552 210.215 137.973 209.714 141.668 205.416C143.889 202.702 145.968 199.875 147.897 196.946C144.924 204.96 140.349 217.707 140.349 220.196C140.918 223.593 142.099 226.859 143.835 229.835C143.633 233.79 142.502 261.102 148.185 286.667C148.222 286.833 148.315 286.982 148.448 287.089C148.581 287.196 148.747 287.255 148.917 287.255L218.481 286.355C218.66 286.352 218.833 286.286 218.967 286.168C219.102 286.05 219.19 285.887 219.215 285.71C219.267 285.329 224.454 247.749 223.379 231.878L226.365 229.028C226.467 228.931 226.539 228.808 226.574 228.673C226.61 228.537 226.606 228.395 226.565 228.261C225.711 224.46 225.286 220.576 225.296 216.681C229.131 216.345 234.621 210.843 235.946 209.156C237.771 206.837 237.473 199.502 237.396 198.072C239.216 193.215 240.611 188.208 241.566 183.11C242.537 176.793 254.499 157.991 253.53 147.633ZM220.449 124.394C221.058 129.626 221.347 134.891 221.315 140.159C216.466 140.121 211.773 141.874 208.137 145.083C209.963 137.733 213.731 126.438 214.628 123.783C215.39 123.264 214.425 123.351 215.844 113.489C217.821 116.921 219.368 120.583 220.449 124.394ZM223.391 94.9006C218.504 95.0506 214.07 97.6456 210.918 96.4771C208.652 95.6416 211.455 86.8771 212.385 84.3691C214.721 84.2056 215.349 82.8691 216.435 84.1816C217.839 85.8556 216.65 88.5556 220.391 88.0291C223.958 87.5161 222.179 83.3791 223.416 83.1001C224.034 82.9636 224.198 83.1466 224.672 83.7001C225.249 84.4847 226.097 85.0276 227.051 85.2241C226.311 88.6107 225.079 91.8707 223.395 94.9006H223.391ZM223.955 65.7301C224.34 65.6791 224.751 65.1901 224.93 64.9096C226.404 63.4666 228.311 63.4501 228.186 64.3546C228.118 64.633 228.114 64.9235 228.175 65.2035C228.237 65.4836 228.362 65.7459 228.54 65.9701C229.268 66.7096 230.385 66.2371 232.361 66.1606C234.048 66.0856 234.843 67.0351 233.663 68.2171C233.442 68.3985 233.265 68.6278 233.146 68.8877C233.026 69.1476 232.968 69.4312 232.974 69.7171C233.043 70.4671 233.684 70.9051 234.249 71.2906C234.639 71.5591 235.517 72.1411 235.319 72.5851C234.701 73.3402 233.875 73.8981 232.944 74.1901C232.772 74.2535 232.629 74.3777 232.543 74.5392C232.456 74.7008 232.432 74.8885 232.474 75.0669C232.516 75.2452 232.622 75.402 232.772 75.5074C232.922 75.6128 233.106 75.6597 233.288 75.6391C234.564 75.4891 235.481 75.7696 235.848 76.4086C235.986 76.6814 236.043 76.9875 236.013 77.2914C235.984 77.5954 235.869 77.8848 235.682 78.1261C234.366 79.9051 235.217 80.6926 235.371 82.0066C235.278 82.1566 234.392 82.4566 232.341 82.1146C231.943 82.038 231.532 82.0753 231.154 82.2224C230.777 82.3694 230.448 82.6201 230.207 82.9456C229.915 83.2416 229.565 83.4726 229.177 83.6235C228.79 83.7744 228.376 83.8417 227.961 83.821C227.546 83.8003 227.14 83.6921 226.77 83.5035C226.4 83.3149 226.074 83.0501 225.813 82.7266C225.531 82.282 225.116 81.9375 224.627 81.742C224.138 81.5465 223.6 81.51 223.089 81.6376C221.529 81.9856 221.439 83.4511 221.363 84.5221C221.276 85.8796 221.15 86.4061 220.178 86.5441C218.957 86.7226 218.936 86.6431 218.714 85.6936C218.55 84.7886 218.163 83.9387 217.589 83.2201C215.523 80.7466 214.058 83.1406 211.559 82.8631C211.263 82.8611 210.973 82.7843 210.716 82.6401C210.458 82.4959 210.241 82.2888 210.084 82.0381C209.919 81.6179 209.847 81.1668 209.873 80.7159C209.898 80.265 210.022 79.8251 210.234 79.4266C211.346 77.1406 210.104 76.5001 207.849 75.3391C206.855 74.8261 206.909 74.3536 207.027 73.3216C207.214 72.3711 207.104 71.3861 206.712 70.5001C206.474 69.9844 206.081 69.5559 205.587 69.2746C217.815 64.8991 223.394 65.8066 223.959 65.7301H223.955ZM181.731 74.2321C181.9 73.5652 181.886 72.8653 181.691 72.2057C181.496 71.546 181.128 70.9507 180.624 70.4821C180.481 70.3786 180.346 70.2637 180.221 70.1386C180.452 70.003 180.653 69.8207 180.811 69.6033C180.968 69.3858 181.078 69.138 181.135 68.8757C181.191 68.6133 181.192 68.342 181.138 68.0791C181.084 67.8162 180.976 67.5675 180.821 67.3486C179.895 65.7631 180.071 66.1036 180.821 64.7746C181.613 63.3991 182.901 62.6326 182.061 60.0916C181.562 58.5781 184.77 57.2986 186.294 56.8381C188.664 56.1181 187.668 55.2211 188.906 53.4871C189.542 52.5871 189.683 52.6456 190.794 53.0821C191.453 53.358 192.138 53.567 192.839 53.7061C195.824 54.2656 195.068 52.6291 196.827 51.4906C198.245 50.5681 199.716 53.9311 202.16 54.1186C202.698 54.1606 203.292 54.2041 203.616 53.7451C204.312 52.7641 202.493 52.6951 204.959 51.4726C206.559 50.6761 207.291 51.1906 208.506 52.0426C209.79 53.1151 211.422 53.6797 213.093 53.6296C214.134 53.5861 214.443 53.8021 214.524 53.9026C215.105 54.5671 213.584 56.8291 214.995 57.6706C216.477 58.5496 218.172 56.9446 219.996 57.4996C221.57 57.9796 221.664 58.0096 221.171 60.5476C220.487 64.0846 222.821 63.0331 223.527 63.6286C223.862 63.9031 223.737 63.9796 223.503 64.2436C215.219 63.9151 204.753 67.9651 204.311 68.1436C204.157 68.2042 204.028 68.3146 203.945 68.4571C203.861 68.5996 203.828 68.766 203.85 68.9296C203.026 69.0603 202.193 69.1265 201.359 69.1276C200.754 69.0692 200.188 68.8044 199.755 68.3776C199.689 68.2434 199.584 68.1314 199.455 68.0551C198.789 67.5736 194.706 64.8691 190.905 66.9196C187.623 68.6896 185.238 73.3696 182.996 76.1221C181.568 76.1221 181.62 75.7831 181.736 74.2321H181.731ZM181.764 102.032C181.809 101.841 181.778 101.64 181.676 101.472C181.575 101.304 181.412 101.183 181.222 101.134C181.032 101.085 180.83 101.112 180.66 101.21C180.49 101.307 180.365 101.468 180.312 101.657C179.902 103.218 180.079 104.876 180.809 106.316C180.89 106.428 180.977 106.536 181.07 106.638C179.693 107.581 178.624 108.91 177.999 110.457C177.159 106.221 180.066 103.185 177.926 95.5156C177.54 94.3928 177.455 93.1884 177.68 92.0227C177.905 90.8569 178.432 89.7706 179.208 88.8721C180.547 87.2419 181.32 85.221 181.41 83.1136C181.626 81.1381 180.782 80.0896 182.868 78.4291C185.418 76.3966 188.144 70.1161 191.637 68.2291C194.516 66.6766 197.835 68.7406 198.522 69.2086C199.184 69.9929 200.123 70.4915 201.143 70.6006C202.893 70.8736 204.653 69.7006 205.376 71.1616C206.22 72.8521 204.216 75.1426 207.176 76.6651C209.372 77.7961 209.372 77.7961 208.902 78.7651C207.825 80.9761 208.259 83.5816 210.852 84.2221C209.532 87.8641 206.78 96.5416 210.41 97.8721C213.992 99.1996 218.229 96.7606 222.923 96.4336C222.352 96.9028 221.891 97.4917 221.573 98.1586C221.507 98.296 221.484 98.4503 221.508 98.6009C221.532 98.7515 221.601 98.8912 221.706 99.0015C221.811 99.1119 221.948 99.1875 222.097 99.2183C222.246 99.2491 222.401 99.2337 222.542 99.1741C223.047 98.9246 223.626 98.8676 224.171 99.0136C224.259 99.0848 224.317 99.1875 224.331 99.3001C224.284 99.923 224.176 100.54 224.01 101.142C223.281 103.835 219.252 107.442 212.574 107.607C212.375 107.607 212.185 107.686 212.044 107.827C211.903 107.967 211.824 108.158 211.824 108.357C211.824 108.556 211.903 108.747 212.044 108.887C212.185 109.028 212.375 109.107 212.574 109.107C213.403 109.107 214.231 109.051 215.052 108.939C214.225 113.449 213.701 118.009 213.483 122.589C213.095 123.26 209.378 135.039 208.068 139.604C209.389 134.554 210.387 129.426 211.056 124.25C211.056 122.45 211.014 109.191 209.811 103.584C209.83 103.399 209.787 103.213 209.69 103.055C209.597 102.353 209.29 101.698 208.812 101.177C208.406 100.849 207.917 100.64 207.399 100.574C206.881 100.507 206.355 100.586 205.88 100.802C205.44 100.495 204.943 100.278 204.419 100.164C203.895 100.049 203.354 100.04 202.826 100.136C202.223 100.299 201.686 100.645 201.289 101.126C200.891 101.608 200.653 102.201 200.607 102.824C199.225 102.678 197.84 103.085 196.757 103.956C195.99 104.769 194.969 111.81 194.145 118.553C194.088 117.203 194.145 115.553 192.83 114.786C192.463 114.592 192.053 114.495 191.638 114.505C191.223 114.514 190.818 114.629 190.46 114.839C190.394 114.882 190.334 114.932 190.28 114.989C190.634 113.66 190.574 112.255 190.108 110.961C189.642 109.667 188.792 108.547 187.671 107.75C188.742 107.497 189.77 107.089 190.722 106.538C190.809 106.487 190.886 106.419 190.946 106.338C191.006 106.257 191.05 106.165 191.074 106.067C191.098 105.969 191.102 105.867 191.085 105.768C191.069 105.668 191.033 105.573 190.979 105.488C190.924 105.403 190.854 105.329 190.771 105.272C190.688 105.215 190.594 105.175 190.495 105.155C190.396 105.134 190.294 105.134 190.196 105.154C190.097 105.175 190.003 105.214 189.92 105.272C188.031 106.354 185.833 106.771 183.678 106.457C183.358 106.421 183.049 106.317 182.773 106.151C182.497 105.985 182.26 105.76 182.079 105.494C181.58 104.41 181.47 103.187 181.769 102.032H181.764ZM207.722 104.451C207.245 104.451 206.885 104.076 206.699 103.419C206.666 102.852 206.639 102.413 206.619 102.114C206.842 102.044 207.08 102.033 207.308 102.082C207.537 102.131 207.748 102.239 207.923 102.395C208.119 102.716 208.25 103.073 208.307 103.445C208.307 104.043 208.232 104.447 207.726 104.451H207.722ZM205.161 102.855L205.152 102.881C204.825 105.405 202.394 105.498 202.08 103.137C202.173 102.578 202.422 101.739 203.087 101.619C203.44 101.554 203.804 101.564 204.153 101.648C204.503 101.733 204.831 101.889 205.116 102.108C205.13 102.287 205.147 102.536 205.166 102.855H205.161ZM200.544 106.437C199.556 109.122 197.456 107.763 197.456 106.575C197.451 106.531 197.442 106.488 197.429 106.446C197.508 105.947 197.646 105.458 197.84 104.991C198.634 104.461 199.59 104.228 200.54 104.334L200.544 106.437ZM192.399 118.8C192.153 118.983 191.854 119.081 191.547 119.081C191.24 119.081 190.942 118.983 190.695 118.8C190.403 118.455 190.499 117.909 190.484 117.674C190.614 117.146 190.833 116.644 191.132 116.19C192.153 115.665 192.549 116.384 192.597 117.527C192.689 117.961 192.618 118.414 192.399 118.8ZM181.589 136.595C182.436 133.562 183.551 130.523 184.353 128.471C184.533 130.117 184.803 131.752 185.163 133.368C185.202 133.536 185.298 133.686 185.435 133.792C185.572 133.898 185.741 133.953 185.913 133.949C186.078 137.01 186.498 140.052 187.169 143.043C184.602 141.622 182.624 139.336 181.586 136.592L181.589 136.595ZM187.551 144.833C187.851 146.207 188.151 147.522 188.417 148.7C185.43 148.43 181.721 144.485 180.353 142.722C180.602 141.125 180.822 139.823 181.008 138.912C182.406 141.607 184.728 143.708 187.548 144.83L187.551 144.833ZM186.186 130.742C185.511 125.973 185.322 121.148 185.622 116.342C186.915 116.416 188.213 116.381 189.5 116.237C188.081 119.448 186.708 127.218 186.183 130.739L186.186 130.742ZM179.871 121.5C180.817 119.839 181.933 118.281 183.201 116.85C183.501 116.924 183.773 117.018 184.092 117.075C183.931 119.797 183.928 122.526 184.082 125.249C182.071 129.782 180.503 134.499 179.399 139.334C177.222 136.86 172.574 135.029 170.372 134.267C173.445 130.679 179.553 122.036 179.871 121.5ZM145.328 140.984C150.119 130.835 158.75 128.33 162.899 127.125C162.899 127.125 173.637 123.729 177.324 122.528C175.16 125.586 170.807 131.634 168.501 134.094C168.414 134.187 168.352 134.301 168.32 134.425C168.289 134.548 168.29 134.678 168.323 134.801C168.356 134.925 168.42 135.037 168.508 135.129C168.597 135.221 168.708 135.289 168.83 135.326C171.45 136.127 178.314 138.794 179.013 141.566C178.649 143.828 178.218 146.787 177.728 150.222L171.914 149.622L173.931 138.156C173.953 138.057 173.955 137.955 173.936 137.856C173.917 137.756 173.878 137.662 173.822 137.578C173.766 137.494 173.693 137.422 173.608 137.366C173.523 137.311 173.428 137.274 173.329 137.256C173.229 137.239 173.127 137.242 173.028 137.265C172.93 137.288 172.837 137.33 172.755 137.39C172.674 137.45 172.605 137.526 172.554 137.613C172.502 137.7 172.469 137.796 172.455 137.897C172.434 138.009 171.555 142.986 170.417 149.468L158.274 148.214C156.347 136.377 156.404 133.755 156.14 132.938C156.095 132.801 156.012 132.68 155.9 132.589C155.788 132.499 155.653 132.443 155.509 132.429C155.366 132.414 155.222 132.442 155.094 132.508C154.966 132.574 154.861 132.676 154.79 132.801C154.503 133.32 148.233 144.683 146.165 152.901C144.17 152.816 142.181 153.17 140.339 153.939C141.689 149.507 143.356 145.177 145.328 140.984ZM162.654 223.572C162.622 223.565 162.59 223.56 162.557 223.557C159.572 223.641 156.668 222.585 154.434 220.604C156.065 215.489 157.959 209.474 159.801 203.457C161.908 204.236 164.168 204.513 166.401 204.264C164.695 210.603 163.443 217.055 162.654 223.572ZM140.561 170.595C143.684 165.65 145.972 160.225 147.332 154.536C151.682 155.286 154.619 158.784 156.59 162.786C154.413 167.156 151.332 172.728 148.44 177.804C146.768 174.53 143.97 171.971 140.561 170.595ZM147.531 179.391C145.188 183.477 143.064 187.086 141.77 189.27C141.555 184.7 139.706 180.36 136.559 177.039C137.03 176.336 138.29 174.422 139.784 171.92C141.514 172.575 143.093 173.575 144.425 174.86C145.757 176.144 146.814 177.686 147.531 179.391ZM164.277 156.093C164.343 155.907 164.332 155.702 164.247 155.524C164.163 155.345 164.011 155.207 163.825 155.14C163.64 155.073 163.435 155.081 163.256 155.164C163.076 155.247 162.937 155.397 162.867 155.582L160.859 161.132C159.986 157.746 159.198 153.704 158.529 149.751L170.159 150.951C165.392 178.218 166.259 174.771 165.059 179.63C162.442 178.17 159.931 176.527 157.547 174.713L164.277 156.093ZM159.317 165.393C158.979 164.493 158.628 163.623 158.255 162.813C158.606 162.096 158.928 161.418 159.222 160.778C159.452 161.709 159.689 162.603 159.93 163.434C159.987 163.622 160.157 163.065 159.317 165.389V165.393ZM158.652 158.343C158.314 159.162 157.897 160.093 157.4 161.136C155.214 157.133 152.118 153.903 147.668 153.081C149.532 147.045 151.98 141.204 154.979 135.644C155.531 140.156 156.867 150.254 158.649 158.333L158.652 158.343ZM157.38 164.565C157.781 165.527 158.162 166.535 158.511 167.628C155.388 176.267 151.566 186.878 150.494 189.998C150.828 186.454 150.385 182.881 149.198 179.526C152.013 174.6 155.084 169.077 157.38 164.55V164.565ZM157.013 176.201C159.443 178.037 162.005 179.691 164.678 181.151C163.296 186.531 161.136 193.913 158.835 201.465C155.579 199.925 152.64 197.788 150.171 195.165C152.681 188.435 150.611 193.962 157.013 176.19V176.201ZM160.242 202.019C162.51 194.576 164.646 187.278 166.049 181.85C168.013 182.861 170.109 183.591 172.275 184.02C170.775 190.79 169.968 190.718 166.797 202.761C164.584 203.049 162.333 202.79 160.242 202.008V202.019ZM166.427 180.357C167.735 175.092 166.811 178.821 171.654 151.107L177.516 151.707C176.252 160.587 174.404 173.831 172.592 182.54C170.441 182.114 168.363 181.375 166.427 180.347V180.357ZM136.794 162.357C138.004 160.328 138.982 158.169 139.709 155.921C141.587 154.905 143.694 154.385 145.829 154.409C144.795 159.771 141.903 165.306 139.128 170.073C137.211 169.442 135.214 169.084 133.197 169.01C134.251 166.712 135.452 164.486 136.794 162.344V162.357ZM132.525 170.502C134.496 170.524 136.454 170.832 138.336 171.416C137.048 173.567 135.96 175.239 135.452 176.006C134.226 174.924 132.858 174.016 131.385 173.306C131.58 172.751 131.978 171.75 132.525 170.489V170.502ZM65.1903 131.307C66.4878 131.778 70.6938 137.714 74.0973 143.307C72.3813 144.888 72.6963 147.648 77.4303 148.139C78.2481 149.196 78.9117 150.364 79.4013 151.608C78.5696 154.664 77.4812 157.644 76.1478 160.517C76.0738 160.599 76.019 160.697 75.9873 160.803C75.9333 160.992 76.1373 160.571 75.6243 161.703C71.1243 156.533 60.9903 140.786 59.3583 138.24C61.0455 135.725 63.001 133.4 65.1903 131.307ZM57.8988 141.065C58.0017 140.562 58.1981 140.083 58.4778 139.653C61.0278 143.63 70.7418 158.621 74.9163 163.172C74.769 163.417 74.568 163.625 74.3284 163.781C74.0888 163.937 73.8169 164.036 73.5333 164.072C67.7748 156.636 70.5183 160.041 66.8373 153.386C65.2083 150.441 63.8043 149.714 62.9898 149.577C62.3958 148.143 61.5641 146.819 60.5298 145.662C59.4625 144.247 58.5784 142.702 57.8988 141.065ZM60.1878 152.847C59.7746 151.043 59.7099 149.178 59.9973 147.35C60.5667 148.207 61.0793 149.101 61.5318 150.026C61.0563 150.626 61.1148 151.653 61.7253 153.248C62.45 155.308 63.0211 157.419 63.4338 159.564C62.0369 157.492 60.9438 155.232 60.1878 152.85V152.847ZM131.54 207.33C109.605 197.154 112.79 201.48 91.9908 182.721C82.9908 174.602 83.2563 175.058 79.7883 173.429C75.2478 171.297 65.7993 166.863 65.6163 163.109C65.0712 159.581 64.2379 156.104 63.1248 152.712C62.8897 152.191 62.7504 151.632 62.7138 151.062C63.0843 151.098 64.1583 151.643 65.5248 154.113C67.6248 157.91 69.2403 161.705 69.2568 161.742C69.3321 161.914 69.4691 162.051 69.6407 162.127C69.8123 162.203 70.0061 162.212 70.1838 162.152C71.5623 163.991 72.6033 165.321 72.6183 165.339C72.6885 165.428 72.778 165.501 72.8801 165.55C72.9822 165.6 73.0943 165.626 73.2078 165.626C73.7664 165.604 74.3136 165.461 74.8107 165.205C75.3078 164.949 75.7427 164.587 76.0848 164.145C76.1313 164.076 76.2168 163.911 76.3188 163.71C76.3549 163.69 76.3895 163.667 76.4223 163.641C76.4966 163.564 76.5537 163.473 76.5896 163.372C76.6256 163.271 76.6396 163.164 76.6308 163.058C76.7808 162.746 76.9488 162.369 77.1318 161.96C78.9889 162.749 80.6369 163.96 81.9456 165.495C83.2543 167.031 84.1878 168.851 84.6723 170.81C84.6983 170.905 84.7428 170.994 84.8032 171.072C84.8636 171.149 84.9387 171.215 85.0243 171.263C85.1099 171.312 85.2042 171.344 85.302 171.356C85.3998 171.368 85.499 171.361 85.594 171.335C85.6891 171.309 85.7781 171.265 85.8559 171.204C85.9338 171.144 85.999 171.069 86.0478 170.983C86.0966 170.898 86.1281 170.803 86.1405 170.706C86.1528 170.608 86.1458 170.509 86.1198 170.414C85.5757 168.238 84.5352 166.219 83.08 164.513C81.6247 162.807 79.7942 161.461 77.7318 160.581C79.1943 157.185 81.0468 152.457 80.8818 151.406C80.5087 150.191 79.9309 149.05 79.1733 148.031C79.2967 147.936 79.3873 147.805 79.432 147.656C79.4768 147.507 79.4736 147.348 79.4228 147.201C79.3721 147.054 79.2763 146.926 79.1491 146.837C79.022 146.747 78.8698 146.7 78.7143 146.702C77.3741 146.761 76.0451 146.434 74.8863 145.758C74.4453 145.308 74.6793 144.756 75.1608 144.347C76.6291 143.39 78.3602 142.918 80.1108 142.997C80.7993 143.147 82.9188 146.469 84.9453 152.082C86.3718 156.033 85.5783 157.11 87.0123 161.579C89.3328 168.798 116.96 176.927 124.212 179.055C124.856 179.403 135.497 185.343 134.888 195.042C134.325 203.975 132.788 205.808 131.661 207.147C131.628 207.215 131.588 207.272 131.54 207.33ZM136.868 206.984C136.753 207.069 136.665 207.187 136.616 207.321C135.414 207.88 134.105 208.171 132.78 208.173C135.63 205.062 136.133 199.401 136.403 195.144C137.003 185.544 128.045 179.559 125.508 178.062C126.671 176.112 129.038 175.2 130.458 174.519C132.053 175.188 140.358 179.249 140.358 191.145C140.358 204.165 136.89 206.967 136.868 206.984ZM139.665 205.32C140.693 202.997 141.749 198.935 141.84 192.084C142.395 191.159 145.049 186.723 148.211 181.233C149.228 185.102 149.382 189.148 148.661 193.083C146.916 195.75 142.011 203.147 139.665 205.32ZM149.588 196.725C152.114 199.314 155.098 201.412 158.39 202.913C156.617 208.706 154.79 214.509 153.203 219.509C149.994 216.09 147.413 212.132 145.58 207.816C146.885 204.084 148.334 200.1 149.588 196.725ZM144.872 209.862C146.731 214.08 149.387 217.9 152.693 221.112C150.35 228.462 148.631 233.712 148.58 233.862C148.526 234.049 148.547 234.249 148.637 234.42C148.728 234.592 148.881 234.721 149.065 234.782C149.25 234.843 149.45 234.83 149.625 234.746C149.8 234.662 149.936 234.513 150.003 234.332C150.203 233.724 151.791 228.875 153.941 222.15C156.356 224.135 159.413 225.17 162.537 225.059C162.107 231.974 161.273 240.389 161.028 242.802C157.439 242.494 154.098 240.843 151.673 238.179C146.1 232.746 141.858 222.8 141.858 220.191C142.562 216.667 143.57 213.211 144.872 209.862ZM163.5 232.362C163.709 229.871 163.907 227.262 164.054 224.838C164.555 216.612 168.776 199.674 172.214 190.025C175.085 181.965 178.475 155.216 180.047 144.704C181.733 146.621 185.322 150.197 188.679 150.227C189.86 158.423 191.208 174.924 198.333 192.284C197.792 209.178 198.267 226.09 199.755 242.928C188.726 245.688 177.783 243.252 163.5 232.35V232.362ZM201.921 250.329C201.561 246.635 200.655 236.709 200.058 225.021C203.652 223.188 207.134 221.141 210.483 218.892C211.271 224.627 212.742 232.433 215.301 237.507C210.491 242.091 205.101 247.247 201.921 250.323V250.329ZM199.971 223.373C199.538 214.296 199.31 204.306 199.671 195.404C202.283 201.385 205.655 207.005 209.705 212.124C209.846 212.3 209.58 211.784 210.254 217.209C206.958 219.471 203.526 221.527 199.977 223.367L199.971 223.373ZM216.431 236.423C213.999 231.323 212.603 223.448 211.871 217.901C212.504 217.434 213.107 216.963 213.671 216.492C217.094 219.663 220.476 221.081 223.817 217.827C223.854 221.335 224.249 224.83 224.996 228.258L216.431 236.423ZM223.959 215.441C222.696 216.951 221.451 218.235 219.815 218.18C212.85 218.094 202.676 198.477 199.76 191.814C191.574 173.114 190.991 153.264 189.9 148.503C188.85 143.916 187.094 136.242 187.455 132.497C187.99 128.3 188.778 124.139 189.813 120.038C190.229 120.331 190.713 120.514 191.219 120.569C191.725 120.624 192.237 120.55 192.707 120.354L193.034 128.414C193.041 128.603 193.121 128.783 193.256 128.917C193.391 129.051 193.571 129.128 193.761 129.134C193.949 129.135 194.131 129.067 194.273 128.943C194.414 128.819 194.505 128.648 194.529 128.462C195.29 121.184 196.26 113.312 197.007 108.759C197.481 109.2 198.094 109.462 198.74 109.502C199.387 109.541 200.026 109.354 200.55 108.974C200.55 114.572 200.55 122.966 200.52 125.978C200.519 126.076 200.537 126.174 200.573 126.265C200.61 126.357 200.664 126.44 200.733 126.511C200.801 126.582 200.883 126.638 200.974 126.677C201.064 126.716 201.161 126.737 201.26 126.738C201.358 126.74 201.456 126.721 201.548 126.685C201.639 126.649 201.723 126.595 201.793 126.526C201.864 126.457 201.92 126.375 201.959 126.285C201.998 126.194 202.019 126.097 202.02 125.999C202.067 122.345 202.053 110.808 202.046 105.89C202.538 106.22 203.124 106.379 203.715 106.343C204.306 106.307 204.869 106.078 205.317 105.69C205.724 111.9 205.809 118.127 205.572 124.346C205.564 124.444 205.576 124.543 205.606 124.637C205.636 124.731 205.685 124.819 205.748 124.894C205.812 124.969 205.891 125.031 205.978 125.076C206.066 125.122 206.162 125.149 206.261 125.157C206.359 125.165 206.458 125.154 206.552 125.124C206.647 125.093 206.734 125.045 206.809 124.981C206.884 124.917 206.947 124.839 206.992 124.751C207.037 124.663 207.064 124.567 207.072 124.469C207.321 118.237 207.241 111.996 206.834 105.773C207.126 105.899 207.443 105.962 207.761 105.956C208.08 105.951 208.394 105.877 208.682 105.74C209.282 111.896 209.573 118.078 209.552 124.263C209.552 127.776 204.63 147.438 204.581 147.636C204.537 147.812 204.558 147.998 204.641 148.16C220.185 178.857 217.467 173.06 223.407 181.968C223.568 182.321 230.366 191.835 230.807 197.19C231.38 204.179 225.999 213.009 223.965 215.435L223.959 215.441ZM218.51 171.777C216.849 168.698 213.719 162.627 210.998 157.325L222.192 161.039C220.868 164.498 219.455 168.438 218.516 171.771L218.51 171.777ZM223.718 161.25C227.992 160.767 232.319 161.368 236.3 162.998C233.033 171.767 230.066 180.647 229.682 184.866C228.137 183.441 226.446 182.184 224.636 181.116C223.607 179.573 220.025 174.392 219.564 173.646C220.717 169.439 222.105 165.301 223.724 161.25H223.718ZM234.771 208.229C232.447 211.072 229.522 213.366 226.206 214.946C229.019 210.896 232.791 203.141 232.295 197.067C232.011 193.604 229.503 188.817 226.745 184.371C229.956 186.861 234.728 191.58 235.895 198.321C235.899 198.337 235.905 198.353 235.911 198.369C236.037 200.882 236.033 206.627 234.777 208.223L234.771 208.229ZM236.721 195.492C235.582 192.026 233.661 188.869 231.107 186.264C231.387 185.246 229.731 184.896 237.663 163.637C240.638 165.123 243.239 167.262 245.271 169.893C236.51 189.029 242.874 177.567 236.73 195.486L236.721 195.492ZM245.96 168.381C243.839 165.798 241.192 163.697 238.196 162.216C242.318 151.281 246.729 140.838 246.813 140.639C246.885 140.457 246.883 140.254 246.807 140.074C246.732 139.894 246.589 139.75 246.409 139.674C246.229 139.597 246.026 139.594 245.844 139.665C245.662 139.735 245.515 139.874 245.433 140.052C245.091 140.858 240.831 150.945 236.82 161.601C232.862 159.999 228.584 159.341 224.327 159.68C225.827 155.889 227.049 153.044 227.076 152.982C227.156 152.8 227.16 152.593 227.087 152.407C227.014 152.222 226.87 152.073 226.688 151.994C226.505 151.914 226.298 151.91 226.113 151.983C225.928 152.056 225.779 152.2 225.699 152.382C225.671 152.447 224.327 155.561 222.732 159.635C209.246 155.162 210.273 155.478 210.047 155.469C206.685 148.887 207.158 149.988 207.218 149.528C207.272 149.115 207.35 148.65 207.446 148.142C212.546 141.156 221.846 141.671 221.945 141.678C222.137 141.693 222.328 141.633 222.477 141.509C222.625 141.385 222.72 141.209 222.74 141.017C223.173 137.292 222.413 128.918 222.077 125.579C226.434 127.865 233.327 131.414 237.906 133.248C243.185 135.362 251.16 138.552 252.027 147.777C252.549 153.14 249.204 161.222 245.969 168.375L245.96 168.381Z" fill="black"/>
<path d="M25.0625 27.6001C27.3663 26.3492 29.9171 25.6205 32.534 25.4656C29.5055 23.9206 24.716 22.0381 21.308 23.3566C21.2161 23.3922 21.1181 23.4093 21.0196 23.4069C20.9211 23.4046 20.824 23.3829 20.7339 23.3431C20.6438 23.3033 20.5624 23.2461 20.4944 23.1748C20.4264 23.1035 20.3731 23.0195 20.3375 22.9276C20.302 22.8357 20.2849 22.7377 20.2872 22.6392C20.2895 22.5407 20.3112 22.4436 20.351 22.3535C20.3909 22.2634 20.4481 22.182 20.5194 22.114C20.5906 22.046 20.6746 21.9927 20.7665 21.9571C26.825 19.6216 35.8745 25.6111 36.257 25.8691C36.3995 25.9678 36.5034 26.1128 36.551 26.2794C36.5986 26.4461 36.5871 26.6241 36.5183 26.7831C36.4496 26.9422 36.3278 27.0726 36.1738 27.1521C36.0198 27.2315 35.843 27.2552 35.6735 27.2191C32.2927 26.6704 28.8253 27.2598 25.8155 28.8946C25.6448 28.9813 25.4473 28.9995 25.2636 28.9453C25.0799 28.891 24.9239 28.7686 24.8276 28.603C24.7312 28.4375 24.7019 28.2413 24.7456 28.0549C24.7893 27.8684 24.9027 27.7057 25.0625 27.6001Z" fill="white"/>
<path d="M43.7227 21.951C44.0887 16.9425 47.6227 10.683 47.7727 10.419C47.8739 10.2521 48.0363 10.1312 48.2252 10.0821C48.4142 10.033 48.6149 10.0595 48.7846 10.156C48.9543 10.2525 49.0797 10.4113 49.1342 10.5988C49.1886 10.7863 49.1678 10.9876 49.0762 11.16C47.7675 13.5447 46.7002 16.0542 45.8902 18.651C47.3102 16.7195 49.0479 15.0432 51.0292 13.6935C51.1129 13.6383 51.2069 13.6005 51.3055 13.5822C51.4042 13.5639 51.5054 13.5657 51.6034 13.5873C51.7013 13.6088 51.794 13.6499 51.8758 13.7079C51.9576 13.7659 52.027 13.8397 52.0798 13.925C52.1325 14.0103 52.1677 14.1053 52.1831 14.2044C52.1985 14.3035 52.1939 14.4047 52.1695 14.502C52.1451 14.5993 52.1014 14.6907 52.0411 14.7709C51.9808 14.851 51.905 14.9182 51.8182 14.9685C48.2572 17.1735 45.1522 22.338 45.1207 22.389C45.0357 22.5373 44.9027 22.6522 44.7435 22.7146C44.5844 22.777 44.4087 22.7831 44.2456 22.732C44.0825 22.6809 43.9417 22.5756 43.8466 22.4336C43.7515 22.2916 43.7078 22.1213 43.7227 21.951Z" fill="white"/>
<path d="M181.131 284.64C181.027 284.641 180.924 284.619 180.829 284.578C180.734 284.536 180.648 284.475 180.577 284.399C180.507 284.322 180.453 284.232 180.419 284.134C180.385 284.035 180.373 283.931 180.381 283.827L182.823 254.939C182.84 254.74 182.935 254.556 183.087 254.427C183.24 254.298 183.437 254.235 183.636 254.252C183.835 254.268 184.019 254.363 184.148 254.516C184.277 254.668 184.34 254.866 184.323 255.065L181.877 283.95C181.862 284.138 181.777 284.313 181.639 284.441C181.501 284.568 181.319 284.64 181.131 284.64Z" fill="white"/>
</svg>
