<svg width="40" height="36" viewBox="0 0 40 36" fill="none" xmlns="http://www.w3.org/2000/svg">
<g clip-path="url(#clip0_95_793)">
<path d="M38.8681 27.2361C40.1042 26.3263 40.3681 24.5902 39.4583 23.3541C38.5486 22.118 36.8125 21.8541 35.5764 22.7638L27.2639 28.8888H18.8889C18.2778 28.8888 17.7778 28.3888 17.7778 27.7777C17.7778 27.1666 18.2778 26.6666 18.8889 26.6666H24.4444C25.6736 26.6666 26.6667 25.6736 26.6667 24.4444C26.6667 23.2152 25.6736 22.2222 24.4444 22.2222H13.4514C11.4306 22.2222 9.47222 22.9097 7.89583 24.1666L4.77778 26.6666H2.22222C0.993055 26.6666 0 27.6597 0 28.8888V33.3333C0 34.5624 0.993055 35.5555 2.22222 35.5555H24.4792C26.4931 35.5555 28.4583 34.9097 30.0833 33.7152L38.875 27.2361H38.8681ZM13.4444 26.6597C13.4478 26.6643 13.4499 26.6698 13.4506 26.6754C13.4513 26.6811 13.4506 26.6869 13.4485 26.6922C13.4465 26.6976 13.4431 26.7023 13.4388 26.7061C13.4344 26.7098 13.4292 26.7124 13.4236 26.7136C13.4181 26.7149 13.4122 26.7147 13.4067 26.7132C13.4012 26.7116 13.3962 26.7087 13.392 26.7048C13.3879 26.7008 13.3848 26.6959 13.3831 26.6904C13.3813 26.685 13.3809 26.6792 13.3819 26.6736C13.3786 26.6689 13.3765 26.6635 13.3758 26.6578C13.3751 26.6521 13.3758 26.6463 13.3779 26.641C13.3799 26.6357 13.3833 26.6309 13.3876 26.6272C13.392 26.6234 13.3972 26.6208 13.4027 26.6196C13.4083 26.6183 13.4141 26.6185 13.4197 26.6201C13.4252 26.6216 13.4302 26.6245 13.4343 26.6285C13.4385 26.6324 13.4415 26.6373 13.4433 26.6428C13.4451 26.6482 13.4455 26.654 13.4444 26.6597Z" fill="white"/>
</g>
<defs>
<clipPath id="clip0_95_793">
<rect width="40" height="35.5556" fill="white"/>
</clipPath>
</defs>
</svg>
