<svg width="300" height="300" viewBox="0 0 300 300" fill="none" xmlns="http://www.w3.org/2000/svg">
<path d="M131.884 135.234C131.884 135.234 139.284 137.283 141.172 137.433C142.818 137.642 144.447 137.968 146.046 138.409H146.001C145.924 138.42 145.847 138.436 145.773 138.459C143.864 138.947 141.907 139.226 139.938 139.29L139.65 139.2H139.6C137.86 138.555 132.142 135.384 131.878 135.247L131.884 135.234Z" fill="black"/>
<path d="M272.137 128.595L267.595 132.882H256.869H250.882H242.784H236.734H220.243H188.061L183.52 128.595H202.99H225.535H246.786H268.677H272.137Z" fill="black"/>
<path d="M264.784 99.192L264.82 99.2325L262.25 101.49L262.228 101.461V93.4545V91.548H264.784V99.192Z" fill="#FFD997"/>
<path d="M262.228 101.461L262.251 101.49L260.797 102.765C260.661 102.883 260.524 102.997 260.379 103.101L260.266 102.825V93.45H262.228V101.461Z" fill="#FFD997"/>
<path d="M260.266 102.825L260.378 103.101C259.593 103.674 258.674 104.035 257.708 104.151V88.8225H260.258L260.266 102.825Z" fill="#FFD997"/>
<path d="M256.864 133.585C258.141 133.585 258.681 134.394 258.13 135.052C255.418 137.357 252.393 139.267 249.147 140.725C246.877 141.484 239.883 147.234 239.883 147.234C241.194 144.669 242.833 142.284 244.756 140.139C244.756 140.139 250.741 136.569 253.957 134.589C254.818 133.998 255.822 133.651 256.864 133.585Z" fill="#FFD997"/>
<path d="M257.709 89.3398V104.151C256.448 104.31 255.17 104.046 254.076 103.401L255.16 103.279V91.0933H254.226V89.3398H257.709Z" fill="#FFD997"/>
<path d="M255.183 91.0935V103.28L254.098 103.401C253.795 103.222 253.51 103.016 253.245 102.785L252.627 102.252V91.0935H255.183Z" fill="#FFD997"/>
<path d="M252.627 91.548V102.252L250.119 100.099L250.278 99.918V91.548H252.627Z" fill="#FFD997"/>
<path d="M213.862 193.072C214.077 188.34 212.572 161.884 212.572 161.884C212.572 161.884 211.522 155.835 212.527 152.443C213.532 149.052 216.529 146.952 217.069 144.954C217.609 142.956 218.518 140.262 218.119 138.564C217.398 135.511 218.733 132.94 220.245 132.94C220.923 132.94 221.635 133.453 222.211 134.671C224.937 140.412 222.211 144.076 222.211 144.076L222.339 144.408C222.843 144.213 223.456 143.958 224.184 143.605C226.645 142.428 228.879 141.142 229.02 141.066C229.86 138.981 232.62 134.938 233.443 132.945H236.743C236.862 133.735 233.743 139.113 233.443 140.412C233.253 141.252 232.612 143.899 232.191 145.662L232.363 145.702C235.167 143.599 237.817 141.298 240.292 138.817C242.237 136.529 244.574 134.606 247.192 133.135C248.418 132.963 249.657 132.898 250.894 132.94H251.88C251.88 132.94 247.483 137.724 244.753 140.14C242.83 142.285 241.192 144.67 239.881 147.235C238.976 148.979 237.936 150.649 236.77 152.23C235.14 153.912 227.836 159.73 225.156 161.845L225.574 161.896C225.574 161.896 228.717 179.095 230.869 190.281C232.58 198.814 232.58 207.601 230.869 216.133C230.356 218.533 228.286 223.933 226.137 223.933C223.987 223.933 224.416 224.197 215.691 222.085C206.965 219.973 189 205.077 189 205.077L193.165 199.09C195.436 195.829 199.165 189.853 202.093 185.08L213.862 193.072Z" fill="#FFD997"/>
<path d="M250.882 132.882V132.936C249.644 132.893 248.406 132.958 247.18 133.131C244.557 134.595 242.22 136.52 240.28 138.813C237.81 141.301 235.16 143.602 232.351 145.698L232.178 145.657C232.6 143.895 233.24 141.247 233.431 140.407C233.431 140.407 240.208 134.985 242.777 132.94V132.882H250.882Z" fill="#FFD997"/>
<path d="M248.147 93.2054L247.943 98.5694L247.898 99.7364C246.465 99.2995 244.955 99.1759 243.47 99.3741C241.985 99.5722 240.56 100.087 239.292 100.885C238.024 101.682 236.942 102.743 236.12 103.995C235.298 105.248 234.754 106.662 234.527 108.143C234.3 109.624 234.393 111.136 234.802 112.577C235.211 114.019 235.925 115.355 236.895 116.496C237.866 117.638 239.071 118.557 240.428 119.191C241.785 119.826 243.262 120.161 244.76 120.174C245.555 120.174 246.348 120.082 247.121 119.901L246.785 128.586H225.526L224.162 93.1964L248.147 93.2054Z" fill="#81F8F8"/>
<path d="M247.898 99.7363L247.121 119.91C245.694 120.222 244.218 120.231 242.787 119.936C241.356 119.642 240.003 119.05 238.815 118.201C237.626 117.351 236.63 116.261 235.889 115.002C235.148 113.743 234.68 112.342 234.514 110.891C234.348 109.44 234.488 107.97 234.926 106.576C235.363 105.182 236.088 103.896 237.054 102.799C238.019 101.703 239.204 100.822 240.532 100.212C241.859 99.6023 243.3 99.2777 244.76 99.2593C245.824 99.2592 246.882 99.4201 247.898 99.7363Z" fill="#FFD997"/>
<path d="M244.928 80.271V83.6955H241.022H237.475L237.865 80.271H241.099H244.928Z" fill="#FFD997"/>
<path d="M237.865 80.2709L237.475 83.6954H234.218L233.996 83.6669L234.395 80.2019L237.865 80.2709Z" fill="#FFD997"/>
<path d="M237.475 83.6952L236.712 90.3808H233.229L233.997 83.6667L234.219 83.6952H237.475Z" fill="#FFD997"/>
<path d="M222.438 117.376C222.438 117.376 225.094 117.744 222.738 119.388C222.294 119.731 221.75 119.919 221.188 119.925C220.74 119.861 220.314 119.687 219.948 119.42C219.582 119.153 219.287 118.801 219.088 118.393V117.376H222.438Z" fill="#81F8F8"/>
<path d="M212.059 105.217C214.953 105.679 217.587 107.156 219.489 109.384C221.391 111.613 222.437 114.446 222.438 117.376H209.499V109.891L209.557 109.923C209.875 110.055 210.288 109.773 210.466 109.311C210.645 108.849 210.547 108.361 210.229 108.229C210.09 108.194 209.944 108.205 209.811 108.259C209.678 108.313 209.565 108.407 209.49 108.529V105.063H210.12C210.769 105.064 211.418 105.116 212.059 105.217ZM218.59 114.067C218.89 113.895 218.926 113.4 218.673 112.963C218.419 112.527 217.978 112.314 217.678 112.513C217.528 112.652 217.436 112.843 217.421 113.047C217.405 113.251 217.468 113.453 217.596 113.613C217.851 114.049 218.296 114.244 218.59 114.072V114.067ZM214.957 109.012C215.271 108.871 215.352 108.381 215.148 107.922C214.944 107.463 214.516 107.209 214.203 107.35C213.889 107.491 213.804 107.976 214.012 108.435C214.221 108.894 214.666 109.153 214.98 109.012H214.957ZM214.471 113.653C214.471 113.149 214.194 112.746 213.849 112.746C213.504 112.746 213.226 113.154 213.226 113.653C213.226 114.153 213.508 114.562 213.849 114.562C214.189 114.562 214.494 114.157 214.494 113.653H214.471Z" fill="#FFD997"/>
<path d="M221.837 124.57V126.75C221.837 127.202 221.658 127.635 221.339 127.954C221.019 128.274 220.586 128.454 220.135 128.454H209.498V124.57H221.837Z" fill="#FFD997"/>
<path d="M221.174 120.097V124.57H209.498V123.244H209.897L221.174 120.097Z" fill="black"/>
<path d="M219.094 117.376V118.393C218.917 119.011 218.516 119.539 217.969 119.876C217.422 120.212 216.769 120.331 216.138 120.21C215.433 120.21 214.738 120.046 214.107 119.73C213.476 119.415 212.928 118.957 212.505 118.393V117.376H219.094Z" fill="#81F8F8"/>
<path d="M218.673 112.966C218.927 113.416 218.891 113.898 218.591 114.07C218.291 114.243 217.841 114.028 217.596 113.589C217.352 113.149 217.383 112.68 217.679 112.489C217.974 112.299 218.423 112.53 218.673 112.966Z" fill="black"/>
<path d="M215.17 107.925C215.376 108.375 215.293 108.874 214.98 109.015C214.666 109.156 214.245 108.897 214.035 108.438C213.825 107.979 213.913 107.493 214.227 107.353C214.54 107.214 214.962 107.466 215.17 107.925Z" fill="black"/>
<path d="M213.248 113.656C213.248 113.899 213.314 114.131 213.431 114.302C213.548 114.474 213.706 114.57 213.871 114.57C214.036 114.57 214.194 114.474 214.311 114.302C214.428 114.131 214.493 113.899 214.493 113.656C214.493 113.414 214.428 113.182 214.311 113.01C214.194 112.839 214.036 112.743 213.871 112.743C213.706 112.743 213.548 112.839 213.431 113.01C213.314 113.182 213.248 113.414 213.248 113.656Z" fill="black"/>
<path d="M212.495 117.376V118.393C212.389 119.134 212.034 119.816 211.489 120.329C210.944 120.841 210.241 121.153 209.495 121.213V117.376H212.495Z" fill="#81F8F8"/>
<path d="M209.525 93.2054C210.002 94.7669 212.155 99.6554 212.075 102.742C212.026 103.561 212.026 104.381 212.075 105.199C211.437 105.099 210.792 105.049 210.146 105.049H209.515C207.418 104.781 205.301 104.722 203.192 104.872V104.796C203.192 104.796 204.124 101.008 204.433 99.2459C204.742 97.4834 201.49 95.1584 201.49 92.5199V75.6464H209.549C209.549 75.6464 208.231 88.9634 209.525 93.2054Z" fill="black"/>
<path d="M210.238 108.234C210.556 108.366 210.666 108.847 210.475 109.315C210.285 109.783 209.875 110.065 209.566 109.927L209.508 109.896V108.534C209.582 108.413 209.693 108.32 209.824 108.266C209.955 108.212 210.1 108.201 210.238 108.234Z" fill="black"/>
<path d="M209.499 124.57V128.449C206.41 121.782 192.699 108.919 192.699 108.919C195.387 106.095 199.642 105.136 203.199 104.881C205.307 104.731 207.425 104.79 209.521 105.058V108.529C209.448 108.625 209.388 108.73 209.344 108.843C209.249 109.012 209.214 109.208 209.246 109.399C209.278 109.591 209.376 109.765 209.521 109.893V124.567L209.499 124.57Z" fill="#81F8F8"/>
<path d="M209.501 108.529V109.891C209.353 109.764 209.255 109.589 209.223 109.398C209.19 109.207 209.225 109.01 209.322 108.841C209.367 108.73 209.427 108.625 209.501 108.529Z" fill="black"/>
<path d="M209.499 128.449C209.499 128.449 206.615 128.544 202.991 128.544C199.67 128.544 195.723 128.463 192.812 128.158C186.708 127.518 188.639 113.17 192.677 108.928C192.677 108.928 206.411 121.782 209.499 128.449Z" fill="#81F8F8"/>
<path d="M190.35 229.152C192.9 236.092 210.379 252.178 215.665 277.032C215.665 277.032 184.423 279.003 169.615 284.026C154.807 289.05 146.226 286.174 146.226 286.174C146.226 286.174 147.135 257.728 143.724 250.594C140.313 243.46 140.317 240.865 140.317 240.865L133.704 244.615C132.897 243.598 131.993 242.663 131.004 241.822C133.885 239.393 136.951 237.192 140.173 235.237C144.433 232.512 151.215 230.241 155.316 228.964C157.416 228.319 158.812 227.956 158.812 227.956L159.112 227.797C160.57 230.59 162.904 237.336 164.976 247.522C167.628 260.572 169.29 274.186 169.29 274.186C169.29 274.186 188.32 268.654 191.308 265.104C194.296 261.553 197.172 262.782 197.172 262.782C197.172 262.782 188.647 240.882 186.103 232.689C183.955 225.789 183.115 220.213 181.621 218.439L182.371 218.385C182.704 218.064 183.006 217.713 183.271 217.335C186.308 220.827 188.704 224.827 190.35 229.152Z" fill="#81F8F8"/>
<path d="M116.479 172.908L113.977 173.412L116.434 185.584L118.936 185.08L137.067 181.419L134.61 169.243L116.479 172.908ZM107.368 205.527L107.236 205.431C101.845 212.931 91.3361 227.854 91.3361 227.854C90.7586 227.68 90.1361 227.476 89.4926 227.236C82.4576 224.629 71.5571 218.248 65.9066 214.806C63.6356 213.406 62.1776 212.488 62.1776 212.488C65.1671 206.938 83.3156 170.638 89.0786 165.94C93.4976 162.34 107.296 155.494 114.385 150.735C114.385 150.735 129.295 160.831 138.274 158.497C147.253 156.163 146.041 150.027 146.041 150.027C150.76 150.027 164.544 150.094 169.731 150.934C174.114 151.675 206.446 177.927 206.446 177.927C206.446 177.927 204.552 181.077 202.096 185.08C199.167 189.853 195.439 195.829 193.168 199.09L189 205.077L182.538 201.343C182.005 202.665 181.629 203.5 181.629 203.5C181.629 203.5 185.371 211.9 184.744 214.401C184.452 215.469 183.955 216.469 183.282 217.348C183.016 217.726 182.714 218.078 182.382 218.398L181.632 218.452C181.408 218.156 181.085 217.951 180.723 217.875C178.657 217.552 158.523 225.859 157.288 226.372L157.315 226.428C156.474 227.03 155.769 227.804 155.248 228.699L155.322 228.948C150.046 230.438 144.963 232.543 140.179 235.221C136.955 237.173 133.889 239.375 131.01 241.806C130.638 241.49 130.245 241.201 129.834 240.939L129.888 240.852C126.738 238.752 127.993 232.372 127.993 232.372C121.435 230.614 117.034 214.396 114.369 211.63C112.162 209.455 109.824 207.417 107.368 205.527Z" fill="black"/>
<path d="M197.185 262.8C197.185 262.8 194.311 261.583 191.322 265.122C188.332 268.66 169.303 274.204 169.303 274.204C169.303 274.204 167.641 260.58 164.989 247.54C162.918 237.358 160.584 230.608 159.126 227.815C158.905 227.281 158.568 226.802 158.14 226.413C158.013 226.345 157.87 226.312 157.725 226.318C157.581 226.323 157.441 226.367 157.318 226.444L157.291 226.389C158.526 225.876 178.66 217.569 180.726 217.891C181.089 217.968 181.411 218.173 181.635 218.469C183.135 220.24 183.969 225.819 186.117 232.719C188.661 240.9 197.185 262.8 197.185 262.8Z" fill="white"/>
<path d="M128.111 115.524C127.125 115.901 126.047 115.96 125.027 115.692C124.265 118.702 122.477 118.266 122.37 118.234C122.08 117.431 121.567 116.727 120.892 116.204C120.216 115.681 119.406 115.362 118.556 115.282C118.103 115.227 117.645 115.31 117.24 115.519C116.835 115.728 116.502 116.053 116.285 116.454L115.985 116.373C115.127 113.582 114.871 110.64 115.235 107.743C115.85 102.681 118.08 97.9507 121.593 94.2538C121.976 93.8368 122.365 93.4403 122.76 93.0643C140.465 76.0498 172.065 94.5988 166.35 113.715C164.82 118.848 163.026 120.27 161.622 120.196C161.039 120.115 160.496 119.851 160.07 119.444C159.645 119.036 159.359 118.505 159.252 117.925C159.044 116.209 159.429 110.086 156.482 109.675C156.262 109.645 156.039 109.645 155.819 109.675C154.769 109.792 153.708 109.578 152.786 109.063C151.863 108.549 151.124 107.759 150.672 106.804C150.672 106.804 143.505 99.5053 141.308 101.463C139.11 103.42 141.308 107.7 139.227 112.468C137.55 116.322 131.627 117.285 128.111 115.524Z" fill="#81F8F8"/>
<path d="M153.663 125.932L152.895 125.542L152.618 125.574L151.106 125.76H151.01C150.645 125.746 150.281 125.797 149.934 125.91L148.866 126.037C148.866 126.037 148.958 128.763 151.01 128.917C154.844 129.193 155.139 126.696 155.139 126.696L153.663 125.932ZM139.52 122.055L139.542 121.963L139.002 121.822C137.965 121.289 136.81 121.028 135.645 121.063C135.477 121.021 135.305 121 135.132 121C134.768 120.996 134.41 121.097 134.102 121.291H132.366C132.366 121.291 133.08 124.266 135.132 124.416C138.548 124.675 139.379 122.526 139.52 122.055ZM122.37 118.234C122.475 118.266 124.265 118.684 125.027 115.692C126.047 115.96 127.125 115.901 128.111 115.524C131.627 117.285 137.549 116.322 139.242 112.44C141.323 107.67 139.121 103.392 141.323 101.434C143.525 99.4769 150.687 106.776 150.687 106.776C151.139 107.731 151.878 108.521 152.8 109.036C153.723 109.55 154.784 109.764 155.834 109.647C156.054 109.617 156.277 109.617 156.497 109.647C159.444 110.055 159.059 116.178 159.267 117.897C159.371 118.478 159.657 119.01 160.083 119.419C160.509 119.827 161.054 120.089 161.639 120.168V120.195C160.611 122.175 157.769 126.513 157.097 130.831C156.425 135.15 153.686 139.81 148.667 144.13C147.381 145.239 146.015 146.751 144.447 148.072V150.022H146.046C146.046 150.022 147.258 156.148 138.279 158.484C129.3 160.819 114.39 150.721 114.39 150.721C115.999 149.806 117.413 148.582 118.551 147.121C120.518 143.251 119.678 130.957 119.678 130.957L119.75 130.857C120.241 131.219 120.837 131.414 121.448 131.412C122.022 131.413 122.583 131.244 123.061 130.926C123.539 130.608 123.912 130.155 124.133 129.625C124.354 129.095 124.412 128.512 124.301 127.949C124.19 127.385 123.915 126.867 123.51 126.461C123.104 126.054 122.588 125.777 122.025 125.664C121.462 125.551 120.878 125.607 120.347 125.826C119.817 126.045 119.363 126.416 119.043 126.893C118.723 127.37 118.552 127.931 118.551 128.505C118.032 128.035 117.574 127.503 117.188 126.919C114.968 123.573 114.827 118.686 116.28 116.451C116.497 116.05 116.83 115.724 117.235 115.515C117.64 115.307 118.099 115.224 118.551 115.279C119.401 115.359 120.212 115.678 120.887 116.201C121.563 116.724 122.075 117.428 122.366 118.231L122.37 118.234ZM141.536 141.552C143.072 141.102 147.141 138.252 146.046 138.409C144.447 137.968 142.818 137.642 141.173 137.433C139.284 137.283 131.885 135.234 131.885 135.234C132.099 135.462 135.519 139.086 136.835 140.107C137.452 140.697 138.199 141.134 139.015 141.385C139.831 141.635 140.694 141.693 141.536 141.552Z" fill="#FFD997"/>
<path d="M153.663 125.932L155.13 126.696C155.13 126.696 154.83 129.193 151 128.917C148.948 128.767 148.857 126.037 148.857 126.037L149.925 125.91C149.719 125.969 149.541 126.099 149.423 126.277C149.305 126.455 149.254 126.67 149.28 126.882C149.269 127.33 149.434 127.764 149.739 128.092C150.044 128.421 150.465 128.617 150.913 128.64C151.36 128.663 151.799 128.511 152.136 128.216C152.473 127.92 152.682 127.505 152.718 127.059C152.721 127 152.721 126.941 152.718 126.882C152.718 125.982 152.001 125.778 151.096 125.769L152.608 125.583C152.917 125.661 153.262 125.787 153.663 125.932Z" fill="white"/>
<path d="M152.894 125.55L153.662 125.94C153.262 125.79 152.912 125.668 152.612 125.581L152.894 125.55Z" fill="white"/>
<path d="M152.726 126.873C152.745 127.103 152.717 127.334 152.645 127.552C152.572 127.771 152.457 127.973 152.305 128.146C152.153 128.319 151.968 128.46 151.761 128.561C151.554 128.661 151.329 128.719 151.099 128.731C150.868 128.743 150.638 128.708 150.422 128.63C150.205 128.551 150.007 128.43 149.838 128.273C149.669 128.116 149.534 127.927 149.439 127.717C149.345 127.507 149.294 127.28 149.288 127.05C149.285 126.991 149.285 126.932 149.288 126.873C149.263 126.661 149.314 126.446 149.432 126.268C149.55 126.09 149.728 125.96 149.933 125.901L151.105 125.76C152.009 125.787 152.726 125.955 152.726 126.873Z" fill="black"/>
<path d="M151.105 125.76L149.934 125.902C150.281 125.788 150.645 125.737 151.009 125.751L151.105 125.76Z" fill="black"/>
<path d="M146.002 138.418L145.773 138.468C145.848 138.445 145.925 138.429 146.002 138.418Z" fill="black"/>
<path d="M83.947 234.952C96.523 236.256 127.548 239.58 129.687 240.856L129.836 240.952C130.248 241.214 130.641 241.504 131.013 241.819C132.002 242.66 132.906 243.595 133.712 244.612C135.474 246.758 136.798 249.226 137.612 251.88C138.976 256.671 143.122 263.166 143.727 264.597C144.716 266.935 141.505 269.088 138.812 265.197C136.804 262.299 136.046 260.229 134.924 259.239C133.802 258.249 131.591 276.133 130.001 286.116C127.466 285.031 126.926 274.254 127.022 271.129C127.118 268.005 126.349 268.354 124.533 265.579C122.716 262.804 121.382 255.633 119.86 253.729C118.337 251.826 84.0565 255.882 72.2395 254.424C69.151 254.043 57.484 252.993 55.195 249.228C50.7715 241.962 65.9125 214.765 65.9125 214.765C71.581 218.215 82.45 224.599 89.5075 227.206L83.947 234.952Z" fill="#FFD997"/>
<path d="M139.649 139.213L139.933 139.299C139.837 139.278 139.742 139.249 139.649 139.213Z" fill="black"/>
<path d="M139.001 121.822L139.541 121.964L139.519 122.056C139.337 121.969 139.169 121.892 139.001 121.822Z" fill="white"/>
<path d="M134.061 121.323C133.858 121.461 133.692 121.647 133.58 121.866C133.467 122.084 133.411 122.327 133.416 122.572C133.429 123.019 133.616 123.443 133.936 123.754C134.257 124.065 134.686 124.239 135.133 124.239C135.579 124.239 136.009 124.065 136.329 123.754C136.65 123.443 136.836 123.019 136.849 122.572C136.855 122.313 136.792 122.058 136.667 121.83C136.543 121.603 136.361 121.413 136.14 121.278H136.935L139.002 121.827C139.17 121.896 139.338 121.977 139.519 122.059C139.378 122.509 138.547 124.68 135.132 124.434C133.08 124.284 132.366 121.309 132.366 121.309H134.1L134.061 121.323Z" fill="white"/>
<path d="M134.609 169.243L137.066 181.419L118.936 185.08L116.479 172.908L134.609 169.243Z" fill="#81F8F8"/>
<path d="M136.849 122.572C136.836 123.019 136.649 123.443 136.329 123.754C136.008 124.065 135.579 124.239 135.132 124.239C134.686 124.239 134.257 124.065 133.936 123.754C133.616 123.443 133.429 123.019 133.416 122.572C133.411 122.327 133.467 122.084 133.58 121.866C133.692 121.647 133.858 121.461 134.061 121.323L134.211 121.291H136.14C136.359 121.425 136.54 121.613 136.664 121.838C136.788 122.062 136.852 122.316 136.849 122.572Z" fill="black"/>
<path d="M136.14 121.279H134.211C134.684 121.173 135.163 121.096 135.645 121.05C135.821 121.099 135.988 121.177 136.14 121.279Z" fill="black"/>
<path d="M135.149 121C135.322 121 135.495 121.021 135.662 121.064C135.18 121.11 134.701 121.187 134.228 121.293H134.114C134.424 121.096 134.783 120.995 135.149 121Z" fill="black"/>
<path d="M134.1 121.291H134.211L134.059 121.323L134.1 121.291Z" fill="black"/>
<path d="M115.984 116.373L116.284 116.454C114.831 118.689 114.972 123.576 117.192 126.922C116.061 137.691 104.929 133.281 110.347 137.122C115.765 140.964 108.867 149.634 109.395 145.024C109.923 140.415 103.863 145.156 99.3298 138.307C94.7968 131.458 101.623 129.877 103.467 125.613C105.31 121.348 101.296 120.591 99.6478 111.307C95.8873 90.1574 112.887 94.7564 113.581 94.9574C112.242 94.8614 110.829 95.4074 110.403 97.9004C109.876 100.942 113.881 102.382 113.881 102.382C113.881 102.382 109.894 104.299 110.902 106.47C111.06 106.877 111.309 107.242 111.63 107.537C111.951 107.833 112.336 108.051 112.754 108.174C113.173 108.297 113.614 108.323 114.044 108.249C114.474 108.175 114.881 108.003 115.234 107.746C114.872 110.643 115.128 113.583 115.984 116.373Z" fill="#81F8F8"/>
<path d="M150.686 106.776C150.686 106.776 143.521 99.4769 141.322 101.434C139.123 103.392 141.322 107.67 139.241 112.44C137.548 116.322 131.626 117.285 128.11 115.524C127.335 115.155 126.665 114.6 126.16 113.907" stroke="black" stroke-width="0.980065" stroke-linecap="round" stroke-linejoin="round"/>
<path d="M121.149 110.114C121.149 110.114 121.834 114.747 125.026 115.692C126.046 115.96 127.125 115.901 128.11 115.524" stroke="black" stroke-width="0.980065" stroke-linecap="round" stroke-linejoin="round"/>
<path d="M122.365 118.234C122.075 117.431 121.562 116.727 120.887 116.204C120.211 115.681 119.401 115.362 118.55 115.282C118.098 115.227 117.64 115.31 117.235 115.518C116.829 115.727 116.497 116.053 116.279 116.454C114.826 118.689 114.967 123.576 117.187 126.922C117.574 127.506 118.032 128.038 118.55 128.508" stroke="black" stroke-width="0.980065" stroke-linecap="round" stroke-linejoin="round"/>
<path d="M122.742 119.779C122.695 119.249 122.57 118.728 122.37 118.234" stroke="black" stroke-width="0.980065" stroke-linecap="round" stroke-linejoin="round"/>
<path d="M118.551 128.512C118.555 129.276 118.861 130.007 119.403 130.546C119.945 131.084 120.678 131.385 121.442 131.383C122.206 131.382 122.938 131.077 123.477 130.536C124.017 129.995 124.32 129.263 124.32 128.499C124.32 127.735 124.017 127.002 123.477 126.462C122.938 125.921 122.206 125.616 121.442 125.614C120.678 125.613 119.945 125.914 119.403 126.452C118.861 126.99 118.555 127.722 118.551 128.485V128.512Z" stroke="black" stroke-width="0.980065" stroke-linecap="round" stroke-linejoin="round"/>
<path d="M121.448 134.367C121.334 136.273 121.79 138.17 122.756 139.816C133.656 154.096 139.896 151.911 144.438 148.078C146.006 146.757 147.372 145.245 148.658 144.136C153.677 139.816 156.405 135.157 157.088 130.837C157.77 126.517 160.611 122.181 161.628 120.201" stroke="black" stroke-width="0.980065" stroke-linecap="round" stroke-linejoin="round"/>
<path d="M119.677 130.95C119.677 130.95 120.517 143.25 118.551 147.114C117.422 148.584 116.006 149.808 114.39 150.714C107.301 155.46 93.4978 162.318 89.0833 165.919C83.3203 170.62 65.1718 206.917 62.1823 212.467C62.1823 212.467 63.6223 213.376 65.9113 214.785C71.5798 218.235 82.4488 224.617 89.5063 227.224C90.1558 227.464 90.7738 227.674 91.3498 227.841C91.3498 227.841 101.85 212.926 107.25 205.419C108.213 204.084 109.008 202.98 109.558 202.24" stroke="black" stroke-width="0.980065" stroke-linecap="round" stroke-linejoin="round"/>
<path d="M107.368 205.527C109.831 207.424 112.176 209.468 114.39 211.65C117.037 214.416 121.44 230.635 128.016 232.392C128.016 232.392 126.762 238.75 129.909 240.871C130.254 241.097 130.632 241.265 131.031 241.371" stroke="black" stroke-width="0.980065" stroke-linecap="round" stroke-linejoin="round"/>
<path d="M156.434 192.27C156.434 192.27 150.983 206.181 143.717 210.436" stroke="#81F8F8" stroke-width="0.980065" stroke-linecap="round" stroke-linejoin="round"/>
<path d="M144.438 150.031H146.046C150.765 150.031 164.548 150.099 169.735 150.939C174.118 151.675 206.451 177.927 206.451 177.927C206.451 177.927 204.556 181.077 202.101 185.08C199.171 189.853 195.444 195.829 193.173 199.09L189 205.077L182.538 201.343" stroke="black" stroke-width="0.980065" stroke-linecap="round" stroke-linejoin="round"/>
<path d="M144.438 148.083V150.031V151.648" stroke="black" stroke-width="0.980065" stroke-linecap="round" stroke-linejoin="round"/>
<path d="M114.39 150.726C114.39 150.726 129.3 160.822 138.279 158.488C147.258 156.154 146.046 150.027 146.046 150.027" stroke="black" stroke-width="0.980065" stroke-linecap="round" stroke-linejoin="round"/>
<path d="M146.045 97.9199C146.045 97.9199 150.538 100.84 150.686 102.811C150.773 104.132 150.773 105.456 150.686 106.776C150.686 106.776 156.859 107.802 156.346 103.279C155.833 98.7569 155.728 92.6789 149.678 91.1384C145.656 90.2238 141.501 90.0484 137.416 90.6209" stroke="black" stroke-width="0.980065" stroke-linecap="round" stroke-linejoin="round"/>
<path d="M152.082 98.583C152.795 99.9567 153.171 101.481 153.177 103.029C152.695 104.478 151.836 105.773 150.687 106.779C151.139 107.734 151.878 108.524 152.8 109.039C153.723 109.553 154.783 109.767 155.833 109.65C156.053 109.62 156.276 109.62 156.496 109.65C159.444 110.058 159.058 116.181 159.267 117.9C159.371 118.481 159.657 119.013 160.083 119.422C160.509 119.83 161.054 120.092 161.638 120.171C163.041 120.243 164.817 118.809 166.365 113.689C172.074 94.5735 140.478 76.0215 122.764 93.039C122.369 93.416 121.98 93.8125 121.597 94.2285C118.082 97.9242 115.852 102.655 115.239 107.718C114.876 110.615 115.132 113.556 115.989 116.347" stroke="black" stroke-width="0.980065" stroke-linecap="round" stroke-linejoin="round"/>
<path d="M156.415 109.66H156.496C157.069 109.56 160.483 109.033 162.114 110.11" stroke="black" stroke-width="0.980065" stroke-linecap="round" stroke-linejoin="round"/>
<path d="M113.586 94.9499C112.247 94.8539 110.834 95.3999 110.408 97.8929C109.881 100.935 113.886 102.375 113.886 102.375C113.886 102.375 109.899 104.292 110.907 106.462C111.065 106.869 111.314 107.234 111.635 107.53C111.956 107.825 112.34 108.043 112.759 108.166C113.178 108.29 113.619 108.315 114.049 108.241C114.479 108.167 114.886 107.995 115.239 107.739L115.304 107.698" stroke="black" stroke-width="0.980065" stroke-linecap="round" stroke-linejoin="round"/>
<path d="M122.76 93.0464C122.76 93.0464 120.094 88.0499 117.561 90.2849C116.838 90.9997 116.34 91.9097 116.127 92.9035C115.913 93.8973 115.995 94.9317 116.361 95.8799C115.513 95.3889 114.573 95.0798 113.599 94.9724" stroke="black" stroke-width="0.980065" stroke-linecap="round" stroke-linejoin="round"/>
<path d="M113.608 94.9588H113.585C112.891 94.7578 95.8732 90.1588 99.6517 111.309C101.302 120.592 105.316 121.35 103.471 125.614C101.626 129.879 94.8052 131.464 99.3337 138.309C103.862 145.153 109.925 140.416 109.399 145.026C108.872 149.635 115.784 140.938 110.351 137.124C104.918 133.309 116.065 137.695 117.196 126.924" stroke="black" stroke-width="0.980065" stroke-linecap="round" stroke-linejoin="round"/>
<path d="M116.479 172.908L134.61 169.243L137.067 181.419L118.936 185.08L116.434 185.584L113.977 173.412L116.479 172.908Z" stroke="black" stroke-width="0.980065" stroke-linecap="round" stroke-linejoin="round"/>
<path d="M116.479 172.903V172.908L118.936 185.08" stroke="black" stroke-width="0.980065" stroke-linecap="round" stroke-linejoin="round"/>
<path d="M132.793 119.25C133.652 118.605 134.643 118.157 135.695 117.94C136.747 117.723 137.835 117.741 138.879 117.993C141.495 118.784 141.009 120.186 141.009 120.186" stroke="black" stroke-width="0.980065" stroke-linecap="round" stroke-linejoin="round"/>
<path d="M148.489 123.97C149.474 122.857 150.689 121.972 152.05 121.377C152.852 121.114 153.718 121.128 154.511 121.418C155.303 121.709 155.974 122.257 156.415 122.976" stroke="black" stroke-width="0.980065" stroke-linecap="round" stroke-linejoin="round"/>
<path d="M145.137 127.605C145.137 127.605 145.551 130.501 146.046 132.669C146.541 134.836 145.392 136.819 141.535 135.579" stroke="black" stroke-width="0.980065" stroke-linecap="round" stroke-linejoin="round"/>
<path d="M140.596 134.154C140.22 133.874 139.754 133.744 139.288 133.789" stroke="black" stroke-width="0.980065" stroke-linecap="round" stroke-linejoin="round"/>
<path d="M139.606 139.2C136.919 138.115 134.335 136.792 131.884 135.247" stroke="black" stroke-width="0.980065" stroke-linecap="round" stroke-linejoin="round"/>
<path d="M145.773 138.468C144.326 139.197 142.724 139.565 141.105 139.541C140.708 139.503 140.317 139.422 139.938 139.299" stroke="black" stroke-width="0.980065" stroke-linecap="round" stroke-linejoin="round"/>
<path d="M131.893 135.243C132.108 135.471 135.528 139.095 136.843 140.116C137.462 140.699 138.206 141.132 139.019 141.381C139.831 141.63 140.69 141.688 141.529 141.552C143.061 141.093 147.135 138.252 146.04 138.409" stroke="black" stroke-width="0.980065" stroke-linecap="round" stroke-linejoin="round"/>
<path d="M146.001 138.418H146.048" stroke="black" stroke-width="0.980065" stroke-linecap="round" stroke-linejoin="round"/>
<path d="M134.646 141.052C135.789 142.255 137.234 143.13 138.829 143.586C139.887 143.784 140.98 143.671 141.976 143.26C142.971 142.85 143.826 142.16 144.438 141.274" stroke="black" stroke-width="0.980065" stroke-linecap="round" stroke-linejoin="round"/>
<path d="M122.365 118.234C122.47 118.266 124.26 118.684 125.022 115.692" stroke="black" stroke-width="0.980065" stroke-linecap="round" stroke-linejoin="round"/>
<path d="M155.25 228.721C155.766 227.823 156.471 227.049 157.317 226.45C157.439 226.373 157.579 226.329 157.724 226.324C157.868 226.318 158.011 226.351 158.139 226.419C158.567 226.808 158.903 227.287 159.124 227.821C160.582 230.614 162.916 237.36 164.988 247.546C167.64 260.596 169.302 274.21 169.302 274.21C169.302 274.21 188.332 268.68 191.32 265.128C194.308 261.576 197.184 262.807 197.184 262.807C197.184 262.807 188.659 240.907 186.115 232.713C183.967 225.813 183.127 220.237 181.633 218.463C181.41 218.167 181.087 217.962 180.724 217.885C178.659 217.564 158.524 225.87 157.29 226.384H157.231" stroke="black" stroke-width="0.980065" stroke-linecap="round" stroke-linejoin="round"/>
<path d="M158.821 227.976C158.821 227.976 157.423 228.339 155.324 228.984C150.048 230.474 144.966 232.58 140.182 235.257C136.958 237.209 133.892 239.411 131.012 241.842" stroke="black" stroke-width="0.980065" stroke-linecap="round" stroke-linejoin="round"/>
<path d="M183.288 217.35C186.313 220.841 188.7 224.838 190.338 229.158C192.888 236.098 210.367 252.184 215.653 277.038C215.653 277.038 184.411 279.009 169.603 284.032C154.795 289.056 146.214 286.18 146.214 286.18C146.214 286.18 147.123 257.734 143.712 250.6C140.301 243.466 140.305 240.871 140.305 240.871L133.692 244.621" stroke="black" stroke-width="0.980065" stroke-linecap="round" stroke-linejoin="round"/>
<path d="M191.335 56.1359H218.677V70.8329" stroke="black" stroke-width="0.980065" stroke-linecap="round" stroke-linejoin="round"/>
<path d="M137.971 56.1359H150.156" stroke="black" stroke-width="0.980065" stroke-linecap="round" stroke-linejoin="round"/>
<path d="M43.0568 158.488V56.1359H64.9073" stroke="black" stroke-width="0.980065" stroke-linecap="round" stroke-linejoin="round"/>
<path d="M182.275 73.1399L180.282 78.6584L145.282 66.4184L156.21 61.2269" stroke="black" stroke-width="0.980065" stroke-linecap="round" stroke-linejoin="round"/>
<path d="M181.78 49.0739L192.894 43.7909L183.297 70.3154" stroke="black" stroke-width="0.980065" stroke-linecap="round" stroke-linejoin="round"/>
<path d="M94.4992 74.9564C86.7787 56.9564 94.3777 47.2889 102.394 41.9834C116.018 32.9729 148.696 45.3269 156.217 61.2269" stroke="black" stroke-width="0.980065" stroke-linecap="round" stroke-linejoin="round"/>
<path d="M117.887 8.28906C87.9473 15.1021 63.8678 48.7606 95.6318 78.6586C116.099 97.9156 149.356 69.2566 128.723 43.7911" stroke="black" stroke-width="0.980065" stroke-linecap="round" stroke-linejoin="round"/>
<path d="M181.78 49.0738C181.78 49.0738 174.709 29.9578 152.713 14.4703C143.838 8.35173 132.962 5.85304 122.307 7.4848" stroke="black" stroke-width="0.980065" stroke-linecap="round" stroke-linejoin="round"/>
<path d="M95.1793 48.7379C95.1793 53.5244 102.522 59.7374 109.534 58.8614C116.547 57.9854 118.21 51.5444 114.708 49.9409" stroke="black" stroke-width="0.980065" stroke-linecap="round" stroke-linejoin="round"/>
<path d="M71.1067 129.379L93.4027 113.938C93.4027 113.938 86.0992 99.7589 87.5257 89.3999C87.9521 85.9941 88.8001 82.6545 90.0502 79.4579" stroke="black" stroke-width="0.980065" stroke-linecap="round" stroke-linejoin="round"/>
<path d="M78.0104 45.3359C71.6849 53.3339 58.6994 72.5864 58.6094 95.9534C58.4909 128.463 67.6499 131.778 67.6499 131.778" stroke="black" stroke-width="0.980065" stroke-linecap="round" stroke-linejoin="round"/>
<path d="M78.7063 234.417C78.7063 234.417 80.7178 234.616 83.9473 234.952C96.5233 236.256 127.548 239.58 129.687 240.856L129.837 240.952C130.248 241.214 130.641 241.504 131.013 241.819C132.002 242.66 132.906 243.595 133.713 244.612C135.474 246.758 136.799 249.226 137.613 251.88C138.976 256.671 143.122 263.166 143.727 264.597C144.717 266.935 141.505 269.088 138.813 265.197C136.804 262.299 136.047 260.229 134.925 259.239C134.545 258.897 134.07 258.678 133.563 258.612" stroke="black" stroke-width="0.980065" stroke-linecap="round" stroke-linejoin="round"/>
<path d="M130.05 286.174H129.996C127.461 285.088 126.921 274.311 127.017 271.186C127.113 268.062 126.343 268.411 124.527 265.636C122.71 262.861 121.377 255.69 119.854 253.786C118.332 251.883 84.051 255.939 72.234 254.482C69.1455 254.1 57.4785 253.051 55.1895 249.286C50.766 242.019 65.907 214.824 65.907 214.824" stroke="black" stroke-width="0.980065" stroke-linecap="round" stroke-linejoin="round"/>
<path d="M89.5063 227.236L83.9473 234.952" stroke="black" stroke-width="0.980065" stroke-linecap="round" stroke-linejoin="round"/>
<path d="M268.677 128.595H272.137L267.595 132.882H256.869H250.882H242.784H236.734H220.243H188.061L183.52 128.595H202.99H225.535H246.786H268.677Z" stroke="black" stroke-width="0.980065" stroke-linecap="round" stroke-linejoin="round"/>
<path d="M189 205.077C189 205.077 206.944 219.978 215.673 222.072C224.401 224.166 223.975 223.92 226.119 223.92C228.262 223.92 230.338 218.52 230.851 216.12C232.56 207.587 232.56 198.8 230.851 190.267C228.703 179.082 225.574 161.872 225.574 161.872" stroke="black" stroke-width="0.980065" stroke-linecap="round" stroke-linejoin="round"/>
<path d="M212.141 207.92C211.709 203.615 213.641 197.805 213.862 193.069C214.082 188.334 212.572 161.881 212.572 161.881C212.572 161.881 211.522 155.832 212.527 152.44C213.532 149.049 216.529 146.949 217.069 144.951C217.609 142.953 218.518 140.259 218.119 138.561C217.397 135.509 218.732 132.938 220.244 132.938C220.922 132.938 221.635 133.45 222.211 134.668C224.936 140.409 222.211 144.074 222.211 144.074" stroke="black" stroke-width="0.980065" stroke-linecap="round" stroke-linejoin="round"/>
<path d="M213.862 193.072L202.094 185.08" stroke="black" stroke-width="0.980065" stroke-linecap="round" stroke-linejoin="round"/>
<path d="M224.162 162.616L225.152 161.835C227.833 159.714 235.145 153.901 236.767 152.22C237.94 150.644 238.981 148.973 239.878 147.225C241.19 144.66 242.828 142.275 244.751 140.13C247.475 137.713 251.876 132.93 251.876 132.93H250.873C249.636 132.887 248.397 132.952 247.171 133.125C244.548 134.589 242.211 136.514 240.271 138.807C237.802 141.295 235.151 143.596 232.342 145.692" stroke="black" stroke-width="0.980065" stroke-linecap="round" stroke-linejoin="round"/>
<path d="M229.009 141.066C228.894 141.327 228.813 141.602 228.769 141.883C228.437 143.723 228.004 145.542 227.47 147.333C227.47 147.333 217.804 151.924 217.074 155.349" stroke="black" stroke-width="0.980065" stroke-linecap="round" stroke-linejoin="round"/>
<path d="M231.78 147.315C231.78 147.315 231.948 146.616 232.185 145.665C232.607 143.902 233.247 141.255 233.438 140.415C233.738 139.116 236.853 133.738 236.738 132.948H233.438C232.616 134.941 229.854 138.984 229.014 141.069" stroke="black" stroke-width="0.980065" stroke-linecap="round" stroke-linejoin="round"/>
<path d="M239.887 147.234C239.887 147.234 246.873 141.48 249.142 140.725C252.39 139.268 255.414 137.358 258.126 135.052C258.663 134.394 258.126 133.585 256.86 133.585C255.818 133.65 254.814 133.995 253.953 134.584C250.737 136.569 244.752 140.134 244.752 140.134" stroke="black" stroke-width="0.980065" stroke-linecap="round" stroke-linejoin="round"/>
<path d="M220.48 144.972C221.12 144.85 221.745 144.661 222.346 144.408C222.85 144.213 223.463 143.958 224.191 143.605C226.652 142.428 228.886 141.142 229.027 141.066" stroke="black" stroke-width="0.980065" stroke-linecap="round" stroke-linejoin="round"/>
<path d="M233.437 140.407C233.437 140.407 240.214 134.985 242.784 132.94" stroke="black" stroke-width="0.980065" stroke-linecap="round" stroke-linejoin="round"/>
<path d="M224.172 93.2054L225.535 128.595" stroke="black" stroke-width="0.980065" stroke-linecap="round" stroke-linejoin="round"/>
<path d="M247.898 99.7364L247.944 98.5694L248.149 93.2054" stroke="black" stroke-width="0.980065" stroke-linecap="round" stroke-linejoin="round"/>
<path d="M246.786 128.595L247.122 119.91" stroke="black" stroke-width="0.980065" stroke-linecap="round" stroke-linejoin="round"/>
<path d="M249.162 91.548V93.2055H248.148H224.172H222.837V90.381H233.229H236.712H241.099H245.578H249.162V91.548Z" stroke="black" stroke-width="0.980065" stroke-linecap="round" stroke-linejoin="round"/>
<path d="M247.899 99.7363C246.466 99.2994 244.955 99.1759 243.471 99.374C241.986 99.5722 240.561 100.087 239.292 100.885C238.024 101.682 236.942 102.743 236.12 103.995C235.298 105.248 234.755 106.662 234.527 108.143C234.3 109.624 234.394 111.136 234.802 112.577C235.211 114.019 235.925 115.355 236.895 116.496C237.866 117.637 239.071 118.556 240.428 119.191C241.785 119.825 243.263 120.161 244.761 120.174C245.556 120.174 246.348 120.082 247.122 119.901L247.899 99.7363Z" stroke="black" stroke-width="0.980065" stroke-linecap="round" stroke-linejoin="round"/>
<path d="M245.578 90.3615C246.807 87.906 248.829 85.9372 251.317 84.7738C253.804 83.6105 256.611 83.3207 259.284 83.9514C261.956 84.582 264.338 86.0962 266.043 88.2489C267.748 90.4015 268.676 93.0665 268.678 95.8125V128.513" stroke="black" stroke-width="0.980065" stroke-linecap="round" stroke-linejoin="round"/>
<path d="M233.229 90.3809L233.997 83.6669L234.396 80.2019L237.865 80.2709L237.475 83.6954L236.712 90.3809" stroke="black" stroke-width="0.980065" stroke-linecap="round" stroke-linejoin="round"/>
<path d="M234.637 80.271H237.865H241.099H244.929V83.6955H241.023H237.475H234.219" stroke="black" stroke-width="0.980065" stroke-linecap="round" stroke-linejoin="round"/>
<path d="M203.172 104.814C203.172 104.814 204.103 101.026 204.411 99.2639C204.718 97.5014 201.468 95.1764 201.468 92.5379V75.6464H209.526C209.526 75.6464 208.231 88.9634 209.526 93.2054C210.003 94.7669 212.155 99.6554 212.076 102.742C212.027 103.561 212.027 104.381 212.076 105.199" stroke="black" stroke-width="0.980065" stroke-linecap="round" stroke-linejoin="round"/>
<path d="M209.526 75.6464H239.574C240.331 77.0652 240.847 78.6002 241.1 80.1884" stroke="black" stroke-width="0.980065" stroke-linecap="round" stroke-linejoin="round"/>
<path d="M241.023 83.7C240.865 85.9268 240.891 88.1628 241.1 90.3855" stroke="black" stroke-width="0.980065" stroke-linecap="round" stroke-linejoin="round"/>
<path d="M209.898 123.244L221.175 120.097V124.57" stroke="black" stroke-width="0.980065" stroke-linecap="round" stroke-linejoin="round"/>
<path d="M209.498 124.57V123.244V121.213" stroke="black" stroke-width="0.980065" stroke-linecap="round" stroke-linejoin="round"/>
<path d="M209.498 117.376V121.213C210.244 121.153 210.947 120.841 211.492 120.329C212.037 119.816 212.392 119.134 212.498 118.393C212.922 118.956 213.471 119.413 214.101 119.728C214.732 120.043 215.427 120.208 216.131 120.21C216.762 120.331 217.415 120.212 217.962 119.876C218.509 119.539 218.911 119.011 219.088 118.393C219.286 118.801 219.581 119.153 219.947 119.42C220.313 119.687 220.739 119.861 221.188 119.925C221.749 119.919 222.293 119.731 222.737 119.388C225.094 117.738 222.437 117.376 222.437 117.376" stroke="black" stroke-width="0.980065" stroke-linecap="round" stroke-linejoin="round"/>
<path d="M209.498 117.376H222.437C222.44 114.118 221.149 110.992 218.848 108.686C216.547 106.379 213.424 105.081 210.166 105.076H209.498V117.376Z" stroke="black" stroke-width="0.980065" stroke-linecap="round" stroke-linejoin="round"/>
<path d="M209.498 124.57V128.449H220.135C220.586 128.449 221.019 128.269 221.339 127.95C221.658 127.63 221.837 127.197 221.837 126.745V124.57H209.498Z" stroke="black" stroke-width="0.980065" stroke-linecap="round" stroke-linejoin="round"/>
<path d="M192.676 108.928C192.676 108.928 206.41 121.782 209.476 128.458C209.476 128.458 206.591 128.553 202.967 128.553C199.646 128.553 195.7 128.472 192.788 128.167C186.685 127.527 188.615 113.179 192.653 108.937C195.341 106.113 199.597 105.154 203.153 104.899C205.262 104.749 207.38 104.809 209.476 105.078" stroke="black" stroke-width="0.980065" stroke-linecap="round" stroke-linejoin="round"/>
<path d="M188.303 217.131H200.955" stroke="black" stroke-width="0.980065" stroke-linecap="round" stroke-linejoin="round"/>
<path d="M103.462 217.131H112.656" stroke="black" stroke-width="0.980065" stroke-linecap="round" stroke-linejoin="round"/>
<path d="M43.0568 172.431V217.131H60.0023" stroke="black" stroke-width="0.980065" stroke-linecap="round" stroke-linejoin="round"/>
<path d="M129.205 292.05C129.3 290.801 129.591 288.698 130 286.145C131.59 276.153 134.923 259.268 134.923 259.268" stroke="black" stroke-width="0.980065" stroke-linecap="round" stroke-linejoin="round"/>
<path d="M215.67 277.027C216.789 279.635 217.491 282.403 217.751 285.229" stroke="black" stroke-width="0.980065" stroke-linecap="round" stroke-linejoin="round"/>
<path d="M248.353 98.5829L250.118 100.099L252.626 102.252L253.244 102.784C253.509 103.016 253.795 103.222 254.098 103.401C255.192 104.046 256.47 104.31 257.731 104.151C258.696 104.036 259.616 103.674 260.401 103.101C260.551 102.997 260.683 102.883 260.819 102.765L262.273 101.49L264.844 99.2189L268.699 95.8259" stroke="black" stroke-width="0.980065" stroke-linecap="round" stroke-linejoin="round"/>
<path d="M252.627 102.371V102.252V91.548V91.0935H254.248H255.183V103.28" stroke="black" stroke-width="0.980065" stroke-linecap="round" stroke-linejoin="round"/>
<path d="M257.708 104.187V104.151V89.34V88.8225H260.266V93.4545V102.825" stroke="black" stroke-width="0.980065" stroke-linecap="round" stroke-linejoin="round"/>
<path d="M262.228 101.461V93.4545V91.548H264.784V99.192" stroke="black" stroke-width="0.980065" stroke-linecap="round" stroke-linejoin="round"/>
<path d="M250.277 99.918V91.548H252.626" stroke="black" stroke-width="0.980065" stroke-linecap="round" stroke-linejoin="round"/>
<path d="M254.248 91.0933V89.3398H257.463" stroke="black" stroke-width="0.980065" stroke-linecap="round" stroke-linejoin="round"/>
<path d="M260.266 93.4543H262.228" stroke="black" stroke-width="0.980065" stroke-linecap="round" stroke-linejoin="round"/>
<path d="M132.82 121.455C133.236 121.443 133.651 121.399 134.061 121.323L134.211 121.291C134.683 121.185 135.162 121.109 135.645 121.063C136.81 121.028 137.965 121.289 139.002 121.822C139.17 121.891 139.338 121.972 139.519 122.055L139.851 122.214" stroke="black" stroke-width="0.980065" stroke-linecap="round" stroke-linejoin="round"/>
<path d="M148.934 125.924C150.56 125.751 150.734 125.043 152.617 125.574C152.917 125.661 153.262 125.778 153.667 125.933C154.072 126.087 154.538 126.287 155.074 126.533" stroke="black" stroke-width="0.980065" stroke-linecap="round" stroke-linejoin="round"/>
<path d="M182.533 201.343C182.002 202.665 181.633 203.5 181.633 203.5C181.633 203.5 185.375 211.9 184.748 214.401C184.459 215.468 183.965 216.469 183.295 217.348C183.029 217.726 182.728 218.078 182.395 218.398" stroke="black" stroke-width="0.980065" stroke-linecap="round" stroke-linejoin="round"/>
<path d="M175.789 172.113C175.789 172.113 186.69 179.63 185.586 190.494C185.029 194.225 184.003 197.87 182.533 201.344" stroke="#81F8F8" stroke-width="0.980065" stroke-linecap="round" stroke-linejoin="round"/>
<path d="M107.368 205.527C109.664 204.706 112.009 204.029 114.39 203.5" stroke="#81F8F8" stroke-width="0.980065" stroke-linecap="round" stroke-linejoin="round"/>
</svg>
