<svg width="40" height="40" viewBox="0 0 40 40" fill="none" xmlns="http://www.w3.org/2000/svg">
<path d="M13.75 13.75V10.625C13.75 9.7962 14.0792 9.00134 14.6653 8.41529C15.2513 7.82924 16.0462 7.5 16.875 7.5H33.125C33.9538 7.5 34.7487 7.82924 35.3347 8.41529C35.9208 9.00134 36.25 9.7962 36.25 10.625V29.375C36.25 30.2038 35.9208 30.9987 35.3347 31.5847C34.7487 32.1708 33.9538 32.5 33.125 32.5H16.875C16.0462 32.5 15.2513 32.1708 14.6653 31.5847C14.0792 30.9987 13.75 30.2038 13.75 29.375V26.25" stroke="white" stroke-width="1.875" stroke-linecap="round" stroke-linejoin="round"/>
<path d="M21.25 26.25L27.5 20L21.25 13.75M3.75 20H26.25" stroke="white" stroke-width="1.875" stroke-linecap="round" stroke-linejoin="round"/>
</svg>
