<svg width="200" height="200" viewBox="0 0 200 200" fill="none" xmlns="http://www.w3.org/2000/svg">
<path d="M129.291 51.7261C129.291 51.7261 119.303 77.2144 158.101 100.694C192.558 121.546 157.38 156.48 137.447 162.293C111.625 169.823 82.8433 147.14 69.7621 165.799C56.6809 184.458 16.9221 151.079 34.9171 121.938C57.3019 85.6878 30.6251 85.1278 26.1588 69.3378C22.9533 58.0054 44.5309 26.7734 69.9245 36.5601C91.2928 44.7952 95.1039 35.9296 100.228 30.7086C107.617 23.1785 134.925 28.3737 129.291 51.7261Z" fill="#DEE9FF"/>
<path d="M85.6949 135.907C79.2432 135.614 71.9117 127.892 75.1376 125.839C78.3635 123.786 77.9724 119.485 76.7994 118.899C69.5657 116.064 67.8061 109.71 66.2421 101.597C64.6781 93.4832 65.5578 67.6767 65.5578 67.6767L74.6488 63.0823L99.7713 61.616L106.907 73.4441C106.907 73.4441 104.291 80.5058 104.072 87.5713C105.785 86.2028 108.776 84.3181 111.012 85.6632C112.459 86.5312 113.331 87.888 113.702 89.4051C114.183 91.3718 113.82 93.6162 112.772 95.4384C112.045 96.7052 111.192 97.9684 110.011 98.9384C108.341 100.311 106.011 101.089 102.418 100.456C102.563 102.383 106.32 102.466 106.32 104.432C106.32 106.289 106.25 109.124 106.32 110.2C106.907 118.997 111.697 122.028 114.14 124.96C116.584 127.893 92.1466 136.201 85.6949 135.907Z" fill="#A2BDFF"/>
<path d="M67.0255 99.5431C70.966 99.5431 74.1604 96.0697 74.1604 91.7849C74.1604 87.5002 70.966 84.0267 67.0255 84.0267C63.085 84.0267 59.8906 87.5002 59.8906 91.7849C59.8906 96.0697 63.085 99.5431 67.0255 99.5431Z" fill="#0E84E5"/>
<path d="M67.0251 98.0055C70.2098 98.0055 72.7915 95.2205 72.7915 91.785C72.7915 88.3495 70.2098 85.5645 67.0251 85.5645C63.8405 85.5645 61.2589 88.3495 61.2589 91.785C61.2589 95.2205 63.8405 98.0055 67.0251 98.0055Z" fill="#D4E5FF"/>
<path d="M85.8419 100.13C89.6481 100.13 92.7336 96.891 92.7336 92.8959C92.7336 88.9009 89.6481 85.6622 85.8419 85.6622C82.0358 85.6622 78.9503 88.9009 78.9503 92.8959C78.9503 96.891 82.0358 100.13 85.8419 100.13Z" fill="#0E84E5"/>
<path d="M85.8415 99.0057C88.8714 99.0057 91.3276 96.2704 91.3276 92.8961C91.3276 89.5219 88.8714 86.7865 85.8415 86.7865C82.8117 86.7865 80.3554 89.5219 80.3554 92.8961C80.3554 96.2704 82.8117 99.0057 85.8415 99.0057Z" fill="#D4E5FF"/>
<path d="M73.8169 89.4043C73.8169 89.4043 77.361 88.0572 79.6952 90.5988C79.6952 91.0388 79.3411 91.785 79.3411 91.785C79.3411 91.785 76.2106 89.328 73.8169 91.185C73.4271 90.4163 73.1922 89.5828 73.8169 89.4043Z" fill="#0E84E5"/>
<path d="M92.1536 91.0085L103.964 86.7865L103.851 87.8317L92.5311 92.5617L92.1536 91.0085Z" fill="#0E84E5"/>
<path d="M44.1775 143.053C43.9168 142.345 43.8145 141.589 43.8776 140.837C43.9407 140.085 44.1678 139.357 44.5428 138.702L47.5715 133.366C47.5715 133.366 47.9625 131.281 56.8254 130.042C65.6883 128.804 74.2146 126.577 75.1378 125.839C75.1378 125.839 90.7988 139.292 113.858 124.631C113.858 124.631 132.681 135.256 136.982 135.647C139.509 135.877 141.473 140.851 142.664 144.917C142.862 145.592 142.919 146.3 142.831 146.998C142.744 147.695 142.514 148.368 142.156 148.973C141.798 149.578 141.32 150.104 140.751 150.517C140.182 150.929 139.534 151.221 138.847 151.373C119.817 155.606 53.6414 168.336 44.1775 143.053Z" fill="#0E84E5"/>
<path d="M110.012 98.9373C107.779 104.251 106.254 106.487 104.464 106.288C102.595 106.081 102.004 103.058 102.129 100.4C105.887 101.131 108.299 100.345 110.012 98.9373Z" fill="#418DF9"/>
<path d="M113.75 89.2792C113.735 89.3222 113.719 89.3652 113.703 89.4044C113.332 87.8872 112.46 86.5304 111.013 85.6624C108.718 84.2824 105.625 86.3036 103.936 87.6839C104.257 81.5294 103.717 74.5655 100.358 73.0523C94.4933 70.4129 94.2548 70.9995 90.6106 71.195C87.1892 71.3787 78.802 71.9066 77.3788 71.0816C78.3172 71.9616 82.7474 75.7385 89.8129 76.0826C90.6106 76.6691 90.0944 77.1579 89.3129 77.0601C88.5314 76.9623 77.8758 76.7669 69.8601 66.6983C69.8601 66.6983 65.211 75.3944 65.3126 83.2183C65.3126 83.2183 62.3326 77.3531 64.1904 68.9463C65.3126 62.6902 68.1983 63.2763 68.1983 63.2763C68.1983 63.2763 66.2424 49.2983 79.6345 50.5691C83.5445 51.0579 90.1918 56.8253 94.6884 56.7275C99.185 56.6297 103.291 56.9231 103.291 56.9231C103.291 56.9231 109.645 55.9455 110.72 64.5478C110.766 66.2795 112.017 67.0599 115.412 67.4804C118.912 67.9137 118.345 76.9624 113.75 89.2792Z" fill="#418DF9"/>
<path d="M145.722 163.615C154.711 163.615 161.998 156.328 161.998 147.339C161.998 138.35 154.711 131.063 145.722 131.063C136.733 131.063 129.446 138.35 129.446 147.339C129.446 156.328 136.733 163.615 145.722 163.615Z" fill="#418DF9" stroke="white" stroke-width="15" stroke-miterlimit="10"/>
<path d="M151.993 145.976H147.358C147.322 145.976 147.287 145.969 147.254 145.955C147.221 145.942 147.191 145.921 147.165 145.896C147.14 145.871 147.12 145.841 147.106 145.808C147.092 145.775 147.085 145.739 147.085 145.703V141.069C147.082 140.709 146.937 140.366 146.682 140.112C146.427 139.859 146.082 139.717 145.722 139.717C145.363 139.717 145.018 139.859 144.762 140.112C144.507 140.366 144.362 140.709 144.359 141.069V145.703C144.359 145.776 144.33 145.845 144.279 145.896C144.228 145.947 144.159 145.976 144.087 145.976H139.452C139.09 145.976 138.744 146.12 138.488 146.375C138.232 146.631 138.089 146.978 138.089 147.339C138.089 147.701 138.232 148.047 138.488 148.303C138.744 148.559 139.09 148.702 139.452 148.702H144.087C144.122 148.702 144.158 148.709 144.191 148.723C144.224 148.737 144.254 148.757 144.279 148.782C144.305 148.807 144.325 148.837 144.338 148.871C144.352 148.904 144.359 148.939 144.359 148.975V153.61C144.362 153.969 144.507 154.313 144.762 154.566C145.018 154.819 145.363 154.961 145.722 154.961C146.082 154.961 146.427 154.819 146.682 154.566C146.937 154.313 147.082 153.969 147.085 153.61V148.975C147.085 148.939 147.092 148.904 147.106 148.871C147.12 148.837 147.14 148.807 147.165 148.782C147.191 148.757 147.221 148.737 147.254 148.723C147.287 148.709 147.322 148.702 147.358 148.702H151.993C152.354 148.702 152.701 148.559 152.957 148.303C153.212 148.047 153.356 147.701 153.356 147.339C153.356 146.978 153.212 146.631 152.957 146.375C152.701 146.12 152.354 145.976 151.993 145.976Z" fill="white"/>
</svg>
