<svg width="200" height="200" viewBox="0 0 200 200" fill="none" xmlns="http://www.w3.org/2000/svg">
<path d="M132.231 31.5054C132.231 31.5054 108.224 61.9146 69.8127 43.7754C31.4012 25.6362 -7.00993 74.7184 26.0662 104.594C59.1423 134.47 26.7749 150.886 49.2462 169.196C74.7862 190.006 97.0212 147.807 117.294 157.41C162.037 178.604 195.184 170.214 187.715 145.673C174.604 102.595 157.839 99.7931 170.643 77.3859C183.447 54.9787 155.189 8.38997 132.231 31.5054Z" fill="#DEE9FF"/>
<path d="M129.805 87.0991C129.805 87.0991 154.238 85.5125 156.142 61.3968C153.921 59.8102 150.748 50.2909 156.142 49.339C161.537 48.3871 165.344 49.339 165.344 49.339C165.344 49.339 175.181 56.9544 162.806 62.666C162.488 65.8392 162.171 94.0799 136.786 106.455C111.401 118.83 129.805 87.0991 129.805 87.0991Z" fill="#699CFF"/>
<path d="M170.153 33.8504L160.357 32.0655C159.814 31.9665 159.293 32.3267 159.194 32.87L155.665 52.24C155.566 52.7833 155.926 53.304 156.469 53.4031L166.265 55.188C166.808 55.287 167.329 54.9268 167.428 54.3835L170.957 35.0135C171.056 34.4702 170.696 33.9494 170.153 33.8504Z" fill="#0E84E5"/>
<path d="M142.092 104.602C142.092 118.043 136.139 130.101 126.721 138.288C118.615 145.324 108.237 149.192 97.5031 149.178C81.6502 149.178 67.7393 140.915 59.8319 128.451C55.5659 121.707 53.1875 113.942 52.9448 105.966C52.7021 97.9903 54.6039 90.0952 58.4518 83.1046C62.2998 76.1139 67.953 70.2837 74.8218 66.2222C81.6906 62.1606 89.5233 60.0165 97.5031 60.0133C118.179 60.0133 135.581 74.0893 140.607 93.1914C141.6 96.9134 142.099 100.75 142.092 104.602Z" fill="#A2BDFF"/>
<path d="M126.721 138.288C118.615 145.324 108.237 149.192 97.5031 149.178C81.6502 149.178 67.7393 140.915 59.8319 128.451C66.7874 122.752 70.7093 123.361 73.324 124.339C76.1798 125.418 77.7663 130.253 86.0165 125.494C94.2667 120.734 100.93 132.157 104.103 134.061C116.796 133.147 123.408 135.851 126.721 138.288Z" fill="#0E84E5"/>
<path d="M140.607 93.1914C121.759 97.6592 123.091 86.9341 121.238 80.4355C119.334 73.772 118.065 75.9931 106.324 85.1955C94.5838 94.3979 93.3144 79.4839 93.0989 76.9455C92.8704 74.407 92.3627 73.4555 86.3338 74.2039C80.3049 74.9523 78.7183 70.2819 73.6413 73.4551C71.5344 74.7751 68.6659 74.1785 66.0385 73.0235C70.1684 68.8903 75.0739 65.6133 80.4734 63.3807C85.873 61.1481 91.6602 60.0038 97.5031 60.0135C118.179 60.0133 135.581 74.0893 140.607 93.1914Z" fill="#0E84E5"/>
<path d="M59.6418 56.6626C59.4377 57.3517 59.4426 58.086 59.6558 58.7723C59.869 59.4587 60.2809 60.0665 60.8395 60.5188C61.3981 60.9711 62.0783 61.2476 62.794 61.3133C63.5097 61.379 64.2289 61.231 64.8605 60.8881C65.4921 60.5451 66.0079 60.0225 66.3425 59.3864C66.6772 58.7503 66.8157 58.0293 66.7405 57.3145C66.6654 56.5997 66.38 55.9232 65.9204 55.3706C65.4608 54.818 64.8476 54.4141 64.1585 54.21C63.2343 53.9364 62.2393 54.0411 61.3923 54.501C60.5453 54.961 59.9156 55.7385 59.6418 56.6626Z" fill="#699CFF"/>
<path d="M57.7759 47.8417C56.4797 48.5409 55.3352 49.4904 54.4085 50.6351C53.4819 51.7799 52.7916 53.0971 52.3776 54.5105C52.2972 54.7786 52.2704 55.06 52.2989 55.3385C52.3275 55.617 52.4107 55.8872 52.5439 56.1334C52.677 56.3797 52.8575 56.5973 53.0749 56.7736C53.2923 56.95 53.5424 57.0817 53.8109 57.1612C54.0793 57.2407 54.3608 57.2664 54.6392 57.2368C54.9176 57.2073 55.1874 57.1231 55.4332 56.989C55.679 56.855 55.8959 56.6737 56.0714 56.4557C56.247 56.2376 56.3778 55.987 56.4563 55.7183C56.7156 54.8423 57.1448 54.026 57.7196 53.316C58.2944 52.606 59.0034 52.0162 59.8062 51.5802C60.609 51.1442 61.4898 50.8707 62.3983 50.7752C63.3068 50.6797 64.2252 50.7642 65.1011 51.0237C65.3693 51.1042 65.6507 51.1309 65.9292 51.1024C66.2077 51.0738 66.4778 50.9906 66.7241 50.8575C66.9703 50.7243 67.1879 50.5438 67.3642 50.3264C67.5406 50.109 67.6723 49.8589 67.7518 49.5904C67.8313 49.322 67.857 49.0405 67.8275 48.7621C67.7979 48.4837 67.7137 48.2139 67.5797 47.9681C67.4456 47.7223 67.2644 47.5054 67.0463 47.3299C66.8282 47.1543 66.5776 47.0235 66.3089 46.945C64.898 46.5226 63.4173 46.3844 61.9526 46.5383C60.4878 46.6922 59.0682 47.1352 57.7759 47.8417Z" fill="#699CFF"/>
<path d="M54.4334 41.6866C52.3273 42.8229 50.4675 44.3656 48.9616 46.2255C47.4558 48.0855 46.3338 50.2256 45.6607 52.5221C45.5005 53.063 45.5618 53.6453 45.8309 54.141C46.1001 54.6367 46.5552 55.0052 47.0961 55.1654C47.637 55.3256 48.2193 55.2643 48.715 54.9951C49.2107 54.7259 49.5792 54.2709 49.7394 53.73C50.2598 51.972 51.1214 50.3338 52.275 48.9088C53.4286 47.4839 54.8516 46.3001 56.4628 45.4252C58.0739 44.5502 59.8416 44.0012 61.6649 43.8095C63.4883 43.6178 65.3315 43.7872 67.0894 44.3079C67.3575 44.3884 67.6389 44.4151 67.9174 44.3866C68.1959 44.358 68.4661 44.2748 68.7123 44.1417C68.9586 44.0085 69.1761 43.828 69.3525 43.6106C69.5289 43.3932 69.6606 43.1431 69.7401 42.8746C69.8196 42.6062 69.8453 42.3247 69.8157 42.0463C69.7862 41.7679 69.702 41.4981 69.5679 41.2523C69.4339 41.0065 69.2526 40.7896 69.0346 40.6141C68.8165 40.4385 68.5659 40.3077 68.2972 40.2292C66.0048 39.5432 63.599 39.3188 61.2193 39.569C58.8395 39.8191 56.5331 40.5389 54.4334 41.6866Z" fill="#699CFF"/>
<path d="M70.2915 33.4984C67.1141 32.5572 63.7824 32.2511 60.4866 32.5976C57.1908 32.9441 53.9956 33.9365 51.0834 35.518C48.1712 37.0995 45.5991 39.2392 43.5139 41.8148C41.4287 44.3905 39.8713 47.3517 38.9306 50.5293C38.8502 50.7974 38.8234 51.0788 38.852 51.3573C38.8805 51.6358 38.9637 51.906 39.0969 52.1522C39.23 52.3985 39.4105 52.6161 39.6279 52.7924C39.8453 52.9688 40.0954 53.1005 40.3639 53.18C40.6323 53.2595 40.9138 53.2852 41.1922 53.2556C41.4706 53.2261 41.7404 53.1419 41.9862 53.0078C42.232 52.8738 42.4489 52.6925 42.6245 52.4745C42.8 52.2564 42.9308 52.0058 43.0093 51.7371C43.7913 49.0952 45.0861 46.6332 46.8197 44.4918C48.5533 42.3504 50.6918 40.5714 53.113 39.2566C55.5342 37.9417 58.1907 37.1167 60.9308 36.8287C63.6709 36.5406 66.4409 36.7952 69.0826 37.5778C69.6227 37.7352 70.2031 37.6722 70.6969 37.4027C71.1907 37.1332 71.5576 36.6791 71.7175 36.1398C71.8773 35.6004 71.817 35.0197 71.5498 34.5247C71.2825 34.0297 70.8301 33.6607 70.2915 33.4984Z" fill="#699CFF"/>
</svg>
