<svg width="200" height="200" viewBox="0 0 200 200" fill="none" xmlns="http://www.w3.org/2000/svg">
<path d="M164.641 78.1607C164.641 78.1607 141.925 94.5131 162.226 136.2C180.256 173.222 130.664 183.716 110.318 177.653C83.9622 169.798 71.8232 134.35 50.2378 143.121C28.6524 151.892 13.0178 101.169 44.6368 86.1206C83.97 67.401 61.3674 52.1236 66.2894 36.0838C69.822 24.5719 105.679 9.71381 122.062 32.2052C135.848 51.1309 144.039 45.6299 151.336 43.9874C161.859 41.6186 182.433 61.2277 164.641 78.1607Z" fill="#DEE9FF"/>
<path d="M164.913 92.763L164.758 93.7316C164.628 94.5385 164.183 95.2609 163.521 95.7398C162.859 96.2187 162.033 96.4149 161.226 96.2852L161.156 96.2739C160.476 96.1647 159.779 96.2862 159.177 96.6191C158.574 96.952 158.1 97.4771 157.831 98.1106L135.979 149.505C135.348 150.99 134.238 152.222 132.826 153.003C131.414 153.784 129.781 154.069 128.188 153.813L67.2446 144.021C65.6158 143.763 64.125 142.954 63.0214 141.729C61.9179 140.503 61.2685 138.936 61.182 137.289L58.1557 82.1826C58.1172 81.4802 57.8394 80.8121 57.3686 80.2893C56.8977 79.7666 56.2622 79.4207 55.5676 79.3091C55.1681 79.2449 54.7851 79.1027 54.4405 78.8904C54.096 78.6782 53.7966 78.4002 53.5595 78.0723C53.3223 77.7444 53.1521 77.373 53.0585 76.9793C52.9649 76.5856 52.9498 76.1773 53.014 75.7777L53.1696 74.8092C53.2338 74.4097 53.3761 74.0267 53.5883 73.6821C53.8005 73.3375 54.0785 73.0381 54.4064 72.801C54.7343 72.5639 55.1057 72.3937 55.4994 72.3001C55.8931 72.2065 56.3014 72.1913 56.7009 72.2555L82.5169 76.4033C82.9134 76.4671 83.3199 76.4148 83.6874 76.2529C84.0548 76.091 84.3677 75.8263 84.5882 75.4907L102.619 48.055C102.857 47.6901 103.197 47.402 103.595 47.2255C103.994 47.049 104.435 46.9916 104.866 47.0603C105.178 47.1087 105.477 47.2242 105.74 47.3989C105.989 47.5618 106.204 47.7722 106.372 48.018C106.539 48.2639 106.657 48.5403 106.717 48.8316C106.778 49.1229 106.781 49.4233 106.725 49.7156C106.67 50.008 106.557 50.2865 106.394 50.5353L90.5017 74.7119C90.3107 75.0025 90.1955 75.3363 90.1666 75.6828C90.1376 76.0294 90.1959 76.3776 90.3361 76.6959C90.4763 77.0141 90.6939 77.2922 90.9691 77.5048C91.2444 77.7173 91.5684 77.8576 91.9117 77.9128L126.271 83.4328C126.614 83.488 126.966 83.4563 127.294 83.3406C127.622 83.225 127.916 83.029 128.149 82.7705C128.382 82.5121 128.546 82.1995 128.627 81.8612C128.708 81.5229 128.703 81.1698 128.612 80.8339L121.08 52.895C120.928 52.3147 121.011 51.6978 121.312 51.1784C121.612 50.659 122.105 50.2791 122.684 50.1212C122.989 50.0379 123.309 50.0216 123.621 50.0737C124.051 50.1433 124.452 50.336 124.775 50.6285C125.099 50.921 125.33 51.3008 125.443 51.7221L133.972 83.4251C134.076 83.8129 134.29 84.1623 134.588 84.4311C134.887 84.7 135.256 84.877 135.653 84.9407L162.36 89.2316C162.759 89.2958 163.142 89.438 163.487 89.6502C163.831 89.8625 164.131 90.1405 164.368 90.4684C164.605 90.7963 164.775 91.1677 164.869 91.5614C164.962 91.9552 164.978 92.3635 164.913 92.763Z" fill="#418DF9"/>
<path d="M84.0201 85.2139L77.2901 84.1326C77.2356 84.1238 77.1843 84.1609 77.1755 84.2155L69.1545 134.136C69.1458 134.19 69.1829 134.241 69.2374 134.25L75.9674 135.332C76.022 135.34 76.0733 135.303 76.082 135.249L84.103 85.3285C84.1117 85.274 84.0746 85.2227 84.0201 85.2139Z" fill="#DEE9FF"/>
<path d="M139.731 94.0061L133.001 92.9247C132.947 92.916 132.896 92.9531 132.887 93.0076L124.866 142.928C124.857 142.982 124.894 143.034 124.949 143.042L131.679 144.124C131.733 144.132 131.785 144.095 131.793 144.041L139.814 94.1207C139.823 94.0661 139.786 94.0148 139.731 94.0061Z" fill="#DEE9FF"/>
<path d="M97.8791 87.4555L91.1514 86.3717C91.0969 86.3629 91.0456 86.4 91.0368 86.4545L82.9977 136.358C82.9889 136.412 83.026 136.463 83.0805 136.472L89.8082 137.556C89.8627 137.565 89.914 137.528 89.9228 137.473L97.9619 87.5701C97.9707 87.5156 97.9336 87.4643 97.8791 87.4555Z" fill="#DEE9FF"/>
<path d="M111.888 89.5322L105.158 88.4509C105.104 88.4421 105.052 88.4792 105.044 88.5337L97.0227 138.454C97.0139 138.508 97.051 138.56 97.1055 138.568L103.836 139.65C103.89 139.659 103.941 139.621 103.95 139.567L111.971 89.6468C111.98 89.5923 111.943 89.541 111.888 89.5322Z" fill="#DEE9FF"/>
<path d="M125.81 91.7691L119.08 90.6878C119.025 90.679 118.974 90.7161 118.965 90.7706L110.944 140.691C110.936 140.745 110.973 140.797 111.027 140.805L117.757 141.887C117.812 141.895 117.863 141.858 117.872 141.804L125.893 91.8837C125.902 91.8292 125.865 91.7779 125.81 91.7691Z" fill="#DEE9FF"/>
</svg>
