<svg width="200" height="200" viewBox="0 0 200 200" fill="none" xmlns="http://www.w3.org/2000/svg">
<path d="M167.505 84.1083C167.505 84.1083 142.871 98.1902 158.927 142.367C173.186 181.601 122.078 186.932 102.207 178.665C76.4668 167.957 67.98 130.934 45.29 137.493C22.6 144.051 12.2051 91.258 45.676 79.4327C87.3126 64.7227 66.1416 46.9279 72.8015 31.2778C77.5815 20.0456 115.304 8.86154 129.441 33.2703C141.337 53.8103 150.177 49.1303 157.707 48.2471C168.567 46.9728 187.234 68.9199 167.505 84.1083Z" fill="#DEE9FF"/>
<path d="M104.026 81.088C104.026 81.088 65.1356 124.772 64.6862 129.616C64.6862 129.616 66.4429 130.395 68.4022 132.666C70.6702 135.295 73.3882 136.298 74.7492 135.558C76.7101 134.492 76.5417 133.024 76.5417 133.024L106.556 143.896C106.556 143.896 117.156 140.573 138.653 118.165L144.371 109.995L104.026 81.088Z" fill="#0E84E5"/>
<path d="M59.4594 87.3984C59.4594 87.3984 64.246 90.8321 69.9665 87.5952L87.9582 77.2685C87.9582 77.2685 94.084 72.7475 100.384 77.0964C100.384 77.0964 94.6601 90.9993 106.452 93.3785C106.452 93.3785 117.96 98.6526 124.049 104.067C127.111 106.791 133.659 111.411 136.773 114.02C137.608 114.719 139.318 115.764 140.185 116.812C141.39 118.267 143.691 121.441 139.998 124.519C139.998 124.519 137.537 127.41 132.606 124.367C128.022 121.539 120.032 114.979 115.189 111.927C114.926 111.762 113.726 111.517 115.4 113.151C117.465 115.164 127.11 122.293 127.11 122.293C127.11 122.293 130.718 124.798 131.575 126.07C132.328 127.185 133.487 129.634 131.329 132.294C131.329 132.294 128.265 136.332 123.012 133.123L110.952 124.704C110.952 124.704 108.388 123.049 110.45 125.465C110.45 125.465 122.689 134.065 123.171 135.373C124.543 139.103 121.888 143.901 115.923 141.585L102.105 134.03C102.105 134.03 100.843 133.845 101.876 134.852C101.876 134.852 114.697 141.469 115.585 142.195C116.747 143.146 113.926 147.627 108.082 145.832C99.7455 143.273 82.8963 138.666 74.7487 135.557C71.8821 134.464 65.9935 131.542 63.7239 130.169C63.7239 130.169 54.6199 124.439 42.1532 124.201L51.1349 85.9178L59.4594 87.3984Z" fill="#699CFF"/>
<path d="M73.3851 138.138C73.3851 138.138 76.0177 134.66 77.6451 133.402C80.9466 130.851 86.9035 133.324 87.1929 136.45C87.1929 136.45 88.4771 139.522 83.1516 144.052C82.167 144.889 79.0385 146.879 74.464 143.12C74.4639 143.12 71.7347 140.61 73.3851 138.138Z" fill="#0E84E5"/>
<path d="M78.6611 107.226C78.6611 107.226 86.2892 113.267 94.1857 95.2948C94.1857 95.2948 98.3873 96.7588 104.915 92.9733L106.275 90.8583C106.275 90.8583 93.0175 92.2693 93.076 92.53C93.1345 92.7907 78.6611 107.226 78.6611 107.226Z" fill="#0E84E5"/>
<path d="M84.7287 144.939C84.6349 142.633 87.8681 138.402 89.2832 136.908C90.9506 135.148 97.5165 133.466 98.2793 140.455C98.2793 140.455 97.8723 145.354 94.225 148.147C92.4911 149.475 84.9272 149.829 84.7287 144.939Z" fill="#0E84E5"/>
<path d="M99.446 141.451C100.563 139.674 106.102 138.826 106.226 143.929C106.273 145.862 105.266 149.048 102.396 150.311C100.31 151.228 94.8026 149.734 95.8495 147.497C96.5684 145.958 96.92 145.467 99.446 141.451Z" fill="#0E84E5"/>
<path d="M63.5981 133.581C64.0794 132.523 64.8747 131.509 66.4628 130.229C67.4237 129.455 70.1237 129.155 71.7474 130.169C72.9128 130.897 75.2102 132.604 74.6953 134.122C73.7158 137.006 72.0553 140.914 68.4602 139.785C68.46 139.784 61.4523 138.297 63.5981 133.581Z" fill="#0E84E5"/>
<path d="M58.0238 83.6312L50.6863 131.331L27.1254 126.796L37.5673 78.2048L58.0238 83.6312Z" fill="#0E84E5"/>
<path d="M66.1926 131.974C66.1926 131.974 65.0407 135.242 67.086 136.615C67.086 136.615 69.718 139.774 72.976 134.556C73.5189 133.687 72.305 132.152 70.1547 131.578C70.1548 131.578 68.1176 130.794 66.1926 131.974Z" fill="#D4E5FF"/>
<path d="M76.6191 137.851C76.6191 137.851 77.9601 134.849 79.0991 134.388C80.2721 133.913 83.7961 133.836 85.2768 137.298C85.5315 137.893 84.6117 139.137 84.1977 139.795C83.4346 141.012 81.4643 142.833 79.1737 141.582C79.1735 141.582 76.2432 140.524 76.6191 137.851Z" fill="#D4E5FF"/>
<path d="M88.61 140.42C88.9282 139.548 90.1631 137.959 91.2871 137.846C93.1359 137.662 97.4053 139.033 96.2771 141.767C96.2771 141.767 95.3084 144.085 93.2298 144.625C93.2298 144.625 89.6249 145.918 88.2914 142.563C88.0908 142.06 88.4255 140.929 88.61 140.42Z" fill="#D4E5FF"/>
<path d="M98.3989 145.662C98.9313 146.99 101.214 148.362 102.608 147.097C103.173 146.584 104.336 144.87 104.4 144.111C104.506 142.826 101.979 140.114 99.7643 142.64C99.2417 143.236 98.104 144.926 98.3989 145.662Z" fill="#D4E5FF"/>
<path d="M109.238 75.8583C109.238 75.8583 101.528 73.4269 95.6312 79.3476L85.7468 85.3997C85.7468 85.3997 81.531 86.7975 80.2268 92.4381L75.7368 101.774C75.7368 101.774 72.1093 108.18 82.6881 107.302C82.6881 107.302 88.7428 104.743 93.55 95.0209L93.5162 93.7799C93.5162 93.7799 94.2013 95.3109 97.6953 94.6961C97.6953 94.6961 101.304 93.4471 106.295 91.7943C106.295 91.7943 107.105 92.7802 111.899 95.413C111.899 95.413 123.62 101.546 126.345 104.816L140.388 115.504C140.388 115.504 142.568 114.633 147.993 106.197L160.095 101.895L147.398 67.254C147.398 67.254 128.066 74.8249 122.39 75.3909L109.238 75.8583Z" fill="#208AF2"/>
<path d="M138.949 68.0965L155.674 107.469L173.473 100.561L155.989 60.7092L138.949 68.0965Z" fill="#699CFF"/>
<path d="M77.9669 97.1364C77.9669 97.1364 82.2157 95.5282 83.4685 98.4695C83.4685 98.4695 82.1777 103.714 80.7254 104.876C79.6027 105.776 75.8754 106.144 75.1424 104.225C75.1424 104.225 74.6813 102.249 77.9669 97.1364Z" fill="#D4E5FF"/>
<path d="M116.276 97.8252C116.276 97.8252 124.18 101.072 132.164 94.6761C132.164 94.6761 126.679 102.067 119.297 99.6097L116.276 97.8252Z" fill="#0E84E5"/>
<path d="M42.7069 122.143C42.7585 122.66 42.6557 123.18 42.4116 123.639C42.1674 124.097 41.7928 124.472 41.3351 124.718C40.8774 124.963 40.3573 125.067 39.8404 125.017C39.3235 124.967 38.8332 124.765 38.4313 124.436C38.0295 124.107 37.7342 123.666 37.5829 123.169C37.4315 122.672 37.4309 122.142 37.5811 121.645C37.7312 121.148 38.0255 120.706 38.4265 120.376C38.8276 120.046 39.3175 119.843 39.8342 119.791C40.527 119.722 41.2187 119.931 41.7574 120.372C42.2961 120.813 42.6377 121.45 42.7069 122.143Z" fill="white"/>
<path d="M164.856 96.7278C164.908 97.2444 164.805 97.7647 164.56 98.2228C164.316 98.681 163.942 99.0564 163.484 99.3017C163.026 99.547 162.506 99.6511 161.99 99.6008C161.473 99.5505 160.983 99.3481 160.581 99.0192C160.179 98.6903 159.884 98.2497 159.733 97.7531C159.581 97.2565 159.581 96.7261 159.731 96.2291C159.881 95.7321 160.175 95.2907 160.576 94.9609C160.977 94.631 161.467 94.4274 161.983 94.3759C162.326 94.3417 162.673 94.3753 163.003 94.475C163.333 94.5747 163.64 94.7384 163.907 94.9568C164.174 95.1752 164.395 95.444 164.558 95.7479C164.721 96.0517 164.822 96.3847 164.856 96.7278Z" fill="white"/>
</svg>
