<svg width="258" height="235" viewBox="0 0 258 235" fill="none" xmlns="http://www.w3.org/2000/svg">
<path d="M189.462 152.118L213.033 149.661L226.02 62.2758L198.143 85.3743C189.948 149.135 191.649 136.175 189.462 152.118Z" fill="#81F8F8"/>
<path d="M61.3343 152.186L37.6688 149.567L24.6683 62.3298L52.5188 85.6038C60.3218 144.437 58.4183 130.248 61.3343 152.186Z" fill="#81F8F8"/>
<path d="M82.5968 43.835C84.2033 42.8495 88.9283 45.914 89.7383 49.856C90.0353 51.206 89.9813 53.5415 88.7528 54.1895C87.5243 54.8375 85.0403 53.15 83.8928 51.719C81.7193 49.0595 81.1793 44.7125 82.5968 43.835Z" fill="#81F8F8"/>
<path d="M134.018 10.0984C135.179 8.74844 138.919 9.55844 141.065 11.5834C142.834 13.2439 144.224 16.3759 142.982 17.8879C141.97 19.1434 139.54 18.8734 138.055 18.2389C134.545 16.7539 132.668 11.7049 134.018 10.0984Z" fill="#81F8F8"/>
<path d="M155.281 72.0905C156.793 72.3335 158.534 70.268 159.074 68.351C160.006 65.057 157.724 61.034 155.929 61.034C154.417 61.034 153.08 63.8825 152.864 66.1235C152.648 68.3645 153.553 71.8205 155.281 72.0905Z" fill="#81F8F8"/>
<path d="M118.466 34.7088C121.072 34.7088 123.151 37.8408 123.596 40.4328C124.393 45.2523 119.897 50.5983 116.846 50.0988C114.308 49.6803 112.459 45.2118 112.958 41.5533C113.35 38.6238 115.483 34.6683 118.466 34.7088Z" fill="#FFD997"/>
<path d="M92.1684 88.7629C90.3999 86.8729 91.8309 82.0129 94.7064 79.3939C97.0689 77.2744 101.389 75.7894 103.4 77.7199C105.412 79.6504 104.453 83.2819 102.941 85.5364C100.349 89.4244 94.1529 90.8959 92.1684 88.7629Z" fill="#FFD997"/>
<path d="M166.324 97.6458C164.488 95.9448 165.204 91.7733 167.053 89.2218C169.186 86.2923 173.736 84.2268 176.193 86.0628C178.245 87.6018 178.177 91.3413 176.976 93.7578C174.91 97.9158 168.633 99.7653 166.324 97.6458Z" fill="#FFD997"/>
<path d="M96.3534 110.687C95.0034 118.152 93.0729 126.401 90.9534 134.177C92.7937 135.097 94.7815 135.687 96.8259 135.918C99.4809 137.942 102.515 139.411 105.749 140.238C105.331 140.94 105.162 141.761 105.268 142.571C105.374 143.381 105.751 144.131 106.336 144.7C106.921 145.27 107.681 145.626 108.493 145.71C109.305 145.794 110.122 145.603 110.812 145.166C110.568 145.979 110.575 146.846 110.831 147.655C111.087 148.464 111.581 149.177 112.248 149.702C112.915 150.226 113.725 150.538 114.572 150.595C115.418 150.653 116.263 150.455 116.995 150.026C116.967 150.814 117.159 151.595 117.548 152.281C117.938 152.967 118.51 153.531 119.201 153.912C119.892 154.292 120.675 154.474 121.463 154.436C122.25 154.398 123.012 154.143 123.664 153.698C123.839 154.384 124.185 155.014 124.669 155.531C125.153 156.049 125.759 156.435 126.432 156.656C127.105 156.877 127.822 156.924 128.518 156.794C129.214 156.664 129.866 156.361 130.414 155.912C132.493 158.126 135.179 158.706 136.556 157.721C137.933 156.735 137.906 154.575 137.906 153.941C137.918 152.917 137.706 151.904 137.285 150.971C137.787 151.638 138.47 152.148 139.252 152.439C140.034 152.731 140.884 152.793 141.7 152.618C144.211 151.956 145.871 148.257 144.076 145.125C145.642 146.651 148.463 147.231 150.124 146.03C150.881 145.38 151.405 144.501 151.614 143.525C151.824 142.55 151.708 141.533 151.285 140.63C151.951 141.448 152.902 141.983 153.948 142.126C154.993 142.269 156.054 142.009 156.914 141.399C157.309 140.951 157.596 140.42 157.755 139.844C157.914 139.269 157.941 138.665 157.832 138.078C159.046 138.406 160.29 138.605 161.545 138.672C158.832 131.581 157.062 124.165 156.28 116.613C147.599 114.453 146.182 111.605 140.269 109.701C138.147 108.92 135.901 108.531 133.64 108.554C131.377 108.612 129.145 109.102 127.066 109.998C124.685 108.81 122.217 107.808 119.681 107.001C118.42 106.523 117.072 106.321 115.726 106.407C114.529 106.598 113.367 106.971 112.283 107.514C109.719 108.477 107.248 109.67 104.899 111.078L96.3534 110.687Z" fill="#FFD997"/>
<path d="M86.2015 138.065C85.8698 138.062 85.5489 138.182 85.2999 138.401C85.0509 138.62 84.8913 138.924 84.8515 139.253C84.8172 139.52 84.864 139.792 84.9857 140.033C85.1074 140.274 85.2984 140.473 85.5342 140.604C85.77 140.735 86.0397 140.793 86.3085 140.769C86.5773 140.745 86.8329 140.642 87.0422 140.472C87.2516 140.301 87.4052 140.072 87.4831 139.814C87.561 139.556 87.5597 139.28 87.4794 139.022C87.3991 138.765 87.2434 138.537 87.0325 138.369C86.8215 138.201 86.565 138.099 86.296 138.078L86.2015 138.065Z" fill="black"/>
<path d="M166.419 144.113C166.686 144.113 166.947 144.034 167.169 143.885C167.391 143.737 167.564 143.526 167.666 143.279C167.768 143.033 167.795 142.761 167.743 142.499C167.691 142.238 167.562 141.997 167.373 141.808C167.184 141.619 166.944 141.491 166.682 141.439C166.42 141.387 166.149 141.413 165.902 141.516C165.655 141.618 165.444 141.791 165.296 142.013C165.148 142.235 165.069 142.496 165.069 142.763C165.069 143.121 165.211 143.464 165.464 143.717C165.717 143.971 166.061 144.113 166.419 144.113Z" fill="black"/>
<path d="M79.3027 55.5394C79.2606 58.6068 78.175 61.5684 76.2247 63.9364C76.1795 63.9954 76.1502 64.0652 76.1399 64.1388C76.1295 64.2125 76.1383 64.2875 76.1655 64.3568C76.1926 64.426 76.2372 64.4871 76.2949 64.5341C76.3526 64.581 76.4214 64.6123 76.4947 64.6249C79.932 65.2435 83.4332 65.4295 86.9167 65.1784C89.6167 65.1784 92.4382 65.5294 92.6407 65.5294C92.7219 65.5284 92.8013 65.5052 92.8703 65.4624C92.9393 65.4196 92.9953 65.3587 93.0322 65.2864C96.9202 57.4969 97.7167 51.2194 95.3947 46.6564C92.8702 41.6749 87.3892 39.9064 85.9447 33.4399C85.5129 31.4197 85.5129 29.3311 85.9447 27.3109C85.961 27.242 85.9601 27.1702 85.9422 27.1018C85.9242 27.0333 85.8897 26.9703 85.8418 26.9183C85.7938 26.8663 85.7337 26.8269 85.6669 26.8036C85.6001 26.7802 85.5286 26.7736 85.4587 26.7844C80.0587 27.6484 78.4657 29.1334 75.2392 29.7544C72.5392 30.2674 72.0532 29.8219 71.7562 30.2134C70.717 31.6505 70.0576 33.3269 69.8392 35.0869C68.9077 43.0384 79.0462 47.2369 79.3027 55.5394ZM70.7032 35.1679C70.8954 33.6304 71.466 32.1647 72.3637 30.9019C77.7637 30.9019 78.8842 28.8499 84.9997 27.7564C84.6621 29.7035 84.7034 31.6974 85.1212 33.6289C86.6197 40.3789 92.1952 42.2554 94.5712 47.0479C96.7177 51.3004 95.9212 57.2269 92.3302 64.5979C85.2022 63.7879 83.2042 64.9624 77.2777 63.8824C79.1019 61.4615 80.0962 58.5166 80.1127 55.4854C79.9102 46.9129 69.8392 42.6199 70.7032 35.1679Z" fill="black"/>
<path d="M114.727 9.89589C121.328 9.80139 126.08 11.0569 128.848 14.0944C132.142 17.6854 130.778 21.3439 135.071 25.1914C137.844 27.5694 141.357 28.91 145.009 28.9838C148.661 29.0577 152.225 27.8603 155.092 25.5964C155.389 25.3669 155.537 23.8954 157.441 20.1964C158.08 19.0576 158.617 17.865 159.047 16.6324C159.447 15.3635 159.674 14.0467 159.722 12.7174C159.724 12.642 159.706 12.5675 159.67 12.5013C159.634 12.435 159.582 12.3794 159.517 12.3398C159.453 12.3002 159.38 12.2781 159.305 12.2757C159.229 12.2732 159.155 12.2905 159.088 12.3259C154.525 14.8099 150.799 15.4444 147.977 14.2159C142.577 11.8669 143.05 3.94239 136.853 0.99939C134.059 -0.35061 130.603 -0.35061 126.593 1.10739H126.485C120.316 5.25189 118.48 5.31939 114.416 9.20739C114.37 9.26918 114.342 9.34216 114.333 9.41875C114.325 9.49534 114.337 9.57276 114.369 9.64299C114.401 9.71322 114.451 9.7737 114.514 9.81817C114.577 9.86264 114.65 9.88947 114.727 9.89589ZM126.877 1.79589C130.643 0.44589 133.856 0.445889 136.435 1.66089C142.267 4.36089 141.835 12.3664 147.586 14.8909C150.502 16.2409 154.255 15.6469 158.75 13.3384C158.345 17.7124 156.563 18.7384 154.39 24.9349C152.052 26.7382 149.235 27.8134 146.29 28.0264C142.4 28.2354 138.573 26.9727 135.571 24.4894C133.877 22.9453 132.687 20.9274 132.155 18.6979C131.676 16.7653 130.752 14.9715 129.455 13.4599C126.134 9.81489 120.721 8.88339 115.834 8.95089C119.533 5.81889 120.937 5.85939 126.931 1.84989L126.877 1.79589Z" fill="black"/>
<path d="M152.608 47.8579C147.208 54.0004 152.972 64.4629 147.977 69.1069C145.979 70.9699 142.577 71.5099 138.001 70.6729C137.926 70.6622 137.849 70.6708 137.778 70.698C137.708 70.7251 137.645 70.7698 137.596 70.828C137.548 70.8861 137.515 70.9557 137.5 71.0301C137.486 71.1046 137.491 71.1814 137.515 71.2534C139.472 76.4374 141.565 78.7729 149.327 87.3724C149.375 87.4269 149.437 87.4681 149.505 87.4917C149.574 87.5154 149.647 87.5208 149.719 87.5074C156.685 86.3464 161.167 83.8489 163.057 80.0824C166.162 73.8724 160.762 67.5544 163.84 62.2489C165.635 59.1574 169.807 57.3349 176.219 56.8489C176.303 56.8401 176.382 56.8079 176.448 56.756C176.514 56.7041 176.564 56.6347 176.592 56.5557C176.62 56.4768 176.625 56.3914 176.607 56.3096C176.589 56.2277 176.548 56.1526 176.489 56.0929C170.576 50.4499 170.009 47.7094 164.69 44.2129C164.615 44.1935 164.536 44.1935 164.461 44.2129C158.966 43.9429 154.97 45.1849 152.608 47.8579ZM164.312 45.0094C169.172 48.2494 169.861 50.7874 175.193 56.0659C169.024 56.6869 164.947 58.6174 163.043 61.8169C159.749 67.4869 165.176 73.8319 162.233 79.6909C160.505 83.1604 156.307 85.4824 149.773 86.6164C141.97 77.9089 140.323 75.9109 138.568 71.6584C143.09 72.3469 146.438 71.6584 148.531 69.7414C153.931 64.7194 148.099 54.2569 153.229 48.4384C155.429 45.9949 159.155 44.8474 164.312 45.0094Z" fill="black"/>
<path d="M88.0102 54.7969C90.1972 54.7969 90.6022 51.8809 90.1702 49.7614C89.8126 48.417 89.1625 47.1682 88.2663 46.104C87.3702 45.0399 86.2502 44.1867 84.9862 43.6055C83.1502 42.809 81.7733 43.1599 81.4358 45.1039C81.2284 47.5883 81.9822 50.0575 83.5417 52.0024C84.5272 53.2174 86.4172 54.7969 88.0102 54.7969ZM82.2998 45.2524C82.4618 44.2804 82.8532 44.078 83.3527 44.078C85.2022 44.078 88.6717 46.778 89.3197 49.937C89.5762 51.1925 89.5222 53.2984 88.5502 53.8114C87.5782 54.3244 85.3237 52.8124 84.2167 51.4489C82.8135 49.7021 82.128 47.4865 82.2998 45.2524Z" fill="black"/>
<path d="M137.919 18.6439C139.553 19.3324 142.199 19.5889 143.319 18.1714C144.831 16.3219 143.117 12.9199 141.362 11.2594C139.807 9.82241 137.769 9.0225 135.651 9.01843C133.41 9.12643 132.776 10.7194 133.275 12.8929C133.578 14.1342 134.152 15.2933 134.955 16.2875C135.757 17.2816 136.77 18.0862 137.919 18.6439ZM134.369 10.3954C134.583 10.206 134.833 10.0626 135.105 9.97437C135.377 9.8861 135.664 9.85481 135.948 9.88243C137.738 9.97947 139.44 10.6898 140.768 11.8939C142.442 13.4734 143.657 16.3759 142.644 17.6179C141.632 18.8599 139.539 18.4009 138.23 17.8474C134.76 16.3759 133.289 11.6239 134.369 10.3954Z" fill="black"/>
<path d="M155.213 72.5224C157.117 72.8059 158.953 70.4029 159.493 68.4724C159.753 67.37 159.768 66.2237 159.534 65.1152C159.301 64.0067 158.826 62.9635 158.143 62.0599C157.901 61.6642 157.572 61.3286 157.181 61.0784C156.791 60.8281 156.349 60.6698 155.888 60.6154C153.971 60.6154 152.608 63.8554 152.392 66.0964C152.176 68.3374 153.053 72.1714 155.213 72.5224ZM153.296 66.1369C153.499 64.0174 154.754 61.4524 155.996 61.4524C157.346 61.4524 159.614 65.0839 158.696 68.2024C158.197 69.9169 156.631 71.8339 155.375 71.6314C154.12 71.4289 153.08 68.4724 153.296 66.1369Z" fill="black"/>
<path d="M123.502 34.4119C123.313 34.2094 123.502 34.2769 118.466 34.2769C115.186 34.2769 112.945 38.3269 112.499 41.4859C111.986 45.2119 113.849 50.7739 117.4 50.5579H121.868C121.959 50.5535 122.048 50.5256 122.125 50.4769C123.385 49.5955 124.436 48.4482 125.205 47.1158C125.973 45.7835 126.439 44.2987 126.57 42.7664C126.702 41.2341 126.495 39.6916 125.965 38.248C125.434 36.8044 124.594 35.4948 123.502 34.4119ZM113.363 41.6074C113.741 38.9074 115.672 35.1409 118.453 35.1409C120.734 35.1409 122.732 37.9489 123.164 40.5409C123.947 45.2254 119.533 50.1529 116.887 49.7074C114.686 49.3024 112.877 45.1714 113.363 41.6074Z" fill="black"/>
<path d="M106.222 80.5683C105.484 79.4916 104.672 78.4677 103.792 77.5038C101.645 75.1413 96.8122 76.9098 94.3417 79.0833C92.3472 80.8992 91.1127 83.4019 90.8857 86.0898C90.8197 86.6435 90.8735 87.2049 91.0435 87.736C91.2135 88.2671 91.4958 88.7554 91.8712 89.1678L93.8557 91.2333C94.1392 91.5168 94.1662 91.5033 94.2877 91.5168C101.389 91.9083 106.816 87.0888 106.222 80.5683ZM91.8172 86.1303C92.0506 83.6755 93.18 81.3926 94.9897 79.7178C97.1092 77.8143 101.227 76.2483 103.09 78.0303C104.656 79.5153 104.075 83.0523 102.577 85.2933C101.771 86.4288 100.731 87.378 99.5271 88.0768C98.323 88.7755 96.9828 89.2074 95.5972 89.3433C95.0498 89.4435 94.4871 89.423 93.9484 89.2831C93.4097 89.1432 92.9082 88.8873 92.4787 88.5333C92.2126 88.1977 92.0169 87.812 91.9032 87.3991C91.7896 86.9863 91.7603 86.5547 91.8172 86.1303Z" fill="black"/>
<path d="M179.918 89.4109C178.761 88.0229 177.507 86.7191 176.165 85.5094C173.33 83.7814 168.754 86.1574 166.715 88.9654C164.879 91.4899 164.15 95.4859 165.662 97.5244C165.851 97.7809 165.878 97.7944 168.362 100.346C168.511 100.494 168.686 100.494 169.388 100.494C175.868 100.494 180.971 95.8369 179.918 89.4109ZM167.417 89.4784C169.307 86.8729 173.641 84.6994 175.949 86.4139C177.758 87.7639 177.745 91.2604 176.597 93.5689C174.599 97.6189 168.646 99.1714 166.634 97.3219C164.974 95.8369 165.689 91.8544 167.404 89.4784H167.417Z" fill="black"/>
<path d="M117.252 42.1743V45.5088C116.982 45.5067 116.716 45.4516 116.469 45.3468C116.361 45.3014 116.24 45.3 116.131 45.3429C116.023 45.3858 115.935 45.4696 115.888 45.5763C115.866 45.6286 115.854 45.6848 115.854 45.7416C115.853 45.7984 115.864 45.8548 115.885 45.9074C115.906 45.9601 115.938 46.008 115.978 46.0485C116.018 46.089 116.065 46.1212 116.118 46.1433C116.475 46.2981 116.862 46.3763 117.252 46.3728V47.2368C117.25 47.2947 117.26 47.3523 117.28 47.4063C117.301 47.4603 117.333 47.5095 117.373 47.551C117.413 47.5926 117.462 47.6256 117.515 47.6482C117.568 47.6707 117.626 47.6823 117.684 47.6823C117.799 47.6824 117.911 47.6373 117.994 47.5566C118.077 47.476 118.126 47.3661 118.129 47.2503V46.2783C118.756 46.0783 119.284 45.6483 119.607 45.0748C119.93 44.5013 120.024 43.8268 119.871 43.1868C119.723 42.8017 119.49 42.4555 119.188 42.1747C118.886 41.8939 118.524 41.6859 118.129 41.5668V38.5968C118.308 38.6106 118.485 38.6469 118.656 38.7048C118.709 38.7267 118.766 38.7377 118.823 38.7373C118.88 38.7369 118.937 38.725 118.99 38.7024C119.043 38.6797 119.091 38.6468 119.131 38.6055C119.17 38.5642 119.202 38.5153 119.223 38.4618C119.26 38.354 119.255 38.2362 119.21 38.1314C119.166 38.0266 119.083 37.9422 118.98 37.8948C118.71 37.7964 118.429 37.7373 118.143 37.7193V37.1118C118.143 36.9972 118.097 36.8874 118.016 36.8063C117.935 36.7253 117.825 36.6798 117.711 36.6798C117.481 36.6798 117.279 36.8688 117.279 37.1118V37.8813C116.791 37.9913 116.356 38.2637 116.044 38.6538C115.732 39.0438 115.563 39.5284 115.563 40.0278C115.563 40.5272 115.732 41.0118 116.044 41.4019C116.356 41.7919 116.791 42.0643 117.279 42.1743H117.252ZM119.02 43.4298C119.091 43.803 119.036 44.189 118.865 44.5282C118.695 44.8674 118.417 45.1408 118.075 45.3063V42.6063C118.561 42.7953 118.926 43.0518 119.02 43.4298ZM117.306 38.7993V41.2158C116.914 41.0133 116.617 40.7973 116.536 40.4598C116.478 40.1375 116.521 39.8052 116.659 39.508C116.796 39.2109 117.022 38.9634 117.306 38.7993Z" fill="black"/>
<path d="M94.4365 86.2519L94.045 86.6839C94.0016 86.7232 93.9669 86.7711 93.9432 86.8246C93.9194 86.8781 93.9071 86.9359 93.9071 86.9944C93.9071 87.053 93.9194 87.1108 93.9432 87.1643C93.9669 87.2178 94.0016 87.2657 94.045 87.3049C94.1259 87.3849 94.2351 87.4298 94.3488 87.4298C94.4625 87.4298 94.5717 87.3849 94.6525 87.3049L95.1655 86.7379C95.6716 86.9537 96.2296 87.0175 96.7713 86.9216C97.3131 86.8257 97.8152 86.5743 98.2165 86.1979C98.4601 85.7603 98.5879 85.2678 98.5879 84.7669C98.5879 84.2661 98.4601 83.7736 98.2165 83.3359L100.363 80.9869C100.512 81.2081 100.617 81.4555 100.674 81.7159C100.686 81.7721 100.71 81.8252 100.743 81.8721C100.777 81.919 100.819 81.9586 100.869 81.9888C100.918 82.019 100.972 82.0391 101.029 82.0479C101.086 82.0567 101.144 82.054 101.2 82.0399C101.312 82.0112 101.408 81.9402 101.468 81.842C101.529 81.7439 101.549 81.6261 101.524 81.5134C101.422 81.0855 101.229 80.6848 100.957 80.3389L101.416 79.8394C101.497 79.7563 101.542 79.6449 101.542 79.5289C101.542 79.413 101.497 79.3016 101.416 79.2184C101.335 79.1385 101.226 79.0936 101.112 79.0936C100.999 79.0936 100.889 79.1385 100.809 79.2184L100.336 79.7449C99.868 79.4881 99.3271 79.3963 98.8005 79.4845C98.2739 79.5727 97.7924 79.8356 97.4335 80.2309C97.1813 80.6502 97.0403 81.1269 97.0238 81.6159C97.0072 82.1049 97.1157 82.5901 97.339 83.0254L95.044 85.5364C94.8065 85.3571 94.6127 85.1264 94.477 84.8614C94.4178 84.7633 94.324 84.6909 94.2141 84.6584C94.1042 84.6259 93.9861 84.6357 93.883 84.6859C93.7825 84.7429 93.7079 84.8366 93.6752 84.9475C93.6424 85.0583 93.654 85.1775 93.7075 85.2799C93.8785 85.6522 94.1271 85.9836 94.4365 86.2519ZM97.5685 85.6174C97.3311 85.8178 97.0483 85.9569 96.7448 86.0228C96.4412 86.0887 96.1261 86.0793 95.827 85.9954L97.5685 84.0649C97.7845 84.6994 97.8655 85.2664 97.5685 85.6174ZM98.0545 80.8655C98.2576 80.646 98.5212 80.4917 98.8119 80.422C99.1027 80.3523 99.4076 80.3704 99.688 80.474L98.0005 82.3369C97.8988 82.1028 97.852 81.8484 97.8637 81.5934C97.8754 81.3383 97.9453 81.0893 98.068 80.8655H98.0545Z" fill="black"/>
<path d="M174.397 88.79L174.707 88.3715C174.777 88.2802 174.808 88.1649 174.792 88.051C174.777 87.937 174.717 87.8338 174.626 87.764C174.535 87.6942 174.419 87.6635 174.306 87.6787C174.192 87.6939 174.088 87.7537 174.019 87.845L173.6 88.385C173.16 88.2541 172.692 88.2506 172.25 88.3748C171.808 88.4991 171.41 88.746 171.103 89.087C170.873 89.5 170.753 89.9646 170.753 90.437C170.753 90.9094 170.873 91.374 171.103 91.787L169.388 94.0685C169.12 93.9222 168.9 93.7019 168.754 93.434C168.724 93.3851 168.686 93.3425 168.64 93.3086C168.595 93.2747 168.543 93.2501 168.487 93.2363C168.432 93.2225 168.375 93.2198 168.319 93.2282C168.262 93.2366 168.208 93.2561 168.16 93.2855C168.11 93.3135 168.066 93.3512 168.03 93.3964C167.995 93.4416 167.969 93.4933 167.954 93.5486C167.939 93.6038 167.935 93.6616 167.943 93.7184C167.95 93.7752 167.969 93.83 167.998 93.8795C168.21 94.2417 168.506 94.5474 168.862 94.7705L168.335 95.459C168.288 95.5524 168.275 95.6596 168.299 95.7616C168.322 95.8636 168.381 95.954 168.465 96.0168C168.549 96.0797 168.652 96.111 168.757 96.1053C168.861 96.0995 168.961 96.0571 169.037 95.9855L169.685 95.1215C170.097 95.2113 170.525 95.1899 170.926 95.0594C171.327 94.9289 171.686 94.694 171.967 94.379C172.181 94.013 172.302 93.5997 172.318 93.1758C172.335 92.7519 172.246 92.3306 172.061 91.949L173.884 89.5325C174.067 89.6686 174.222 89.838 174.343 90.032C174.372 90.0811 174.41 90.1239 174.456 90.1575C174.502 90.1912 174.555 90.2151 174.61 90.2277C174.666 90.2403 174.724 90.2415 174.78 90.231C174.836 90.2206 174.889 90.1988 174.937 90.167C174.985 90.1378 175.028 90.0993 175.062 90.0536C175.096 90.0079 175.12 89.956 175.134 89.9008C175.148 89.8456 175.151 89.7883 175.142 89.732C175.134 89.6758 175.114 89.6217 175.085 89.573C174.914 89.2662 174.679 88.9993 174.397 88.79ZM171.778 89.654C171.936 89.4815 172.131 89.347 172.348 89.2605C172.566 89.174 172.8 89.1378 173.033 89.1545L171.683 90.8825C171.606 90.6818 171.578 90.4656 171.602 90.2519C171.625 90.0382 171.699 89.8332 171.818 89.654H171.778ZM171.292 93.704C171.027 93.9877 170.666 94.1613 170.279 94.19L171.386 92.7185C171.456 92.8887 171.484 93.0732 171.467 93.2565C171.451 93.4398 171.391 93.6164 171.292 93.7715V93.704Z" fill="black"/>
<path d="M175.571 226.044C177.123 225.869 178.662 225.68 180.215 225.477C180.295 225.467 180.37 225.435 180.432 225.385C180.495 225.335 180.542 225.268 180.569 225.192C180.595 225.116 180.6 225.035 180.583 224.956C180.566 224.878 180.527 224.806 180.471 224.748C177.786 221.971 175.258 219.046 172.898 215.987C168.78 210.587 166.62 207.239 151.298 180.63C151.259 180.565 151.203 180.511 151.137 180.473C151.071 180.435 150.996 180.415 150.92 180.414C150.92 180.414 120.653 180.887 115.658 180.887C108.327 180.752 105.965 180.509 105.141 180.495C104.696 180.495 104.696 180.563 104.615 180.738C101.602 186.983 98.1654 193.013 94.328 198.788C90.953 203.823 88.01 207.549 82.664 214.313C75.428 223.493 72.998 226.085 72.2825 227.003C71.7965 227.624 72.1475 227.921 72.431 227.934L77.507 228.123L73.889 234.239C73.8468 234.303 73.8232 234.377 73.8205 234.454C73.8179 234.531 73.8364 234.607 73.874 234.674C73.9117 234.741 73.967 234.796 74.0339 234.833C74.1008 234.871 74.1768 234.89 74.2535 234.887C133.262 235.13 152.135 235.103 180.188 232.376C180.267 232.368 180.343 232.339 180.407 232.291C180.47 232.243 180.52 232.179 180.549 232.105C180.578 232.031 180.586 231.95 180.573 231.872C180.559 231.793 180.524 231.72 180.471 231.66L175.571 226.044ZM95.0435 199.193C98.8552 193.476 102.27 187.504 105.263 181.319C118.979 182.048 124.608 181.656 150.704 181.319C154.754 188.406 159.02 195.71 163.313 203C167.687 210.887 173.039 218.19 179.243 224.735C150.798 228.299 131.034 228.299 106.181 227.894C91.763 227.664 80.531 227.313 73.3625 227.043C78.8435 220.509 89.873 206.942 95.0435 199.193Z" fill="black"/>
<path d="M107.41 190.89C111.932 191.268 116.279 191.444 120.64 191.444H140.39C140.494 191.426 140.587 191.372 140.654 191.291C140.722 191.211 140.759 191.11 140.759 191.005C140.759 190.9 140.722 190.799 140.654 190.719C140.587 190.638 140.494 190.584 140.39 190.566C123.272 190.445 118.79 191.039 107.477 190.08C107.396 190.109 107.325 190.16 107.273 190.228C107.221 190.296 107.189 190.378 107.182 190.463C107.175 190.549 107.192 190.635 107.233 190.711C107.273 190.786 107.335 190.849 107.41 190.89Z" fill="black"/>
<path d="M102.293 199.652C115.793 200.232 123.623 199.395 141.97 199.058C142.026 199.056 142.082 199.043 142.134 199.02C142.186 198.997 142.232 198.963 142.271 198.922C142.31 198.88 142.34 198.832 142.361 198.779C142.381 198.726 142.39 198.669 142.388 198.612C142.376 198.501 142.324 198.398 142.242 198.321C142.161 198.245 142.054 198.2 141.943 198.194C124.474 198.518 115.442 199.355 102.334 198.788C102.219 198.788 102.109 198.833 102.028 198.914C101.947 198.995 101.902 199.105 101.902 199.22C101.902 199.334 101.947 199.444 102.028 199.525C102.109 199.606 102.219 199.652 102.334 199.652H102.293Z" fill="black"/>
<path d="M144.71 204.904C116.185 205.957 118.412 206.456 99.5661 206.254C99.4525 206.253 99.3431 206.297 99.2603 206.374C99.1774 206.452 99.1275 206.559 99.1206 206.672C99.1204 206.789 99.165 206.902 99.2454 206.987C99.3257 207.073 99.4356 207.124 99.5526 207.131C114.119 207.536 120.653 206.74 144.737 205.849C144.862 205.845 144.981 205.792 145.067 205.701C145.153 205.609 145.2 205.488 145.196 205.363C145.193 205.237 145.139 205.118 145.048 205.032C144.957 204.946 144.835 204.9 144.71 204.904Z" fill="black"/>
<path d="M161.963 214.637C161.227 214.332 160.41 214.28 159.641 214.488C158.642 214.785 158.399 215.474 157.414 216.122C156.428 216.77 155.092 217.161 154.889 216.972C154.687 216.783 154.957 215.879 155.051 215.541C155.213 214.961 155.348 214.515 154.93 214.313C154.133 213.935 153.823 215.663 152.041 217.215C150.542 218.565 148.247 219.51 147.343 218.781C146.762 218.309 146.776 217.121 146.911 216.486C147.26 215.96 147.571 215.41 147.842 214.839C147.877 214.747 147.88 214.646 147.851 214.552C147.823 214.458 147.764 214.376 147.683 214.319C147.603 214.262 147.507 214.233 147.408 214.237C147.31 214.241 147.216 214.277 147.14 214.34C146.647 214.828 146.293 215.438 146.114 216.108C145.909 216.395 145.688 216.669 145.453 216.932C143.887 218.7 141.403 219.956 140.552 219.348C140.368 219.142 140.233 218.895 140.158 218.629C140.083 218.362 140.07 218.082 140.12 217.809C140.456 217.444 140.768 217.056 141.052 216.648C141.778 215.724 142.277 214.642 142.51 213.489C142.486 213.356 142.414 213.236 142.307 213.152C141.632 212.679 140.512 214.151 140.107 214.866C139.66 215.657 139.376 216.529 139.27 217.431C137.326 219.456 134.666 220.779 133.64 220.05C133.073 219.659 132.911 218.579 133.154 216.864C133.434 215.191 134.318 213.678 135.638 212.612C135.718 212.531 135.763 212.422 135.763 212.308C135.763 212.194 135.718 212.085 135.638 212.004C135.564 211.914 135.458 211.856 135.341 211.844C135.225 211.831 135.109 211.864 135.017 211.937C133.533 213.139 132.543 214.845 132.236 216.729C132.115 217.593 131.791 219.875 133.073 220.779C134.693 221.913 137.663 220.05 139.216 218.646C139.715 221.873 143.698 219.996 145.966 217.674C146.303 221.63 151.366 219.767 153.958 216.405C153.715 218.552 156.05 218.106 157.886 216.864C158.259 216.61 158.607 216.321 158.926 216C159.177 215.701 159.503 215.473 159.871 215.339C160.453 215.189 161.069 215.232 161.626 215.46C161.679 215.482 161.736 215.492 161.793 215.492C161.85 215.491 161.907 215.479 161.959 215.456C162.012 215.434 162.06 215.401 162.1 215.36C162.14 215.319 162.171 215.271 162.193 215.217C162.214 215.164 162.224 215.107 162.224 215.05C162.223 214.993 162.211 214.936 162.188 214.884C162.166 214.831 162.133 214.783 162.092 214.743C162.051 214.703 162.003 214.672 161.95 214.65L161.963 214.637Z" fill="black"/>
<path d="M101.794 124.727C101.877 124.808 101.988 124.853 102.104 124.853C102.22 124.853 102.332 124.808 102.415 124.727C102.456 124.688 102.489 124.641 102.511 124.588C102.534 124.536 102.545 124.48 102.545 124.423C102.545 124.366 102.534 124.31 102.511 124.258C102.489 124.206 102.456 124.158 102.415 124.119C101.308 123.125 100.522 121.823 100.159 120.38C99.7962 118.938 99.8717 117.419 100.376 116.019C100.395 115.965 100.403 115.908 100.399 115.851C100.396 115.794 100.381 115.738 100.356 115.687C100.331 115.635 100.296 115.589 100.253 115.551C100.21 115.514 100.16 115.484 100.106 115.466C100.052 115.447 99.9949 115.439 99.9378 115.443C99.8807 115.446 99.8249 115.461 99.7735 115.486C99.7221 115.511 99.6762 115.546 99.6383 115.589C99.6004 115.632 99.5713 115.682 99.5527 115.736C98.9921 117.288 98.9058 118.971 99.3049 120.572C99.7039 122.173 100.57 123.62 101.794 124.727Z" fill="black"/>
<path d="M39.8287 89.8833C39.929 89.1181 40.2948 88.4124 40.8623 87.8893C41.4298 87.3662 42.1629 87.059 42.9337 87.0213C43.5012 87.0461 44.0515 87.2235 44.5266 87.5347C45.0018 87.8459 45.3843 88.2795 45.6337 88.7898C45.6856 88.8936 45.7767 88.9726 45.8868 89.0093C45.9969 89.046 46.1171 89.0375 46.221 88.9855C46.3248 88.9336 46.4038 88.8426 46.4405 88.7325C46.4772 88.6223 46.4686 88.5021 46.4167 88.3983C46.0884 87.7399 45.5868 87.1835 44.9661 86.7887C44.3453 86.3938 43.6287 86.1756 42.8932 86.1573C41.914 86.1949 40.979 86.5749 40.2513 87.2311C39.5235 87.8874 39.0491 88.7782 38.9107 89.7483C38.8928 89.87 38.924 89.9939 38.9974 90.0926C39.0709 90.1914 39.1805 90.2569 39.3022 90.2748C39.424 90.2927 39.5478 90.2615 39.6466 90.1881C39.7453 90.1147 39.8108 90.005 39.8287 89.8833Z" fill="black"/>
<path d="M49.2651 136.863C49.3212 136.772 49.3428 136.664 49.3258 136.559C49.3088 136.453 49.2544 136.357 49.1725 136.288C49.0906 136.22 48.9867 136.183 48.8798 136.184C48.7729 136.186 48.67 136.225 48.5901 136.296C48.0237 137.056 47.1969 137.58 46.2681 137.768C44.1756 138.051 41.2866 135.837 40.0446 131.598C40.0286 131.544 40.002 131.492 39.9662 131.448C39.9305 131.403 39.8862 131.366 39.8361 131.338C39.786 131.311 39.7309 131.293 39.674 131.287C39.6171 131.281 39.5595 131.286 39.5046 131.301C39.4496 131.317 39.3984 131.344 39.3537 131.38C39.309 131.416 39.2718 131.46 39.2443 131.51C39.2167 131.56 39.1992 131.615 39.1929 131.672C39.1867 131.729 39.1916 131.787 39.2076 131.841C40.7871 137.228 45.6741 141.102 49.2651 136.863Z" fill="black"/>
<path d="M200.546 93.3125C200.913 92.7123 201.398 92.1925 201.971 91.7842C202.544 91.3759 203.194 91.0876 203.881 90.9365C206.446 90.6125 209.807 93.2315 210.806 98.051C210.818 98.107 210.84 98.1601 210.872 98.2075C210.904 98.2548 210.945 98.2953 210.992 98.3267C211.04 98.3581 211.094 98.3797 211.15 98.3903C211.206 98.4009 211.263 98.4003 211.319 98.3885C211.376 98.379 211.43 98.3579 211.479 98.3264C211.527 98.2949 211.568 98.2538 211.6 98.2057C211.632 98.1575 211.653 98.1033 211.663 98.0465C211.673 97.9897 211.671 97.9314 211.657 97.8755C210.307 91.2605 203.921 86.954 199.831 92.813C199.798 92.8606 199.775 92.9143 199.764 92.9708C199.752 93.0274 199.752 93.0857 199.763 93.1424C199.775 93.199 199.797 93.2528 199.83 93.3006C199.862 93.3483 199.904 93.3891 199.952 93.4205C199.998 93.4535 200.05 93.477 200.105 93.4894C200.16 93.5019 200.217 93.5031 200.272 93.493C200.328 93.483 200.381 93.4618 200.428 93.4307C200.475 93.3997 200.515 93.3595 200.546 93.3125Z" fill="black"/>
<path d="M199.764 142.979C201.621 142.846 203.427 142.313 205.058 141.416C206.689 140.518 208.107 139.279 209.214 137.781C210.414 135.988 211.105 133.902 211.212 131.747C211.215 131.69 211.207 131.632 211.188 131.578C211.168 131.524 211.138 131.475 211.099 131.433C211.06 131.391 211.012 131.358 210.96 131.336C210.907 131.313 210.85 131.301 210.793 131.301C210.68 131.3 210.571 131.341 210.486 131.416C210.401 131.491 210.347 131.594 210.334 131.706C210.241 133.701 209.606 135.633 208.498 137.295C207.459 138.689 206.131 139.842 204.605 140.674C203.078 141.506 201.39 141.997 199.656 142.115C199.541 142.129 199.437 142.188 199.366 142.279C199.295 142.371 199.263 142.486 199.278 142.601C199.292 142.715 199.351 142.82 199.442 142.89C199.533 142.961 199.649 142.993 199.764 142.979Z" fill="black"/>
<path d="M256.868 172.287H240.668L226.898 134.123L238.481 55.6879C238.496 55.5954 238.48 55.5006 238.436 55.4178C238.393 55.3351 238.323 55.2687 238.238 55.2289C232.676 52.6504 230.854 51.7594 230.138 51.5164C229.774 51.3949 229.733 51.5164 229.625 51.5164L195.457 84.4699C195.281 84.6319 195.457 83.7409 193.405 99.6574C182.605 102.884 168.349 107.163 159.655 109.742C159.542 109.776 159.448 109.854 159.392 109.957C159.336 110.061 159.324 110.183 159.358 110.295L159.83 111.848L155.888 113.549C155.803 113.583 155.731 113.643 155.683 113.721C155.634 113.799 155.612 113.89 155.618 113.981L155.821 116.154C152.94 115.545 150.195 114.415 147.721 112.82C144.122 110.41 140.014 108.867 135.719 108.311C132.725 108.067 129.714 108.473 126.89 109.499C124.892 108.469 122.815 107.598 120.68 106.893C118.765 106.191 116.713 105.946 114.686 106.178C113.863 106.313 113.08 106.542 108.881 108.648C107.261 109.458 105.898 110.147 104.939 110.66L96.9202 110.39C96.9127 110.264 96.9127 110.138 96.9202 110.012C96.9336 109.911 96.913 109.808 96.8617 109.72C96.8104 109.632 96.7312 109.564 96.6367 109.526L92.3437 107.987C92.4922 107.325 92.6137 106.637 92.7487 106.016C92.7731 105.909 92.7541 105.796 92.696 105.702C92.6379 105.609 92.5453 105.542 92.4382 105.516C86.9572 103.937 63.4537 97.0924 56.5957 95.0674C55.0702 83.8759 55.2457 84.5239 55.0432 84.3754C26.2477 56.3899 21.7522 52.2319 20.9962 51.6109C20.7532 51.3949 20.6722 51.4084 20.4427 51.4894C19.8622 51.7054 18.1882 52.5289 12.3427 55.2424C12.2568 55.2818 12.1857 55.3475 12.1396 55.4301C12.0934 55.5126 12.0748 55.6076 12.0862 55.7014L23.7907 134.352L10.1152 172.287H0.368243C0.265074 172.306 0.171606 172.36 0.10426 172.44C0.0369151 172.52 0 172.621 0 172.726C0 172.831 0.0369151 172.932 0.10426 173.013C0.171606 173.093 0.265074 173.147 0.368243 173.165H9.81824L3.21674 191.471C0.665243 198.14 4.68824 203.837 9.81824 203.999C64.3312 206.051 60.6457 205.781 60.8347 205.673L68.5567 200.408C68.616 200.368 68.6643 200.313 68.6973 200.25C68.7303 200.186 68.7469 200.115 68.7457 200.043V196.938C68.7457 196.824 68.7002 196.714 68.6192 196.633C68.5382 196.552 68.4283 196.506 68.3137 196.506L23.8582 196.425C20.6317 196.425 17.4457 192.969 18.7957 188.46L24.3442 173.165H29.6632L31.5667 185.949C31.583 186.052 31.6355 186.145 31.7149 186.212C31.7942 186.279 31.895 186.315 31.9987 186.314L40.6792 185.652L68.0707 178.74C68.1758 178.715 68.2673 178.65 68.3273 178.56C68.3873 178.47 68.4114 178.361 68.3947 178.254L67.7197 173.165H182.942L182.2 178.322C182.19 178.43 182.218 178.538 182.28 178.627C182.341 178.715 182.433 178.78 182.537 178.808C209.348 185.328 210.118 185.558 210.266 185.558L218.906 186.219C219.008 186.217 219.105 186.18 219.182 186.113C219.258 186.047 219.309 185.955 219.325 185.855L221.201 173.138H226.601L232.136 188.406C232.464 189.36 232.559 190.379 232.413 191.377C232.268 192.375 231.886 193.323 231.299 194.144C230.806 194.825 230.164 195.386 229.423 195.783C228.682 196.181 227.86 196.405 227.02 196.439H182.618C182.502 196.455 182.396 196.511 182.317 196.597C182.238 196.683 182.191 196.795 182.186 196.911V200.016C182.188 200.087 182.206 200.157 182.239 200.22C182.272 200.283 182.318 200.338 182.375 200.381L190.111 205.646C190.286 205.767 186.695 206.024 241.114 203.972C246.19 203.783 250.199 198.113 247.648 191.457L241.046 173.138H256.868C256.959 173.11 257.038 173.053 257.094 172.977C257.151 172.9 257.181 172.808 257.181 172.713C257.181 172.618 257.151 172.525 257.094 172.449C257.038 172.372 256.959 172.316 256.868 172.287ZM201.005 137.187C202.617 136.409 204.037 135.284 205.163 133.893C214.478 118.679 208.633 95.8504 208.579 95.6209C208.565 95.5647 208.54 95.5119 208.504 95.4659C208.469 95.4199 208.425 95.3818 208.374 95.3539C208.323 95.3259 208.267 95.3089 208.209 95.3037C208.152 95.2986 208.094 95.3055 208.039 95.3239L196.996 98.5369L198.548 85.5499L225.427 63.3019L212.642 149.229L189.962 151.578L191.488 140.468L201.005 137.187ZM160.1 112.739L169.888 144.747L164.92 146.097C160.276 136.067 157.438 125.295 156.536 114.278L160.1 112.739ZM147.221 113.616C149.875 115.327 152.83 116.518 155.929 117.126C156.745 124.354 158.385 131.466 160.816 138.321C159.869 138.214 158.937 138.006 158.035 137.7C157.507 136.023 156.674 134.458 155.578 133.083C154.66 131.868 152.23 128.642 149.341 129.168C148.806 129.271 148.297 129.48 147.844 129.784C147.392 130.088 147.005 130.48 146.708 130.937C146.466 131.486 146.349 132.082 146.365 132.682C146.381 133.282 146.531 133.871 146.803 134.406C145.95 133.762 144.878 133.481 143.819 133.623C143.078 133.794 142.387 134.136 141.801 134.621C141.215 135.106 140.75 135.722 140.444 136.418C139.984 137.515 139.926 138.739 140.282 139.874C139.719 139.458 139.072 139.169 138.387 139.026C137.702 138.882 136.993 138.888 136.311 139.043C135.628 139.198 134.986 139.499 134.43 139.924C133.874 140.349 133.416 140.889 133.087 141.507C132.789 142.141 132.635 142.832 132.635 143.532C132.635 144.232 132.789 144.924 133.087 145.557C132.079 145.139 130.961 145.068 129.908 145.353C128.855 145.639 127.926 146.267 127.268 147.137C126.905 147.759 126.691 148.458 126.644 149.177C126.597 149.897 126.718 150.617 126.998 151.281C125.656 152.49 124.007 153.307 122.233 153.644C121.226 153.968 120.135 153.91 119.168 153.482C118.643 153.109 118.211 152.62 117.904 152.054C117.598 151.488 117.425 150.858 117.4 150.215C117.761 149.999 118.089 149.731 118.372 149.418C119.722 148.068 122.611 145.368 127.349 141.089C127.429 141.008 127.474 140.899 127.474 140.785C127.474 140.671 127.429 140.562 127.349 140.481C127.266 140.401 127.155 140.355 127.039 140.355C126.923 140.355 126.811 140.401 126.728 140.481C121.976 144.72 119.02 147.461 117.697 148.865C117.06 149.542 116.214 149.983 115.295 150.118C114.376 150.253 113.438 150.073 112.634 149.607C112.014 149.156 111.546 148.527 111.29 147.804C111.035 147.081 111.004 146.298 111.203 145.557C111.707 145.347 112.183 145.075 112.621 144.747C115.321 142.695 121.436 135.716 122.624 134.339C122.665 134.3 122.698 134.253 122.721 134.2C122.743 134.148 122.755 134.092 122.755 134.035C122.755 133.978 122.743 133.922 122.721 133.87C122.698 133.818 122.665 133.771 122.624 133.731C122.543 133.651 122.434 133.607 122.32 133.607C122.207 133.607 122.098 133.651 122.017 133.731C120.829 135.081 114.767 142.02 112.135 144.005C110.785 145.031 108.085 145.773 106.816 144.653C105.547 143.532 106.154 140.603 106.195 140.441C106.433 139.636 106.854 138.897 107.423 138.281C108.611 136.931 115.415 129.236 117.022 127.413C119.336 127.394 121.605 126.769 123.602 125.598C125.599 124.428 127.254 122.754 128.402 120.744C130.36 125.915 136.34 130.275 141.133 128.736C142.037 128.439 143.063 128.115 143.455 127.17C144.265 125.199 141.43 123.566 137.029 117.95C134.464 114.669 134.153 113.603 132.007 112.091C130.705 111.316 129.352 110.63 127.957 110.039C135.058 107.811 140.998 109.782 147.221 113.562V113.616ZM127.984 147.636C128.408 147.092 128.964 146.664 129.599 146.395C130.235 146.126 130.929 146.023 131.615 146.097C132.523 146.212 133.365 146.631 134.005 147.285C134.557 148.164 135.171 149.004 135.841 149.796C137.083 151.902 138.365 155.48 136.84 156.992C136.292 157.502 135.577 157.795 134.828 157.815C132.439 157.923 130.697 155.709 129.928 154.71C127.646 151.781 126.944 149.202 127.984 147.636ZM129.739 155.885C129.243 156.19 128.685 156.381 128.107 156.447C127.528 156.512 126.942 156.449 126.391 156.263C125.887 156.056 125.43 155.75 125.047 155.363C124.665 154.975 124.364 154.515 124.163 154.008C125.295 153.571 126.344 152.945 127.268 152.159C127.932 153.5 128.762 154.752 129.739 155.885ZM136.489 149.297C135.962 148.381 135.337 147.526 134.626 146.745C133.694 145.233 132.992 143.424 133.789 141.953C134.149 141.305 134.675 140.764 135.313 140.387C135.951 140.01 136.679 139.809 137.42 139.806C138.189 139.874 138.932 140.119 139.59 140.522C140.248 140.925 140.804 141.475 141.214 142.128C141.521 142.635 141.859 143.122 142.226 143.586C143.495 145.557 144.818 147.96 143.819 150.134C143.583 150.7 143.214 151.201 142.744 151.595C142.275 151.99 141.717 152.266 141.119 152.402C139.297 152.604 137.717 150.728 136.556 149.297H136.489ZM142.969 143.127C142.861 142.992 142.429 142.29 141.943 141.642C141.423 140.964 141.081 140.167 140.946 139.323C140.812 138.48 140.89 137.616 141.173 136.809C141.414 136.243 141.783 135.741 142.252 135.343C142.721 134.944 143.276 134.661 143.873 134.514C146.006 134.177 147.815 136.431 149.017 138.227C151.433 141.777 151.177 143.789 150.542 144.842C150.099 145.539 149.418 146.053 148.625 146.286C146.317 146.934 143.954 144.288 143.036 143.087L142.969 143.127ZM149.719 137.727C148.49 135.986 146.425 133.218 147.383 131.369C147.849 130.671 148.572 130.185 149.395 130.019C151.757 129.587 153.958 132.489 154.795 133.596C156.145 135.446 158.129 138.713 156.86 140.657C156.623 141.01 156.312 141.306 155.948 141.525C155.584 141.745 155.177 141.881 154.754 141.926C152.918 142.074 151.339 139.86 149.813 137.687L149.719 137.727ZM96.7042 111.254C105.56 111.551 105.034 111.564 105.182 111.483C106.154 110.97 107.545 110.255 109.232 109.418C114.794 106.718 115.267 106.34 120.41 107.73C122.614 108.476 124.761 109.378 126.836 110.43C128.445 111.111 130.009 111.891 131.521 112.766C134.221 114.71 133.708 115.817 140.336 123.093C142.172 125.118 143.036 126.036 142.672 126.792C142.307 127.548 141.673 127.602 140.849 127.872C137.758 128.871 134.585 126.873 132.965 125.591C131.037 124.006 129.627 121.881 128.915 119.489C128.89 119.407 128.84 119.335 128.773 119.281C128.706 119.228 128.625 119.195 128.54 119.188C128.454 119.181 128.369 119.199 128.294 119.241C128.219 119.282 128.158 119.345 128.119 119.421C127.042 121.591 125.388 123.422 123.34 124.713C117.589 128.223 111.19 125.591 109.84 125.037C109.788 125.012 109.733 124.997 109.675 124.994C109.618 124.991 109.561 124.999 109.507 125.017C109.453 125.036 109.403 125.066 109.361 125.104C109.318 125.142 109.284 125.188 109.259 125.24C109.213 125.346 109.21 125.466 109.25 125.574C109.29 125.682 109.371 125.771 109.475 125.82C111.482 126.703 113.631 127.22 115.82 127.346C114.47 128.952 107.909 136.35 106.735 137.66C106.154 138.254 105.696 138.955 105.385 139.725C102.23 138.843 99.2649 137.388 96.6367 135.432C94.7682 135.217 92.9456 134.706 91.2367 133.92C93.4649 126.469 95.2901 118.902 96.7042 111.254ZM92.1682 108.864L96.0022 110.214C94.0988 120.977 91.3912 131.582 87.9022 141.939L83.4337 140.832C86.9661 130.356 89.8826 119.682 92.1682 108.864ZM58.7827 136.121L60.8347 151.686L38.0467 149.175L25.2352 63.4369L52.1002 85.8604L52.9642 93.9604L41.7862 90.6529C41.7079 90.632 41.6254 90.6322 41.5471 90.6536C41.4688 90.6749 41.3976 90.7166 41.3407 90.7744C41.1922 90.9499 37.5202 95.0404 37.1017 107.15C36.7912 116.168 38.3707 124.565 44.7562 131.193C45.0262 131.517 57.1762 135.594 58.7827 136.121ZM67.8682 199.787L60.4432 204.836L9.81824 203.135C5.36324 202.946 1.71824 197.924 4.05374 191.781C6.90224 184.14 21.3472 143.829 24.1147 136.161L24.8707 141.183L6.91574 191.997C5.34974 197.397 7.29374 201.123 12.8422 201.447L59.4172 203.189C59.6062 203.189 58.9177 203.607 67.8142 197.789L67.8682 199.787ZM17.9182 188.163C17.5479 189.247 17.4428 190.403 17.612 191.535C17.7811 192.668 18.2195 193.743 18.8902 194.67C19.4562 195.471 20.1985 196.131 21.0598 196.599C21.9212 197.067 22.8787 197.331 23.8582 197.37H66.8017L59.2957 202.284L12.8827 200.556C7.88774 200.327 6.34874 197.073 7.75274 192.308L25.1137 143.087L27.8137 161.001C22.9267 174.326 31.8772 149.634 17.9182 188.19V188.163ZM24.6682 172.26L28.1242 162.716L29.5552 172.26H24.6682ZM40.8682 184.68L21.2392 53.0689L54.3682 84.8884L55.7182 94.7974L53.9092 94.2574C52.8967 84.8074 53.0317 85.4284 52.8292 85.2664L24.9112 61.9924C24.8418 61.9385 24.758 61.9064 24.6703 61.9C24.5827 61.8937 24.4951 61.9134 24.4186 61.9567C24.3421 61.9999 24.2802 62.0649 24.2405 62.1433C24.2008 62.2218 24.1853 62.3102 24.1957 62.3974L37.2367 149.634C37.253 149.727 37.2984 149.813 37.3663 149.878C37.4343 149.944 37.5212 149.986 37.6147 149.999L61.2937 152.618C61.3593 152.622 61.425 152.612 61.4863 152.588C61.5475 152.565 61.6026 152.527 61.6478 152.48C61.693 152.432 61.727 152.375 61.7475 152.312C61.768 152.25 61.7744 152.184 61.7662 152.118L59.7682 136.418L62.0497 137.16L67.4497 177.984L40.8682 184.68ZM67.4902 172.287L62.8597 137.457C69.2182 139.482 81.8542 143.208 82.2862 143.208C82.3765 143.209 82.4649 143.182 82.5396 143.132C82.6143 143.081 82.6719 143.009 82.7047 142.925L83.1367 141.656C87.9562 142.844 88.0372 142.884 88.1722 142.884C88.2646 142.886 88.355 142.858 88.4304 142.805C88.5057 142.751 88.5619 142.675 88.5907 142.587C89.4547 140.009 90.2917 137.417 91.0612 134.798C92.7765 135.566 94.5963 136.076 96.4612 136.31C99.063 138.289 102.025 139.742 105.182 140.589C104.291 144.477 106.384 146.867 110.218 145.814C110.113 146.441 110.144 147.082 110.309 147.696C110.474 148.31 110.768 148.881 111.173 149.371C111.577 149.861 112.082 150.259 112.653 150.537C113.224 150.815 113.849 150.968 114.484 150.984C115.171 150.979 115.852 150.851 116.495 150.606C116.565 151.335 116.796 152.039 117.172 152.667C117.548 153.296 118.059 153.832 118.669 154.238C119.812 154.78 121.117 154.876 122.327 154.508C122.647 154.451 122.962 154.374 123.272 154.278C123.507 154.95 123.894 155.559 124.403 156.056C124.912 156.554 125.529 156.927 126.206 157.147C126.883 157.366 127.602 157.426 128.306 157.322C129.01 157.218 129.681 156.953 130.265 156.546C130.814 157.222 131.508 157.764 132.296 158.133C133.084 158.503 133.945 158.689 134.815 158.679C135.772 158.652 136.685 158.272 137.38 157.613C138.73 156.263 138.446 153.954 137.744 151.956C138.182 152.416 138.714 152.774 139.303 153.007C139.893 153.24 140.527 153.342 141.16 153.306C141.917 153.164 142.627 152.837 143.228 152.354C143.828 151.871 144.3 151.248 144.602 150.539C144.903 149.802 145.046 149.011 145.022 148.216C144.999 147.421 144.81 146.64 144.467 145.922C145.056 146.453 145.759 146.842 146.523 147.057C147.286 147.273 148.089 147.309 148.868 147.164C149.87 146.873 150.73 146.225 151.285 145.341C151.614 144.747 151.811 144.088 151.862 143.41C151.913 142.732 151.818 142.051 151.582 141.413C151.999 141.862 152.508 142.215 153.074 142.448C153.64 142.681 154.25 142.788 154.862 142.763C155.356 142.724 155.837 142.584 156.274 142.351C156.711 142.119 157.096 141.799 157.405 141.412C157.714 141.025 157.94 140.578 158.069 140.1C158.198 139.622 158.228 139.122 158.156 138.632C159.105 138.921 160.083 139.107 161.072 139.185C162.017 141.75 163.07 144.275 164.231 146.759C164.266 146.833 164.321 146.896 164.391 146.939C164.46 146.982 164.541 147.004 164.623 147.002C164.758 147.002 164.812 147.002 170.023 145.53C170.617 147.515 170.59 147.569 170.819 147.677C171.049 147.785 169.928 148.136 187.195 142.007L182.875 172.301L67.4902 172.287ZM209.848 184.613L183.01 178.052L188.248 141.737L190.57 140.913L189.031 152.118C189.031 152.388 189.139 152.591 189.53 152.577C190.57 152.577 194.809 152.024 213.074 150.161C213.171 150.153 213.262 150.113 213.333 150.047C213.404 149.98 213.451 149.892 213.466 149.796L226.453 62.4109C226.468 62.3239 226.455 62.2344 226.418 62.1545C226.38 62.0746 226.319 62.0081 226.243 61.9639C226.166 61.9198 226.078 61.9002 225.99 61.9077C225.902 61.9152 225.819 61.9495 225.751 62.0059L197.86 85.0369C197.86 85.0369 197.779 85.0369 197.725 85.3339C197.59 86.0359 197.306 88.6144 196.091 98.8339L194.323 99.3604L196.118 85.0369L229.315 53.1229C226.615 71.6179 212.939 164.039 209.888 184.613H209.848ZM221.228 172.287L222.673 162.54L226.21 172.287H221.228ZM226.993 197.289C230.773 197.289 234.431 193.239 232.879 188.163L222.983 160.637L225.683 142.79L243.112 192.227C244.462 196.952 243.031 200.327 237.995 200.502L191.569 202.23L183.968 197.33C242.963 197.33 222.592 197.289 227.033 197.289H226.993ZM246.757 191.795C249.025 197.91 245.474 202.946 241.006 203.135L190.394 204.863L183.023 199.787V197.762L191.123 203.054C191.299 203.175 187.991 203.513 237.928 201.38C243.139 201.164 245.528 197.708 243.841 191.93L225.872 140.805L226.601 135.891C235.079 159.287 237.968 168.089 246.797 191.795H246.757Z" fill="black"/>
</svg>
