<svg width="18" height="13" viewBox="0 0 18 13" fill="none" xmlns="http://www.w3.org/2000/svg">
<path d="M18 8.50001C18.0013 9.09133 17.8858 9.67708 17.6601 10.2236C17.4345 10.7702 17.103 11.2668 16.6849 11.6849C16.2668 12.1031 15.7702 12.4345 15.2236 12.6602C14.6771 12.8858 14.0913 13.0013 13.5 13H11C10.7348 13 10.4804 12.8947 10.2929 12.7071C10.1054 12.5196 10 12.2652 10 12C10 11.7348 10.1054 11.4804 10.2929 11.2929C10.4804 11.1054 10.7348 11 11 11H13.5C14.163 11 14.7989 10.7366 15.2678 10.2678C15.7366 9.79893 16 9.16305 16 8.50001C16 7.83697 15.7366 7.20108 15.2678 6.73224C14.7989 6.2634 14.163 6.00001 13.5 6.00001H3.2L5.6 8.40001C5.744 8.56205 5.82066 8.77298 5.81428 8.98966C5.8079 9.20635 5.71897 9.41241 5.56569 9.56569C5.4124 9.71898 5.20634 9.80791 4.98966 9.81429C4.77297 9.82066 4.56204 9.74401 4.4 9.60001L0.400001 5.60001C0.241231 5.44069 0.152081 5.22493 0.152081 5.00001C0.152081 4.77508 0.241231 4.55933 0.400001 4.40001L4.4 0.400009C4.56204 0.256006 4.77297 0.179354 4.98966 0.185732C5.20634 0.192111 5.4124 0.281038 5.56569 0.434324C5.71897 0.587609 5.8079 0.793669 5.81428 1.01035C5.82066 1.22704 5.744 1.43797 5.6 1.60001L3.2 4.00001H13.5C14.0913 3.99869 14.6771 4.11419 15.2236 4.33987C15.7702 4.56555 16.2668 4.89696 16.6849 5.31509C17.103 5.73322 17.4345 6.22982 17.6601 6.77638C17.8858 7.32294 18.0013 7.90869 18 8.50001Z" fill="#ffffff"/>
</svg>
