<svg width="20" height="20" viewBox="0 0 20 20" fill="none" xmlns="http://www.w3.org/2000/svg">
<path d="M10.0004 5.89748V9.99999L12.5644 12.5641" stroke="black" stroke-width="1.875" stroke-linecap="round" stroke-linejoin="round"/>
<path d="M2.14199 4.73956L1.37277 4.74264C1.37358 4.9454 1.45441 5.13965 1.5977 5.28313C1.74098 5.4266 1.93512 5.5077 2.13789 5.50878L2.14199 4.73956ZM4.74914 5.52109C4.85016 5.52156 4.95027 5.50213 5.04378 5.46391C5.13729 5.42569 5.22235 5.36942 5.29411 5.29833C5.36588 5.22723 5.42293 5.1427 5.46202 5.04955C5.50112 4.95641 5.52148 4.85647 5.52195 4.75546C5.52242 4.65444 5.50299 4.55432 5.46477 4.46082C5.42655 4.36731 5.37029 4.28225 5.29919 4.21048C5.22809 4.13872 5.14356 4.08167 5.05041 4.04257C4.95727 4.00348 4.85734 3.98312 4.75632 3.98265L4.74914 5.52109ZM2.89788 2.12421C2.89734 2.02319 2.87691 1.92327 2.83775 1.83015C2.7986 1.73703 2.74149 1.65254 2.66968 1.58149C2.59787 1.51044 2.51277 1.45424 2.41923 1.41608C2.3257 1.37792 2.22557 1.35855 2.12455 1.35909C2.02354 1.35963 1.92362 1.38006 1.8305 1.41922C1.73738 1.45837 1.65288 1.51548 1.58183 1.58729C1.51079 1.6591 1.45458 1.7442 1.41642 1.83773C1.37826 1.93127 1.3589 2.0314 1.35943 2.13242L2.89788 2.12421ZM1.61789 8.75386C1.63263 8.65333 1.62731 8.55087 1.60223 8.45241C1.57715 8.35395 1.53281 8.26143 1.47177 8.1802C1.41073 8.09897 1.33421 8.03063 1.24661 7.97914C1.15902 7.92766 1.06209 7.89403 0.961425 7.88021C0.860762 7.86639 0.758358 7.87265 0.660128 7.89863C0.561898 7.92461 0.469789 7.96979 0.389119 8.03157C0.308449 8.09335 0.240818 8.1705 0.190131 8.25856C0.139444 8.34662 0.106706 8.44385 0.0938076 8.54464L1.61789 8.75386ZM17.0382 2.96215C13.1203 -0.955748 6.78912 -0.996773 2.89685 2.89651L3.98402 3.98367C7.26603 0.702691 12.6229 0.722178 15.9511 4.04931L17.0382 2.96215ZM2.96249 17.0379C6.8804 20.9557 13.2116 20.9968 17.1039 17.1035L16.0167 16.0163C12.7347 19.2973 7.37783 19.2778 4.04966 15.9507L2.96249 17.0379ZM17.1039 17.1035C20.9961 13.2112 20.9561 6.88004 17.0382 2.96215L15.9511 4.04931C19.2782 7.37747 19.2977 12.7343 16.0167 16.0163L17.1039 17.1035ZM2.89685 2.89651L1.59738 4.19495L2.68557 5.28212L3.98402 3.98367L2.89685 2.89651ZM2.13789 5.50878L4.74914 5.52109L4.75632 3.98265L2.14609 3.97034L2.13789 5.50878ZM2.91121 4.73546L2.89788 2.12421L1.35943 2.13242L1.37277 4.74264L2.91121 4.73546ZM0.0927818 8.54361C-0.117943 10.0847 0.0314276 11.6537 0.529166 13.1273C1.02691 14.6009 1.85946 15.9391 2.96147 17.0368L4.04864 15.9497C3.11452 15.0197 2.40876 13.8858 1.98682 12.6371C1.56488 11.3883 1.43824 10.0588 1.61687 8.75284L0.0927818 8.54361Z" fill="black"/>
</svg>
