<svg width="200" height="208" viewBox="0 0 200 208" fill="none" xmlns="http://www.w3.org/2000/svg">
<path d="M59.8203 47.5641H134.509C136.371 47.5641 138.157 48.3039 139.474 49.6207C140.79 50.9376 141.531 52.7235 141.531 54.5857V159.283C141.531 160.204 141.349 161.117 140.996 161.969C140.644 162.821 140.126 163.594 139.474 164.247C138.822 164.899 138.048 165.416 137.197 165.768C136.345 166.122 135.432 166.303 134.51 166.303H59.8214C58.8994 166.303 57.9862 166.122 57.1344 165.768C56.2825 165.416 55.5084 164.899 54.8564 164.247C54.2043 163.594 53.6872 162.821 53.3342 161.968C52.9814 161.116 52.7998 160.203 52.7998 159.281V54.5857C52.7997 53.6637 52.9811 52.7507 53.3339 51.8987C53.6866 51.0469 54.2038 50.2728 54.8556 49.6207C55.5076 48.9688 56.2816 48.4515 57.1334 48.0987C57.9852 47.7458 58.8983 47.5641 59.8203 47.5641Z" fill="black"/>
<path fill-rule="evenodd" clip-rule="evenodd" d="M138.357 55.6149C138.35 54.3809 137.853 53.2004 136.975 52.3329C136.097 51.4654 134.91 50.9819 133.677 50.9889L107.44 51.0204C106.384 53.0584 106.433 53.1052 106.147 53.1062L90.3309 53.1791C90.0951 53.2432 90.1027 53.1269 88.7418 51.0172L60.6544 50.9867C60.0433 50.983 59.4375 51.0998 58.8716 51.3302C58.3057 51.5607 57.7907 51.9005 57.3562 52.3301C56.9216 52.7597 56.576 53.2707 56.339 53.8339C56.1021 54.3972 55.9784 55.0016 55.9751 55.6127V157.775C55.9784 158.386 56.1021 158.99 56.339 159.553C56.576 160.117 56.9216 160.628 57.3562 161.057C57.7907 161.487 58.3057 161.827 58.8716 162.057C59.4375 162.288 60.0433 162.404 60.6544 162.401H133.677C134.288 162.404 134.894 162.288 135.459 162.057C136.026 161.827 136.541 161.487 136.975 161.057C137.409 160.628 137.755 160.117 137.993 159.553C138.23 158.99 138.354 158.386 138.357 157.775V55.6149Z" fill="white"/>
<path d="M118.125 87.4316H76.207C74.893 87.4453 73.5894 87.1983 72.3713 86.7051C71.1533 86.2117 70.0453 85.4817 69.1113 84.5574C68.1772 83.633 67.4358 82.5327 66.9297 81.3199C66.4236 80.1072 66.1631 78.8062 66.1631 77.4921C66.1631 76.178 66.4236 74.8769 66.9297 73.6642C67.4358 72.4514 68.1772 71.3511 69.1113 70.4268C70.0453 69.5025 71.1533 68.7725 72.3713 68.2791C73.5894 67.7858 74.893 67.5388 76.207 67.5526H118.125C119.439 67.5388 120.742 67.7858 121.96 68.2791C123.178 68.7725 124.286 69.5025 125.22 70.4268C126.155 71.3511 126.896 72.4514 127.402 73.6642C127.908 74.8769 128.169 76.178 128.169 77.4921C128.169 78.8062 127.908 80.1072 127.402 81.3199C126.896 82.5327 126.155 83.633 125.22 84.5574C124.286 85.4817 123.178 86.2117 121.96 86.7051C120.742 87.1983 119.439 87.4453 118.125 87.4316ZM76.207 68.2602C73.7759 68.2866 71.4533 69.2708 69.7436 70.9993C68.0338 72.7277 67.0748 75.0608 67.0748 77.4921C67.0748 79.9233 68.0338 82.2565 69.7436 83.9849C71.4533 85.7133 73.7759 86.6976 76.207 86.724H118.125C120.556 86.6976 122.878 85.7133 124.588 83.9849C126.298 82.2565 127.257 79.9233 127.257 77.4921C127.257 75.0608 126.298 72.7277 124.588 70.9993C122.878 69.2708 120.556 68.2866 118.125 68.2602H76.207Z" fill="black"/>
<path d="M118.125 113.84H76.207C74.893 113.854 73.5894 113.606 72.3713 113.114C71.1533 112.62 70.0453 111.89 69.1113 110.966C68.1772 110.041 67.4358 108.941 66.9297 107.728C66.4236 106.515 66.1631 105.214 66.1631 103.901C66.1631 102.586 66.4236 101.285 66.9297 100.072C67.4358 98.8596 68.1772 97.7593 69.1113 96.835C70.0453 95.9107 71.1533 95.1807 72.3713 94.6873C73.5894 94.1941 74.893 93.9471 76.207 93.9608H118.125C119.439 93.9471 120.742 94.1941 121.96 94.6873C123.178 95.1807 124.286 95.9107 125.22 96.835C126.155 97.7593 126.896 98.8596 127.402 100.072C127.908 101.285 128.169 102.586 128.169 103.901C128.169 105.214 127.908 106.515 127.402 107.728C126.896 108.941 126.155 110.041 125.22 110.966C124.286 111.89 123.178 112.62 121.96 113.114C120.742 113.606 119.439 113.854 118.125 113.84ZM76.207 94.6684C73.7759 94.6948 71.4533 95.679 69.7436 97.4075C68.0338 99.1359 67.0748 101.469 67.0748 103.901C67.0748 106.331 68.0338 108.665 69.7436 110.393C71.4533 112.121 73.7759 113.106 76.207 113.132H118.125C120.556 113.106 122.878 112.121 124.588 110.393C126.298 108.665 127.257 106.331 127.257 103.901C127.257 101.469 126.298 99.1359 124.588 97.4075C122.878 95.679 120.556 94.6948 118.125 94.6684H76.207Z" fill="black"/>
<path fill-rule="evenodd" clip-rule="evenodd" d="M96.6015 126.175C105.336 126.175 112.426 128.559 112.426 131.501C112.426 134.442 105.336 136.827 96.6015 136.827C87.8669 136.827 80.7769 134.442 80.7769 131.501C80.7769 128.559 87.868 126.175 96.6015 126.175Z" fill="#81F8F8"/>
<path d="M96.6022 137.172C87.5296 137.172 80.4221 134.68 80.4221 131.496C80.4221 128.312 87.5296 125.821 96.6022 125.821C105.675 125.821 112.78 128.314 112.78 131.496C112.78 134.679 105.679 137.172 96.6022 137.172ZM96.6022 126.529C87.347 126.529 81.1308 129.097 81.1308 131.496C81.1308 133.895 87.347 136.464 96.6022 136.464C105.857 136.464 112.071 133.895 112.071 131.496C112.071 129.097 105.855 126.529 96.6022 126.529Z" fill="black"/>
<path d="M82.2095 79.9374L78.7139 77.5461L82.2095 75.1549C82.2871 75.1017 82.3402 75.0199 82.3575 74.9274C82.3747 74.835 82.3545 74.7395 82.3013 74.662C82.2482 74.5844 82.1663 74.5312 82.0739 74.5139C81.9814 74.4968 81.886 74.517 81.8084 74.5701L78.4389 76.8766V72.7886C78.4339 72.6979 78.3943 72.6126 78.3283 72.5501C78.2623 72.4877 78.1749 72.4529 78.084 72.4529C77.9931 72.4529 77.9057 72.4877 77.8398 72.5501C77.7737 72.6126 77.7341 72.6979 77.7291 72.7886V76.8744L74.3596 74.5679C74.3213 74.5415 74.278 74.5229 74.2324 74.5133C74.1869 74.5035 74.1398 74.5029 74.094 74.5114C74.0482 74.5199 74.0044 74.5373 73.9654 74.5626C73.9263 74.5881 73.8926 74.6209 73.8661 74.6592C73.8397 74.6976 73.8211 74.7409 73.8115 74.7864C73.8018 74.832 73.8011 74.879 73.8096 74.9249C73.8181 74.9707 73.8355 75.0144 73.8609 75.0535C73.8863 75.0926 73.9191 75.1263 73.9575 75.1527L77.453 77.544L73.9575 79.9352C73.8957 79.9784 73.8492 80.0401 73.8248 80.1114C73.8004 80.1828 73.7993 80.26 73.8217 80.3321C73.8441 80.404 73.8888 80.4671 73.9493 80.512C74.0098 80.5568 74.0831 80.5814 74.1585 80.582C74.3161 80.582 74.0672 80.72 77.7259 78.2135V82.295C77.7309 82.3857 77.7704 82.471 77.8365 82.5334C77.9025 82.5959 77.9899 82.6307 78.0807 82.6307C78.1716 82.6307 78.259 82.5959 78.3251 82.5334C78.3911 82.471 78.4306 82.3857 78.4356 82.295V78.2157C82.1019 80.7276 81.8442 80.5841 82.0029 80.5841C82.0791 80.5855 82.1538 80.5623 82.2158 80.5178C82.2777 80.4735 82.3237 80.4102 82.347 80.3376C82.3701 80.265 82.3692 80.1869 82.3446 80.1147C82.3198 80.0426 82.2724 79.9804 82.2095 79.9374Z" fill="black"/>
<path d="M82.2095 105.864L78.7139 103.473L82.2095 101.081C82.2871 101.028 82.3403 100.946 82.3575 100.854C82.3747 100.762 82.3545 100.666 82.3013 100.588C82.2482 100.511 82.1663 100.458 82.074 100.44C81.9815 100.423 81.886 100.443 81.8084 100.497L78.4389 102.803V98.7152C78.4339 98.6244 78.3944 98.5391 78.3284 98.4766C78.2623 98.4142 78.1749 98.3794 78.084 98.3794C77.9932 98.3794 77.9058 98.4142 77.8398 98.4766C77.7737 98.5391 77.7342 98.6244 77.7292 98.7152V102.797L74.3597 100.49C74.2822 100.437 74.1866 100.416 74.094 100.434C74.0015 100.451 73.9196 100.504 73.8662 100.581C73.8128 100.659 73.7925 100.754 73.8097 100.847C73.8267 100.94 73.88 101.022 73.9575 101.075L77.4531 103.466L73.9575 105.857C73.8958 105.901 73.8492 105.963 73.8249 106.033C73.8004 106.105 73.7993 106.182 73.8217 106.254C73.8441 106.326 73.8888 106.389 73.9493 106.435C74.0099 106.479 74.0831 106.503 74.1586 106.504C74.3162 106.504 74.0673 106.642 77.7259 104.136V108.217C77.7309 108.307 77.7705 108.393 77.8365 108.455C77.9025 108.518 77.9899 108.553 78.0808 108.553C78.1716 108.553 78.259 108.518 78.3251 108.455C78.3911 108.393 78.4307 108.307 78.4357 108.217V104.136C82.1019 106.648 81.8443 106.504 82.003 106.504C82.0774 106.503 82.1498 106.479 82.2098 106.436C82.2699 106.391 82.3145 106.329 82.3374 106.258C82.3603 106.188 82.3602 106.112 82.3372 106.041C82.3143 105.969 82.2696 105.907 82.2095 105.864Z" fill="black"/>
<path d="M94.5526 79.9373L91.057 77.546L94.5526 75.1547C94.6301 75.1016 94.6834 75.0197 94.7006 74.9272C94.7178 74.8349 94.6976 74.7393 94.6444 74.6618C94.5913 74.5843 94.5095 74.5311 94.417 74.5138C94.3246 74.4966 94.229 74.5168 94.1515 74.57L90.7885 76.8743V72.7885C90.7885 72.6945 90.7513 72.6044 90.6847 72.5379C90.6183 72.4714 90.5282 72.4341 90.4342 72.4341C90.3402 72.4341 90.2501 72.4714 90.1837 72.5379C90.1171 72.6044 90.0799 72.6945 90.0799 72.7885V76.8743L86.7104 74.5678C86.6329 74.5146 86.5373 74.4944 86.4448 74.5116C86.3524 74.5289 86.2706 74.5821 86.2174 74.6596C86.1643 74.7371 86.1441 74.8327 86.1612 74.9252C86.1785 75.0176 86.2318 75.0994 86.3093 75.1526L89.8049 77.5438L86.3093 79.9351C86.2474 79.9782 86.201 80.04 86.1767 80.1114C86.1522 80.1827 86.1511 80.26 86.1735 80.3319C86.1959 80.4039 86.2406 80.4669 86.3011 80.5118C86.3617 80.5568 86.4349 80.5813 86.5104 80.5818C86.6669 80.5818 86.4191 80.7198 90.0777 78.2134V82.2948C90.0777 82.3888 90.115 82.4789 90.1815 82.5454C90.2479 82.6119 90.338 82.6492 90.432 82.6492C90.526 82.6492 90.6162 82.6119 90.6826 82.5454C90.7491 82.4789 90.7864 82.3888 90.7864 82.2948V78.2155C94.4526 80.7275 94.1961 80.584 94.3537 80.584C94.4289 80.583 94.5018 80.5581 94.5621 80.5131C94.6223 80.468 94.6666 80.405 94.6887 80.3331C94.7109 80.2612 94.7096 80.1841 94.6851 80.113C94.6606 80.0419 94.6142 79.9803 94.5526 79.9373Z" fill="black"/>
<path d="M94.5525 105.864L91.0569 103.473L94.5525 101.082C94.63 101.028 94.6833 100.947 94.7006 100.854C94.7177 100.762 94.6975 100.666 94.6444 100.589C94.5912 100.511 94.5094 100.458 94.417 100.441C94.3245 100.423 94.2289 100.444 94.1514 100.497L90.7819 102.803V98.7153C90.7819 98.6213 90.7447 98.5312 90.6781 98.4648C90.6117 98.3982 90.5216 98.361 90.4276 98.361C90.3336 98.361 90.2435 98.3982 90.1771 98.4648C90.1105 98.5312 90.0733 98.6213 90.0733 98.7153V102.797L86.7038 100.49C86.6654 100.464 86.6221 100.445 86.5766 100.436C86.531 100.426 86.4841 100.426 86.4383 100.434C86.3925 100.443 86.3489 100.46 86.3099 100.485C86.2708 100.511 86.2371 100.544 86.2108 100.582C86.1845 100.62 86.166 100.664 86.1564 100.709C86.1467 100.755 86.1462 100.802 86.1546 100.848C86.1632 100.893 86.1806 100.937 86.2061 100.976C86.2315 101.015 86.2643 101.049 86.3027 101.075L89.7983 103.466L86.3027 105.858C86.2409 105.901 86.1944 105.963 86.1701 106.034C86.1456 106.105 86.1445 106.183 86.1669 106.254C86.1893 106.326 86.234 106.389 86.2945 106.435C86.3551 106.479 86.4283 106.504 86.5038 106.504C86.6603 106.504 86.4125 106.642 90.0711 104.136V108.217C90.0711 108.311 90.1084 108.401 90.1749 108.468C90.2413 108.535 90.3314 108.572 90.4254 108.572C90.5194 108.572 90.6096 108.535 90.676 108.468C90.7425 108.401 90.7798 108.311 90.7798 108.217V104.136C94.446 106.648 94.1895 106.504 94.3471 106.504C94.4211 106.503 94.4928 106.478 94.5523 106.434C94.6116 106.39 94.6558 106.328 94.6784 106.258C94.701 106.187 94.701 106.111 94.6785 106.04C94.6559 105.971 94.6119 105.909 94.5525 105.864Z" fill="black"/>
<path d="M106.895 79.9374L103.4 77.5461L106.895 75.1549C106.934 75.1286 106.967 75.0949 106.992 75.0559C107.017 75.0168 107.035 74.9732 107.043 74.9274C107.052 74.8816 107.051 74.8347 107.042 74.7891C107.032 74.7436 107.014 74.7003 106.988 74.662C106.961 74.6236 106.927 74.5908 106.888 74.5653C106.85 74.5399 106.805 74.5225 106.76 74.5139C106.714 74.5055 106.667 74.506 106.622 74.5157C106.576 74.5252 106.532 74.5438 106.494 74.5701L103.125 76.8766V72.7886C103.119 72.6979 103.08 72.6126 103.014 72.5501C102.949 72.4877 102.861 72.4529 102.769 72.4529C102.679 72.4529 102.591 72.4877 102.526 72.5501C102.46 72.6126 102.421 72.6979 102.415 72.7886V76.8744L99.0456 74.5679C99.0073 74.5415 98.964 74.5229 98.9185 74.5133C98.8728 74.5035 98.8259 74.5029 98.78 74.5114C98.7341 74.5199 98.6904 74.5373 98.6514 74.5626C98.6123 74.5881 98.5786 74.6209 98.5522 74.6592C98.5258 74.6976 98.5072 74.7409 98.4975 74.7864C98.4878 74.832 98.4872 74.879 98.4957 74.9249C98.5041 74.9707 98.5215 75.0144 98.5469 75.0535C98.5723 75.0926 98.6051 75.1263 98.6435 75.1527L102.139 77.544L98.6435 79.9352C98.5816 79.9784 98.5352 80.0401 98.5109 80.1114C98.4864 80.1828 98.4853 80.26 98.5077 80.3321C98.5301 80.404 98.5748 80.4671 98.6353 80.512C98.6959 80.5568 98.7691 80.5814 98.8446 80.582C99.0011 80.582 98.7533 80.72 102.412 78.2135V82.295C102.417 82.3857 102.456 82.471 102.523 82.5334C102.588 82.5959 102.676 82.6307 102.767 82.6307C102.858 82.6307 102.946 82.5959 103.011 82.5334C103.077 82.471 103.116 82.3857 103.122 82.295V78.2157C106.788 80.7276 106.53 80.5841 106.689 80.5841C106.765 80.5855 106.84 80.5623 106.902 80.5178C106.964 80.4735 107.01 80.4102 107.032 80.3376C107.056 80.265 107.055 80.1869 107.03 80.1147C107.005 80.0426 106.959 79.9804 106.895 79.9374Z" fill="black"/>
<path d="M106.896 105.864L103.4 103.473L106.896 101.081C106.934 101.055 106.967 101.021 106.992 100.982C107.017 100.943 107.035 100.9 107.043 100.854C107.052 100.808 107.051 100.761 107.042 100.716C107.032 100.67 107.014 100.627 106.988 100.588C106.961 100.55 106.927 100.517 106.888 100.492C106.85 100.466 106.805 100.449 106.76 100.44C106.714 100.432 106.667 100.433 106.622 100.442C106.576 100.452 106.532 100.47 106.494 100.497L103.125 102.803V98.7152C103.12 98.6244 103.08 98.5391 103.014 98.4766C102.949 98.4142 102.861 98.3794 102.771 98.3794C102.679 98.3794 102.591 98.4142 102.526 98.4766C102.46 98.5391 102.421 98.6244 102.415 98.7152V102.797L99.0457 100.49C98.9682 100.437 98.8725 100.416 98.78 100.434C98.6875 100.451 98.6056 100.504 98.5522 100.581C98.4988 100.659 98.4785 100.754 98.4957 100.847C98.5128 100.94 98.566 101.022 98.6435 101.075L102.139 103.466L98.6435 105.857C98.5817 105.901 98.5353 105.963 98.5109 106.033C98.4865 106.105 98.4854 106.182 98.5078 106.254C98.5301 106.326 98.5748 106.389 98.6354 106.435C98.6959 106.479 98.7692 106.503 98.8446 106.504C99.0011 106.504 98.7533 106.642 102.412 104.136V108.217C102.417 108.307 102.456 108.393 102.523 108.455C102.588 108.518 102.676 108.553 102.767 108.553C102.858 108.553 102.946 108.518 103.011 108.455C103.077 108.393 103.116 108.307 103.122 108.217V104.136C106.788 106.648 106.53 106.504 106.689 106.504C106.764 106.503 106.836 106.479 106.896 106.436C106.956 106.391 107.001 106.329 107.024 106.258C107.047 106.188 107.047 106.112 107.024 106.041C107 105.969 106.955 105.907 106.896 105.864Z" fill="black"/>
<path d="M119.24 79.9373L115.745 77.546L119.24 75.1547C119.317 75.1016 119.371 75.0197 119.388 74.9272C119.405 74.8349 119.385 74.7393 119.333 74.6618C119.279 74.5843 119.197 74.5311 119.104 74.5138C119.012 74.4966 118.916 74.5168 118.839 74.57L115.47 76.8764V72.7885C115.47 72.6945 115.433 72.6044 115.366 72.5379C115.299 72.4714 115.209 72.4341 115.115 72.4341C115.022 72.4341 114.932 72.4714 114.864 72.5379C114.798 72.6044 114.761 72.6945 114.761 72.7885V76.8743L111.391 74.5678C111.314 74.5146 111.219 74.4944 111.126 74.5116C111.034 74.5289 110.951 74.5821 110.899 74.6596C110.846 74.7371 110.825 74.8327 110.842 74.9252C110.86 75.0176 110.913 75.0994 110.99 75.1526L114.486 77.5438L110.99 79.9351C110.928 79.9778 110.881 80.0394 110.856 80.1108C110.831 80.1824 110.829 80.2599 110.852 80.3321C110.874 80.4044 110.92 80.4677 110.981 80.5126C111.041 80.5576 111.114 80.5818 111.19 80.5818C111.348 80.5818 111.1 80.7198 114.759 78.2134V82.2948C114.759 82.3888 114.796 82.4789 114.862 82.5454C114.929 82.6119 115.02 82.6492 115.113 82.6492C115.207 82.6492 115.297 82.6119 115.364 82.5454C115.43 82.4789 115.467 82.3888 115.467 82.2948V78.2155C119.134 80.7275 118.877 80.584 119.035 80.584C119.111 80.5844 119.185 80.5605 119.246 80.5159C119.306 80.4714 119.352 80.4083 119.375 80.3362C119.398 80.264 119.398 80.1863 119.373 80.1145C119.349 80.0428 119.302 79.9806 119.24 79.9373Z" fill="black"/>
<path d="M119.333 108.6H111.489C111.399 108.594 111.314 108.555 111.251 108.49C111.189 108.424 111.154 108.337 111.154 108.246C111.154 108.155 111.189 108.068 111.251 108.002C111.314 107.937 111.399 107.898 111.489 107.892H119.333C119.423 107.898 119.508 107.937 119.571 108.002C119.633 108.068 119.668 108.155 119.668 108.246C119.668 108.337 119.633 108.424 119.571 108.49C119.508 108.555 119.423 108.594 119.333 108.6Z" fill="black"/>
<path fill-rule="evenodd" clip-rule="evenodd" d="M53.1539 131.537C55.3821 128.649 56.2897 126.142 58.6766 126.524C61.095 126.914 63.6406 131.024 61.5689 136.079C59.4972 141.133 59.057 140.861 57.8016 145.2C56.9329 148.471 56.2825 151.795 55.8549 155.151C58.8382 158.492 61.4996 162.109 63.8036 165.95L77.3045 166.058C81.9315 176.296 76.6664 190.693 76.6664 190.693C77.9055 203.036 77.8686 202.835 77.9371 203.041C68.4051 207.007 57.8773 207.914 47.8072 205.64C47.8072 205.64 49.1724 197.571 49.2626 193.727C49.3528 189.884 43.5475 173.86 41.6084 169.557C39.6693 165.254 35.8564 158.844 36.8096 153.396C37.7629 147.947 42.878 140.833 42.878 140.833C42.878 140.833 46.0942 135.719 48.192 132.66C49.5024 130.781 51.1555 129.165 53.0647 127.897L53.1539 131.537Z" fill="#FFD997"/>
<path d="M77.0265 190.733C77.4352 189.568 82.0829 175.77 77.6265 165.91C77.599 165.848 77.5543 165.795 77.4979 165.759C77.4414 165.722 77.3755 165.702 77.308 165.701L63.9854 165.592C61.7193 161.847 59.1228 158.311 56.2269 155.027C56.6505 151.744 57.2906 148.493 58.1432 145.294C59.3866 140.993 59.8149 141.286 61.8974 136.208C64.0452 130.966 61.4083 126.6 58.7334 126.17C56.3421 125.785 55.278 127.984 53.4835 130.493L53.4204 127.884C53.419 127.821 53.401 127.76 53.3683 127.707C53.3355 127.654 53.2892 127.609 53.234 127.58C53.1788 127.55 53.1166 127.535 53.054 127.538C52.9913 127.539 52.9302 127.557 52.877 127.591C50.9225 128.881 49.2325 130.532 47.8977 132.456C45.8195 135.485 42.6076 140.589 42.5869 140.622C42.3772 140.916 37.4142 147.864 36.4588 153.331C35.6436 157.988 38.1686 163.211 40.1979 167.406C43.3032 173.832 48.9933 190.009 48.9064 193.71C48.8173 197.484 47.4684 205.491 47.4553 205.573C47.4452 205.663 47.47 205.753 47.5246 205.826C47.5791 205.898 47.6593 205.947 47.7487 205.962C47.838 205.977 47.9298 205.958 48.005 205.907C48.0802 205.857 48.1332 205.778 48.1531 205.69C48.1673 205.61 49.5238 197.552 49.6151 193.728C49.7075 189.762 43.7674 173.484 41.9283 169.404C39.9087 164.919 36.2295 158.739 37.1566 153.448C38.0838 148.157 43.113 141.102 43.1739 141.013C43.2076 140.962 46.4119 135.87 48.4814 132.852C49.646 131.192 51.0786 129.738 52.7204 128.547L52.79 131.416C51.5317 133.027 50.4327 134.756 49.5085 136.579C48.1694 139.071 48.5879 138.066 47.3423 140.547C45.7575 143.699 45.1206 144.995 39.6533 149.876C39.5872 149.939 39.5481 150.025 39.5439 150.116C39.5396 150.208 39.5707 150.297 39.6307 150.365C39.6906 150.434 39.7748 150.477 39.8657 150.486C39.9566 150.494 40.0471 150.466 40.1185 150.41C41.8804 148.865 43.552 147.221 45.1249 145.485C46.2632 144.069 47.2205 142.517 47.9749 140.864C49.2075 138.411 48.7857 139.418 50.1335 136.915C51.0744 135.057 52.1993 133.299 53.4911 131.667C53.6281 132.407 53.9948 133.086 54.5391 133.607C55.0834 134.127 55.7777 134.462 56.5236 134.567C58.6051 134.784 60.6279 132.41 61.78 130.654C62.8604 135.287 59.3681 138.493 57.4551 145.094C56.5833 148.383 55.9297 151.725 55.4986 155.1C55.4926 155.151 55.4977 155.203 55.5136 155.252C55.5295 155.302 55.5559 155.347 55.591 155.385C55.7117 155.515 67.7647 168.565 69.7212 182.146C69.7278 182.192 69.7435 182.236 69.7672 182.277C69.7909 182.316 69.8223 182.351 69.8594 182.379C69.8966 182.407 69.9389 182.427 69.9839 182.439C70.0289 182.45 70.0757 182.453 70.1217 182.446C70.1677 182.439 70.2119 182.423 70.2518 182.4C70.2917 182.376 70.3266 182.345 70.3544 182.307C70.3823 182.27 70.4025 182.228 70.4139 182.183C70.4253 182.138 70.4278 182.091 70.4212 182.045C69.4285 176.464 67.3855 171.12 64.4006 166.301L77.0645 166.4C81.4123 176.375 76.3765 190.421 76.3254 190.561C76.2808 190.678 76.2993 190.561 77.5449 203.061C77.5545 203.155 77.6007 203.24 77.6736 203.3C77.7465 203.359 77.8399 203.387 77.9335 203.378C78.0271 203.369 78.113 203.322 78.1724 203.249C78.2319 203.176 78.2599 203.083 78.2504 202.989L77.0265 190.733ZM56.6073 133.868C54.5139 133.643 54.1378 131.44 54.0758 130.889C55.7823 128.497 56.703 126.567 58.6203 126.875C59.3023 127.082 59.9227 127.455 60.4268 127.958C60.931 128.463 61.3035 129.083 61.5116 129.765C61.0583 130.515 58.7747 134.093 56.6073 133.868Z" fill="black"/>
<path fill-rule="evenodd" clip-rule="evenodd" d="M183.318 195.614C179.547 206.424 157.757 206.872 157.757 206.872C155.501 204.821 152.924 203.154 150.128 201.937C145.889 200.22 134.166 192.852 129.294 187.636C122.498 180.361 125.282 177.945 119.271 165.318C118.095 162.85 114.38 154.961 117.049 152.754C119.717 150.548 124.528 150.265 130.537 164.229C130.537 164.229 129.595 158.014 128.829 154.485C128.062 150.956 124.089 144.014 122.719 139.249C121.35 134.484 120.231 133.483 119.193 129.992C118.155 126.501 116.704 119.33 119.18 116.303C121.656 113.276 124.948 114.987 126.336 119.142C127.724 123.297 129.271 129.666 131.312 132.207C134.932 136.706 136.481 143.413 138.714 146.011C138.714 146.011 142.855 145.607 144.746 145.359C146.637 145.111 151.061 143.984 154.143 147.199C154.143 147.199 159.184 148.708 160.726 151.026C160.726 151.026 162.675 151.403 164.788 155.457C166.901 159.51 179.167 191.267 183.318 195.614Z" fill="#FFD997"/>
<path d="M183.573 195.369C179.48 191.081 167.225 159.374 165.102 155.297C163.244 151.735 161.469 150.901 160.945 150.725C159.378 148.534 155.036 147.11 154.334 146.89C151.454 143.956 147.503 144.579 145.369 144.911C143.981 145.129 140.535 145.476 138.872 145.64C137.945 144.327 137.18 142.906 136.597 141.408C130.889 127.672 132.032 136.538 127.691 122.286C127.34 121.13 127.001 120.017 126.672 119.025C125.242 114.741 121.634 112.737 118.906 116.073C115.961 119.673 118.345 128.379 118.853 130.088C119.841 133.41 121.072 134.795 122.377 139.342C123.762 144.158 127.726 151.065 128.484 154.559C128.926 156.599 129.433 159.571 129.777 161.69C126.848 155.553 123.908 152.094 121.022 151.396C120.286 151.226 119.521 151.236 118.789 151.425C118.059 151.614 117.384 151.977 116.823 152.483C114.867 154.1 115.558 158.352 118.951 165.474C124.896 177.974 122.172 180.535 129.034 187.88C134.059 193.259 145.955 200.63 149.995 202.268C152.749 203.472 155.288 205.114 157.515 207.132C157.583 207.191 157.673 207.223 157.765 207.219C157.856 207.214 157.942 207.175 158.005 207.109C158.068 207.043 158.103 206.953 158.103 206.862C158.102 206.771 158.066 206.683 158.002 206.618C155.716 204.532 153.101 202.84 150.261 201.611C146.27 199.993 134.515 192.71 129.552 187.396C122.896 180.271 125.581 177.752 119.591 165.168C117.461 160.699 116.624 157.802 116.479 155.929C117.434 157.679 119.136 160.053 121.044 159.49C123.923 158.635 123.667 155.577 122.495 152.822C124.468 154.103 127.068 157.161 130.056 164.001C131.26 166.457 132.11 169.073 132.581 171.767C132.895 174.721 132.383 175.833 132.369 175.861C132.347 175.902 132.334 175.947 132.331 175.993C132.326 176.04 132.332 176.087 132.346 176.131C132.36 176.176 132.383 176.217 132.412 176.253C132.442 176.288 132.479 176.317 132.521 176.339C132.562 176.361 132.608 176.374 132.653 176.377C132.7 176.381 132.747 176.376 132.791 176.362C132.836 176.347 132.877 176.325 132.913 176.295C132.948 176.265 132.977 176.228 132.999 176.187C133.025 176.137 133.629 174.928 133.286 171.694C132.835 169.074 132.026 166.527 130.884 164.126C130.79 163.515 129.906 157.74 129.18 154.412C128.432 151.887 127.461 149.433 126.278 147.08C121.938 137.531 123.654 139.482 120.997 133.644C120.416 132.432 119.928 131.179 119.536 129.893C118.209 125.425 117.383 119.34 119.343 116.678C119.669 118.412 120.71 122.487 123.268 122.487C124.499 122.487 125.682 121.682 126.162 119.739C127.5 123.869 129.019 129.921 131.04 132.431C134.835 137.148 136.177 144.049 138.809 146.592C146.545 154.065 145.64 155.133 146.319 155.133C146.38 155.133 146.439 155.116 146.492 155.087C146.544 155.058 146.589 155.015 146.62 154.963C146.652 154.912 146.67 154.853 146.673 154.794C146.676 154.733 146.663 154.673 146.636 154.619C145.353 152.075 141.066 147.794 139.517 146.29C141.347 146.108 144.126 145.825 145.484 145.613C147.647 145.274 151.264 144.709 153.892 147.45C153.934 147.494 153.987 147.526 154.045 147.545C154.095 147.559 158.981 149.043 160.434 151.228C160.485 151.303 160.563 151.357 160.652 151.378C160.671 151.378 162.489 151.821 164.472 155.626C166.574 159.66 178.852 191.454 183.059 195.861C183.124 195.93 183.214 195.969 183.308 195.971C183.402 195.973 183.494 195.937 183.562 195.872C183.631 195.807 183.67 195.717 183.672 195.623C183.674 195.529 183.638 195.437 183.573 195.369ZM120.837 158.811C119.074 159.337 117.17 155.92 116.532 154.44C116.601 153.896 116.865 153.394 117.273 153.027C117.825 152.516 118.512 152.174 119.253 152.041C119.992 151.908 120.755 151.989 121.45 152.276C122.705 154.708 123.518 158.016 120.837 158.811ZM123.276 121.775C121.217 121.775 120.2 117.787 119.942 116.004C122.072 114.029 124.406 115.605 125.63 118.31C125.399 120.006 125.051 121.775 123.276 121.775Z" fill="black"/>
<path d="M25.231 187.684C19.7138 182.441 -6.47377 153.71 9.5683 111.266L14.1508 112.788C14.1976 112.803 14.2471 112.808 14.2961 112.804C14.3452 112.8 14.3928 112.784 14.4357 112.76C14.4786 112.735 14.5161 112.703 14.5457 112.664C14.5753 112.625 14.5962 112.579 14.6073 112.531L18.1442 97.1814C18.1595 97.1145 18.1552 97.0449 18.1317 96.9805C18.1082 96.9162 18.0666 96.86 18.0118 96.8188C17.9572 96.7776 17.8916 96.7532 17.8232 96.7484C17.755 96.7438 17.6867 96.759 17.6268 96.7922C11.9736 100.004 6.57434 103.643 1.47608 107.678C1.42808 107.717 1.39136 107.769 1.36962 107.828C1.34788 107.886 1.34189 107.949 1.35225 108.011C1.36261 108.071 1.38895 108.129 1.42863 108.177C1.4683 108.225 1.5199 108.262 1.57825 108.283L5.06405 109.577C-5.21727 142.402 0.0641603 168.331 21.755 191.077C24.043 193.477 27.5995 189.936 25.231 187.684Z" fill="black"/>
<path d="M197.613 87.1459C197.465 86.8969 197.474 86.9709 193.586 87.0198C191.359 52.6922 177.099 30.4024 148.674 16.9929C148.321 16.8268 147.933 16.7472 147.542 16.7603C147.151 16.7736 146.77 16.8793 146.428 17.069C146.028 17.2855 145.698 17.6109 145.475 18.0077C145.252 18.4043 145.147 18.8559 145.17 19.3103C145.193 19.7646 145.345 20.203 145.608 20.5746C145.87 20.9462 146.231 21.236 146.652 21.4102C153.644 24.4178 188.461 41.6924 188.775 87.0676L183.954 87.298C183.905 87.3005 183.856 87.3133 183.812 87.3355C183.768 87.3576 183.729 87.3887 183.698 87.4267C183.667 87.4648 183.643 87.5089 183.63 87.5564C183.617 87.6038 183.613 87.6536 183.62 87.7024L185.846 103.296C185.856 103.363 185.884 103.427 185.93 103.479C185.974 103.531 186.033 103.568 186.099 103.587C186.164 103.606 186.235 103.605 186.3 103.585C186.365 103.564 186.424 103.525 186.468 103.473C190.586 98.4414 194.313 93.102 197.616 87.5013C197.648 87.447 197.663 87.3855 197.663 87.3231C197.662 87.2606 197.645 87.1994 197.613 87.1459Z" fill="black"/>
<path fill-rule="evenodd" clip-rule="evenodd" d="M77.6437 28.1982L75.2274 30.5243C74.5586 30.4463 73.9299 30.1647 73.4266 29.7176C72.9232 29.2704 72.5695 28.6793 72.4133 28.0243L86.8098 13.254C87.5043 13.3592 88.1603 13.6409 88.7148 14.0722C89.2694 14.5034 89.704 15.0697 89.9771 15.717L84.1359 21.7049L85.8826 23.6983L84.3609 25.1842L82.4457 23.4972L81.4023 24.6472L84.3435 28.0167L80.924 31.3732L77.6437 28.1982Z" fill="white"/>
<path d="M90.2987 15.5713C90.0019 14.8723 89.5317 14.2606 88.9326 13.7941C88.3335 13.3275 87.6252 13.0215 86.8748 12.9051C86.8176 12.8938 86.7584 12.8972 86.7029 12.9151C86.6473 12.933 86.5973 12.9647 86.5574 13.0072L72.1588 27.7754C72.1151 27.8204 72.084 27.8763 72.069 27.9372C72.0539 27.9981 72.0552 28.0619 72.0729 28.1222C72.2474 28.8418 72.6376 29.491 73.1912 29.9829C73.7449 30.4747 74.4355 30.7858 75.1707 30.8743C75.4142 30.9134 75.3359 30.9112 77.6424 28.6906L80.6804 31.6253C80.7467 31.6896 80.8354 31.7255 80.9277 31.7255C81.0199 31.7255 81.1086 31.6896 81.1749 31.6253L84.5923 28.2711C84.6568 28.2077 84.6945 28.122 84.6978 28.0316C84.7011 27.9413 84.6695 27.853 84.6096 27.7852L81.8771 24.6516L82.4727 23.994L84.126 25.4505C84.1929 25.5099 84.2799 25.5416 84.3693 25.5392C84.4587 25.5368 84.5439 25.5004 84.6075 25.4374L86.1292 23.9516C86.1942 23.8883 86.2323 23.8025 86.2358 23.7118C86.2393 23.6212 86.2077 23.5327 86.1477 23.4646L84.6173 21.7179L90.2291 15.9637C90.2789 15.9129 90.312 15.8483 90.3245 15.7783C90.3369 15.7083 90.3279 15.6362 90.2987 15.5713ZM83.8857 21.4603C83.8235 21.5241 83.7877 21.6091 83.7855 21.6983C83.7832 21.7873 83.8148 21.874 83.8738 21.9408L85.3955 23.6798L84.351 24.7016L82.6836 23.232C82.6136 23.1709 82.5225 23.1396 82.4297 23.1446C82.337 23.1498 82.2498 23.1908 82.1869 23.2592L81.1434 24.4092C81.0856 24.474 81.0536 24.5578 81.0536 24.6445C81.0536 24.7314 81.0856 24.8152 81.1434 24.8798L83.8607 27.9993L80.926 30.8786L78.1565 28.2004L80.2445 26.2233C80.3129 26.1587 80.3527 26.0697 80.3554 25.9757C80.358 25.8818 80.3232 25.7906 80.2587 25.7222C80.1941 25.6539 80.105 25.6141 80.011 25.6114C79.917 25.6087 79.8259 25.6435 79.7576 25.7081L75.7881 29.4971C75.735 28.9304 75.4765 28.4026 75.0613 28.0132C74.646 27.6238 74.1028 27.3997 73.5338 27.383L86.9281 13.6398C87.491 13.7474 88.0211 13.9849 88.476 14.3334C88.931 14.682 89.2982 15.1319 89.5487 15.6474L83.8857 21.4603Z" fill="black"/>
<path d="M94.9753 10.904C94.7144 10.904 95.1503 11.3768 89.6885 3.76395C89.6378 3.68743 89.6189 3.59425 89.6355 3.50404C89.6523 3.41382 89.7032 3.3336 89.7779 3.28023C89.8525 3.22686 89.945 3.20452 90.0357 3.2179C90.1265 3.23129 90.2084 3.27936 90.2645 3.352L95.2644 10.3442C95.3022 10.3973 95.3245 10.4597 95.3292 10.5245C95.3338 10.5895 95.3204 10.6544 95.2905 10.7123C95.2607 10.7701 95.2155 10.8186 95.1599 10.8524C95.1042 10.8863 95.0404 10.9041 94.9753 10.904Z" fill="black"/>
<path d="M101.298 10.904C101.229 10.9039 101.162 10.884 101.105 10.8468C101.048 10.8094 101.002 10.7562 100.975 10.6937C100.947 10.6312 100.938 10.5619 100.948 10.4943C100.959 10.4267 100.989 10.3636 101.035 10.3127L108.381 2.15313C108.445 2.08785 108.532 2.04982 108.624 2.04699C108.715 2.04414 108.804 2.07671 108.871 2.13789C108.939 2.19906 108.981 2.2841 108.988 2.37525C108.994 2.4664 108.966 2.55662 108.907 2.62703C101.39 10.9888 101.549 10.904 101.298 10.904Z" fill="black"/>
<path d="M97.7825 7.93014L97.7292 0.354219C97.7292 0.260242 97.7665 0.170114 97.833 0.103658C97.8995 0.0372141 97.9896 -0.00012207 98.0836 -0.00012207C98.1776 -0.00012207 98.2677 0.0372141 98.3341 0.103658C98.4006 0.170114 98.4379 0.260242 98.4379 0.354219L98.4912 7.92688C98.4916 8.0209 98.4547 8.11112 98.3886 8.17796C98.3224 8.2447 98.2325 8.28242 98.1385 8.28285C98.0445 8.28329 97.9542 8.24633 97.8874 8.18025C97.8207 8.11405 97.7829 8.02416 97.7825 7.93014Z" fill="black"/>
<path fill-rule="evenodd" clip-rule="evenodd" d="M106.82 16.2549L114.659 22.757L111.942 26.0178L104.489 19.8831L106.82 16.2549Z" fill="white"/>
<path d="M114.716 22.3441L107.277 16.1746C106.237 14.7768 102.699 19.0268 104.072 20.1583L111.387 26.2255C109.256 29.6483 108.887 33.0786 110.646 34.4308C113.907 36.9307 121.002 30.6124 122.134 24.7919C123.069 19.9561 119.141 18.6224 114.716 22.3441ZM118.859 25.7864C117.612 29.9841 111.685 34.2645 112.947 30.0254C114.177 25.8527 120.117 21.5278 118.859 25.7886V25.7864ZM105.084 20.0767C106.172 19.4177 106.986 18.388 107.375 17.1768L114.179 22.8202C113.277 23.6648 112.472 24.6069 111.777 25.6288L105.084 20.0767Z" fill="black"/>
<path fill-rule="evenodd" clip-rule="evenodd" d="M186.855 144.148L173.451 130.094L165.155 131.717L158.181 123.891L172.04 111.426L179.247 119.439L176.652 127.193L199.643 151.205C199.514 153.433 198.398 154.357 196.559 154.327L195.375 153.086L192.623 155.717L190.248 153.23L193.002 150.599L191.087 148.591L186.592 152.885L182.353 148.45L186.855 144.148Z" fill="#81F8F8"/>
<path d="M165.224 129.582C164.983 129.582 165.332 129.921 160.589 124.12C160.53 124.05 160.502 123.958 160.51 123.867C160.517 123.776 160.56 123.691 160.629 123.63L168.005 117.154C168.076 117.094 168.168 117.064 168.26 117.071C168.353 117.077 168.44 117.121 168.501 117.19C168.563 117.261 168.594 117.352 168.589 117.444C168.583 117.537 168.541 117.625 168.472 117.687L161.353 123.937L165.497 129.003C165.54 129.055 165.567 129.118 165.576 129.184C165.583 129.251 165.572 129.318 165.544 129.379C165.515 129.44 165.47 129.491 165.414 129.527C165.356 129.564 165.291 129.582 165.224 129.582Z" fill="black"/>
<path d="M199.899 150.956L177.055 127.1C179.798 118.902 179.705 119.417 179.51 119.199L172.304 111.186C172.274 111.151 172.235 111.123 172.193 111.103C172.152 111.083 172.106 111.071 172.059 111.068C172.013 111.066 171.967 111.073 171.922 111.088C171.879 111.103 171.839 111.127 171.804 111.159L157.944 123.624C157.91 123.654 157.881 123.692 157.862 123.733C157.841 123.776 157.83 123.821 157.827 123.867C157.825 123.914 157.831 123.961 157.847 124.004C157.863 124.047 157.887 124.088 157.917 124.122C165.432 132.561 164.926 132.118 165.223 132.065L173.328 130.479L186.354 144.137L182.115 148.19C182.081 148.222 182.054 148.261 182.035 148.304C182.016 148.346 182.006 148.392 182.005 148.438C182.004 148.485 182.011 148.532 182.029 148.575C182.045 148.619 182.07 148.658 182.103 148.692C186.722 153.519 186.38 153.234 186.586 153.236C186.793 153.238 186.478 153.486 191.079 149.087L192.506 150.584L190.006 152.975C189.972 153.007 189.945 153.046 189.925 153.088C189.907 153.131 189.897 153.177 189.896 153.223C189.895 153.27 189.903 153.316 189.92 153.36C189.937 153.403 189.962 153.443 189.995 153.476C192.545 156.148 192.41 156.071 192.625 156.071C192.822 156.071 192.659 156.179 195.367 153.589C196.434 154.708 196.333 154.684 196.643 154.684C198.708 154.684 199.868 153.488 199.999 151.225C200.002 151.176 199.995 151.126 199.977 151.08C199.96 151.034 199.934 150.992 199.899 150.956ZM192.635 155.212L190.749 153.238L192.909 151.173L194.794 153.146L192.635 155.212ZM173.288 129.766L165.288 131.331L158.682 123.915L172.016 111.923L178.848 119.519L176.348 126.989L173.288 129.766ZM173.958 130.113L176.636 127.683L177.689 128.782L174.959 131.163L173.958 130.113ZM186.605 152.381L182.858 148.458L186.845 144.654L190.588 148.58L186.605 152.381ZM196.713 153.971L175.45 131.676L178.179 129.294L199.278 151.33C199.136 153.105 198.316 153.948 196.711 153.971H196.713Z" fill="black"/>
<path fill-rule="evenodd" clip-rule="evenodd" d="M32.1858 55.2663L27.6305 52.6142C27.6305 52.6142 31.5315 44.8394 32.1054 41.4623C32.6793 38.0851 30.1554 36.5526 26.7196 35.5504C25.8355 35.2306 24.8625 35.2618 24.0006 35.6374C23.1388 36.013 22.4536 36.7046 22.086 37.5699L18.4991 45.1252L12.384 42.5731C12.384 42.5731 16.8785 34.2287 19.06 31.9581C25.0273 25.7452 38.0585 32.7918 37.5629 41.346C37.2574 46.5632 32.1858 55.2663 32.1858 55.2663Z" fill="white"/>
<path fill-rule="evenodd" clip-rule="evenodd" d="M8.87079 46.3905C8.87079 46.3905 20.2966 46.372 33.8094 56.7946L25.5487 74.7117C25.5487 74.7117 23.9009 76.9834 19.6336 76.5377C15.3663 76.0921 5.94693 72.4508 1.64702 68.5955C-2.65289 64.7401 8.87079 46.3905 8.87079 46.3905Z" fill="#81F8F8"/>
<path d="M22.6062 75.5029C16.0899 71.6534 9.12321 68.6232 1.86422 66.4813C1.77641 66.4539 1.70269 66.3934 1.65868 66.3126C1.61466 66.2318 1.60378 66.1371 1.62834 66.0485C1.65291 65.9598 1.71098 65.8841 1.7903 65.8375C1.86961 65.791 1.96395 65.777 2.05335 65.7987C9.37059 67.9579 16.3934 71.0117 22.9627 74.8909C23.0354 74.9421 23.0863 75.0188 23.1053 75.1057C23.1242 75.1926 23.11 75.2835 23.0651 75.3605C23.0203 75.4373 22.9484 75.4946 22.8634 75.5209C22.7784 75.5473 22.6866 75.5409 22.6062 75.5029Z" fill="black"/>
<path d="M19.3645 55.2936C18.858 54.9835 18.2603 54.8569 17.6715 54.9347C17.0827 55.0124 16.5385 55.2901 16.1299 55.7211C15.7212 56.1522 15.4731 56.7104 15.4268 57.3025C15.3805 57.8947 15.5388 58.4846 15.8755 58.974L13.8005 63.8652C13.7822 63.908 13.7727 63.954 13.7722 64.0005C13.7718 64.047 13.7806 64.0932 13.7981 64.1363C13.8155 64.1794 13.8414 64.2187 13.8741 64.2518C13.9067 64.285 13.9456 64.3113 13.9885 64.3293C14.6233 64.666 15.2899 64.9388 15.9787 65.1434C16.0484 65.1433 16.1165 65.1226 16.1746 65.0839C16.2325 65.0453 16.2778 64.9903 16.3048 64.926L18.37 60.0685C18.8977 59.9932 19.3893 59.757 19.7781 59.3922C20.1668 59.0275 20.4336 58.5518 20.5423 58.03C20.651 57.5081 20.5962 56.9654 20.3855 56.4758C20.1747 55.9862 19.8182 55.5734 19.3645 55.2936Z" fill="black"/>
<path d="M18.8004 31.7126C16.6124 33.9951 12.2538 42.0624 12.069 42.4058C11.1864 44.046 18.0233 47.1416 18.808 45.284L22.4199 37.7005C22.7487 36.9118 23.3713 36.2819 24.1562 35.9442C24.941 35.6065 25.8265 35.5873 26.6253 35.8908C30.6795 37.0733 32.2154 38.7168 31.7599 41.4026C31.2697 44.2971 28.2274 50.6078 27.4828 52.1241C17.0341 46.1134 8.98866 46.0373 8.87561 46.0373C8.81572 46.0373 8.75681 46.0525 8.70442 46.0814C8.65192 46.1102 8.60768 46.152 8.57562 46.2025C8.09954 46.9634 -3.05458 64.8521 1.41489 68.8597C5.8985 72.8857 15.3896 76.4508 19.5939 76.8899C22.8395 77.228 25.1035 75.9899 25.8677 74.8595L34.1284 56.9436C34.1627 56.8696 34.1707 56.7861 34.1509 56.707C34.1311 56.6278 34.0848 56.5579 34.0197 56.5088C33.5124 56.1211 33.0113 55.7469 32.5164 55.386C32.9806 54.5817 37.612 46.4481 37.9066 41.3646C38.4305 32.4582 24.984 25.2779 18.8004 31.7126ZM33.3653 56.9034L25.2568 74.5019C25.1916 74.5878 23.6481 76.6008 19.6634 76.1856C15.6418 75.766 6.20067 72.2052 1.8801 68.3325C-1.42744 65.3684 5.84198 51.9198 9.06039 46.7503C10.606 46.8123 21.1601 47.5764 33.3697 56.9034H33.3653ZM37.2022 41.3254C36.9261 46.0862 32.5208 53.9556 31.9393 54.9773C30.6295 54.0534 29.3426 53.2252 28.0883 52.4774C28.8111 51.0111 31.9306 44.5754 32.4501 41.5178C33.1186 37.5755 29.7893 36.0744 26.8133 35.206C25.8481 34.872 24.7925 34.9142 23.8572 35.3245C22.9219 35.7347 22.1757 36.4827 21.7677 37.419L18.5504 44.1928C17.1224 42.7662 15.2155 41.921 13.1994 41.8211C14.4309 39.5929 17.6157 33.9712 19.3134 32.2039C24.9959 26.2844 37.6881 33.006 37.2022 41.3254Z" fill="black"/>
</svg>
