<svg width="149" height="85" viewBox="0 0 149 85" fill="none" xmlns="http://www.w3.org/2000/svg">
<g clip-path="url(#clip0_366_126)">
<mask id="mask0_366_126" style="mask-type:luminance" maskUnits="userSpaceOnUse" x="0" y="0" width="149" height="85">
<path d="M149 0H0V85H149V0Z" fill="white"/>
</mask>
<g mask="url(#mask0_366_126)">
<path d="M116.467 16.7862H40.9346V13.8022C40.9348 12.9285 41.2819 12.0907 41.8997 11.4729C42.5175 10.8551 43.3553 10.508 44.229 10.5078H115.46C115.339 11.0996 115.278 11.7022 115.277 12.3063V12.3791H52.7458V14.8892H115.596L115.657 14.8722C115.856 15.538 116.127 16.1799 116.467 16.7862Z" fill="#81F8F8"/>
<path d="M82.0271 65.7104C82.5098 65.7103 82.9817 65.8534 83.3832 66.1215C83.7846 66.3896 84.0976 66.7707 84.2824 67.2167C84.4672 67.6627 84.5156 68.1534 84.4214 68.6269C84.3273 69.1004 84.0948 69.5353 83.7535 69.8766C83.4121 70.218 82.9772 70.4504 82.5038 70.5446C82.0303 70.6387 81.5395 70.5902 81.0936 70.4054C80.6476 70.2206 80.2665 69.9078 79.9984 69.5063C79.7303 69.1049 79.5872 68.6329 79.5874 68.1502C79.5878 67.5033 79.845 66.883 80.3024 66.4255C80.7599 65.9681 81.3802 65.7108 82.0271 65.7104Z" fill="white"/>
<path d="M126.049 29.0287V57.1341C125.47 57.383 124.906 57.6674 124.362 57.9858L123.09 57.5553L123.123 57.4569V23.688L126.049 29.0287Z" fill="#211C5C"/>
<path d="M126.049 23.2521V29.0288L123.123 23.6864V22.3625C124.069 22.7475 125.049 23.0453 126.049 23.2521Z" fill="black"/>
<path d="M120.392 72.5997H115.056L117.548 63.7012H119.188C118.758 64.768 118.537 65.9074 118.536 67.0576C118.551 69.0551 119.201 70.9961 120.392 72.5997Z" fill="black"/>
<path d="M117.551 63.7012L115.058 72.5997H42.453C41.2743 72.5997 40.1439 72.1315 39.3105 71.298C38.477 70.4646 38.0088 69.3342 38.0088 68.1555V46.931L40.9347 43.1936V60.4068C40.9349 61.2805 41.282 62.1183 41.8998 62.7361C42.5176 63.3539 43.3554 63.701 44.2291 63.7012H117.551ZM84.4724 68.1501C84.4725 67.6673 84.3295 67.1953 84.0615 66.7938C83.7934 66.3923 83.4122 66.0792 82.9663 65.8943C82.5203 65.7094 82.0295 65.6608 81.556 65.7548C81.0824 65.8488 80.6473 66.0811 80.3058 66.4223C79.9642 66.7635 79.7315 67.1984 79.6371 67.6718C79.5427 68.1453 79.5908 68.6361 79.7753 69.0823C79.9598 69.5284 80.2724 69.9098 80.6737 70.1783C81.075 70.4468 81.5468 70.5902 82.0296 70.5905C82.6768 70.5903 83.2974 70.3331 83.755 69.8755C84.2127 69.4179 84.4699 68.7973 84.4701 68.1501H84.4724Z" fill="#211C5C"/>
<path d="M116.499 25.0482C116.671 25.044 116.842 25.0742 117.002 25.1371C117.162 25.2 117.308 25.2942 117.431 25.4143C117.554 25.5344 117.652 25.6779 117.719 25.8364C117.785 25.9948 117.82 26.165 117.82 26.337C117.82 26.5089 117.785 26.6791 117.719 26.8376C117.652 26.9961 117.554 27.1395 117.431 27.2596C117.308 27.3797 117.162 27.474 117.002 27.5368C116.842 27.5997 116.671 27.6299 116.499 27.6257H86.7895C86.5345 27.6262 86.285 27.5509 86.0728 27.4094C85.8606 27.2679 85.6952 27.0666 85.5976 26.831C85.4999 26.5953 85.4745 26.336 85.5245 26.0859C85.5744 25.8357 85.6976 25.6061 85.8783 25.4261C85.9974 25.3057 86.1394 25.2103 86.2959 25.1455C86.4523 25.0806 86.6202 25.0475 86.7895 25.0482H116.499Z" fill="#81F8F8"/>
<path d="M116.499 30.5593C116.841 30.5593 117.169 30.6951 117.411 30.9369C117.652 31.1787 117.788 31.5066 117.788 31.8484C117.788 32.1903 117.652 32.5182 117.411 32.76C117.169 33.0018 116.841 33.1376 116.499 33.1376H71.7582C71.4161 33.137 71.0883 33.0008 70.8465 32.7588C70.6047 32.5169 70.4687 32.189 70.4683 31.8469C70.4697 31.5055 70.6061 31.1784 70.8478 30.9372C71.0894 30.696 71.4167 30.5601 71.7582 30.5593H116.499Z" fill="black"/>
<path d="M116.499 36.0712C116.671 36.067 116.842 36.0972 117.002 36.1601C117.162 36.2229 117.308 36.3172 117.431 36.4373C117.554 36.5574 117.652 36.7009 117.719 36.8593C117.786 37.0178 117.82 37.188 117.82 37.3599C117.82 37.5319 117.786 37.7021 117.719 37.8605C117.652 38.019 117.554 38.1625 117.431 38.2826C117.308 38.4027 117.162 38.4969 117.002 38.5598C116.842 38.6227 116.671 38.6529 116.499 38.6487H101.821C101.479 38.6485 101.151 38.5125 100.909 38.2706C100.667 38.0288 100.531 37.7008 100.531 37.3588C100.532 37.0171 100.668 36.6896 100.91 36.4482C101.152 36.2068 101.479 36.0712 101.821 36.0712H116.499Z" fill="#81F8F8"/>
<path d="M116.499 41.5801C116.841 41.5801 117.169 41.7159 117.411 41.9577C117.652 42.1995 117.788 42.5273 117.788 42.8692C117.788 43.2111 117.652 43.539 117.411 43.7808C117.169 44.0226 116.841 44.1584 116.499 44.1584H69.2536C68.9114 44.158 68.5833 44.0219 68.3414 43.7799C68.0994 43.5379 67.9633 43.2099 67.9629 42.8677C67.9643 42.5261 68.1009 42.199 68.3427 41.9577C68.5845 41.7165 68.912 41.5807 69.2536 41.5801H116.499Z" fill="black"/>
<path d="M116.499 47.0942C116.835 47.1025 117.155 47.2419 117.39 47.4827C117.625 47.7235 117.757 48.0466 117.757 48.383C117.757 48.7194 117.625 49.0425 117.39 49.2833C117.155 49.5241 116.835 49.6635 116.499 49.6717H91.8004C91.4583 49.6715 91.1303 49.5356 90.8883 49.2937C90.6463 49.0519 90.5102 48.7239 90.5098 48.3818C90.5108 48.0401 90.6472 47.7127 90.8891 47.4714C91.131 47.2301 91.4587 47.0944 91.8004 47.0942H116.499Z" fill="#81F8F8"/>
<path d="M116.499 52.6054C116.671 52.6012 116.842 52.6314 117.002 52.6942C117.162 52.7571 117.308 52.8514 117.431 52.9715C117.554 53.0915 117.652 53.235 117.719 53.3935C117.786 53.5519 117.82 53.7222 117.82 53.8941C117.82 54.0661 117.786 54.2363 117.719 54.3947C117.652 54.5532 117.554 54.6967 117.431 54.8168C117.308 54.9368 117.162 55.0311 117.002 55.094C116.842 55.1568 116.671 55.1871 116.499 55.1828H109.337C108.995 55.1826 108.667 55.0467 108.425 54.8048C108.183 54.563 108.047 54.235 108.047 53.8929C108.048 53.5514 108.184 53.2241 108.426 52.9828C108.668 52.7415 108.995 52.6058 109.337 52.6054H116.499Z" fill="black"/>
<path d="M116.499 58.1165C116.841 58.1165 117.169 58.2523 117.411 58.494C117.652 58.7358 117.788 59.0637 117.788 59.4056C117.788 59.7475 117.652 60.0754 117.411 60.3171C117.169 60.5589 116.841 60.6947 116.499 60.6947H76.7692C76.427 60.6943 76.099 60.5582 75.857 60.3162C75.615 60.0743 75.4789 59.7462 75.4785 59.404C75.4799 59.0625 75.6165 58.7353 75.8583 58.4941C76.1001 58.2528 76.4276 58.1171 76.7692 58.1165H116.499Z" fill="#81F8F8"/>
<path d="M116.599 19.5464L115.349 22.1146H76.7691C76.4272 22.1146 76.0993 21.9788 75.8576 21.737C75.6158 21.4953 75.48 21.1674 75.48 20.8255C75.48 20.4836 75.6158 20.1557 75.8576 19.9139C76.0993 19.6722 76.4272 19.5364 76.7691 19.5364H116.499C116.534 19.5364 116.564 19.5441 116.599 19.5464Z" fill="black"/>
<path d="M42.453 8.37329H116.179C115.854 9.05309 115.612 9.76988 115.46 10.5079H44.2291C43.3554 10.5081 42.5176 10.8552 41.8998 11.473C41.282 12.0908 40.9349 12.9286 40.9347 13.8023V24.319C40.0269 23.6464 39.0453 23.0798 38.0088 22.6303V12.8175C38.0088 11.6388 38.477 10.5084 39.3105 9.67496C40.1439 8.84152 41.2743 8.37329 42.453 8.37329Z" fill="#211C5C"/>
<path d="M115.657 14.8722L115.597 14.8893H52.7456V12.3792H115.28C115.285 13.224 115.412 14.0638 115.657 14.8722Z" fill="black"/>
<path d="M102.221 52.6055C102.557 52.6138 102.877 52.7532 103.112 52.994C103.347 53.2348 103.478 53.5579 103.478 53.8943C103.478 54.2307 103.347 54.5538 103.112 54.7946C102.877 55.0354 102.557 55.1748 102.221 55.183H52.4691C52.1271 55.1828 51.7991 55.0469 51.5572 54.805C51.3154 54.5631 51.1794 54.2352 51.1792 53.8931C51.1802 53.5515 51.3165 53.2243 51.5583 52.983C51.8 52.7417 52.1275 52.606 52.4691 52.6055H102.221Z" fill="#81F8F8"/>
<path d="M94.7045 36.0713C95.0408 36.0796 95.3606 36.219 95.5956 36.4598C95.8305 36.7005 95.9621 37.0236 95.9621 37.3601C95.9621 37.6965 95.8305 38.0196 95.5956 38.2604C95.3606 38.5012 95.0408 38.6406 94.7045 38.6488H52.4691C52.1271 38.6486 51.7991 38.5126 51.5572 38.2708C51.3154 38.0289 51.1794 37.701 51.1792 37.3589C51.1798 37.0172 51.316 36.6897 51.5578 36.4483C51.7997 36.2069 52.1274 36.0713 52.4691 36.0713H94.7045Z" fill="black"/>
<path d="M91.6248 78.9905L92.6824 83.6523H91.1889H73.5073H71.375L73.8805 72.5999L91.6248 78.9905Z" fill="#211C5C"/>
<path d="M90.1773 72.5999L91.6252 78.9905L73.8809 72.5999H90.1773Z" fill="black"/>
<path d="M84.6834 47.0942C85.0197 47.1025 85.3395 47.2419 85.5744 47.4827C85.8094 47.7235 85.9409 48.0466 85.9409 48.383C85.9409 48.7194 85.8094 49.0425 85.5744 49.2833C85.3395 49.5241 85.0197 49.6635 84.6834 49.6717H52.4691C52.1271 49.6715 51.7991 49.5356 51.5572 49.2937C51.3154 49.0518 51.1794 48.7239 51.1792 48.3818C51.1798 48.0401 51.316 47.7126 51.5578 47.4712C51.7997 47.2298 52.1274 47.0942 52.4691 47.0942H84.6834Z" fill="black"/>
<path d="M79.6728 25.0482C79.8447 25.044 80.0157 25.0742 80.1757 25.1371C80.3358 25.2 80.4816 25.2942 80.6047 25.4143C80.7277 25.5344 80.8256 25.6779 80.8924 25.8364C80.9592 25.9948 80.9935 26.165 80.9935 26.337C80.9935 26.5089 80.9592 26.6791 80.8924 26.8376C80.8256 26.9961 80.7277 27.1395 80.6047 27.2596C80.4816 27.3797 80.3358 27.474 80.1757 27.5368C80.0157 27.5997 79.8447 27.6299 79.6728 27.6257H52.4688C52.2968 27.6299 52.1258 27.5997 51.9657 27.5368C51.8057 27.474 51.6599 27.3797 51.5368 27.2596C51.4137 27.1395 51.3159 26.9961 51.2491 26.8376C51.1824 26.6791 51.1479 26.5089 51.1479 26.337C51.1479 26.165 51.1824 25.9948 51.2491 25.8364C51.3159 25.6779 51.4137 25.5344 51.5368 25.4143C51.6599 25.2942 51.8057 25.2 51.9657 25.1371C52.1258 25.0742 52.2968 25.044 52.4688 25.0482H79.6728Z" fill="black"/>
<path d="M69.6521 19.5364C69.994 19.5364 70.3219 19.6722 70.5636 19.9139C70.8054 20.1557 70.9412 20.4836 70.9412 20.8255C70.9412 21.1674 70.8054 21.4953 70.5636 21.737C70.3219 21.9788 69.994 22.1146 69.6521 22.1146H52.4691C52.1271 22.1144 51.7991 21.9784 51.5572 21.7366C51.3154 21.4947 51.1794 21.1668 51.1792 20.8247C51.18 20.483 51.3162 20.1555 51.558 19.9141C51.7998 19.6726 52.1274 19.5368 52.4691 19.5364H69.6521Z" fill="#81F8F8"/>
<path d="M69.6521 58.1165C69.994 58.1165 70.3219 58.2523 70.5636 58.494C70.8054 58.7358 70.9412 59.0637 70.9412 59.4056C70.9412 59.7475 70.8054 60.0754 70.5636 60.3171C70.3219 60.5589 69.994 60.6947 69.6521 60.6947H52.4691C52.127 60.6943 51.799 60.5582 51.5572 60.3162C51.3153 60.0742 51.1794 59.7461 51.1792 59.404C51.1802 59.0625 51.3165 58.7352 51.5583 58.4939C51.8 58.2526 52.1275 58.1169 52.4691 58.1165H69.6521Z" fill="black"/>
<path d="M64.6419 30.5593C64.9838 30.5593 65.3117 30.6951 65.5534 30.9369C65.7952 31.1787 65.931 31.5066 65.931 31.8484C65.931 32.1903 65.7952 32.5182 65.5534 32.76C65.3117 33.0018 64.9838 33.1376 64.6419 33.1376H52.4691C52.127 33.1372 51.799 33.001 51.5572 32.759C51.3153 32.5171 51.1794 32.189 51.1792 31.8469C51.1802 31.5053 51.3165 31.1781 51.5583 30.9368C51.8 30.6954 52.1275 30.5597 52.4691 30.5593H64.6419Z" fill="#81F8F8"/>
<path d="M62.1364 41.5801C62.4783 41.5801 62.8062 41.7159 63.048 41.9577C63.2897 42.1995 63.4255 42.5273 63.4255 42.8692C63.4255 43.2111 63.2897 43.539 63.048 43.7808C62.8062 44.0226 62.4783 44.1584 62.1364 44.1584H52.4691C52.127 44.158 51.799 44.0218 51.5572 43.7798C51.3153 43.5379 51.1794 43.2098 51.1792 42.8677C51.1802 42.5261 51.3165 42.1989 51.5583 41.9576C51.8 41.7162 52.1275 41.5805 52.4691 41.5801H62.1364Z" fill="#81F8F8"/>
<path d="M45.2993 30.9558C45.4692 31.0192 45.6174 31.1298 45.7265 31.2746C45.8357 31.4194 45.9012 31.5923 45.9153 31.7731C45.9295 31.9538 45.8917 32.1349 45.8064 32.2949C45.7212 32.4549 45.592 32.5872 45.434 32.6762V32.5136C45.434 32.3859 45.434 32.2581 45.424 32.1304V32.1002C45.4075 31.7164 45.3658 31.3342 45.2993 30.9558Z" fill="black"/>
<path d="M44.9584 19.8648C45.1485 19.8642 45.3344 19.9199 45.4927 20.0251C45.651 20.1302 45.7745 20.2799 45.8476 20.4553C45.9208 20.6307 45.9402 20.8238 45.9035 21.0102C45.8668 21.1967 45.7756 21.368 45.6415 21.5026C45.5074 21.6372 45.3363 21.7289 45.15 21.7662C44.9637 21.8035 44.7705 21.7847 44.5949 21.7121C44.4192 21.6395 44.2691 21.5165 44.1635 21.3585C44.0579 21.2006 44.0015 21.0149 44.0015 20.8248C44.0015 20.5707 44.1022 20.327 44.2816 20.1471C44.4609 19.9671 44.7043 19.8656 44.9584 19.8648Z" fill="black"/>
<path d="M44.9584 25.3765C45.1483 25.376 45.334 25.4319 45.492 25.537C45.6501 25.6421 45.7734 25.7918 45.8464 25.967C45.9193 26.1423 45.9387 26.3352 45.9019 26.5215C45.8652 26.7077 45.774 26.8789 45.6399 27.0133C45.5058 27.1477 45.3349 27.2392 45.1488 27.2765C44.9626 27.3137 44.7696 27.2948 44.5942 27.2223C44.4188 27.1497 44.2688 27.0268 44.1633 26.869C44.0578 26.7112 44.0015 26.5256 44.0015 26.3358C44.0015 26.0817 44.1022 25.8381 44.2816 25.6583C44.461 25.4784 44.7044 25.3771 44.9584 25.3765Z" fill="black"/>
<path d="M44.9585 36.3996C45.2129 36.3996 45.4569 36.5007 45.6368 36.6806C45.8167 36.8605 45.9178 37.1045 45.9178 37.3589C45.9178 37.6133 45.8167 37.8573 45.6368 38.0372C45.4569 38.2171 45.2129 38.3182 44.9585 38.3182C44.754 38.3134 44.5562 38.2442 44.3933 38.1205C44.2304 37.9968 44.1106 37.8248 44.0511 37.6291L43.9194 37.5463C44.1456 37.195 44.3488 36.8296 44.528 36.4523L44.5706 36.4716C44.6503 36.3926 44.8927 36.3996 44.9585 36.3996Z" fill="black"/>
<path d="M44.9584 47.4219C45.1485 47.4213 45.3344 47.4771 45.4927 47.5822C45.651 47.6873 45.7745 47.837 45.8476 48.0124C45.9208 48.1878 45.9402 48.3809 45.9035 48.5674C45.8668 48.7538 45.7756 48.9252 45.6415 49.0597C45.5074 49.1943 45.3363 49.2861 45.15 49.3234C44.9637 49.3607 44.7705 49.3418 44.5949 49.2692C44.4192 49.1967 44.2691 49.0736 44.1635 48.9157C44.0579 48.7577 44.0015 48.572 44.0015 48.382C44.0015 48.1279 44.1022 47.8841 44.2816 47.7042C44.4609 47.5242 44.7043 47.4227 44.9584 47.4219Z" fill="black"/>
<path d="M44.9584 52.9336C45.1483 52.9331 45.334 52.989 45.492 53.0941C45.6501 53.1993 45.7734 53.3489 45.8464 53.5242C45.9193 53.6994 45.9387 53.8924 45.9019 54.0786C45.8652 54.2649 45.774 54.436 45.6399 54.5704C45.5058 54.7048 45.3349 54.7964 45.1488 54.8336C44.9626 54.8708 44.7696 54.8519 44.5942 54.7794C44.4188 54.7069 44.2688 54.5839 44.1633 54.4261C44.0578 54.2683 44.0015 54.0827 44.0015 53.8929C44.0015 53.6389 44.1022 53.3952 44.2816 53.2154C44.461 53.0356 44.7044 52.9342 44.9584 52.9336Z" fill="black"/>
<path d="M44.9584 58.4448C45.1485 58.4442 45.3344 58.5 45.4927 58.6051C45.6511 58.7103 45.7746 58.86 45.8477 59.0355C45.9208 59.2109 45.9402 59.4041 45.9035 59.5905C45.8667 59.777 45.7755 59.9483 45.6412 60.0829C45.507 60.2174 45.3359 60.3091 45.1495 60.3463C44.9631 60.3835 44.7699 60.3646 44.5943 60.2919C44.4187 60.2192 44.2686 60.096 44.1631 59.938C44.0576 59.7799 44.0013 59.5941 44.0015 59.4041C44.0015 59.15 44.1022 58.9064 44.2816 58.7266C44.461 58.5467 44.7044 58.4454 44.9584 58.4448Z" fill="black"/>
<path d="M39.609 41.5847L41.0027 42.2435L40.9322 42.3937V43.1935L38.0063 46.9309V42.3937C38.5567 42.1572 39.0919 41.887 39.609 41.5847Z" fill="black"/>
<path d="M34.8398 43.4236L34.8669 43.5467C33.5723 46.4827 31.9247 49.3962 29.9945 51.0175C29.3679 51.5435 28.765 52.0761 28.1859 52.6155C27.9675 49.414 27.7321 46.1745 27.5068 43.5467C28.6171 43.7488 29.7433 43.8501 30.8717 43.8495C32.2059 43.8514 33.5364 43.7087 34.8398 43.4236Z" fill="black"/>
<path d="M25.763 58.0995C26.2393 56.984 26.9736 55.9974 27.9054 55.2209C28.0479 55.1109 28.1903 55.0002 28.3359 54.8949C30.6348 53.2779 33.1398 51.976 35.7842 51.0237C35.7137 51.1739 33.0232 56.8731 30.4418 59.0503C29.8433 59.5536 29.2441 60.005 28.6781 60.444C28.1037 60.8808 27.5604 61.3571 27.0522 61.8694C26.4911 62.4218 26.0473 63.0818 25.7473 63.8097C25.4473 64.5377 25.2973 65.3188 25.3062 66.1061V66.2338H24.2021V66.1061C24.2162 64.7559 24.342 63.4093 24.5784 62.08C24.8037 60.7085 25.2017 59.371 25.763 58.0995Z" fill="#81F8F8"/>
<path d="M28.9522 66.1059V66.2337H27.6097C27.5444 64.7658 27.3566 63.3059 27.0483 61.8692C27.5566 61.3569 28.0999 60.8807 28.6743 60.4438C28.8469 63.3503 28.9522 65.5244 28.9522 66.1059Z" fill="black"/>
<path d="M28.3359 54.8927C28.1904 55.0003 28.0479 55.111 27.9055 55.221C26.9736 55.9975 26.2394 56.9841 25.7631 58.0997C25.465 57.6351 25.0965 57.1202 24.6706 56.5465C23.6811 55.2086 22.399 53.5802 21.0835 51.7709C19.4995 49.6494 18.0855 47.4061 16.8546 45.062C16.8546 45.062 16.8468 45.0496 16.8344 45.0272C16.6494 44.6586 16.4736 44.2932 16.3064 43.9223C10.827 31.837 14.377 19.7874 14.377 19.7874C16.2554 21.5008 18.0179 23.3372 19.6527 25.2846C18.6257 26.1931 17.7982 27.3046 17.2222 28.549C16.6463 29.7934 16.3345 31.1436 16.3064 32.5145C16.3064 37.8731 21.0835 42.3653 27.5067 43.5476C27.732 46.1754 27.9674 49.4149 28.1857 52.6164C28.2361 53.3798 28.2887 54.1409 28.3359 54.8927Z" fill="#81F8F8"/>
<path d="M24.0397 57.4978C24.0397 57.4978 24.4508 59.9452 24.5817 62.0775C24.3453 63.4068 24.2194 64.7535 24.2054 66.1036V66.2314H23.1052V66.1036C23.4923 63.513 23.0951 60.5971 23.1052 59.219C23.3842 58.6282 23.6962 58.0536 24.0397 57.4978Z" fill="black"/>
<path d="M24.6707 56.5464C24.4508 56.8561 24.2402 57.175 24.0396 57.4979C23.6961 58.0537 23.3841 58.6283 23.1051 59.2191C22.0897 61.4139 21.5559 63.8007 21.5396 66.2191V66.2315H21.0983C21.0716 63.5431 20.794 60.8632 20.269 58.2265C20.5222 56.901 20.6562 55.3981 20.818 53.8643C20.8908 53.1729 20.9682 52.4746 21.0634 51.7855L21.0836 51.77C22.399 53.581 23.6812 55.2069 24.6707 56.5464Z" fill="#81F8F8"/>
<path d="M21.0981 66.2337H19.147C19.0192 59.5945 14.5301 57.4978 10.0356 53.7102C5.39009 49.7994 0.555664 39.4756 0.555664 39.4756C5.38799 41.216 9.95449 43.6206 14.1236 46.6204C14.2535 46.7304 14.389 46.8338 14.5294 46.9301C17.7812 49.4805 19.4373 54.0904 20.2689 58.2264C20.7939 60.8639 21.0716 63.5446 21.0981 66.2337Z" fill="#81F8F8"/>
<path d="M21.0834 51.7708L21.0633 51.7862C20.9681 52.4753 20.8906 53.1737 20.8179 53.8651C20.3719 50.9067 18.0019 49.3334 14.5302 46.9309C14.3947 46.8256 14.2615 46.7203 14.1237 46.6212C10.9748 43.981 9.99072 37.54 9.99072 37.54C13.5956 39.6591 16.5641 44.5718 16.8343 45.0278C16.8467 45.0503 16.8545 45.0626 16.8545 45.0626C18.0854 47.4065 19.4994 49.6495 21.0834 51.7708Z" fill="black"/>
<path d="M38.0088 42.3939C38.5583 42.1573 39.0928 41.8871 39.6092 41.5848L41.0028 42.2437L47.8162 45.4507L43.403 38.2935C43.588 38.0504 43.7638 37.8026 43.9241 37.5463C44.1504 37.1949 44.3537 36.8292 44.5326 36.4515C45.1025 35.2731 45.41 33.9851 45.4339 32.6763V32.5137C45.4339 32.3859 45.4339 32.2582 45.4238 32.1304" stroke="black" stroke-width="0.980065" stroke-linecap="round" stroke-linejoin="round"/>
<path d="M45.4265 32.1002C45.409 31.7164 45.3663 31.3341 45.2988 30.9559C44.7476 28.2663 43.1854 25.8907 40.9343 24.319C40.0266 23.6464 39.0449 23.0798 38.0084 22.6303C35.7553 21.6582 33.3252 21.1637 30.8714 21.1778C26.7494 21.09 22.745 22.5547 19.6525 25.2814C18.6255 26.1899 17.7979 27.3015 17.222 28.5458C16.646 29.7902 16.3342 31.1404 16.3062 32.5113C16.3062 37.8699 21.0833 42.3621 27.5065 43.5444C28.6167 43.7465 29.7429 43.8478 30.8714 43.8472C32.2056 43.8491 33.536 43.7064 34.8394 43.4213C35.9268 43.1835 36.9882 42.8396 38.0084 42.3947" stroke="black" stroke-width="0.980065" stroke-linecap="round" stroke-linejoin="round"/>
<path d="M116.601 19.5465L117.313 18.0839C116.998 17.6729 116.713 17.2391 116.461 16.7863C116.123 16.1798 115.853 15.5379 115.655 14.8723C115.41 14.0638 115.283 13.224 115.279 12.3792V12.3064C115.279 11.7023 115.339 11.0997 115.46 10.5079C115.612 9.76986 115.852 9.05307 116.177 8.3732C118.231 4.04978 123.574 0.968262 129.843 0.968262C137.884 0.968262 144.405 6.04348 144.405 12.3064C144.405 18.5694 137.884 23.643 129.843 23.643C128.568 23.6451 127.296 23.5133 126.049 23.2497C125.048 23.0448 124.069 22.7477 123.123 22.3624C122.429 22.0828 121.756 21.7529 121.11 21.3752L114.296 24.2818L115.354 22.1139L116.606 19.5457" stroke="black" stroke-width="0.980065" stroke-linecap="round" stroke-linejoin="round"/>
<path d="M123.091 57.5559L118.734 56.0802L120.57 61.2785C120 62.0187 119.535 62.8339 119.188 63.7011C118.758 64.768 118.537 65.9073 118.536 67.0575C118.551 69.0552 119.202 70.9962 120.394 72.5996C122.886 76.0566 127.644 78.3941 133.102 78.3941C141.145 78.3941 147.665 73.3181 147.665 67.0575C147.665 60.7969 141.145 55.7217 133.102 55.7217C130.68 55.7093 128.281 56.1908 126.051 57.137C125.471 57.3859 124.908 57.6704 124.364 57.9887L123.091 57.5559Z" stroke="black" stroke-width="0.980065" stroke-linecap="round" stroke-linejoin="round"/>
<path d="M38.0088 22.6303V12.8175C38.0088 11.6388 38.477 10.5084 39.3105 9.67496C40.1439 8.84152 41.2743 8.37329 42.453 8.37329H116.179" stroke="black" stroke-width="0.980065" stroke-linecap="round" stroke-linejoin="round"/>
<path d="M73.883 72.5997H42.453C41.2743 72.5997 40.1439 72.1315 39.3105 71.298C38.477 70.4646 38.0088 69.3342 38.0088 68.1555V42.3938" stroke="black" stroke-width="0.980065" stroke-linecap="round" stroke-linejoin="round"/>
<path d="M120.392 72.5999H115.056H90.1772" stroke="black" stroke-width="0.980065" stroke-linecap="round" stroke-linejoin="round"/>
<path d="M126.049 23.252V29.0287V57.1371" stroke="black" stroke-width="0.980065" stroke-linecap="round" stroke-linejoin="round"/>
<path d="M40.9346 24.3219V13.8022C40.9348 12.9285 41.2819 12.0907 41.8997 11.4729C42.5175 10.8551 43.3553 10.508 44.229 10.5078H115.46" stroke="black" stroke-width="0.980065" stroke-linecap="round" stroke-linejoin="round"/>
<path d="M119.187 63.7012H44.229C43.3553 63.701 42.5175 63.3539 41.8997 62.7361C41.2819 62.1183 40.9348 61.2805 40.9346 60.4068V42.3938" stroke="black" stroke-width="0.980065" stroke-linecap="round" stroke-linejoin="round"/>
<path d="M123.123 22.3655V23.6879V57.4576" stroke="black" stroke-width="0.980065" stroke-linecap="round" stroke-linejoin="round"/>
<path d="M40.9346 16.7861H116.464" stroke="black" stroke-width="0.980065" stroke-linecap="round" stroke-linejoin="round"/>
<path d="M115.597 14.8893H52.7466V12.3792H115.259" stroke="black" stroke-width="0.980065" stroke-linecap="round" stroke-linejoin="round"/>
<path d="M84.4698 68.1502C84.4701 68.633 84.3273 69.1051 84.0593 69.5067C83.7913 69.9083 83.4102 70.2215 82.9643 70.4065C82.5183 70.5916 82.0275 70.6401 81.5539 70.5462C81.0803 70.4524 80.6451 70.2202 80.3035 69.879C79.9619 69.5378 79.7291 69.103 79.6346 68.6295C79.5401 68.156 79.5882 67.6651 79.7726 67.219C79.9571 66.7728 80.2698 66.3912 80.6711 66.1227C81.0724 65.8542 81.5442 65.7107 82.0271 65.7104C82.6745 65.7102 83.2954 65.9672 83.7535 66.4247C84.2116 66.8822 84.4692 67.5028 84.4698 68.1502Z" stroke="white" stroke-width="0.980065" stroke-linecap="round" stroke-linejoin="round"/>
<path d="M71.375 83.6523L73.8805 72.5999H90.1769L91.6248 78.9905L92.6824 83.6523" stroke="black" stroke-width="0.980065" stroke-linecap="round" stroke-linejoin="round"/>
<path d="M91.1894 83.6521H73.5078" stroke="black" stroke-width="0.980065" stroke-linecap="round" stroke-linejoin="round"/>
<path d="M73.8809 72.5999L91.6252 78.9905" stroke="black" stroke-width="0.980065" stroke-linecap="round" stroke-linejoin="round"/>
<path d="M64.6338 83.6521H68.4973" stroke="black" stroke-width="0.980065" stroke-linecap="round" stroke-linejoin="round"/>
<path d="M69.6445 83.6521H71.375H73.5073" stroke="black" stroke-width="0.980065" stroke-linecap="round" stroke-linejoin="round"/>
<path d="M9.51953 83.6521H13.383" stroke="black" stroke-width="0.980065" stroke-linecap="round" stroke-linejoin="round"/>
<path d="M28.4741 83.6521H38.4349" stroke="black" stroke-width="0.980065" stroke-linecap="round" stroke-linejoin="round"/>
<path d="M14.5303 83.6521H19.7557" stroke="black" stroke-width="0.980065" stroke-linecap="round" stroke-linejoin="round"/>
<path d="M91.189 83.6521H92.6825H95.0517" stroke="black" stroke-width="0.980065" stroke-linecap="round" stroke-linejoin="round"/>
<path d="M96.1992 83.6521H100.063" stroke="black" stroke-width="0.980065" stroke-linecap="round" stroke-linejoin="round"/>
<path d="M47.9092 15.1804L50.472 13.7024L47.9092 12.2212" stroke="black" stroke-width="0.980065" stroke-linecap="round" stroke-linejoin="round"/>
<path d="M46.2531 12.2212L43.688 13.7024L46.2531 15.1804" stroke="black" stroke-width="0.980065" stroke-linecap="round" stroke-linejoin="round"/>
<path d="M123.123 23.688L126.049 29.0287" stroke="black" stroke-width="0.980065" stroke-linecap="round" stroke-linejoin="round"/>
<path d="M117.548 63.7012L115.056 72.5997" stroke="black" stroke-width="0.980065" stroke-linecap="round" stroke-linejoin="round"/>
<path d="M40.9347 43.1936L38.0088 46.931" stroke="black" stroke-width="0.980065" stroke-linecap="round" stroke-linejoin="round"/>
<path d="M28.4738 83.6522H19.7557C18.3698 83.6522 17.0407 83.1017 16.0608 82.1217C15.0808 81.1418 14.5303 79.8127 14.5303 78.4268V66.2339H33.6992V78.4268C33.699 79.8126 33.1484 81.1416 32.1685 82.1215C31.1886 83.1014 29.8596 83.652 28.4738 83.6522Z" stroke="black" stroke-width="0.980065" stroke-linecap="round" stroke-linejoin="round"/>
<path d="M21.0981 66.2337C21.0716 63.5446 20.7939 60.8639 20.2689 58.2264C19.4373 54.0904 17.7812 49.4774 14.5301 46.9301C14.3946 46.8248 14.2615 46.7195 14.1236 46.6204C9.95449 43.6206 5.38799 41.216 0.555664 39.4756C0.555664 39.4756 5.39086 49.7994 10.0356 53.7102C14.5301 57.4978 19.0169 59.5945 19.147 66.2337" stroke="black" stroke-width="0.980065" stroke-linecap="round" stroke-linejoin="round"/>
<path d="M23.1051 59.2214C22.0896 61.4163 21.5558 63.8031 21.5396 66.2214" stroke="black" stroke-width="0.980065" stroke-linecap="round" stroke-linejoin="round"/>
<path d="M24.6705 56.5464C24.4506 56.8561 24.24 57.1751 24.0395 57.4979C23.696 58.0537 23.384 58.6283 23.105 59.2191" stroke="black" stroke-width="0.980065" stroke-linecap="round" stroke-linejoin="round"/>
<path d="M34.8671 43.5466C33.5725 46.4826 31.9249 49.3961 29.9947 51.0174C29.3681 51.5434 28.7652 52.076 28.186 52.6154" stroke="black" stroke-width="0.980065" stroke-linecap="round" stroke-linejoin="round"/>
<path d="M20.269 58.2264C20.5222 56.9009 20.6562 55.3981 20.818 53.8643C20.8908 53.1729 20.9682 52.4745 21.0634 51.7854" stroke="black" stroke-width="0.980065" stroke-linecap="round" stroke-linejoin="round"/>
<path d="M35.7898 51.0173C35.7171 51.1722 33.0265 56.8691 30.4475 59.0463C29.849 59.5496 29.2497 60.001 28.6838 60.44C28.1094 60.8768 27.5661 61.3531 27.0578 61.8654C26.4968 62.4178 26.053 63.0778 25.753 63.8057C25.453 64.5337 25.303 65.3147 25.3119 66.1021" stroke="black" stroke-width="0.980065" stroke-linecap="round" stroke-linejoin="round"/>
<path d="M28.3359 54.8925C30.6349 53.2755 33.1399 51.9736 35.7842 51.0212" stroke="black" stroke-width="0.980065" stroke-linecap="round" stroke-linejoin="round"/>
<path d="M24.2021 66.106C24.2162 64.7559 24.342 63.4093 24.5784 62.0799C24.8039 60.7092 25.2019 59.3726 25.763 58.1018C26.2393 56.9863 26.9736 55.9997 27.9054 55.2232C28.0479 55.1132 28.1903 55.0025 28.3359 54.8972" stroke="black" stroke-width="0.980065" stroke-linecap="round" stroke-linejoin="round"/>
<path d="M27.0483 61.8694C27.3566 63.306 27.5444 64.7659 27.6097 66.2338" stroke="black" stroke-width="0.980065" stroke-linecap="round" stroke-linejoin="round"/>
<path d="M16.855 45.0642C18.0859 47.4084 19.4999 49.6516 21.0839 51.7731C22.4002 53.5826 23.6816 55.2108 24.671 56.5487C25.0969 57.1224 25.4654 57.6404 25.7635 58.1019" stroke="black" stroke-width="0.980065" stroke-linecap="round" stroke-linejoin="round"/>
<path d="M19.6527 25.2836C18.0179 23.3363 16.2554 21.4998 14.377 19.7864C14.377 19.7864 10.827 31.836 16.3064 43.9213C16.4736 44.2922 16.6494 44.6577 16.8344 45.0262" stroke="black" stroke-width="0.980065" stroke-linecap="round" stroke-linejoin="round"/>
<path d="M28.3361 54.8973C28.2888 54.1431 28.2362 53.382 28.1859 52.6179C27.9675 49.4163 27.7321 46.1769 27.5068 43.5491" stroke="black" stroke-width="0.980065" stroke-linecap="round" stroke-linejoin="round"/>
<path d="M28.9524 66.1059C28.9524 65.5244 28.8471 63.3503 28.6768 60.4438" stroke="black" stroke-width="0.980065" stroke-linecap="round" stroke-linejoin="round"/>
<path d="M16.8545 45.0641C16.8545 45.0641 16.8467 45.0517 16.8343 45.0293C16.5641 44.5733 13.5956 39.6606 9.99072 37.5415C9.99072 37.5415 10.9748 43.9825 14.1237 46.6227C14.2537 46.7329 14.3894 46.8363 14.5302 46.9324C18.0019 49.3326 20.3719 50.9082 20.8179 53.8666" stroke="black" stroke-width="0.980065" stroke-linecap="round" stroke-linejoin="round"/>
<path d="M23.1052 59.219C23.0951 60.5972 23.4923 63.513 23.1052 66.1036" stroke="black" stroke-width="0.980065" stroke-linecap="round" stroke-linejoin="round"/>
<path d="M24.0396 57.4978C24.0396 57.4978 24.4506 59.9452 24.5814 62.0775" stroke="black" stroke-width="0.980065" stroke-linecap="round" stroke-linejoin="round"/>
<path d="M49.1899 18.5771V60.945" stroke="black" stroke-width="0.980065" stroke-linecap="round" stroke-linejoin="round"/>
<path d="M69.6521 22.1146H52.4691C52.1271 22.1144 51.7991 21.9784 51.5572 21.7366C51.3154 21.4947 51.1794 21.1668 51.1792 20.8247C51.18 20.483 51.3162 20.1555 51.558 19.9141C51.7998 19.6726 52.1274 19.5368 52.4691 19.5364H69.6521C69.994 19.5364 70.3219 19.6722 70.5636 19.9139C70.8054 20.1557 70.9412 20.4836 70.9412 20.8255C70.9412 21.1674 70.8054 21.4953 70.5636 21.737C70.3219 21.9788 69.994 22.1146 69.6521 22.1146Z" stroke="black" stroke-width="0.980065" stroke-linecap="round" stroke-linejoin="round"/>
<path d="M116.601 19.5464C116.564 19.5464 116.534 19.5364 116.499 19.5364H76.7691C76.4272 19.5364 76.0993 19.6722 75.8576 19.9139C75.6158 20.1557 75.48 20.4836 75.48 20.8255C75.48 21.1674 75.6158 21.4953 75.8576 21.737C76.0993 21.9788 76.4272 22.1146 76.7691 22.1146H115.349L116.601 19.5464Z" stroke="black" stroke-width="0.980065" stroke-linecap="round" stroke-linejoin="round"/>
<path d="M45.918 20.8247C45.9177 21.0142 45.8613 21.1994 45.7558 21.3568C45.6503 21.5142 45.5005 21.6368 45.3254 21.7091C45.1503 21.7815 44.9577 21.8003 44.7718 21.7632C44.586 21.7261 44.4154 21.6347 44.2814 21.5007C44.1475 21.3667 44.0563 21.1959 44.0194 21.0101C43.9824 20.8243 44.0014 20.6316 44.0739 20.4566C44.1463 20.2815 44.2691 20.1318 44.4266 20.0265C44.5841 19.9211 44.7692 19.8648 44.9587 19.8647C45.0848 19.8645 45.2097 19.8892 45.3263 19.9373C45.4428 19.9855 45.5487 20.0563 45.6378 20.1455C45.7269 20.2347 45.7975 20.3406 45.8456 20.4571C45.8937 20.5737 45.9183 20.6986 45.918 20.8247Z" stroke="black" stroke-width="0.980065" stroke-linecap="round" stroke-linejoin="round"/>
<path d="M79.6728 27.6257H52.4688C52.2968 27.6299 52.1258 27.5997 51.9657 27.5368C51.8057 27.474 51.6598 27.3797 51.5368 27.2596C51.4137 27.1395 51.3159 26.9961 51.2491 26.8376C51.1824 26.6791 51.1479 26.5089 51.1479 26.337C51.1479 26.165 51.1824 25.9948 51.2491 25.8364C51.3159 25.6779 51.4137 25.5344 51.5368 25.4143C51.6598 25.2942 51.8057 25.2 51.9657 25.1371C52.1258 25.0742 52.2968 25.044 52.4688 25.0482H79.6728C79.8447 25.044 80.0157 25.0742 80.1757 25.1371C80.3358 25.2 80.4816 25.2942 80.6047 25.4143C80.7277 25.5344 80.8256 25.6779 80.8924 25.8364C80.9592 25.9948 80.9935 26.165 80.9935 26.337C80.9935 26.5089 80.9592 26.6791 80.8924 26.8376C80.8256 26.9961 80.7277 27.1395 80.6047 27.2596C80.4816 27.3797 80.3358 27.474 80.1757 27.5368C80.0157 27.5997 79.8447 27.6299 79.6728 27.6257Z" stroke="black" stroke-width="0.980065" stroke-linecap="round" stroke-linejoin="round"/>
<path d="M116.499 27.6257H86.7895C86.5345 27.6262 86.285 27.5509 86.0728 27.4094C85.8606 27.2679 85.6952 27.0666 85.5976 26.831C85.4999 26.5953 85.4745 26.336 85.5245 26.0859C85.5744 25.8357 85.6976 25.6061 85.8783 25.4261C85.9974 25.3057 86.1394 25.2103 86.2959 25.1455C86.4523 25.0806 86.6202 25.0475 86.7895 25.0482H116.499C116.671 25.044 116.842 25.0742 117.002 25.1371C117.162 25.2 117.308 25.2942 117.431 25.4143C117.554 25.5344 117.652 25.6779 117.719 25.8364C117.785 25.9948 117.82 26.165 117.82 26.337C117.82 26.5089 117.785 26.6791 117.719 26.8376C117.652 26.9961 117.554 27.1395 117.431 27.2596C117.308 27.3797 117.162 27.474 117.002 27.5368C116.842 27.5997 116.671 27.6299 116.499 27.6257Z" stroke="black" stroke-width="0.980065" stroke-linecap="round" stroke-linejoin="round"/>
<path d="M45.918 26.3358C45.9179 26.5253 45.8615 26.7105 45.7562 26.868C45.6508 27.0255 45.5011 27.1482 45.326 27.2207C45.1508 27.2931 44.9582 27.3121 44.7723 27.2751C44.5864 27.238 44.4157 27.1468 44.2817 27.0128C44.1477 26.8788 44.0564 26.708 44.0194 26.5222C43.9824 26.3363 44.0013 26.1436 44.0738 25.9685C44.1462 25.7934 44.269 25.6437 44.4265 25.5383C44.584 25.4329 44.7692 25.3766 44.9587 25.3765C45.0848 25.3763 45.2096 25.4009 45.3261 25.4491C45.4426 25.4972 45.5484 25.5679 45.6375 25.657C45.7266 25.7461 45.7973 25.8519 45.8454 25.9684C45.8936 26.0849 45.9182 26.2097 45.918 26.3358Z" stroke="black" stroke-width="0.980065" stroke-linecap="round" stroke-linejoin="round"/>
<path d="M64.6419 33.1408H52.4691C52.127 33.1404 51.799 33.0042 51.5572 32.7623C51.3153 32.5203 51.1794 32.1922 51.1792 31.8501C51.1802 31.5085 51.3165 31.1813 51.5583 30.94C51.8 30.6987 52.1275 30.5629 52.4691 30.5625H64.6419C64.9838 30.5625 65.3117 30.6984 65.5534 30.9401C65.7952 31.1819 65.931 31.5098 65.931 31.8517C65.931 32.1936 65.7952 32.5215 65.5534 32.7632C65.3117 33.005 64.9838 33.1408 64.6419 33.1408Z" stroke="black" stroke-width="0.980065" stroke-linecap="round" stroke-linejoin="round"/>
<path d="M116.499 33.1408H71.7582C71.4161 33.1402 71.0883 33.004 70.8465 32.762C70.6047 32.5201 70.4687 32.1922 70.4683 31.8501C70.4697 31.5087 70.6061 31.1816 70.8478 30.9404C71.0894 30.6992 71.4167 30.5634 71.7582 30.5625H116.499C116.841 30.5625 117.169 30.6984 117.411 30.9401C117.652 31.1819 117.788 31.5098 117.788 31.8517C117.788 32.1936 117.652 32.5215 117.411 32.7632C117.169 33.005 116.841 33.1408 116.499 33.1408Z" stroke="black" stroke-width="0.980065" stroke-linecap="round" stroke-linejoin="round"/>
<path d="M45.4371 32.5136C45.4371 32.5686 45.4371 32.6236 45.4316 32.6762C45.5896 32.5872 45.7188 32.4549 45.804 32.2949C45.8893 32.1349 45.9271 31.9538 45.9129 31.7731C45.8988 31.5923 45.8333 31.4194 45.7241 31.2746C45.615 31.1298 45.4668 31.0192 45.2969 30.9558H45.2915C45.3601 31.3351 45.4045 31.7184 45.4247 32.1033V32.1343C45.434 32.2581 45.4371 32.3859 45.4371 32.5136Z" stroke="black" stroke-width="0.980065" stroke-linecap="round" stroke-linejoin="round"/>
<path d="M94.7045 38.6488H52.4691C52.1271 38.6486 51.7991 38.5126 51.5572 38.2708C51.3154 38.0289 51.1794 37.701 51.1792 37.3589C51.1798 37.0172 51.316 36.6897 51.5578 36.4483C51.7997 36.2069 52.1274 36.0713 52.4691 36.0713H94.7045C95.0408 36.0796 95.3606 36.219 95.5956 36.4598C95.8305 36.7005 95.9621 37.0236 95.9621 37.3601C95.9621 37.6965 95.8305 38.0196 95.5956 38.2604C95.3606 38.5012 95.0408 38.6406 94.7045 38.6488Z" stroke="black" stroke-width="0.980065" stroke-linecap="round" stroke-linejoin="round"/>
<path d="M116.499 38.6487H101.821C101.479 38.6485 101.151 38.5125 100.909 38.2706C100.667 38.0288 100.531 37.7008 100.531 37.3588C100.532 37.0171 100.668 36.6896 100.91 36.4482C101.152 36.2068 101.479 36.0712 101.821 36.0712H116.499C116.671 36.067 116.842 36.0972 117.002 36.1601C117.162 36.2229 117.308 36.3172 117.431 36.4373C117.554 36.5574 117.652 36.7009 117.719 36.8593C117.786 37.0178 117.82 37.188 117.82 37.3599C117.82 37.5319 117.786 37.7021 117.719 37.8605C117.652 38.019 117.554 38.1625 117.431 38.2826C117.308 38.4027 117.162 38.4969 117.002 38.5598C116.842 38.6227 116.671 38.6529 116.499 38.6487Z" stroke="black" stroke-width="0.980065" stroke-linecap="round" stroke-linejoin="round"/>
<path d="M44.5725 36.47C44.65 36.3926 44.8931 36.398 44.9597 36.398C45.2141 36.398 45.4581 36.4991 45.638 36.679C45.8179 36.8589 45.919 37.1029 45.919 37.3573C45.919 37.6117 45.8179 37.8557 45.638 38.0356C45.4581 38.2155 45.2141 38.3166 44.9597 38.3166C44.7552 38.3118 44.5574 38.2426 44.3945 38.1189C44.2316 37.9952 44.1118 37.8232 44.0522 37.6275" stroke="black" stroke-width="0.980065" stroke-linecap="round" stroke-linejoin="round"/>
<path d="M62.1364 44.1606H52.4691C52.127 44.1602 51.799 44.024 51.5572 43.7821C51.3153 43.5401 51.1794 43.212 51.1792 42.8699C51.1802 42.5283 51.3165 42.2011 51.5583 41.9598C51.8 41.7185 52.1275 41.5827 52.4691 41.5823H62.1364C62.4783 41.5823 62.8062 41.7182 63.048 41.9599C63.2897 42.2017 63.4255 42.5296 63.4255 42.8715C63.4255 43.2134 63.2897 43.5413 63.048 43.783C62.8062 44.0248 62.4783 44.1606 62.1364 44.1606Z" stroke="black" stroke-width="0.980065" stroke-linecap="round" stroke-linejoin="round"/>
<path d="M116.499 44.1606H69.2536C68.9114 44.1602 68.5833 44.0241 68.3414 43.7821C68.0994 43.5401 67.9633 43.2121 67.9629 42.8699C67.9643 42.5283 68.1009 42.2012 68.3427 41.9599C68.5845 41.7187 68.912 41.5829 69.2536 41.5823H116.499C116.841 41.5823 117.169 41.7182 117.411 41.9599C117.652 42.2017 117.788 42.5296 117.788 42.8715C117.788 43.2134 117.652 43.5413 117.411 43.783C117.169 44.0248 116.841 44.1606 116.499 44.1606Z" stroke="black" stroke-width="0.980065" stroke-linecap="round" stroke-linejoin="round"/>
<path d="M84.6834 49.6717H52.4691C52.1271 49.6715 51.7991 49.5356 51.5572 49.2937C51.3154 49.0518 51.1794 48.7239 51.1792 48.3818C51.1798 48.0401 51.316 47.7126 51.5578 47.4712C51.7997 47.2298 52.1274 47.0942 52.4691 47.0942H84.6834C85.0197 47.1025 85.3395 47.2419 85.5744 47.4827C85.8094 47.7235 85.9409 48.0466 85.9409 48.383C85.9409 48.7194 85.8094 49.0425 85.5744 49.2833C85.3395 49.5241 85.0197 49.6635 84.6834 49.6717Z" stroke="black" stroke-width="0.980065" stroke-linecap="round" stroke-linejoin="round"/>
<path d="M116.499 49.6717H91.8004C91.4583 49.6715 91.1303 49.5356 90.8883 49.2937C90.6463 49.0519 90.5102 48.7239 90.5098 48.3818C90.5108 48.0401 90.6472 47.7127 90.8891 47.4714C91.131 47.2301 91.4587 47.0944 91.8004 47.0942H116.499C116.835 47.1025 117.155 47.2419 117.39 47.4827C117.625 47.7235 117.757 48.0466 117.757 48.383C117.757 48.7194 117.625 49.0425 117.39 49.2833C117.155 49.5241 116.835 49.6635 116.499 49.6717Z" stroke="black" stroke-width="0.980065" stroke-linecap="round" stroke-linejoin="round"/>
<path d="M45.918 48.382C45.9177 48.5714 45.8613 48.7566 45.7558 48.914C45.6503 49.0714 45.5005 49.194 45.3254 49.2663C45.1503 49.3387 44.9577 49.3575 44.7718 49.3204C44.586 49.2833 44.4154 49.192 44.2814 49.0579C44.1475 48.9239 44.0563 48.7532 44.0194 48.5673C43.9824 48.3815 44.0014 48.1889 44.0739 48.0138C44.1463 47.8387 44.2691 47.689 44.4266 47.5837C44.5841 47.4784 44.7692 47.422 44.9587 47.4219C45.0848 47.4217 45.2097 47.4464 45.3263 47.4946C45.4428 47.5428 45.5487 47.6135 45.6378 47.7027C45.7269 47.7919 45.7975 47.8978 45.8456 48.0144C45.8937 48.1309 45.9183 48.2559 45.918 48.382Z" stroke="black" stroke-width="0.980065" stroke-linecap="round" stroke-linejoin="round"/>
<path d="M102.221 55.183H52.4691C52.1271 55.1828 51.7991 55.0469 51.5572 54.805C51.3154 54.5631 51.1794 54.2352 51.1792 53.8931C51.1802 53.5515 51.3165 53.2243 51.5583 52.983C51.8 52.7417 52.1275 52.606 52.4691 52.6055H102.221C102.557 52.6138 102.877 52.7532 103.112 52.994C103.347 53.2348 103.478 53.5579 103.478 53.8943C103.478 54.2307 103.347 54.5538 103.112 54.7946C102.877 55.0354 102.557 55.1748 102.221 55.183Z" stroke="black" stroke-width="0.980065" stroke-linecap="round" stroke-linejoin="round"/>
<path d="M116.499 55.1828H109.337C108.995 55.1826 108.667 55.0467 108.425 54.8048C108.183 54.563 108.047 54.235 108.047 53.8929C108.048 53.5514 108.184 53.2241 108.426 52.9828C108.668 52.7415 108.995 52.6058 109.337 52.6054H116.499C116.671 52.6012 116.842 52.6314 117.002 52.6942C117.162 52.7571 117.308 52.8514 117.431 52.9715C117.554 53.0915 117.652 53.235 117.719 53.3935C117.786 53.5519 117.82 53.7222 117.82 53.8941C117.82 54.0661 117.786 54.2363 117.719 54.3947C117.652 54.5532 117.554 54.6967 117.431 54.8168C117.308 54.9368 117.162 55.0311 117.002 55.094C116.842 55.1568 116.671 55.1871 116.499 55.1828Z" stroke="black" stroke-width="0.980065" stroke-linecap="round" stroke-linejoin="round"/>
<path d="M45.918 53.8907C45.9179 54.0802 45.8615 54.2654 45.7562 54.4229C45.6508 54.5804 45.5011 54.7032 45.326 54.7756C45.1508 54.8481 44.9582 54.867 44.7723 54.83C44.5864 54.793 44.4157 54.7017 44.2817 54.5677C44.1477 54.4337 44.0564 54.263 44.0194 54.0771C43.9824 53.8912 44.0013 53.6986 44.0738 53.5234C44.1462 53.3483 44.269 53.1986 44.4265 53.0932C44.584 52.9879 44.7692 52.9315 44.9587 52.9314C45.0848 52.9312 45.2096 52.9558 45.3261 53.004C45.4426 53.0521 45.5484 53.1228 45.6375 53.2119C45.7266 53.301 45.7973 53.4068 45.8454 53.5233C45.8936 53.6398 45.9182 53.7646 45.918 53.8907Z" stroke="black" stroke-width="0.980065" stroke-linecap="round" stroke-linejoin="round"/>
<path d="M69.6521 60.6947H52.4691C52.127 60.6943 51.799 60.5582 51.5572 60.3162C51.3153 60.0742 51.1794 59.7461 51.1792 59.404C51.1802 59.0625 51.3165 58.7352 51.5583 58.4939C51.8 58.2526 52.1275 58.1169 52.4691 58.1165H69.6521C69.994 58.1165 70.3219 58.2523 70.5636 58.494C70.8054 58.7358 70.9412 59.0637 70.9412 59.4056C70.9412 59.7475 70.8054 60.0754 70.5636 60.3171C70.3219 60.5589 69.994 60.6947 69.6521 60.6947Z" stroke="black" stroke-width="0.980065" stroke-linecap="round" stroke-linejoin="round"/>
<path d="M116.499 60.6947H76.7692C76.427 60.6943 76.099 60.5582 75.857 60.3162C75.615 60.0743 75.4789 59.7462 75.4785 59.404C75.4799 59.0625 75.6165 58.7353 75.8583 58.4941C76.1001 58.2528 76.4276 58.1171 76.7692 58.1165H116.499C116.841 58.1165 117.169 58.2523 117.411 58.494C117.652 58.7358 117.788 59.0637 117.788 59.4056C117.788 59.7475 117.652 60.0754 117.411 60.3171C117.169 60.5589 116.841 60.6947 116.499 60.6947Z" stroke="black" stroke-width="0.980065" stroke-linecap="round" stroke-linejoin="round"/>
<path d="M45.918 59.4041C45.9179 59.5936 45.8615 59.7788 45.7562 59.9363C45.6508 60.0938 45.5011 60.2165 45.326 60.289C45.1508 60.3614 44.9582 60.3804 44.7723 60.3434C44.5864 60.3063 44.4157 60.2151 44.2817 60.0811C44.1477 59.9471 44.0564 59.7763 44.0194 59.5905C43.9824 59.4046 44.0013 59.2119 44.0738 59.0368C44.1462 58.8617 44.269 58.712 44.4265 58.6066C44.584 58.5012 44.7692 58.4449 44.9587 58.4448C45.0847 58.4447 45.2095 58.4694 45.326 58.5176C45.4424 58.5657 45.5482 58.6364 45.6373 58.7255C45.7264 58.8146 45.797 58.9204 45.8452 59.0368C45.8934 59.1533 45.9181 59.2781 45.918 59.4041Z" stroke="black" stroke-width="0.980065" stroke-linecap="round" stroke-linejoin="round"/>
<path d="M27.7424 32.4533H27.6526H27.5597C26.6295 32.4058 25.7548 31.9968 25.1219 31.3135C24.4891 30.6302 24.1482 29.7267 24.1721 28.7957C24.1959 27.8647 24.5825 26.9798 25.2495 26.3298C25.9165 25.6798 26.8111 25.3161 27.7424 25.3162" stroke="black" stroke-width="0.980065" stroke-linecap="round" stroke-linejoin="round"/>
<path d="M22.6714 32.4485H27.742H27.6521C26.7158 32.4758 25.8276 32.87 25.1792 33.5461C24.5307 34.2222 24.174 35.126 24.1857 36.0627C24.1975 36.9994 24.5769 37.894 25.2422 38.5536C25.9074 39.2131 26.8052 39.5849 27.742 39.5886" stroke="black" stroke-width="0.980065" stroke-linecap="round" stroke-linejoin="round"/>
<path d="M34.1533 32.4533H34.2462H34.336C35.2662 32.4058 36.1409 31.9968 36.7738 31.3135C37.4066 30.6302 37.7475 29.7267 37.7236 28.7957C37.6998 27.8647 37.3132 26.9798 36.6462 26.3298C35.9792 25.6798 35.0847 25.3161 34.1533 25.3162" stroke="black" stroke-width="0.980065" stroke-linecap="round" stroke-linejoin="round"/>
<path d="M39.2239 32.4485H34.1533H34.2462C35.1828 32.4759 36.0711 32.8704 36.7195 33.5468C37.3679 34.2232 37.7245 35.1274 37.7123 36.0643C37.7001 37.0012 37.3201 37.8958 36.6543 38.5551C35.9886 39.2144 35.0903 39.5856 34.1533 39.5886" stroke="black" stroke-width="0.980065" stroke-linecap="round" stroke-linejoin="round"/>
<path d="M132.918 16.4827L139.725 12.5549L132.918 8.62402" stroke="black" stroke-width="0.980065" stroke-linecap="round" stroke-linejoin="round"/>
<path d="M125.931 8.62402L119.125 12.5549L125.931 16.4827" stroke="black" stroke-width="0.980065" stroke-linecap="round" stroke-linejoin="round"/>
<path d="M131.363 6.8479L127.294 18.2039" stroke="black" stroke-width="0.980065" stroke-linecap="round" stroke-linejoin="round"/>
<path d="M125.337 71.7324L126.44 68.3853L129.055 60.4438L131.673 68.3853L132.776 71.7324" stroke="black" stroke-width="0.980065" stroke-linecap="round" stroke-linejoin="round"/>
<path d="M126.44 68.3855H131.673" stroke="black" stroke-width="0.980065" stroke-linecap="round" stroke-linejoin="round"/>
<path d="M138.439 69.7837C137.721 71.3244 136.375 72.2187 135.438 71.7828C134.501 71.3469 134.326 69.7411 135.045 68.198C135.763 66.6549 137.107 65.763 138.046 66.1989C138.335 66.3763 138.567 66.6324 138.715 66.9372C138.863 67.2419 138.921 67.5826 138.883 67.9193C138.871 68.5655 138.72 69.2015 138.439 69.7837Z" stroke="black" stroke-width="0.980065" stroke-linecap="round" stroke-linejoin="round"/>
<path d="M138.88 67.897V67.9194C139.018 69.2751 138.189 72.8452 140.351 71.3919" stroke="black" stroke-width="0.980065" stroke-linecap="round" stroke-linejoin="round"/>
</g>
</g>
<defs>
<clipPath id="clip0_366_126">
<rect width="149" height="85" fill="white"/>
</clipPath>
</defs>
</svg>
