<svg width="250" height="250" viewBox="0 0 250 250" fill="none" xmlns="http://www.w3.org/2000/svg">
<path d="M192.875 85.2213H70.9312V80.4038C70.9315 78.9933 71.492 77.6406 72.4893 76.6432C73.4867 75.6459 74.8394 75.0854 76.2499 75.0851H191.25C191.054 76.0405 190.955 77.0134 190.955 77.9888V78.1063H89.9999V82.1588H191.47L191.567 82.1313C191.888 83.2062 192.327 84.2425 192.875 85.2213Z" fill="#81F8F8"/>
<path d="M137.273 164.207C138.053 164.207 138.815 164.438 139.463 164.871C140.111 165.304 140.616 165.919 140.914 166.639C141.213 167.359 141.291 168.151 141.139 168.916C140.987 169.68 140.612 170.382 140.06 170.933C139.509 171.485 138.807 171.86 138.043 172.012C137.278 172.164 136.486 172.086 135.766 171.787C135.046 171.489 134.431 170.984 133.998 170.336C133.565 169.688 133.334 168.926 133.334 168.146C133.335 167.102 133.75 166.1 134.489 165.362C135.227 164.623 136.229 164.208 137.273 164.207Z" fill="white"/>
<path d="M208.344 104.986V150.361C207.409 150.763 206.5 151.222 205.622 151.736L203.568 151.041L203.621 150.883V96.3638L208.344 104.986Z" fill="#211C5C"/>
<path d="M208.344 95.6601V104.986L203.621 96.3613V94.2238C205.148 94.8454 206.729 95.3262 208.344 95.6601Z" fill="black"/>
<path d="M199.212 175.33H190.597L194.621 160.964H197.267C196.573 162.686 196.216 164.526 196.215 166.383C196.239 169.608 197.289 172.741 199.212 175.33Z" fill="black"/>
<path d="M194.625 160.964L190.601 175.33H73.3825C71.4796 175.33 69.6546 174.574 68.309 173.229C66.9635 171.883 66.2075 170.058 66.2075 168.155V133.889L70.9313 127.855V155.645C70.9316 157.056 71.4921 158.408 72.4895 159.406C73.4868 160.403 74.8395 160.963 76.25 160.964H194.625ZM141.221 168.146C141.222 167.367 140.991 166.605 140.558 165.957C140.125 165.308 139.51 164.803 138.79 164.504C138.07 164.206 137.277 164.127 136.513 164.279C135.748 164.431 135.046 164.806 134.494 165.357C133.943 165.908 133.567 166.61 133.415 167.374C133.262 168.139 133.34 168.931 133.638 169.651C133.936 170.372 134.441 170.987 135.088 171.421C135.736 171.854 136.498 172.086 137.278 172.086C138.322 172.086 139.324 171.671 140.063 170.932C140.802 170.193 141.217 169.191 141.218 168.146H141.221Z" fill="#211C5C"/>
<path d="M192.927 98.5601C193.204 98.5533 193.48 98.602 193.739 98.7035C193.997 98.8051 194.233 98.9572 194.431 99.1511C194.63 99.345 194.788 99.5766 194.896 99.8325C195.004 100.088 195.059 100.363 195.059 100.641C195.059 100.918 195.004 101.193 194.896 101.449C194.788 101.705 194.63 101.936 194.431 102.13C194.233 102.324 193.997 102.476 193.739 102.578C193.48 102.679 193.204 102.728 192.927 102.721H144.962C144.55 102.722 144.147 102.601 143.805 102.372C143.462 102.144 143.195 101.819 143.037 101.438C142.88 101.058 142.839 100.639 142.919 100.235C143 99.8315 143.199 99.4607 143.491 99.1701C143.683 98.9758 143.912 98.8218 144.165 98.717C144.417 98.6123 144.688 98.5589 144.962 98.5601H192.927Z" fill="#81F8F8"/>
<path d="M192.927 107.458C193.479 107.458 194.008 107.677 194.398 108.067C194.789 108.457 195.008 108.987 195.008 109.539C195.008 110.091 194.789 110.62 194.398 111.01C194.008 111.401 193.479 111.62 192.927 111.62H120.694C120.142 111.619 119.613 111.399 119.222 111.009C118.832 110.618 118.612 110.089 118.612 109.536C118.614 108.985 118.834 108.457 119.225 108.068C119.615 107.678 120.143 107.459 120.694 107.458H192.927Z" fill="black"/>
<path d="M192.927 116.356C193.205 116.349 193.481 116.398 193.739 116.5C193.998 116.601 194.233 116.753 194.432 116.947C194.63 117.141 194.788 117.373 194.896 117.629C195.004 117.884 195.059 118.159 195.059 118.437C195.059 118.714 195.004 118.989 194.896 119.245C194.788 119.501 194.63 119.733 194.432 119.926C194.233 120.12 193.998 120.273 193.739 120.374C193.481 120.476 193.205 120.524 192.927 120.517H169.23C168.678 120.517 168.148 120.298 167.758 119.907C167.367 119.517 167.148 118.987 167.147 118.435C167.148 117.883 167.368 117.355 167.758 116.965C168.149 116.575 168.678 116.356 169.23 116.356H192.927Z" fill="#81F8F8"/>
<path d="M192.927 125.25C193.479 125.25 194.009 125.469 194.399 125.86C194.789 126.25 195.009 126.779 195.009 127.331C195.009 127.883 194.789 128.413 194.399 128.803C194.009 129.193 193.479 129.413 192.927 129.413H116.651C116.099 129.412 115.569 129.192 115.178 128.802C114.788 128.411 114.568 127.881 114.567 127.329C114.57 126.777 114.79 126.249 115.181 125.86C115.571 125.47 116.1 125.251 116.651 125.25H192.927Z" fill="black"/>
<path d="M192.927 134.152C193.47 134.166 193.986 134.391 194.366 134.78C194.745 135.168 194.957 135.69 194.957 136.233C194.957 136.776 194.745 137.298 194.366 137.687C193.986 138.075 193.47 138.3 192.927 138.314H153.052C152.5 138.313 151.97 138.094 151.579 137.704C151.189 137.313 150.969 136.784 150.968 136.231C150.97 135.68 151.19 135.151 151.581 134.761C151.971 134.372 152.5 134.153 153.052 134.152H192.927Z" fill="#81F8F8"/>
<path d="M192.927 143.05C193.205 143.043 193.481 143.092 193.739 143.194C193.997 143.295 194.233 143.447 194.432 143.641C194.63 143.835 194.788 144.067 194.896 144.322C195.004 144.578 195.059 144.853 195.059 145.131C195.059 145.408 195.004 145.683 194.896 145.939C194.788 146.195 194.63 146.426 194.432 146.62C194.233 146.814 193.997 146.966 193.739 147.068C193.481 147.169 193.205 147.218 192.927 147.211H181.363C180.811 147.211 180.282 146.991 179.891 146.601C179.501 146.211 179.281 145.681 179.281 145.129C179.282 144.577 179.502 144.049 179.893 143.659C180.283 143.27 180.812 143.051 181.363 143.05H192.927Z" fill="black"/>
<path d="M192.927 151.948C193.479 151.948 194.009 152.167 194.399 152.557C194.789 152.947 195.008 153.477 195.008 154.029C195.008 154.581 194.789 155.11 194.399 155.5C194.009 155.891 193.479 156.11 192.927 156.11H128.785C128.232 156.109 127.703 155.89 127.312 155.499C126.921 155.108 126.702 154.579 126.701 154.026C126.703 153.475 126.924 152.947 127.314 152.557C127.705 152.168 128.233 151.949 128.785 151.948H192.927Z" fill="#81F8F8"/>
<path d="M193.088 89.6775L191.071 93.8238H128.785C128.233 93.8238 127.703 93.6045 127.313 93.2142C126.923 92.8239 126.703 92.2945 126.703 91.7425C126.703 91.1905 126.923 90.6612 127.313 90.2708C127.703 89.8805 128.233 89.6613 128.785 89.6613H192.927C192.983 89.6613 193.032 89.6738 193.088 89.6775Z" fill="black"/>
<path d="M73.3825 71.6388H192.41C191.885 72.7363 191.496 73.8935 191.25 75.085H76.25C74.8395 75.0854 73.4869 75.6458 72.4895 76.6432C71.4921 77.6406 70.9316 78.9933 70.9313 80.4038V97.3825C69.4658 96.2967 67.8809 95.382 66.2075 94.6563V78.8138C66.2075 76.9109 66.9635 75.0859 68.309 73.7403C69.6546 72.3947 71.4796 71.6388 73.3825 71.6388Z" fill="#211C5C"/>
<path d="M191.568 82.1313L191.471 82.1588H89.9995V78.1063H190.96C190.967 79.4703 191.172 80.826 191.568 82.1313Z" fill="black"/>
<path d="M169.875 143.05C170.418 143.063 170.934 143.288 171.314 143.677C171.693 144.066 171.905 144.587 171.905 145.131C171.905 145.674 171.693 146.195 171.314 146.584C170.934 146.973 170.418 147.198 169.875 147.211H89.5525C89.0003 147.211 88.4708 146.991 88.0803 146.601C87.6898 146.21 87.4703 145.681 87.47 145.129C87.4716 144.577 87.6917 144.049 88.082 143.659C88.4723 143.27 89.001 143.051 89.5525 143.05H169.875Z" fill="#81F8F8"/>
<path d="M157.74 116.356C158.283 116.37 158.799 116.595 159.179 116.983C159.558 117.372 159.77 117.894 159.77 118.437C159.77 118.98 159.558 119.502 159.179 119.89C158.799 120.279 158.283 120.504 157.74 120.518H89.5525C89.0003 120.517 88.4708 120.298 88.0803 119.907C87.6898 119.517 87.4703 118.987 87.47 118.435C87.471 117.883 87.6908 117.355 88.0812 116.965C88.4717 116.575 89.0008 116.356 89.5525 116.356H157.74Z" fill="black"/>
<path d="M152.768 185.648L154.476 193.174H152.065H123.518H120.076L124.121 175.33L152.768 185.648Z" fill="#211C5C"/>
<path d="M150.431 175.33L152.769 185.648L124.121 175.33H150.431Z" fill="black"/>
<path d="M141.561 134.152C142.104 134.166 142.62 134.391 143 134.78C143.379 135.168 143.591 135.69 143.591 136.233C143.591 136.776 143.379 137.298 143 137.687C142.62 138.075 142.104 138.3 141.561 138.314H89.5525C89.0003 138.313 88.4708 138.094 88.0803 137.703C87.6898 137.313 87.4703 136.783 87.47 136.231C87.471 135.68 87.6908 135.151 88.0812 134.761C88.4717 134.371 89.0008 134.152 89.5525 134.152H141.561Z" fill="black"/>
<path d="M133.472 98.5601C133.75 98.5533 134.026 98.602 134.284 98.7035C134.543 98.8051 134.778 98.9572 134.977 99.1511C135.175 99.345 135.333 99.5766 135.441 99.8325C135.549 100.088 135.604 100.363 135.604 100.641C135.604 100.918 135.549 101.193 135.441 101.449C135.333 101.705 135.175 101.936 134.977 102.13C134.778 102.324 134.543 102.476 134.284 102.578C134.026 102.679 133.75 102.728 133.472 102.721H89.5522C89.2747 102.728 88.9986 102.679 88.7402 102.578C88.4818 102.476 88.2463 102.324 88.0476 102.13C87.849 101.936 87.6911 101.705 87.5833 101.449C87.4755 101.193 87.4199 100.918 87.4199 100.641C87.4199 100.363 87.4755 100.088 87.5833 99.8325C87.6911 99.5766 87.849 99.345 88.0476 99.1511C88.2463 98.9572 88.4818 98.8051 88.7402 98.7035C88.9986 98.602 89.2747 98.5533 89.5522 98.5601H133.472Z" fill="black"/>
<path d="M117.294 89.6613C117.846 89.6613 118.375 89.8805 118.765 90.2708C119.156 90.6612 119.375 91.1905 119.375 91.7425C119.375 92.2945 119.156 92.8239 118.765 93.2142C118.375 93.6045 117.846 93.8238 117.294 93.8238H89.5525C89.0003 93.8234 88.4708 93.6039 88.0803 93.2134C87.6898 92.823 87.4703 92.2935 87.47 91.7413C87.4713 91.1896 87.6912 90.6609 88.0815 90.2711C88.4719 89.8812 89.0008 89.6619 89.5525 89.6613H117.294Z" fill="#81F8F8"/>
<path d="M117.294 151.948C117.846 151.948 118.375 152.167 118.765 152.557C119.156 152.947 119.375 153.477 119.375 154.029C119.375 154.581 119.156 155.11 118.765 155.5C118.375 155.891 117.846 156.11 117.294 156.11H89.5525C89.0001 156.109 88.4707 155.89 88.0802 155.499C87.6898 155.108 87.4703 154.579 87.47 154.026C87.4716 153.475 87.6917 152.946 88.082 152.557C88.4723 152.167 89.001 151.948 89.5525 151.948H117.294Z" fill="black"/>
<path d="M109.205 107.458C109.757 107.458 110.286 107.677 110.677 108.067C111.067 108.457 111.286 108.987 111.286 109.539C111.286 110.091 111.067 110.62 110.677 111.01C110.286 111.401 109.757 111.62 109.205 111.62H89.5525C89.0001 111.619 88.4707 111.4 88.0802 111.009C87.6898 110.618 87.4703 110.089 87.47 109.536C87.4716 108.985 87.6917 108.456 88.082 108.067C88.4723 107.677 89.001 107.458 89.5525 107.458H109.205Z" fill="#81F8F8"/>
<path d="M105.16 125.25C105.712 125.25 106.241 125.469 106.632 125.86C107.022 126.25 107.241 126.779 107.241 127.331C107.241 127.883 107.022 128.413 106.632 128.803C106.241 129.193 105.712 129.413 105.16 129.413H89.5525C89.0001 129.412 88.4707 129.192 88.0802 128.801C87.6898 128.411 87.4703 127.881 87.47 127.329C87.4716 126.777 87.6917 126.249 88.082 125.859C88.4723 125.47 89.001 125.251 89.5525 125.25H105.16Z" fill="#81F8F8"/>
<path d="M77.9771 108.098C78.2513 108.2 78.4906 108.378 78.6668 108.612C78.843 108.846 78.9487 109.125 78.9716 109.417C78.9944 109.709 78.9334 110.001 78.7958 110.259C78.6581 110.518 78.4495 110.731 78.1946 110.875V110.613C78.1946 110.406 78.1945 110.2 78.1783 109.994V109.945C78.1517 109.325 78.0845 108.708 77.9771 108.098Z" fill="black"/>
<path d="M77.4268 90.1913C77.7336 90.1903 78.0338 90.2803 78.2893 90.4501C78.5449 90.6198 78.7443 90.8615 78.8624 91.1446C78.9805 91.4278 79.0119 91.7396 78.9527 92.0406C78.8934 92.3416 78.7462 92.6182 78.5296 92.8355C78.313 93.0528 78.0369 93.2009 77.7361 93.2611C77.4353 93.3213 77.1234 93.2909 76.8398 93.1737C76.5563 93.0566 76.3139 92.8579 76.1434 92.6029C75.9729 92.3479 75.8818 92.048 75.8818 91.7413C75.8818 91.331 76.0444 90.9376 76.334 90.647C76.6237 90.3565 77.0166 90.1926 77.4268 90.1913Z" fill="black"/>
<path d="M77.4268 99.09C77.7333 99.0893 78.0331 99.1795 78.2883 99.3492C78.5435 99.5189 78.7426 99.7606 78.8604 100.043C78.9782 100.326 79.0094 100.638 78.95 100.939C78.8907 101.239 78.7435 101.516 78.527 101.733C78.3106 101.95 78.0346 102.097 77.7341 102.157C77.4336 102.218 77.122 102.187 76.8388 102.07C76.5556 101.953 76.3135 101.754 76.1431 101.5C75.9728 101.245 75.8818 100.945 75.8818 100.639C75.8818 100.229 76.0445 99.8353 76.3341 99.545C76.6238 99.2546 77.0167 99.091 77.4268 99.09Z" fill="black"/>
<path d="M77.4273 116.886C77.838 116.886 78.2319 117.049 78.5224 117.34C78.8128 117.63 78.976 118.024 78.976 118.435C78.976 118.846 78.8128 119.24 78.5224 119.53C78.2319 119.821 77.838 119.984 77.4273 119.984C77.0971 119.976 76.7778 119.864 76.5148 119.665C76.2517 119.465 76.0584 119.187 75.9623 118.871L75.7498 118.738C76.1148 118.17 76.443 117.581 76.7323 116.971L76.801 117.003C76.9298 116.875 77.321 116.886 77.4273 116.886Z" fill="black"/>
<path d="M77.4268 134.681C77.7336 134.68 78.0338 134.77 78.2893 134.94C78.5449 135.11 78.7443 135.351 78.8624 135.635C78.9805 135.918 79.0119 136.23 78.9527 136.531C78.8934 136.832 78.7462 137.108 78.5296 137.325C78.313 137.543 78.0369 137.691 77.7361 137.751C77.4353 137.811 77.1234 137.781 76.8398 137.664C76.5563 137.547 76.3139 137.348 76.1434 137.093C75.9729 136.838 75.8818 136.538 75.8818 136.231C75.8818 135.821 76.0444 135.428 76.334 135.137C76.6237 134.846 77.0166 134.683 77.4268 134.681Z" fill="black"/>
<path d="M77.4268 143.58C77.7333 143.579 78.0331 143.669 78.2883 143.839C78.5435 144.009 78.7426 144.251 78.8604 144.533C78.9782 144.816 79.0094 145.128 78.95 145.429C78.8907 145.729 78.7435 146.006 78.527 146.223C78.3106 146.44 78.0346 146.587 77.7341 146.647C77.4336 146.708 77.122 146.677 76.8388 146.56C76.5556 146.443 76.3135 146.244 76.1431 145.99C75.9728 145.735 75.8818 145.435 75.8818 145.129C75.8818 144.719 76.0445 144.325 76.3341 144.035C76.6238 143.745 77.0167 143.581 77.4268 143.58Z" fill="black"/>
<path d="M77.4268 152.478C77.7337 152.477 78.0339 152.567 78.2895 152.736C78.545 152.906 78.7445 153.148 78.8625 153.431C78.9806 153.714 79.0119 154.026 78.9526 154.327C78.8932 154.628 78.7459 154.905 78.5292 155.122C78.3125 155.339 78.0362 155.487 77.7353 155.548C77.4344 155.608 77.1225 155.577 76.839 155.46C76.5555 155.342 76.3132 155.143 76.1428 154.888C75.9724 154.633 75.8816 154.333 75.8818 154.026C75.8818 153.616 76.0445 153.223 76.3341 152.932C76.6238 152.642 77.0167 152.479 77.4268 152.478Z" fill="black"/>
<path d="M68.7911 125.257L71.0411 126.321L70.9274 126.564V127.855L66.2036 133.889V126.564C67.0921 126.182 67.9562 125.746 68.7911 125.257Z" fill="black"/>
<path d="M61.0907 128.226L61.1345 128.425C59.0445 133.165 56.3845 137.869 53.2682 140.486C52.2565 141.335 51.2832 142.195 50.3482 143.066C49.9957 137.898 49.6157 132.668 49.252 128.425C51.0444 128.751 52.8626 128.915 54.6845 128.914C56.8385 128.917 58.9864 128.686 61.0907 128.226Z" fill="black"/>
<path d="M46.4372 151.92C47.2062 150.119 48.3916 148.526 49.896 147.273C50.126 147.095 50.356 146.916 50.591 146.746C54.3025 144.136 58.3467 142.034 62.616 140.496C62.5022 140.739 58.1585 149.94 53.991 153.455C53.0247 154.268 52.0572 154.996 51.1435 155.705C50.2162 156.41 49.3391 157.179 48.5185 158.006C47.6127 158.898 46.8962 159.964 46.4119 161.139C45.9275 162.314 45.6853 163.575 45.6997 164.846V165.053H43.9172V164.846C43.9399 162.667 44.1431 160.492 44.5247 158.346C44.8884 156.132 45.531 153.973 46.4372 151.92Z" fill="#81F8F8"/>
<path d="M51.5857 164.846V165.053H49.4182C49.3128 162.683 49.0097 160.326 48.512 158.006C49.3326 157.179 50.2097 156.41 51.137 155.705C51.4157 160.398 51.5857 163.908 51.5857 164.846Z" fill="black"/>
<path d="M50.5905 146.743C50.3555 146.916 50.1255 147.095 49.8955 147.273C48.3911 148.526 47.2057 150.119 46.4368 151.92C45.9555 151.17 45.3605 150.339 44.673 149.413C43.0755 147.253 41.0055 144.624 38.8818 141.703C36.3244 138.277 34.0415 134.656 32.0543 130.871C32.0543 130.871 32.0418 130.851 32.0218 130.815C31.723 130.22 31.4393 129.63 31.1693 129.031C22.323 109.52 28.0543 90.0663 28.0543 90.0663C31.087 92.8326 33.9324 95.7974 36.5718 98.9413C34.9137 100.408 33.5777 102.203 32.6478 104.212C31.718 106.221 31.2146 108.4 31.1693 110.614C31.1693 119.265 38.8818 126.518 49.2518 128.426C49.6155 132.669 49.9955 137.899 50.348 143.068C50.4293 144.3 50.5143 145.529 50.5905 146.743Z" fill="#81F8F8"/>
<path d="M43.6548 150.949C43.6548 150.949 44.3186 154.9 44.5298 158.343C44.1482 160.489 43.945 162.663 43.9223 164.842V165.049H42.1461V164.842C42.7711 160.66 42.1298 155.953 42.1461 153.728C42.5965 152.774 43.1002 151.846 43.6548 150.949Z" fill="black"/>
<path d="M44.6734 149.412C44.3184 149.912 43.9784 150.428 43.6546 150.949C43.1001 151.846 42.5963 152.774 42.1459 153.727C40.5065 157.271 39.6447 161.124 39.6184 165.029V165.049H38.9059C38.8628 160.709 38.4146 156.382 37.5671 152.125C37.9759 149.985 38.1921 147.559 38.4534 145.083C38.5709 143.966 38.6959 142.839 38.8496 141.726L38.8821 141.701C41.0059 144.625 43.0759 147.25 44.6734 149.412Z" fill="#81F8F8"/>
<path d="M38.906 165.053H35.756C35.5497 154.334 28.3022 150.949 21.046 144.834C13.546 138.52 5.74097 121.853 5.74097 121.853C13.5426 124.662 20.915 128.545 27.646 133.388C27.8557 133.565 28.0743 133.732 28.301 133.888C33.551 138.005 36.2247 145.448 37.5672 152.125C38.4149 156.383 38.8631 160.711 38.906 165.053Z" fill="#81F8F8"/>
<path d="M38.8821 141.703L38.8496 141.728C38.6959 142.84 38.5709 143.968 38.4534 145.084C37.7334 140.308 33.9071 137.768 28.3021 133.889C28.0834 133.719 27.8684 133.549 27.6459 133.389C22.5621 129.126 20.9734 118.728 20.9734 118.728C26.7934 122.149 31.5859 130.08 32.0221 130.816C32.0421 130.853 32.0546 130.873 32.0546 130.873C34.0419 134.657 36.3248 138.278 38.8821 141.703Z" fill="black"/>
<path d="M66.2075 126.564C67.0947 126.182 67.9576 125.745 68.7913 125.258L71.0413 126.321L82.0413 131.499L74.9163 119.944C75.215 119.551 75.4988 119.151 75.7575 118.738C76.1229 118.17 76.4511 117.58 76.74 116.97C77.66 115.067 78.1564 112.988 78.195 110.875V110.613C78.195 110.406 78.195 110.2 78.1788 109.994" stroke="black" stroke-width="0.980065" stroke-linecap="round" stroke-linejoin="round"/>
<path d="M78.1832 109.945C78.1549 109.325 78.086 108.708 77.9769 108.098C77.087 103.755 74.5649 99.9201 70.9307 97.3825C69.4652 96.2967 67.8803 95.382 66.2069 94.6563C62.5694 93.0869 58.646 92.2884 54.6844 92.3113C48.0297 92.1695 41.5647 94.5342 36.5719 98.9363C34.9139 100.403 33.5778 102.198 32.648 104.207C31.7182 106.216 31.2147 108.396 31.1694 110.609C31.1694 119.26 38.8819 126.513 49.2519 128.421C51.0443 128.748 52.8626 128.911 54.6844 128.91C56.8384 128.913 58.9864 128.683 61.0907 128.223C62.8462 127.839 64.5598 127.283 66.2069 126.565" stroke="black" stroke-width="0.980065" stroke-linecap="round" stroke-linejoin="round"/>
<path d="M193.092 89.6775L194.241 87.3163C193.732 86.6527 193.272 85.9525 192.866 85.2213C192.32 84.2422 191.884 83.206 191.565 82.1313C191.169 80.826 190.964 79.4703 190.957 78.1063V77.9888C190.956 77.0135 191.054 76.0406 191.25 75.0851C191.494 73.8937 191.883 72.7364 192.407 71.6388C195.723 64.6588 204.35 59.6838 214.47 59.6838C227.452 59.6838 237.981 67.8776 237.981 77.9888C237.981 88.1001 227.452 96.2913 214.47 96.2913C212.411 96.2947 210.358 96.0819 208.345 95.6563C206.729 95.3254 205.148 94.8459 203.621 94.2238C202.5 93.7724 201.414 93.2397 200.371 92.63L189.371 97.3226L191.078 93.8226L193.1 89.6763" stroke="black" stroke-width="0.980065" stroke-linecap="round" stroke-linejoin="round"/>
<path d="M203.568 151.043L196.535 148.66L199.5 157.053C198.579 158.248 197.828 159.564 197.267 160.964C196.573 162.686 196.216 164.526 196.215 166.383C196.24 169.608 197.29 172.741 199.215 175.33C203.238 180.911 210.92 184.685 219.732 184.685C232.716 184.685 243.243 176.49 243.243 166.383C243.243 156.275 232.716 148.081 219.732 148.081C215.821 148.061 211.947 148.839 208.347 150.366C207.412 150.768 206.503 151.227 205.625 151.741L203.568 151.043Z" stroke="black" stroke-width="0.980065" stroke-linecap="round" stroke-linejoin="round"/>
<path d="M66.2075 94.6563V78.8138C66.2075 76.9109 66.9635 75.0859 68.309 73.7403C69.6546 72.3947 71.4796 71.6388 73.3825 71.6388H192.41" stroke="#211C5C" stroke-width="0.980065" stroke-linecap="round" stroke-linejoin="round"/>
<path d="M124.125 175.33H73.3825C71.4796 175.33 69.6546 174.574 68.309 173.228C66.9635 171.883 66.2075 170.058 66.2075 168.155V126.564" stroke="black" stroke-width="0.980065" stroke-linecap="round" stroke-linejoin="round"/>
<path d="M199.213 175.33H190.598H150.431" stroke="black" stroke-width="0.980065" stroke-linecap="round" stroke-linejoin="round"/>
<path d="M208.344 95.66V104.986V150.366" stroke="black" stroke-width="0.980065" stroke-linecap="round" stroke-linejoin="round"/>
<path d="M70.9312 97.3876V80.4038C70.9315 78.9933 71.492 77.6406 72.4893 76.6432C73.4867 75.6459 74.8394 75.0854 76.2499 75.0851H191.25" stroke="black" stroke-width="0.980065" stroke-linecap="round" stroke-linejoin="round"/>
<path d="M197.267 160.964H76.2499C74.8394 160.963 73.4867 160.403 72.4893 159.406C71.492 158.408 70.9315 157.056 70.9312 155.645V126.564" stroke="black" stroke-width="0.980065" stroke-linecap="round" stroke-linejoin="round"/>
<path d="M203.621 94.2287V96.3637V150.884" stroke="black" stroke-width="0.980065" stroke-linecap="round" stroke-linejoin="round"/>
<path d="M70.9312 85.2212H192.87" stroke="black" stroke-width="0.980065" stroke-linecap="round" stroke-linejoin="round"/>
<path d="M191.471 82.1588H90.001V78.1063H190.925" stroke="black" stroke-width="0.980065" stroke-linecap="round" stroke-linejoin="round"/>
<path d="M141.217 168.146C141.217 168.926 140.987 169.688 140.554 170.336C140.121 170.985 139.506 171.49 138.786 171.789C138.066 172.088 137.274 172.166 136.509 172.015C135.745 171.863 135.042 171.488 134.491 170.937C133.939 170.387 133.563 169.685 133.411 168.92C133.258 168.156 133.336 167.363 133.634 166.643C133.931 165.922 134.436 165.307 135.084 164.873C135.732 164.44 136.494 164.208 137.273 164.207C138.318 164.207 139.321 164.622 140.06 165.36C140.8 166.099 141.216 167.101 141.217 168.146Z" stroke="black" stroke-width="0.980065" stroke-linecap="round" stroke-linejoin="round"/>
<path d="M120.076 193.174L124.121 175.33H150.431L152.768 185.648L154.476 193.174" stroke="black" stroke-width="0.980065" stroke-linecap="round" stroke-linejoin="round"/>
<path d="M152.065 193.174H123.519" stroke="black" stroke-width="0.980065" stroke-linecap="round" stroke-linejoin="round"/>
<path d="M124.121 175.33L152.769 185.648" stroke="black" stroke-width="0.980065" stroke-linecap="round" stroke-linejoin="round"/>
<path d="M109.192 193.174H115.43" stroke="black" stroke-width="0.980065" stroke-linecap="round" stroke-linejoin="round"/>
<path d="M117.282 193.174H120.076H123.518" stroke="black" stroke-width="0.980065" stroke-linecap="round" stroke-linejoin="round"/>
<path d="M20.2124 193.174H26.4499" stroke="black" stroke-width="0.980065" stroke-linecap="round" stroke-linejoin="round"/>
<path d="M50.8135 193.174H66.8947" stroke="black" stroke-width="0.980065" stroke-linecap="round" stroke-linejoin="round"/>
<path d="M28.3022 193.174H36.7385" stroke="black" stroke-width="0.980065" stroke-linecap="round" stroke-linejoin="round"/>
<path d="M152.064 193.174H154.476H158.301" stroke="black" stroke-width="0.980065" stroke-linecap="round" stroke-linejoin="round"/>
<path d="M160.154 193.174H166.391" stroke="black" stroke-width="0.980065" stroke-linecap="round" stroke-linejoin="round"/>
<path d="M82.1909 82.6287L86.3284 80.2425L82.1909 77.8512" stroke="black" stroke-width="0.980065" stroke-linecap="round" stroke-linejoin="round"/>
<path d="M79.517 77.8512L75.3757 80.2425L79.517 82.6287" stroke="black" stroke-width="0.980065" stroke-linecap="round" stroke-linejoin="round"/>
<path d="M203.621 96.3638L208.344 104.986" stroke="black" stroke-width="0.980065" stroke-linecap="round" stroke-linejoin="round"/>
<path d="M194.621 160.964L190.597 175.33" stroke="black" stroke-width="0.980065" stroke-linecap="round" stroke-linejoin="round"/>
<path d="M70.9313 127.855L66.2075 133.889" stroke="black" stroke-width="0.980065" stroke-linecap="round" stroke-linejoin="round"/>
<path d="M50.8135 193.174H36.7385C34.5011 193.174 32.3553 192.285 30.7732 190.703C29.1911 189.121 28.3022 186.975 28.3022 184.737V165.052H59.2497V184.737C59.2494 186.975 58.3605 189.12 56.7785 190.702C55.1964 192.284 53.0508 193.173 50.8135 193.174Z" stroke="black" stroke-width="0.980065" stroke-linecap="round" stroke-linejoin="round"/>
<path d="M38.906 165.053C38.8631 160.711 38.4149 156.383 37.5672 152.125C36.2247 145.448 33.551 138 28.3022 133.888C28.0835 133.718 27.8685 133.548 27.646 133.388C20.915 128.545 13.5426 124.662 5.74097 121.853C5.74097 121.853 13.5472 138.52 21.046 144.834C28.3022 150.949 35.546 154.334 35.756 165.053" stroke="black" stroke-width="0.980065" stroke-linecap="round" stroke-linejoin="round"/>
<path d="M42.1459 153.731C40.5065 157.275 39.6447 161.128 39.6184 165.033" stroke="black" stroke-width="0.980065" stroke-linecap="round" stroke-linejoin="round"/>
<path d="M44.6733 149.413C44.3183 149.913 43.9783 150.428 43.6545 150.949C43.0999 151.846 42.5962 152.774 42.1458 153.728" stroke="black" stroke-width="0.980065" stroke-linecap="round" stroke-linejoin="round"/>
<path d="M61.1346 128.425C59.0446 133.165 56.3846 137.869 53.2684 140.486C52.2567 141.335 51.2834 142.195 50.3484 143.066" stroke="black" stroke-width="0.980065" stroke-linecap="round" stroke-linejoin="round"/>
<path d="M37.5671 152.125C37.9759 149.985 38.1921 147.559 38.4534 145.083C38.5709 143.966 38.6959 142.839 38.8496 141.726" stroke="black" stroke-width="0.980065" stroke-linecap="round" stroke-linejoin="round"/>
<path d="M62.6249 140.486C62.5074 140.736 58.1636 149.934 53.9999 153.449C53.0336 154.261 52.0661 154.99 51.1524 155.699C50.2251 156.404 49.348 157.173 48.5274 158C47.6216 158.892 46.9051 159.957 46.4207 161.133C45.9364 162.308 45.6942 163.569 45.7086 164.84" stroke="black" stroke-width="0.980065" stroke-linecap="round" stroke-linejoin="round"/>
<path d="M50.5908 146.743C54.3023 144.132 58.3466 142.03 62.6158 140.493" stroke="black" stroke-width="0.980065" stroke-linecap="round" stroke-linejoin="round"/>
<path d="M43.9172 164.846C43.9399 162.667 44.1431 160.492 44.5247 158.346C44.8887 156.133 45.5313 153.975 46.4372 151.924C47.2062 150.123 48.3916 148.53 49.896 147.276C50.126 147.099 50.356 146.92 50.591 146.75" stroke="black" stroke-width="0.980065" stroke-linecap="round" stroke-linejoin="round"/>
<path d="M48.512 158.006C49.0097 160.326 49.3128 162.683 49.4182 165.052" stroke="black" stroke-width="0.980065" stroke-linecap="round" stroke-linejoin="round"/>
<path d="M32.0547 130.875C34.0419 134.66 36.3248 138.281 38.8822 141.706C41.0072 144.628 43.0759 147.256 44.6734 149.416C45.3609 150.343 45.9559 151.179 46.4372 151.924" stroke="black" stroke-width="0.980065" stroke-linecap="round" stroke-linejoin="round"/>
<path d="M36.5718 98.94C33.9324 95.7962 31.087 92.8313 28.0543 90.065C28.0543 90.065 22.323 109.519 31.1693 129.03C31.4393 129.629 31.723 130.219 32.0218 130.814" stroke="black" stroke-width="0.980065" stroke-linecap="round" stroke-linejoin="round"/>
<path d="M50.5907 146.75C50.5145 145.533 50.4295 144.304 50.3482 143.07C49.9957 137.901 49.6157 132.671 49.252 128.429" stroke="black" stroke-width="0.980065" stroke-linecap="round" stroke-linejoin="round"/>
<path d="M51.5861 164.846C51.5861 163.908 51.4161 160.398 51.1411 155.705" stroke="black" stroke-width="0.980065" stroke-linecap="round" stroke-linejoin="round"/>
<path d="M32.0546 130.875C32.0546 130.875 32.0421 130.855 32.0221 130.819C31.5859 130.083 26.7934 122.151 20.9734 118.73C20.9734 118.73 22.5621 129.129 27.6459 133.391C27.8558 133.569 28.0748 133.736 28.3021 133.891C33.9071 137.766 37.7334 140.31 38.4534 145.086" stroke="black" stroke-width="0.980065" stroke-linecap="round" stroke-linejoin="round"/>
<path d="M42.1461 153.727C42.1298 155.952 42.7711 160.66 42.1461 164.842" stroke="black" stroke-width="0.980065" stroke-linecap="round" stroke-linejoin="round"/>
<path d="M43.6545 150.949C43.6545 150.949 44.3183 154.9 44.5295 158.343" stroke="black" stroke-width="0.980065" stroke-linecap="round" stroke-linejoin="round"/>
<path d="M84.2583 88.1125V156.514" stroke="black" stroke-width="0.980065" stroke-linecap="round" stroke-linejoin="round"/>
<path d="M117.294 93.8238H89.5525C89.0003 93.8234 88.4708 93.6039 88.0803 93.2134C87.6898 92.823 87.4703 92.2935 87.47 91.7413C87.4713 91.1896 87.6912 90.6609 88.0815 90.2711C88.4719 89.8812 89.0008 89.6619 89.5525 89.6613H117.294C117.846 89.6613 118.375 89.8805 118.765 90.2708C119.156 90.6612 119.375 91.1905 119.375 91.7425C119.375 92.2945 119.156 92.8239 118.765 93.2142C118.375 93.6045 117.846 93.8238 117.294 93.8238Z" stroke="black" stroke-width="0.980065" stroke-linecap="round" stroke-linejoin="round"/>
<path d="M193.092 89.6775C193.032 89.6775 192.983 89.6613 192.927 89.6613H128.785C128.233 89.6613 127.703 89.8805 127.313 90.2708C126.923 90.6612 126.703 91.1905 126.703 91.7425C126.703 92.2945 126.923 92.8239 127.313 93.2142C127.703 93.6045 128.233 93.8238 128.785 93.8238H191.071L193.092 89.6775Z" stroke="black" stroke-width="0.980065" stroke-linecap="round" stroke-linejoin="round"/>
<path d="M78.9761 91.7413C78.9756 92.0472 78.8845 92.3461 78.7142 92.6002C78.5439 92.8543 78.3021 93.0523 78.0194 93.1691C77.7366 93.2858 77.4256 93.3162 77.1256 93.2563C76.8256 93.1964 76.5501 93.049 76.3339 92.8326C76.1177 92.6162 75.9705 92.3405 75.9108 92.0405C75.8512 91.7405 75.8818 91.4295 75.9988 91.1468C76.1158 90.8642 76.3139 90.6226 76.5682 90.4525C76.8225 90.2824 77.1214 90.1915 77.4274 90.1913C77.6309 90.1909 77.8326 90.2308 78.0207 90.3086C78.2088 90.3864 78.3798 90.5006 78.5237 90.6446C78.6676 90.7886 78.7816 90.9596 78.8592 91.1478C78.9369 91.336 78.9766 91.5377 78.9761 91.7413Z" stroke="black" stroke-width="0.980065" stroke-linecap="round" stroke-linejoin="round"/>
<path d="M133.472 102.721H89.5522C89.2747 102.728 88.9986 102.679 88.7402 102.578C88.4818 102.476 88.2463 102.324 88.0476 102.13C87.849 101.936 87.6911 101.705 87.5833 101.449C87.4755 101.193 87.4199 100.918 87.4199 100.641C87.4199 100.363 87.4755 100.088 87.5833 99.8325C87.6911 99.5766 87.849 99.345 88.0476 99.1511C88.2463 98.9572 88.4818 98.8051 88.7402 98.7035C88.9986 98.602 89.2747 98.5533 89.5522 98.5601H133.472C133.75 98.5533 134.026 98.602 134.284 98.7035C134.543 98.8051 134.778 98.9572 134.977 99.1511C135.175 99.345 135.333 99.5766 135.441 99.8325C135.549 100.088 135.604 100.363 135.604 100.641C135.604 100.918 135.549 101.193 135.441 101.449C135.333 101.705 135.175 101.936 134.977 102.13C134.778 102.324 134.543 102.476 134.284 102.578C134.026 102.679 133.75 102.728 133.472 102.721Z" stroke="black" stroke-width="0.980065" stroke-linecap="round" stroke-linejoin="round"/>
<path d="M192.927 102.721H144.962C144.55 102.722 144.147 102.601 143.805 102.372C143.462 102.144 143.195 101.819 143.037 101.438C142.88 101.058 142.839 100.639 142.919 100.235C143 99.8315 143.199 99.4607 143.491 99.1701C143.683 98.9758 143.912 98.8218 144.165 98.717C144.417 98.6123 144.688 98.5589 144.962 98.5601H192.927C193.204 98.5533 193.48 98.602 193.739 98.7035C193.997 98.8051 194.233 98.9572 194.431 99.1511C194.63 99.345 194.788 99.5766 194.896 99.8325C195.004 100.088 195.059 100.363 195.059 100.641C195.059 100.918 195.004 101.193 194.896 101.449C194.788 101.705 194.63 101.936 194.431 102.13C194.233 102.324 193.997 102.476 193.739 102.578C193.48 102.679 193.204 102.728 192.927 102.721Z" stroke="black" stroke-width="0.980065" stroke-linecap="round" stroke-linejoin="round"/>
<path d="M78.9761 100.639C78.9759 100.945 78.8849 101.244 78.7148 101.498C78.5446 101.752 78.3029 101.95 78.0202 102.067C77.7375 102.184 77.4265 102.215 77.1264 102.155C76.8263 102.095 76.5507 101.948 76.3344 101.732C76.118 101.515 75.9707 101.24 75.9109 100.94C75.8511 100.64 75.8817 100.329 75.9987 100.046C76.1156 99.7632 76.3138 99.5215 76.5681 99.3513C76.8224 99.1812 77.1214 99.0903 77.4274 99.09C77.6308 99.0897 77.8324 99.1295 78.0204 99.2072C78.2085 99.285 78.3793 99.399 78.5232 99.5429C78.6671 99.6868 78.7812 99.8577 78.8589 100.046C78.9366 100.234 78.9764 100.435 78.9761 100.639Z" stroke="black" stroke-width="0.980065" stroke-linecap="round" stroke-linejoin="round"/>
<path d="M109.205 111.625H89.5525C89.0001 111.624 88.4707 111.405 88.0802 111.014C87.6898 110.623 87.4703 110.094 87.47 109.541C87.4716 108.99 87.6917 108.461 88.082 108.072C88.4723 107.682 89.001 107.463 89.5525 107.463H109.205C109.757 107.463 110.286 107.682 110.677 108.072C111.067 108.462 111.286 108.992 111.286 109.544C111.286 110.096 111.067 110.625 110.677 111.015C110.286 111.406 109.757 111.625 109.205 111.625Z" stroke="black" stroke-width="0.980065" stroke-linecap="round" stroke-linejoin="round"/>
<path d="M192.927 111.625H120.694C120.142 111.624 119.613 111.404 119.222 111.014C118.832 110.623 118.612 110.094 118.612 109.541C118.614 108.99 118.834 108.462 119.225 108.073C119.615 107.683 120.143 107.464 120.694 107.463H192.927C193.479 107.463 194.008 107.682 194.398 108.072C194.789 108.462 195.008 108.992 195.008 109.544C195.008 110.096 194.789 110.625 194.398 111.015C194.008 111.406 193.479 111.625 192.927 111.625Z" stroke="black" stroke-width="0.980065" stroke-linecap="round" stroke-linejoin="round"/>
<path d="M78.1998 110.613C78.1998 110.701 78.1998 110.79 78.1911 110.875C78.4461 110.731 78.6547 110.518 78.7923 110.259C78.93 110.001 78.991 109.709 78.9681 109.417C78.9453 109.125 78.8395 108.846 78.6633 108.612C78.4871 108.378 78.2478 108.2 77.9736 108.098H77.9648C78.0755 108.71 78.1473 109.329 78.1798 109.95V110C78.1948 110.2 78.1998 110.406 78.1998 110.613Z" stroke="black" stroke-width="0.980065" stroke-linecap="round" stroke-linejoin="round"/>
<path d="M157.74 120.518H89.5525C89.0003 120.517 88.4708 120.298 88.0803 119.907C87.6898 119.517 87.4703 118.987 87.47 118.435C87.471 117.883 87.6908 117.355 88.0812 116.965C88.4717 116.575 89.0008 116.356 89.5525 116.356H157.74C158.283 116.37 158.799 116.595 159.179 116.983C159.558 117.372 159.77 117.894 159.77 118.437C159.77 118.98 159.558 119.502 159.179 119.89C158.799 120.279 158.283 120.504 157.74 120.518Z" stroke="black" stroke-width="0.980065" stroke-linecap="round" stroke-linejoin="round"/>
<path d="M192.927 120.517H169.23C168.678 120.517 168.148 120.298 167.758 119.907C167.367 119.517 167.148 118.987 167.147 118.435C167.148 117.883 167.368 117.355 167.758 116.965C168.149 116.575 168.678 116.356 169.23 116.356H192.927C193.205 116.349 193.481 116.398 193.739 116.5C193.998 116.601 194.233 116.753 194.432 116.947C194.63 117.141 194.788 117.373 194.896 117.629C195.004 117.884 195.059 118.159 195.059 118.437C195.059 118.714 195.004 118.989 194.896 119.245C194.788 119.501 194.63 119.733 194.432 119.926C194.233 120.12 193.998 120.273 193.739 120.374C193.481 120.476 193.205 120.524 192.927 120.517Z" stroke="black" stroke-width="0.980065" stroke-linecap="round" stroke-linejoin="round"/>
<path d="M76.8039 117C76.9289 116.875 77.3214 116.884 77.4289 116.884C77.8396 116.884 78.2336 117.047 78.524 117.337C78.8144 117.628 78.9776 118.022 78.9776 118.432C78.9776 118.843 78.8144 119.237 78.524 119.528C78.2336 119.818 77.8396 119.981 77.4289 119.981C77.0987 119.973 76.7794 119.862 76.5164 119.662C76.2533 119.462 76.06 119.185 75.9639 118.869" stroke="black" stroke-width="0.980065" stroke-linecap="round" stroke-linejoin="round"/>
<path d="M105.16 129.416H89.5525C89.0001 129.416 88.4707 129.196 88.0802 128.805C87.6898 128.415 87.4703 127.885 87.47 127.333C87.4716 126.781 87.6917 126.253 88.082 125.863C88.4723 125.474 89.001 125.254 89.5525 125.254H105.16C105.712 125.254 106.241 125.473 106.632 125.863C107.022 126.254 107.241 126.783 107.241 127.335C107.241 127.887 107.022 128.416 106.632 128.807C106.241 129.197 105.712 129.416 105.16 129.416Z" stroke="black" stroke-width="0.980065" stroke-linecap="round" stroke-linejoin="round"/>
<path d="M192.927 129.416H116.651C116.099 129.416 115.569 129.196 115.178 128.805C114.788 128.415 114.568 127.885 114.567 127.333C114.57 126.781 114.79 126.253 115.181 125.863C115.571 125.474 116.1 125.255 116.651 125.254H192.927C193.479 125.254 194.009 125.473 194.399 125.863C194.789 126.254 195.009 126.783 195.009 127.335C195.009 127.887 194.789 128.416 194.399 128.807C194.009 129.197 193.479 129.416 192.927 129.416Z" stroke="black" stroke-width="0.980065" stroke-linecap="round" stroke-linejoin="round"/>
<path d="M141.561 138.314H89.5525C89.0003 138.313 88.4708 138.094 88.0803 137.703C87.6898 137.313 87.4703 136.783 87.47 136.231C87.471 135.68 87.6908 135.151 88.0812 134.761C88.4717 134.371 89.0008 134.152 89.5525 134.152H141.561C142.104 134.166 142.62 134.391 143 134.78C143.379 135.168 143.591 135.69 143.591 136.233C143.591 136.776 143.379 137.298 143 137.687C142.62 138.075 142.104 138.3 141.561 138.314Z" stroke="black" stroke-width="0.980065" stroke-linecap="round" stroke-linejoin="round"/>
<path d="M192.927 138.314H153.052C152.5 138.313 151.97 138.094 151.579 137.704C151.189 137.313 150.969 136.784 150.968 136.231C150.97 135.68 151.19 135.151 151.581 134.761C151.971 134.372 152.5 134.153 153.052 134.152H192.927C193.47 134.166 193.986 134.391 194.366 134.78C194.745 135.168 194.957 135.69 194.957 136.233C194.957 136.776 194.745 137.298 194.366 137.687C193.986 138.075 193.47 138.3 192.927 138.314Z" stroke="black" stroke-width="0.980065" stroke-linecap="round" stroke-linejoin="round"/>
<path d="M78.9761 136.231C78.9756 136.537 78.8845 136.836 78.7142 137.09C78.5439 137.344 78.3021 137.542 78.0194 137.659C77.7366 137.776 77.4256 137.806 77.1256 137.746C76.8256 137.686 76.5501 137.539 76.3339 137.323C76.1177 137.106 75.9705 136.831 75.9108 136.53C75.8512 136.23 75.8818 135.919 75.9988 135.637C76.1158 135.354 76.3139 135.113 76.5682 134.942C76.8225 134.772 77.1214 134.681 77.4274 134.681C77.6309 134.681 77.8326 134.721 78.0207 134.799C78.2088 134.876 78.3798 134.991 78.5237 135.135C78.6676 135.279 78.7816 135.45 78.8592 135.638C78.9369 135.826 78.9766 136.028 78.9761 136.231Z" stroke="black" stroke-width="0.980065" stroke-linecap="round" stroke-linejoin="round"/>
<path d="M169.875 147.211H89.5525C89.0003 147.211 88.4708 146.991 88.0803 146.601C87.6898 146.21 87.4703 145.681 87.47 145.129C87.4716 144.577 87.6917 144.049 88.082 143.659C88.4723 143.27 89.001 143.051 89.5525 143.05H169.875C170.418 143.063 170.934 143.288 171.314 143.677C171.693 144.066 171.905 144.587 171.905 145.131C171.905 145.674 171.693 146.195 171.314 146.584C170.934 146.973 170.418 147.198 169.875 147.211Z" stroke="black" stroke-width="0.980065" stroke-linecap="round" stroke-linejoin="round"/>
<path d="M192.927 147.211H181.363C180.811 147.211 180.282 146.991 179.891 146.601C179.501 146.211 179.281 145.681 179.281 145.129C179.282 144.577 179.502 144.049 179.893 143.659C180.283 143.27 180.812 143.051 181.363 143.05H192.927C193.205 143.043 193.481 143.092 193.739 143.194C193.997 143.295 194.233 143.447 194.432 143.641C194.63 143.835 194.788 144.067 194.896 144.322C195.004 144.578 195.059 144.853 195.059 145.131C195.059 145.408 195.004 145.683 194.896 145.939C194.788 146.195 194.63 146.426 194.432 146.62C194.233 146.814 193.997 146.966 193.739 147.068C193.481 147.169 193.205 147.218 192.927 147.211Z" stroke="black" stroke-width="0.980065" stroke-linecap="round" stroke-linejoin="round"/>
<path d="M78.9761 145.125C78.9759 145.431 78.8849 145.73 78.7148 145.984C78.5446 146.239 78.3029 146.437 78.0202 146.554C77.7375 146.671 77.4265 146.701 77.1264 146.641C76.8263 146.582 76.5507 146.434 76.3344 146.218C76.118 146.002 75.9707 145.726 75.9109 145.426C75.8511 145.126 75.8817 144.815 75.9987 144.532C76.1156 144.249 76.3138 144.008 76.5681 143.838C76.8224 143.667 77.1214 143.576 77.4274 143.576C77.6308 143.576 77.8324 143.616 78.0204 143.693C78.2085 143.771 78.3793 143.885 78.5232 144.029C78.6671 144.173 78.7812 144.344 78.8589 144.532C78.9366 144.72 78.9764 144.922 78.9761 145.125Z" stroke="black" stroke-width="0.980065" stroke-linecap="round" stroke-linejoin="round"/>
<path d="M117.294 156.11H89.5525C89.0001 156.109 88.4707 155.89 88.0802 155.499C87.6898 155.108 87.4703 154.579 87.47 154.026C87.4716 153.475 87.6917 152.946 88.082 152.557C88.4723 152.167 89.001 151.948 89.5525 151.948H117.294C117.846 151.948 118.375 152.167 118.765 152.557C119.156 152.947 119.375 153.477 119.375 154.029C119.375 154.581 119.156 155.11 118.765 155.5C118.375 155.891 117.846 156.11 117.294 156.11Z" stroke="black" stroke-width="0.980065" stroke-linecap="round" stroke-linejoin="round"/>
<path d="M192.927 156.11H128.785C128.232 156.109 127.703 155.89 127.312 155.499C126.921 155.108 126.702 154.579 126.701 154.026C126.703 153.475 126.924 152.947 127.314 152.557C127.705 152.168 128.233 151.949 128.785 151.948H192.927C193.479 151.948 194.009 152.167 194.399 152.557C194.789 152.947 195.008 153.477 195.008 154.029C195.008 154.581 194.789 155.11 194.399 155.5C194.009 155.891 193.479 156.11 192.927 156.11Z" stroke="black" stroke-width="0.980065" stroke-linecap="round" stroke-linejoin="round"/>
<path d="M78.9761 154.026C78.9759 154.332 78.8849 154.631 78.7148 154.886C78.5446 155.14 78.3029 155.338 78.0202 155.455C77.7375 155.572 77.4265 155.602 77.1264 155.543C76.8263 155.483 76.5507 155.336 76.3344 155.119C76.118 154.903 75.9707 154.627 75.9109 154.327C75.8511 154.027 75.8817 153.716 75.9987 153.433C76.1156 153.151 76.3138 152.909 76.5681 152.739C76.8224 152.569 77.1214 152.478 77.4274 152.478C77.6308 152.477 77.8323 152.517 78.0202 152.595C78.2082 152.673 78.379 152.787 78.5229 152.931C78.6667 153.075 78.7808 153.245 78.8585 153.433C78.9363 153.621 78.9763 153.823 78.9761 154.026Z" stroke="black" stroke-width="0.980065" stroke-linecap="round" stroke-linejoin="round"/>
<path d="M49.6322 110.515H49.4872H49.3372C47.8356 110.438 46.4233 109.778 45.4016 108.675C44.3799 107.572 43.8296 106.113 43.8681 104.61C43.9066 103.107 44.5308 101.678 45.6076 100.629C46.6844 99.5794 48.1286 98.9922 49.6322 98.9925" stroke="black" stroke-width="0.980065" stroke-linecap="round" stroke-linejoin="round"/>
<path d="M41.4456 110.508H49.6318H49.4868C47.975 110.552 46.5412 111.188 45.4943 112.28C44.4474 113.371 43.8714 114.83 43.8904 116.343C43.9095 117.855 44.522 119.299 45.596 120.364C46.67 121.429 48.1194 122.029 49.6318 122.035" stroke="black" stroke-width="0.980065" stroke-linecap="round" stroke-linejoin="round"/>
<path d="M59.9827 110.515H60.1327H60.2777C61.7793 110.438 63.1916 109.778 64.2133 108.675C65.235 107.572 65.7853 106.113 65.7468 104.61C65.7083 103.107 65.0841 101.678 64.0073 100.629C62.9305 99.5794 61.4863 98.9922 59.9827 98.9925" stroke="black" stroke-width="0.980065" stroke-linecap="round" stroke-linejoin="round"/>
<path d="M68.1689 110.508H59.9827H60.1327C61.6448 110.552 63.0789 111.189 64.1257 112.281C65.1725 113.373 65.7481 114.832 65.7285 116.345C65.7088 117.858 65.0953 119.302 64.0205 120.366C62.9456 121.431 61.4954 122.03 59.9827 122.035" stroke="black" stroke-width="0.980065" stroke-linecap="round" stroke-linejoin="round"/>
<path d="M219.435 84.7313L230.424 78.3901L219.435 72.0438" stroke="black" stroke-width="0.980065" stroke-linecap="round" stroke-linejoin="round"/>
<path d="M208.155 72.0438L197.166 78.3901L208.155 84.7313" stroke="black" stroke-width="0.980065" stroke-linecap="round" stroke-linejoin="round"/>
<path d="M216.923 69.1762L210.355 87.51" stroke="black" stroke-width="0.980065" stroke-linecap="round" stroke-linejoin="round"/>
<path d="M207.196 173.93L208.976 168.526L213.199 155.705L217.425 168.526L219.205 173.93" stroke="black" stroke-width="0.980065" stroke-linecap="round" stroke-linejoin="round"/>
<path d="M208.976 168.526H217.424" stroke="black" stroke-width="0.980065" stroke-linecap="round" stroke-linejoin="round"/>
<path d="M228.349 170.784C227.189 173.271 225.016 174.715 223.504 174.011C221.991 173.308 221.709 170.715 222.869 168.224C224.029 165.733 226.197 164.293 227.714 164.996C228.18 165.283 228.555 165.696 228.794 166.188C229.033 166.68 229.127 167.23 229.065 167.774C229.046 168.817 228.802 169.844 228.349 170.784Z" stroke="black" stroke-width="0.980065" stroke-linecap="round" stroke-linejoin="round"/>
<path d="M229.061 167.738V167.774C229.283 169.963 227.944 175.726 231.436 173.38" stroke="black" stroke-width="0.980065" stroke-linecap="round" stroke-linejoin="round"/>
</svg>
