<svg width="40" height="40" viewBox="0 0 40 40" fill="none" xmlns="http://www.w3.org/2000/svg">
<path d="M3.8916 17.228C3.36952 16.7451 3.65311 15.8723 4.35928 15.7886L14.3652 14.6018C14.653 14.5677 14.903 14.3869 15.0244 14.1237L19.2448 4.9741C19.5426 4.32838 20.4606 4.32825 20.7585 4.97398L24.9788 14.1236C25.1002 14.3867 25.3486 14.5679 25.6364 14.6021L35.6429 15.7886C36.3491 15.8723 36.6319 16.7454 36.1098 17.2282L28.7129 24.0698C28.5002 24.2666 28.4054 24.5595 28.4619 24.8438L30.425 34.7266C30.5636 35.4241 29.8213 35.9645 29.2008 35.6171L20.4086 30.6943C20.1557 30.5528 19.8484 30.5534 19.5955 30.695L10.8024 35.6159C10.1819 35.9632 9.43824 35.424 9.57682 34.7266L11.5402 24.8444C11.5967 24.5601 11.5022 24.2666 11.2894 24.0698L3.8916 17.228Z" stroke="black" stroke-width="2" stroke-linecap="round" stroke-linejoin="round"/>
</svg>
