<svg width="40" height="40" viewBox="0 0 40 40" fill="none" xmlns="http://www.w3.org/2000/svg">
<path d="M28.3333 28.3333C26.4924 28.3333 25 29.8257 25 31.6667C25 33.5076 26.4924 35 28.3333 35C30.1743 35 31.6667 33.5076 31.6667 31.6667C31.6667 29.8257 30.1743 28.3333 28.3333 28.3333ZM28.3333 28.3333H15.4899C14.7215 28.3333 14.3366 28.3333 14.0202 28.1966C13.7411 28.076 13.499 27.8819 13.3226 27.6342C13.1248 27.3567 13.0453 26.9855 12.8879 26.2509L8.78581 7.10775C8.62473 6.35606 8.54311 5.98063 8.3431 5.69987C8.16669 5.45225 7.92461 5.25735 7.64553 5.13675C7.32909 5 6.94631 5 6.17756 5H5M10 10H31.4554C32.6583 10 33.2592 10 33.663 10.2506C34.0166 10.4701 34.2755 10.8144 34.3884 11.215C34.5173 11.6724 34.3517 12.2499 34.0183 13.4058L31.7106 21.4058C31.5113 22.0968 31.4116 22.4417 31.2093 22.6981C31.0308 22.9245 30.7953 23.1017 30.5284 23.2104C30.2269 23.3333 29.8685 23.3333 29.1535 23.3333H12.8841M13.3333 35C11.4924 35 10 33.5076 10 31.6667C10 29.8257 11.4924 28.3333 13.3333 28.3333C15.1743 28.3333 16.6667 29.8257 16.6667 31.6667C16.6667 33.5076 15.1743 35 13.3333 35Z" stroke="black" stroke-width="2" stroke-linecap="round" stroke-linejoin="round"/>
</svg>
