<svg width="40" height="40" viewBox="0 0 40 40" fill="none" xmlns="http://www.w3.org/2000/svg">
<path d="M15 13.3333C15 16.0948 17.2386 18.3333 20 18.3333C22.7614 18.3333 25 16.0948 25 13.3333M5 28.0003V12.0003C5 10.1335 5 9.19937 5.36331 8.48633C5.68289 7.85912 6.19245 7.34956 6.81966 7.02998C7.5327 6.66667 8.46682 6.66667 10.3337 6.66667H29.667C31.5338 6.66667 32.466 6.66667 33.179 7.02998C33.8062 7.34956 34.3175 7.85912 34.637 8.48633C35 9.19867 35 10.1317 35 11.9948V28.006C35 29.8692 35 30.8008 34.637 31.5131C34.3175 32.1403 33.8062 32.6508 33.179 32.9704C32.4667 33.3333 31.535 33.3333 29.6718 33.3333H10.3282C8.46499 33.3333 7.532 33.3333 6.81966 32.9704C6.19245 32.6508 5.68289 32.1403 5.36331 31.5131C5 30.8001 5 29.8672 5 28.0003Z" stroke="black" stroke-width="2" stroke-linecap="round" stroke-linejoin="round"/>
</svg>
