<svg width="40" height="40" viewBox="0 0 40 40" fill="none" xmlns="http://www.w3.org/2000/svg">
<path d="M22.1191 3.13187C21.6503 2.66319 21.0145 2.3999 20.3516 2.3999C19.6887 2.3999 19.0529 2.66319 18.5841 3.13187L1.96658 19.7469C1.85036 19.8631 1.75817 20.0011 1.69527 20.1529C1.63237 20.3048 1.6 20.4675 1.6 20.6319C1.6 20.7962 1.63237 20.959 1.69527 21.1108C1.75817 21.2627 1.85036 21.4007 1.96658 21.5169C2.2013 21.7516 2.51964 21.8834 2.85158 21.8834C3.01594 21.8834 3.17869 21.8511 3.33054 21.7882C3.48239 21.7253 3.62036 21.6331 3.73658 21.5169L5.35158 19.8994V33.1319C5.35158 34.1264 5.74667 35.0803 6.44993 35.7835C7.15319 36.4868 8.10702 36.8819 9.10158 36.8819H31.6016C32.5961 36.8819 33.55 36.4868 34.2532 35.7835C34.9565 35.0803 35.3516 34.1264 35.3516 33.1319V19.8994L36.9666 21.5169C37.2013 21.7516 37.5196 21.8834 37.8516 21.8834C38.1835 21.8834 38.5019 21.7516 38.7366 21.5169C38.9713 21.2822 39.1032 20.9638 39.1032 20.6319C39.1032 20.2999 38.9713 19.9816 38.7366 19.7469L32.8516 13.8644V5.63187C32.8516 5.30035 32.7199 4.98241 32.4855 4.74799C32.251 4.51356 31.9331 4.38187 31.6016 4.38187H29.1016C28.7701 4.38187 28.4521 4.51356 28.2177 4.74799C27.9833 4.98241 27.8516 5.30035 27.8516 5.63187V8.86437L22.1191 3.13187ZM32.8516 17.3994V33.1319C32.8516 33.4634 32.7199 33.7813 32.4855 34.0158C32.251 34.2502 31.9331 34.3819 31.6016 34.3819H9.10158C8.77006 34.3819 8.45212 34.2502 8.2177 34.0158C7.98327 33.7813 7.85158 33.4634 7.85158 33.1319V17.3994L20.3516 4.89937L32.8516 17.3994Z" fill="white"/>
</svg>
